<svg xmlns="http://www.w3.org/2000/svg" xmlns:xlink="http://www.w3.org/1999/xlink" viewBox="0 0 48 48"><defs><radialGradient id="t4eWkV04xpdL5ygg0T~26h" cx="19.535" cy="32.949" r="210.412" gradientTransform="rotate(6.047 -114.892 25.851) scale(1 .569)" gradientUnits="userSpaceOnUse"><stop offset="0" stop-color="#f7a937"/><stop offset=".966" stop-color="#d0691a"/><stop offset="1" stop-color="#cf6719"/></radialGradient><radialGradient id="t4eWkV04xpdL5ygg0T~26f" cx="-5.951" cy="29.37" r="40.318" gradientUnits="userSpaceOnUse"><stop offset="0" stop-color="#ffe382"/><stop offset="1" stop-color="#ffe382" stop-opacity="0"/></radialGradient><radialGradient id="t4eWkV04xpdL5ygg0T~26i" cx="18.598" cy="21.514" r="93.709" gradientTransform="matrix(1 0 0 .7 0 6.46)" gradientUnits="userSpaceOnUse"><stop offset="0" stop-color="#ffad45"/><stop offset="1" stop-color="#d66f04"/></radialGradient><radialGradient id="t4eWkV04xpdL5ygg0T~26e" cx="11.36" cy="25.575" r="21.305" gradientTransform="rotate(-88.856 -.069 36.778) scale(1 1.876)" gradientUnits="userSpaceOnUse"><stop offset="0" stop-color="#f7b85c"/><stop offset="1" stop-color="#f7a836"/></radialGradient><radialGradient id="t4eWkV04xpdL5ygg0T~26j" cx="33.286" cy="21.599" r="66.426" gradientTransform="matrix(1.029 0 0 .742 -.594 5.568)" gradientUnits="userSpaceOnUse"><stop offset="0" stop-color="#f6f9ff"/><stop offset="1" stop-color="#ab79f2"/></radialGradient><radialGradient id="t4eWkV04xpdL5ygg0T~26k" cx="18.081" cy="19.627" r="48.179" gradientTransform="matrix(1.029 0 0 .837 -.594 3.192)" gradientUnits="userSpaceOnUse"><stop offset="0" stop-color="#cdc4e8"/><stop offset="1" stop-color="#87599b"/></radialGradient><radialGradient id="t4eWkV04xpdL5ygg0T~26a" cx="17.995" cy="31.398" r="1.43" gradientUnits="userSpaceOnUse"><stop offset="0" stop-color="#f7fccc"/><stop offset="1" stop-color="#f2bd0c"/></radialGradient><radialGradient id="t4eWkV04xpdL5ygg0T~26l" cx="38.442" cy="26.721" r="1.195" xlink:href="#t4eWkV04xpdL5ygg0T~26a"/><radialGradient id="t4eWkV04xpdL5ygg0T~26m" cx="32.485" cy="31.576" r=".956" xlink:href="#t4eWkV04xpdL5ygg0T~26a"/><radialGradient id="t4eWkV04xpdL5ygg0T~26b" cx="35.078" cy="30.178" r="1.398" gradientUnits="userSpaceOnUse"><stop offset="0" stop-color="#dae5f2"/><stop offset=".989" stop-color="#6098eb"/></radialGradient><radialGradient id="t4eWkV04xpdL5ygg0T~26n" cx="22.335" cy="29.643" r="1.76" xlink:href="#t4eWkV04xpdL5ygg0T~26b"/><radialGradient id="t4eWkV04xpdL5ygg0T~26c" cx="27.671" cy="30.862" r="1.76" gradientUnits="userSpaceOnUse"><stop offset="0" stop-color="#fae0bb"/><stop offset=".994" stop-color="#f57c6e"/></radialGradient><radialGradient id="t4eWkV04xpdL5ygg0T~26o" cx="36.146" cy="27.866" r="1.307" xlink:href="#t4eWkV04xpdL5ygg0T~26c"/><radialGradient id="t4eWkV04xpdL5ygg0T~26p" cx="16.754" cy="29.133" r="1.466" xlink:href="#t4eWkV04xpdL5ygg0T~26c"/><radialGradient id="t4eWkV04xpdL5ygg0T~26d" cx="23.886" cy="32.543" r="1.466" gradientUnits="userSpaceOnUse"><stop offset=".006" stop-color="#f2d5e4"/><stop offset="1" stop-color="#e05598"/></radialGradient><radialGradient id="t4eWkV04xpdL5ygg0T~26q" cx="14.333" cy="30.747" r="1.126" xlink:href="#t4eWkV04xpdL5ygg0T~26d"/><radialGradient id="t4eWkV04xpdL5ygg0T~26r" cx="31.095" cy="29.359" r="1.76" xlink:href="#t4eWkV04xpdL5ygg0T~26d"/><radialGradient id="t4eWkV04xpdL5ygg0T~26s" cx="10.394" cy="27.691" r="1.011" xlink:href="#t4eWkV04xpdL5ygg0T~26b"/><radialGradient id="t4eWkV04xpdL5ygg0T~26t" cx="8.414" cy="25.057" r="1.261" xlink:href="#t4eWkV04xpdL5ygg0T~26b"/><radialGradient id="t4eWkV04xpdL5ygg0T~26u" cx="13.362" cy="28.347" r="1.581" xlink:href="#t4eWkV04xpdL5ygg0T~26a"/><radialGradient id="t4eWkV04xpdL5ygg0T~26v" cx="17.394" cy="9.669" r="29.818" gradientTransform="rotate(2.49 -76.23 7.641) scale(1 .579)" xlink:href="#t4eWkV04xpdL5ygg0T~26e"/><radialGradient id="t4eWkV04xpdL5ygg0T~26w" cx="23.589" cy="10.1" r="15.843" fx="39.092" gradientTransform="matrix(1 0 0 .374 0 10.108)" gradientUnits="userSpaceOnUse"><stop offset="0" stop-color="#f9d18a" stop-opacity=".6"/><stop offset="1" stop-color="#f9d18a" stop-opacity="0"/></radialGradient><radialGradient id="t4eWkV04xpdL5ygg0T~26x" cx="31.297" cy="16.813" r="15.843" fx="46.8" gradientTransform="matrix(.959 -.232 .129 .359 -.892 20.617)" xlink:href="#t4eWkV04xpdL5ygg0T~26f"/><radialGradient id="t4eWkV04xpdL5ygg0T~26y" cx="23.523" cy="21.511" r="18.343" gradientTransform="matrix(1 0 0 .432 0 13.956)" gradientUnits="userSpaceOnUse"><stop offset="0" stop-color="#b458d6"/><stop offset="1" stop-color="#b458d6" stop-opacity="0"/></radialGradient><linearGradient id="t4eWkV04xpdL5ygg0T~26g" x1="23.241" x2="29.423" y1="10.932" y2="90.969" gradientUnits="userSpaceOnUse"><stop offset="0" stop-color="#f7a938"/><stop offset=".194" stop-color="#ef9d31"/><stop offset=".698" stop-color="#de8422"/><stop offset="1" stop-color="#d77a1d"/></linearGradient><linearGradient id="t4eWkV04xpdL5ygg0T~26z" x1="23.444" x2="22.712" y1="11.248" y2="35.487" xlink:href="#t4eWkV04xpdL5ygg0T~26g"/></defs><g data-name="Bagel"><path fill="url(#t4eWkV04xpdL5ygg0T~26h)" d="M41.419,27.267c-.109.255-.159.532-.265.789a6.439,6.439,0,0,1-.381.767,9.172,9.172,0,0,1-1.006,1.386l-.055.064a12.306,12.306,0,0,1-2.4,2.066c-.28.188-.567.367-.858.537-6.993,4.071-18.357,4.071-25.389.01A13.01,13.01,0,0,1,7.7,30.2,7.8,7.8,0,0,1,6,27.169c0-.01-.009-.019,0-.029a1.587,1.587,0,0,1-.068-.224c.029.185.059.37.107.555.122.814.287,1.618.446,2.425.156.791.274,1.592.5,2.367.042.139.087.277.136.413A8.524,8.524,0,0,0,9.8,36.261c.071.059.143.118.215.175a14.563,14.563,0,0,0,1.737,1.173c6.641,3.837,17.393,3.837,23.995,0a12.873,12.873,0,0,0,2.613-1.962A8.5,8.5,0,0,0,40,33.445a6.657,6.657,0,0,0,.374-.9,22.33,22.33,0,0,0,.6-2.808q.184-.952.362-1.9c.049-.261.1-.521.153-.782A1.666,1.666,0,0,1,41.419,27.267Z"/><path fill="url(#t4eWkV04xpdL5ygg0T~26f)" d="M41.419,27.267c-.109.255-.159.532-.265.789a6.439,6.439,0,0,1-.381.767,9.172,9.172,0,0,1-1.006,1.386l-.055.064a12.306,12.306,0,0,1-2.4,2.066c-.28.188-.567.367-.858.537-6.993,4.071-18.357,4.071-25.389.01A13.01,13.01,0,0,1,7.7,30.2,7.8,7.8,0,0,1,6,27.169c0-.01-.009-.019,0-.029a1.587,1.587,0,0,1-.068-.224c.029.185.059.37.107.555.122.814.287,1.618.446,2.425.156.791.274,1.592.5,2.367.042.139.087.277.136.413A8.524,8.524,0,0,0,9.8,36.261c.071.059.143.118.215.175a14.563,14.563,0,0,0,1.737,1.173c6.641,3.837,17.393,3.837,23.995,0a12.873,12.873,0,0,0,2.613-1.962A8.5,8.5,0,0,0,40,33.445a6.657,6.657,0,0,0,.374-.9,22.33,22.33,0,0,0,.6-2.808q.184-.952.362-1.9c.049-.261.1-.521.153-.782A1.666,1.666,0,0,1,41.419,27.267Z" opacity=".5"/><path fill="url(#t4eWkV04xpdL5ygg0T~26i)" d="M41.492,27.044a8.923,8.923,0,0,1-3.536,4.837,15.326,15.326,0,0,1-1.5.995c-6.993,4.071-18.357,4.071-25.389.01a13,13,0,0,1-3.378-2.7,7.785,7.785,0,0,1-1.861-3.816,6.139,6.139,0,0,1,.349-3.088,8.451,8.451,0,0,1,1.934-2.93,13.59,13.59,0,0,1,2.878-2.186c6.983-4.061,18.348-4.061,25.379,0A11.706,11.706,0,0,1,40.7,22.178a6.585,6.585,0,0,1,.851,4.566C41.536,26.845,41.515,26.945,41.492,27.044Z"/><path fill="#fcc660" d="M36.365,18.171a10.832,10.832,0,0,1,4.7,4.729,7.315,7.315,0,0,1-.615,6.636,11.874,11.874,0,0,1-5.221,4.3,24.579,24.579,0,0,1-6.466,1.989,29.862,29.862,0,0,1-13.4-.813A19.5,19.5,0,0,1,9.3,32.015a8.3,8.3,0,0,1-3.477-5.64,9.36,9.36,0,0,0,3.769,5.254,19.479,19.479,0,0,0,5.928,2.86,29.939,29.939,0,0,0,13.147.736,23.993,23.993,0,0,0,6.325-1.9,11.357,11.357,0,0,0,5.023-4.059,7,7,0,0,0,.7-6.216A11.429,11.429,0,0,0,36.365,18.171Z"/><path fill="url(#t4eWkV04xpdL5ygg0T~26e)" d="M23.765,34.956a24.828,24.828,0,0,1-12.213-2.914,10.854,10.854,0,0,1-3.8-3.376c-.071-.1-.113-.173-.155-.243a2.163,2.163,0,0,1-.126-.225,1.206,1.206,0,0,0-.067-.116l-.1-.206c-.022-.04-.04-.085-.058-.127l-.133-.328c-.029-.071-.059-.142-.08-.213s-.049-.148-.065-.2a.964.964,0,0,0-.07-.253c-.676-2.861,1-5.66,4.581-7.739A24.636,24.636,0,0,1,23.657,16.1a24.841,24.841,0,0,1,12.221,2.915c3.669,2.111,5.369,4.952,4.664,7.794l-.023.089a1.516,1.516,0,0,0-.053.174.76.76,0,0,1-.039.126c-.046.141-.061.19-.082.238s-.118.294-.118.294c-.043.105-.081.179-.118.253a1.473,1.473,0,0,1-.084.165,1,1,0,0,0-.061.106c-.037.074-.074.14-.118.214a1.836,1.836,0,0,1-.12.178,10.929,10.929,0,0,1-3.765,3.39A24.65,24.65,0,0,1,23.765,34.956Z"/><path fill="url(#t4eWkV04xpdL5ygg0T~26j)" d="M40.806,21.423a11.084,11.084,0,0,0-5.288-8.453C30.7,9.932,24.153,9.377,18.631,10.361a17.75,17.75,0,0,0-8.6,3.749A10.365,10.365,0,0,0,6.39,21.521c-.02.419-.029.847-.02,1.285a1.142,1.142,0,0,0,.01.185,8.317,8.317,0,0,0,1.042,4.071,12.167,12.167,0,0,0,3.039,3.506,18.593,18.593,0,0,0,8.063,3.34,27.5,27.5,0,0,0,12.017-.4,15.552,15.552,0,0,0,7.548-4.149,10.346,10.346,0,0,0,2.522-4.9,10.467,10.467,0,0,0,.214-1.831A9.943,9.943,0,0,0,40.806,21.423ZM15.466,17.6a3.375,3.375,0,0,1,.935-1.353,1.92,1.92,0,0,1,.331-.3,1.892,1.892,0,0,1,.234-.185c.127-.088.243-.176.38-.254a.118.118,0,0,1,.058-.038,1.624,1.624,0,0,1,.224-.127c.01-.02.029-.029.039-.039l.059-.029.116-.059.176-.087a4.048,4.048,0,0,1,.457-.215q.293-.13.585-.233c.2-.068.409-.137.613-.2a4.822,4.822,0,0,1,.614-.166c.214-.058.419-.1.633-.136.428-.078.847-.136,1.276-.175.2-.01.418-.039.623-.049.253-.019.516-.029.779-.029a14.685,14.685,0,0,1,2.454.224c.292.049.575.107.837.175.186.049.371.088.546.146s.37.107.545.156a9.223,9.223,0,0,1,1.51.672c1.645.935,2.444,2.123,2.473,3.35a2.907,2.907,0,0,1-.058.487,1.847,1.847,0,0,1-.137.477,1.487,1.487,0,0,1-.214.458c-.01.019-.01.019-.01.029a3.172,3.172,0,0,1-.3.429l-.166.194a1.011,1.011,0,0,1-.166.2,4.507,4.507,0,0,1-.7.594c-.156.107-.311.224-.487.331a5.746,5.746,0,0,1-1.061.536,13.7,13.7,0,0,1-10.157-.029H18.5c-.02-.01-.039-.01-.059-.02h-.009a.037.037,0,0,0-.03-.01.328.328,0,0,0-.146-.068c-.048-.029-.107-.058-.146-.078-.078-.029-.165-.078-.282-.126-.029-.039-.117-.068-.117-.088a.87.87,0,0,1-.127-.078.678.678,0,0,1-.107-.068,1.776,1.776,0,0,1-.331-.214,3.261,3.261,0,0,1-.282-.224,4.068,4.068,0,0,1-1.4-1.753,1.343,1.343,0,0,1-.116-.331,1.852,1.852,0,0,1-.069-.322,2.04,2.04,0,0,1-.029-.331A2.448,2.448,0,0,1,15.466,17.6Z"/><path fill="url(#t4eWkV04xpdL5ygg0T~26k)" d="M31.96,18.645a2.37,2.37,0,0,1-.056.487,1.936,1.936,0,0,1-.133.477,4.352,4.352,0,0,1-.212.465c-.011.011-.011.011-.011.022a3.812,3.812,0,0,1-.3.433l-.167.2c-.045.065-.111.13-.167.2a4.563,4.563,0,0,1-.7.595c-.156.109-.312.217-.49.325a5.727,5.727,0,0,1-1.058.542,10.55,10.55,0,0,0-4.634-1.137,12.1,12.1,0,0,0-5,.844,3.863,3.863,0,0,1-.524.26h-.011c-.022-.011-.033-.011-.055-.021h-.012a.04.04,0,0,0-.033-.011.347.347,0,0,0-.145-.065.877.877,0,0,0-.145-.076c-.133-.076-.267-.141-.4-.217a.731.731,0,0,1-.122-.075c-.034-.022-.078-.044-.112-.065a2.122,2.122,0,0,1-.323-.217,3.074,3.074,0,0,1-.289-.227,4.01,4.01,0,0,1-1.4-1.754,1.921,1.921,0,0,1-.111-.325,1.707,1.707,0,0,1-.067-.325,1.819,1.819,0,0,1-.033-.336,2.477,2.477,0,0,1,.222-1.039,3.976,3.976,0,0,1,.936-1.353c.112-.109.212-.206.334-.3.078-.065.156-.129.234-.184.123-.086.245-.173.379-.249a.2.2,0,0,1,.056-.043c.066-.043.144-.087.222-.13a1.433,1.433,0,0,1,.223-.119,1.407,1.407,0,0,1,.167-.087c.145-.075.3-.151.457-.216.2-.087.39-.163.59-.238s.412-.13.613-.2.412-.119.613-.163.423-.1.634-.14c.424-.076.847-.13,1.27-.174.212-.011.424-.032.624-.043.256-.022.524-.032.78-.032a14.123,14.123,0,0,1,2.461.227c.279.054.557.108.836.173.178.043.367.087.546.141s.367.108.545.162a9.368,9.368,0,0,1,1.5.672C31.136,16.231,31.938,17.422,31.96,18.645Z"/><path fill="#ffdb3f" d="M17.7,21.958c-.044-.021-.078-.043-.122-.065a.664.664,0,0,1-.112-.075c.034.021.078.043.112.065A.731.731,0,0,0,17.7,21.958Z"/><circle cx="17.468" cy="31.793" r=".736" fill="url(#t4eWkV04xpdL5ygg0T~26a)"/><circle cx="38.003" cy="27.05" r=".614" fill="url(#t4eWkV04xpdL5ygg0T~26l)"/><circle cx="32.133" cy="31.84" r=".492" fill="url(#t4eWkV04xpdL5ygg0T~26m)"/><circle cx="34.564" cy="30.564" r=".719" fill="url(#t4eWkV04xpdL5ygg0T~26b)"/><circle cx="21.688" cy="30.129" r=".905" fill="url(#t4eWkV04xpdL5ygg0T~26n)"/><circle cx="27.023" cy="31.348" r=".905" fill="url(#t4eWkV04xpdL5ygg0T~26c)"/><circle cx="35.665" cy="28.227" r=".672" fill="url(#t4eWkV04xpdL5ygg0T~26o)"/><circle cx="16.215" cy="29.537" r=".754" fill="url(#t4eWkV04xpdL5ygg0T~26p)"/><circle cx="23.347" cy="32.948" r=".754" fill="url(#t4eWkV04xpdL5ygg0T~26d)"/><circle cx="13.919" cy="31.058" r=".579" fill="url(#t4eWkV04xpdL5ygg0T~26q)"/><circle cx="30.447" cy="29.845" r=".905" fill="url(#t4eWkV04xpdL5ygg0T~26r)"/><circle cx="10.022" cy="27.97" r=".52" fill="url(#t4eWkV04xpdL5ygg0T~26s)"/><circle cx="7.95" cy="25.405" r=".648" fill="url(#t4eWkV04xpdL5ygg0T~26t)"/><circle cx="12.78" cy="28.783" r=".813" fill="url(#t4eWkV04xpdL5ygg0T~26u)"/><path fill="url(#t4eWkV04xpdL5ygg0T~26v)" d="M40.787,15.3c-2.8-5.332-9.756-7.886-16.687-7.783-6.93-.1-13.891,2.451-16.687,7.783C1.91,25.78,13.005,28.7,24.1,28.792,35.2,28.7,46.29,25.78,40.787,15.3Z"/><path fill="url(#t4eWkV04xpdL5ygg0T~26w)" d="M40.587,15.358c-2.8-5.333-9.757-7.887-16.687-7.783-6.931-.1-13.891,2.45-16.687,7.783-5.5,10.48,5.592,13.4,16.687,13.492C34.995,28.754,46.09,25.838,40.587,15.358Z"/><path fill="url(#t4eWkV04xpdL5ygg0T~26x)" d="M40.587,15.358c-2.8-5.333-9.757-7.887-16.687-7.783-6.931-.1-13.891,2.45-16.687,7.783-5.5,10.48,5.592,13.4,16.687,13.492C34.995,28.754,46.09,25.838,40.587,15.358Z" opacity=".5"/><path fill="url(#t4eWkV04xpdL5ygg0T~26y)" d="M40.825,23.973a7.094,7.094,0,0,1-.214,1.5c-2.9,3.385-9.807,4.534-16.711,4.6-7.664-.064-15.338-1.484-17.52-5.8a.777.777,0,0,1-.01-.152c-.009-.359,0-.71.02-1.053,2.2,4.31,9.855,5.715,17.51,5.787C30.98,28.786,38.079,27.573,40.825,23.973Z"/><path fill="url(#t4eWkV04xpdL5ygg0T~26g)" d="M28.892,11.119a20.866,20.866,0,0,0-11.028,0c-3.038.991-3.021,2.6.036,3.586a20.825,20.825,0,0,0,11.028,0c3.027-.987,3.022-2.6-.036-3.586" opacity=".6"/><path fill="url(#t4eWkV04xpdL5ygg0T~26z)" d="M28.275,11.321a18.513,18.513,0,0,0-9.79,0c-2.7.879-2.682,2.3.032,3.183a18.5,18.5,0,0,0,9.789,0c2.687-.877,2.682-2.3-.031-3.183" opacity=".6"/><path fill="#f7a139" d="M6.158,21.815a6.7,6.7,0,0,0,3.094,3.891,16.673,16.673,0,0,0,4.707,1.87,44.381,44.381,0,0,0,10.122,1.042,45.483,45.483,0,0,0,10.1-1.16,16.873,16.873,0,0,0,4.677-1.887,8.558,8.558,0,0,0,1.9-1.644,5.845,5.845,0,0,0,1.144-2.25,6.482,6.482,0,0,1-2.877,4.148A15.319,15.319,0,0,1,34.3,27.891a40.784,40.784,0,0,1-10.214,1.186,40.811,40.811,0,0,1-10.206-1.191,15.824,15.824,0,0,1-4.729-2.022A6.794,6.794,0,0,1,6.158,21.815Z"/></g></svg>