<svg xmlns="http://www.w3.org/2000/svg" id="Layer_1" x="0" y="0" version="1.1" viewBox="0 0 128 128" xml:space="preserve"><path fill="#bf8f83" d="M114,89c0,19.3-22.4,25-50,25s-50-5.7-50-25s22.4-40,50-40S114,69.7,114,89z"/><path fill="#444b54" d="M64,46c-4.5,0-9.1,0.5-13.5,1.6c0,0,0,0,0,0c-0.6,0.1-1.1,0.4-1.6,0.9c-1.1,1.2-1,3.1,0.3,4.2l1.2,1 c7.1,6.2,16.9,14.8,22.2,26.4c0.5,1.1,1.6,1.8,2.7,1.8c0.4,0,0.8-0.1,1.2-0.3c1.5-0.7,2.2-2.5,1.5-4c-4.9-10.8-13.4-19.2-20.2-25.3 c2-0.2,4.1-0.4,6.2-0.4c3.2,0,6.3,0.3,9.2,0.8c6.4,6.4,13,13.1,17.7,26.4c0.4,1.2,1.6,2,2.8,2c0.3,0,0.7-0.1,1-0.2 c1.6-0.6,2.4-2.3,1.8-3.8c-3.3-9.4-7.5-15.8-11.9-21C100.4,63,111,76.7,111,89c0,7.8-4.2,13.3-12.8,17c-7.9,3.3-19.4,5-34.2,5 s-26.3-1.7-34.2-5C21.2,102.3,17,96.8,17,89c0-9,5.4-18.5,14.6-25.8c8.2,3.8,15.2,10.2,22,20c0.6,0.8,1.5,1.3,2.5,1.3 c0.6,0,1.2-0.2,1.7-0.5c1.4-0.9,1.7-2.8,0.8-4.2c-7.9-11.5-16.3-18.7-26.4-22.9c-0.1,0-0.2,0-0.2,0c-0.8-0.2-1.7-0.1-2.5,0.5 C17.9,65.9,11,77.7,11,89c0,18.6,17.8,28,53,28s53-9.4,53-28C117,68.7,94.3,46,64,46z"/></svg>