<svg xmlns="http://www.w3.org/2000/svg" id="Layer_1" x="0" y="0" version="1.1" viewBox="0 0 128 128" xml:space="preserve"><path fill="#bf8f83" d="M104,99c0,19.3-22.4,25-50,25S4,118.3,4,99s22.4-40,50-40S104,79.7,104,99z"/><path fill="#f7ead7" d="M124,55v-8h-8c-8.8,0-16,7.2-16,16c0-8.8-7.2-16-16-16h-8v8c0,8.8,7.2,16,16,16c0,0-4.6,0-8,0h-3 c-2.8,0-5,2.2-5,5v3c0,8.8,7.2,16,16,16c0,0-4.6,0-8,0h-3c-2.8,0-5,2.2-5,5v3c0,8.8,7.2,16,16,16h8h8c8.8,0,16-7.2,16-16v-3 c0-2.8-2.2-5-5-5h-3c-3.4,0-8,0-8,0c8.8,0,16-7.2,16-16v-3c0-2.8-2.2-5-5-5h-3c-3.4,0-8,0-8,0C116.8,71,124,63.8,124,55z"/><path fill="#444b54" d="M68 87.7c-4.9-10.8-13.4-19.2-20.2-25.3 5.2-.6 10.5-.5 15.7.5 1.6.3 3.2-.8 3.5-2.4s-.8-3.2-2.4-3.5c-8-1.5-16.2-1.3-24.1.6-1.6.4-2.6 2-2.2 3.6.1.6.5 1.1.9 1.5 0 0 0 0 0 0l1.2 1c7.1 6.2 16.9 14.8 22.2 26.4.5 1.1 1.6 1.8 2.7 1.8.4 0 .8-.1 1.2-.3C68 90.9 68.7 89.2 68 87.7zM68.5 120.4c-4.4.4-9.2.6-14.5.6-14.8 0-26.3-1.7-34.2-5C11.2 112.3 7 106.8 7 99c0-9 5.4-18.5 14.6-25.8 8.2 3.8 15.2 10.2 22 20 .6.8 1.5 1.3 2.5 1.3.6 0 1.2-.2 1.7-.5 1.4-.9 1.7-2.8.8-4.2-7.9-11.5-16.3-18.7-26.4-22.9-.1 0-.2 0-.2 0-.8-.2-1.7-.1-2.5.5C7.9 75.9 1 87.7 1 99c0 18.6 17.8 28 53 28 5.4 0 10.5-.2 15.1-.7 1.6-.2 2.9-1.6 2.7-3.3C71.6 121.4 70.1 120.2 68.5 120.4zM88 37c-1.7 0-3-1.3-3-3V14c0-1.7 1.3-3 3-3s3 1.3 3 3v20C91 35.7 89.7 37 88 37zM112 37c-1.7 0-3-1.3-3-3V14c0-1.7 1.3-3 3-3s3 1.3 3 3v20C115 35.7 113.7 37 112 37z"/><path fill="#444b54" d="M108,74c10.5,0,19-8.5,19-19v-8c0-1.7-1.3-3-3-3h-8c-5,0-9.6,2-13,5.2V4c0-1.7-1.3-3-3-3s-3,1.3-3,3v45.2 C93.6,46,89,44,84,44h-8c-1.7,0-3,1.3-3,3v8c0,10.5,8.5,19,19,19h5v18h-5c-7.2,0-13-5.8-13-13v-3c0-1.7-1.3-3-3-3s-3,1.3-3,3v3 c0,10.5,8.5,19,19,19h5v18h-5c-7.2,0-13-5.8-13-13v-2c0-1.7-1.3-3-3-3s-3,1.3-3,3v2c0,10.5,8.5,19,19,19h5v2c0,1.7,1.3,3,3,3 s3-1.3,3-3v-2h5c10.5,0,19-8.5,19-19v-3c0-1.7-1.3-3-3-3s-3,1.3-3,3v3c0,7.2-5.8,13-13,13h-5V98h5c10.5,0,19-8.5,19-19v-3 c0-1.7-1.3-3-3-3s-3,1.3-3,3v3c0,7.2-5.8,13-13,13h-5V74H108z M116,50h5v5c0,7.2-5.8,13-13,13h-5v-5C103,55.8,108.8,50,116,50z M79,55v-5h5c7.2,0,13,5.8,13,13v5h-5C84.8,68,79,62.2,79,55z"/></svg>