<svg xmlns="http://www.w3.org/2000/svg" viewBox="0 0 128 128"><path fill="#FFF" d="M59.8,42.6L114,64H68.1H14C14,53.2,33.9,44.2,59.8,42.6z"/><path fill="#FF697D" d="M14 64H114V104H14z"/><path fill="#C95065" d="M14 89H114V104H14z"/><path fill="#3F4A54" d="M114 107H14c-1.7 0-3-1.3-3-3V64c0-1.7 1.3-3 3-3s3 1.3 3 3v37h94v-9c0-1.7 1.3-3 3-3s3 1.3 3 3v12C117 105.7 115.7 107 114 107zM114 82c-.8 0-1.6-.3-2.1-.9-.6-.6-.9-1.3-.9-2.1s.3-1.6.9-2.1c.1-.1.3-.3.5-.4.2-.1.3-.2.5-.3.2-.1.4-.1.6-.2 1-.2 2 .1 2.7.8.6.6.9 1.3.9 2.1s-.3 1.6-.9 2.1c-.1.1-.3.3-.5.4-.2.1-.3.2-.5.3-.2.1-.4.1-.6.2C114.4 82 114.2 82 114 82z"/><path fill="#3F4A54" d="M68.1 67H14c-1.7 0-3-1.3-3-3s1.3-3 3-3h54.1c1.7 0 3 1.3 3 3S69.8 67 68.1 67zM114 67c-.4 0-.7-.1-1.1-.2L58.7 45.4c-1.5-.6-2.3-2.4-1.7-3.9.6-1.5 2.4-2.3 3.9-1.7l54.2 21.4c1.5.6 2.3 2.4 1.7 3.9C116.3 66.3 115.2 67 114 67z"/><g><path fill="#FF697D" d="M52 30.9A10 10 0 1 0 52 50.9A10 10 0 1 0 52 30.9Z"/><path fill="#3F4A54" d="M52,54c-0.5,0-1.1,0-1.6-0.1C43.9,53.1,39,47.5,39,41c0-7.2,5.8-13,13-13s13,5.8,13,13S59.2,54,52,54z M52,34c-3.9,0-7,3.1-7,7c0,3.5,2.6,6.5,6.1,6.9c0.3,0,0.6,0.1,0.9,0.1c3.9,0,7-3.1,7-7S55.9,34,52,34z"/><path fill="#FFF" d="M48.9,41.5c-0.8,0-1.6-0.3-2.1-0.9c-0.1-0.1-0.3-0.3-0.4-0.4c-0.1-0.2-0.2-0.3-0.3-0.5c-0.1-0.2-0.1-0.4-0.2-0.6c0-0.2-0.1-0.4-0.1-0.6c0-0.2,0-0.4,0.1-0.6c0-0.2,0.1-0.4,0.2-0.6c0.1-0.2,0.2-0.3,0.3-0.5c0.1-0.2,0.2-0.3,0.4-0.5c0.7-0.7,1.7-1,2.7-0.8c0.2,0,0.4,0.1,0.6,0.2c0.2,0.1,0.4,0.2,0.5,0.3c0.2,0.1,0.3,0.2,0.5,0.4c0.1,0.1,0.3,0.3,0.4,0.5c0.1,0.2,0.2,0.3,0.3,0.5c0.1,0.2,0.1,0.4,0.2,0.6c0,0.2,0.1,0.4,0.1,0.6c0,0.2,0,0.4-0.1,0.6c0,0.2-0.1,0.4-0.2,0.6c-0.1,0.2-0.2,0.4-0.3,0.5c-0.1,0.2-0.2,0.3-0.4,0.4c-0.1,0.1-0.3,0.3-0.5,0.4c-0.2,0.1-0.3,0.2-0.5,0.3c-0.2,0.1-0.4,0.1-0.6,0.2C49.3,41.5,49.1,41.5,48.9,41.5z"/><g><path fill="#FF697D" d="M72 30.9A10 10 0 1 0 72 50.9A10 10 0 1 0 72 30.9Z"/><path fill="#3F4A54" d="M72,54c-0.5,0-1.1,0-1.6-0.1C63.9,53.1,59,47.5,59,41c0-7.2,5.8-13,13-13s13,5.8,13,13S79.2,54,72,54z M72,34c-3.9,0-7,3.1-7,7c0,3.5,2.6,6.5,6.1,6.9c0.3,0,0.6,0.1,0.9,0.1c3.9,0,7-3.1,7-7S75.9,34,72,34z"/><path fill="#FFF" d="M68.9,41.5c-0.8,0-1.6-0.3-2.1-0.9c-0.6-0.6-0.9-1.3-0.9-2.1c0-0.2,0-0.4,0.1-0.6c0-0.2,0.1-0.4,0.2-0.6c0.1-0.2,0.2-0.3,0.3-0.5c0.1-0.2,0.2-0.3,0.4-0.5c1.1-1.1,3.1-1.1,4.2,0c0.1,0.1,0.3,0.3,0.4,0.5c0.1,0.2,0.2,0.3,0.3,0.5c0.1,0.2,0.1,0.4,0.2,0.6c0,0.2,0.1,0.4,0.1,0.6c0,0.8-0.3,1.6-0.9,2.1C70.5,41.2,69.7,41.5,68.9,41.5z"/></g></g><g><path fill="#3F4A54" d="M14,67c-1.7,0-3-1.3-3-3c0-7.6,7.1-14.3,20-18.9c1.6-0.6,3.3,0.3,3.8,1.8c0.6,1.6-0.3,3.3-1.8,3.8C23,54.3,17,59.3,17,64C17,65.7,15.7,67,14,67z"/></g></svg>