<svg xmlns="http://www.w3.org/2000/svg" id="Layer_1" x="0" y="0" version="1.1" viewBox="0 0 128 128" xml:space="preserve"><path fill="#fcca3d" d="M62,124h52c4.4,0,8-3.6,8-8V83.5c0-3.7-0.6-7.3-1.9-10.8l0,0c-5.9-16.6-17.7-30.5-33.1-39l0,0 c-3.2-1.8-7-2-10.4-0.6l-7.8,3.2c-19.6,8.1-37.2,20.4-51.7,35.8l0,0c-3.4,3.6-5.5,8.1-6.1,13l-0.6,4.2c-1,7.6-1,15.3,0,22.9 l0.6,4.6c0.5,4,3.9,7,7.9,7h17.1l0-0.1c0-7.2,5.8-13,13-13s13,5.8,13,13"/><path fill="#444b54" d="M101.1,110.9c-6.6,0-12-5.4-12-12c0-3.2,1.2-6.2,3.5-8.5c2.3-2.3,5.3-3.5,8.5-3.5c6.6,0,12,5.4,12,12 S107.7,110.9,101.1,110.9z M101.1,92.9c-1.6,0-3.1,0.6-4.2,1.8c-1.1,1.1-1.8,2.6-1.8,4.2c0,3.3,2.7,6,6,6s6-2.7,6-6 S104.4,92.9,101.1,92.9z"/><path fill="#444b54" d="M123,71.8c-6.1-17.3-18.4-31.7-34.5-40.6c-4-2.2-8.7-2.5-13-0.7l-7.8,3.2C47.7,42,29.9,54.3,15,70.2 c-3.8,4.1-6.2,9.2-6.9,14.7l-0.6,4.2c-1,7.9-1,15.8,0,23.7l0.6,4.6c0.7,5.5,5.4,9.6,10.9,9.6h17.1c1.7,0,3-1.4,3-3.1 c0-5.5,4.5-10,10-10c5.3,0,9.6,4.1,10,9.3c-0.1,0.3-0.1,0.5-0.1,0.8c0,1.7,1.3,3,3,3h52c6.1,0,11-4.9,11-11V83.5 C125,79.5,124.3,75.6,123,71.8z M119,116c0,2.8-2.2,5-5,5H64.9c-1.4-7.4-7.9-13.1-15.7-13.1c-7.8,0-14.3,5.6-15.7,13.1H19 c-2.5,0-4.6-1.9-5-4.4l-0.6-4.6c-1-7.4-1-14.8,0-22.2l0.6-4.2c0.2-1.3,0.5-2.5,0.8-3.7c0,0,0.1,0,0.1,0h73.7c1.7,0,3-1.3,3-3 s-1.3-3-3-3H18c0.4-0.6,0.9-1.2,1.4-1.7c14.3-15.3,31.4-27.1,50.7-35.1l7.8-3.2c2.5-1.1,5.4-0.9,7.8,0.4 c14.8,8.2,26.1,21.4,31.7,37.4c1.1,3.1,1.7,6.4,1.7,9.8V116z"/><path fill="#444b54" d="M66,66.2c-4.9,0-9.3-1.7-11.5-4.6c-1-1.3-0.8-3.2,0.5-4.2c1.3-1,3.2-0.8,4.2,0.5c0.9,1.2,3.8,2.4,7.3,2.3 c4.6-0.2,7.4-2.3,7.3-3.4c0-0.9-2-2.6-6-2.9c-1.7-0.1-2.9-1.6-2.8-3.2c0.1-1.7,1.6-2.9,3.2-2.8c6.6,0.5,11.4,4,11.5,8.6 c0.2,5.1-5.6,9.4-13.1,9.6C66.5,66.2,66.2,66.2,66,66.2z"/></svg>