<svg xmlns="http://www.w3.org/2000/svg" viewBox="0 0 128 128"><path fill="#BA7879" d="M112.7 87L82.7 72 87.7 72 117.7 87z"/><path fill="#BA7879" d="M82.7,82H43l3.3-58h-3.1c-1.8,0-3.4,1-4.3,2.5L13.7,70.3c-0.7,1-1.8,1.7-3,1.7h-3v6.9c0,1.9,1.1,3.6,2.8,4.5l4.1,2l21.1,10.5c1.4,0.7,2.9,1.1,4.5,1.1h72.6L82.7,82z"/><path fill="#D39497" d="M82.7,82H43l3.3-58h-3.1c-1.8,0-3.4,1-4.3,2.5L13.7,70.3c-0.7,1-1.8,1.7-3,1.7h-3v6.9c0,1.9,1.1,3.6,2.8,4.5l4.1,2l21.1,10.5c1.4,0.7,2.9,1.1,4.5,1.1h72.6L82.7,82z"/><path fill="#D39497" d="M49.7,72l24.2-45.4c0.9-1.6,2.6-2.6,4.4-2.6h3.1l-0.7,63"/><path fill="#C18A8F" d="M65.7 41.9L52.9 66 52.8 73.5 79.8 90.8 80.7 87z"/><path fill="#96666C" d="M111.7,85L84.1,25.7c-0.5-1.1-1.5-1.7-2.7-1.7h0c-1.7,0-3,1.4-3,3.1l2.2,56.2c0.1,2-1.5,3.7-3.5,3.7l0,0c-1.4,0-2.7-0.9-3.2-2.2L49,25.8c-0.5-1.1-1.5-1.8-2.8-1.8h-0.1c-1.6,0-3,1.3-3,3l-0.5,56.6c0,1.9-1.6,3.5-3.5,3.5h-1.5l-30-15v6.9c0,1.9,1.1,3.6,2.8,4.5l25.1,12.6c1.4,0.7,2.9,1.1,4.5,1.1h77.6V87h-2.8C113.5,87,112.3,86.2,111.7,85z"/><path fill="#3F4A54" d="M39.2 90c-1.7 0-3-1.3-3-3s1.3-3 3-3c.3 0 .5-.2.5-.5l.5-45.3c0-1.7 1.3-3 3-3 1.7 0 3 1.4 3 3l-.5 45.3C45.7 87.1 42.7 90 39.2 90zM77 90c-2.6 0-5-1.6-6-4-.6-1.5.1-3.3 1.6-3.9 1.5-.6 3.3.1 3.9 1.6.1.2.3.3.5.3 1.7 0 3 1.3 3 3S78.7 90 77 90z"/><path fill="#3F4A54" d="M77 90c-1.7 0-3-1.3-3-3s1.3-3 3-3c.2 0 .3-.1.4-.2.1-.1.2-.2.1-.4l-1.7-45.2c-.1-1.7 1.2-3 2.9-3.1 1.7-.1 3 1.2 3.1 2.9l1.7 45.2c.1 1.8-.6 3.5-1.8 4.8C80.5 89.3 78.8 90 77 90zM64 63.5c-1.2 0-2.3-.7-2.8-1.8L46.3 27c-1.7 0-3-1.4-3-3 0-1.7 1.3-3 3-3 2.4 0 4.6 1.4 5.5 3.7l15 34.6c.7 1.5 0 3.3-1.6 3.9C64.8 63.4 64.4 63.5 64 63.5zM117.7 90c-4.2 0-8.1-2.5-9.8-6.3L81.3 27c-1.7 0-3-1.3-3-3s1.4-3 3-3c2.3 0 4.4 1.4 5.4 3.5l26.5 56.7c.8 1.7 2.5 2.8 4.4 2.8 1.7 0 3 1.3 3 3S119.3 90 117.7 90z"/><path fill="#3F4A54" d="M67.7 41.2c-.5 0-1-.1-1.4-.4-1.5-.8-2-2.6-1.2-4.1l6.1-11.5c1.4-2.6 4.1-4.2 7.1-4.2h3.1c1.7 0 3 1.3 3 3s-1.3 3-3 3h-3.1c-.7 0-1.4.4-1.8 1.1l-6.1 11.5C69.8 40.6 68.8 41.2 67.7 41.2zM117.7 100H40c-2 0-4-.5-5.8-1.4L7.1 85.1c-1.5-.7-2.1-2.5-1.3-4 .7-1.5 2.5-2.1 4-1.3l27.1 13.6c1 .5 2 .7 3.1.7h77.6c1.7 0 3 1.3 3 3S119.3 100 117.7 100zM10.7 75h-3c-1.7 0-3-1.3-3-3s1.3-3 3-3h3c.2 0 .4-.1.5-.2l25-43.7c1.4-2.5 4.1-4 6.9-4h3.1c1.7 0 3 1.3 3 3s-1.3 3-3 3h-3.1c-.7 0-1.4.4-1.7 1L16.3 71.8c0 0 0 .1-.1.1C15 73.9 13 75 10.7 75z"/></svg>