<svg xmlns="http://www.w3.org/2000/svg" viewBox="0 0 128 128"><path fill="#fff" d="M45.5,116.8h37c4.5,0,8.3-3.399,8.7-7.8L99.1,37.6H28.8l7.9,71.4C37.2,113.4,41,116.8,45.5,116.8"/><path fill="#e7e7e7" d="M93.457,88.6h-13.7L77.5,109c-0.5,4.4-4.3,7.8-8.8,7.8h13.8c4.5,0,8.3-3.399,8.7-7.8L93.457,88.6 M99.1,37.6H85.4l-2.235,20.2H86.4h10.464L99.1,37.6"/><path fill="#a8b2c6" d="M24.4 23.3L103.6 23.3 103.6 36.5 24.4 36.5 24.4 23.3"/><path fill="#99a2b4" d="M103.6 24.4L89.8 24.4 89.8 36.5 103.6 36.5 103.6 24.4"/><path fill="#a8b2c6" d="M33.2 24.4L38.1 11.2 89.8 11.2 94.8 24.4 33.2 24.4"/><path fill="#99a2b4" d="M89.8 11.2L76 11.2 81 24.4 94.8 24.4 94.383 23.3 89.8 11.2"/><path fill="#f37c7e" d="M97 88.6L31 88.6 27.5 57.8 100.5 57.8 97 88.6"/><path fill="#dc7173" d="M100.2 57.8L96.865 57.8 86.4 57.8 83 88.6 96.8 88.6 100.2 57.8"/><path fill="#f4f1e7" d="M63.7,64.4c4.86,0,8.8,3.939,8.8,8.8S68.561,82,63.7,82s-8.8-3.939-8.8-8.8S58.84,64.4,63.7,64.4z"/><path fill="#464c55" d="M103.6,21.4h-6.7l-4.3-11.3c-0.4-1.1-1.5-1.9-2.8-1.9H38.1c-1.2,0-2.4,0.7-2.8,1.9l-4.2,11.3h-6.7 c-1.7,0-3,1.3-3,3v13.2c0,1.7,1.3,3,3,3h1.8l7.6,68.7c0.6,6,5.7,10.5,11.7,10.5h37c6,0,11.1-4.5,11.9-10.4l7.6-68.8h1.6 c1.7,0,3-1.3,3-3V24.4C106.6,22.7,105.3,21.4,103.6,21.4z M40.2,14.2h47.5l2.7,7.2H37.5L40.2,14.2z M27.4,27.4h5.8h61.6h5.8v7.2 H27.4V27.4z M88.4,108.7c-0.4,3-2.8,5.2-5.8,5.2h-37c-3,0-5.5-2.3-5.8-5.2l-7.5-68.1H96L88.4,108.7z"/><path fill="#464c55" d="M97,91.6H31c-1.5,0-2.8-1.1-3-2.7l-3.4-30.8c-0.1-0.8,0.2-1.7,0.7-2.3c0.6-0.6,1.4-1,2.2-1h72.9 c0.9,0,1.7,0.4,2.2,1c0.6,0.6,0.8,1.5,0.7,2.3L100,89C99.9,90.5,98.6,91.6,97,91.6z M33.6,85.6h60.7l2.8-24.8H30.9L33.6,85.6z"/></svg>