<svg xmlns="http://www.w3.org/2000/svg" viewBox="0 0 128 128"><path fill="#fff" d="M98.2,116.8l-22.2-9c-1.5,5.3-7.7,8.3-12.2,8.9v0.1c-0.7,0-1.9-0.1-2-0.1c-4.3-0.8-8.3-3.7-9.7-8.8 l-22.2,9l0,0C52,123.9,76,123.9,98.2,116.8L98.2,116.8z"/><path fill="#f7ebde" d="M76,102v6.5l0,0c-3.5,12-20.5,12-23.9,0l0,0V102"/><path fill="#f7ebde" d="M96.3,59.8c0-26.4-13.1-39.9-32.3-39.9S31.7,33.5,31.7,59.8c-6.2,0.5-4.8,14.6,2.2,13.8 c2,5.7,4.2,10.4,6.5,14.4c7.9,13.5,16.9,17.5,23.5,17.5c8.5,0,21.1-6.6,30-31.8C101.1,74.4,102.5,60.3,96.3,59.8z"/><path fill="#454b54" d="M30 120.5c-1.2 0-2.3-.7-2.8-1.9-.6-1.5.1-3.3 1.6-3.9l22.1-9c1.5-.6 3.3.1 3.9 1.6.6 1.5-.1 3.3-1.6 3.9l-22.1 9C30.7 120.4 30.3 120.5 30 120.5zM98.1 120.5c-.4 0-.8-.1-1.1-.2l-22.1-9c-1.5-.6-2.3-2.4-1.6-3.9.6-1.5 2.4-2.3 3.9-1.6l22.1 9c1.5.6 2.3 2.4 1.6 3.9C100.4 119.8 99.2 120.5 98.1 120.5z"/><path fill="#454b54" d="M64,120.5c-7.1,0-12.9-4.4-14.8-11.2c-0.5-1.6,0.5-3.3,2.1-3.7c1.6-0.5,3.3,0.5,3.7,2.1 c1.5,5.1,5.6,6.9,9.1,6.9s7.6-1.8,9.1-6.9c0.5-1.6,2.1-2.5,3.7-2.1c1.6,0.5,2.5,2.1,2.1,3.7C76.9,116.1,71.1,120.5,64,120.5z"/><path fill="#454b54" d="M64,108.4c-5.4,0-16-2.3-25.5-18c-0.9-1.4-0.4-3.3,1-4.1c1.4-0.9,3.3-0.4,4.1,1 c8,13.2,16.2,15.1,20.4,15.1c5,0,17.6-2.9,27.2-29.8c0.6-1.6,2.3-2.4,3.8-1.8c1.6,0.6,2.4,2.3,1.8,3.8C86,105.1,70.3,108.4,64,108.4 z"/><path fill="#c88b79" d="M96.7,59.9c-0.101,0-0.2,0-0.4,0C96.3,33.5,83.2,20,64,20c-14,0-24.8,7.2-29.6,21.4 c-1.7,4.9-2.6,10.6-2.7,17.1c7.712-18.368,17.85-11.435,31.374-4.503C72.521,58.84,83.621,63.684,96.7,59.9"/><path fill="#454b54" d="M87.1,64.3c-10.899,0-20.3-4.9-28.2-9c-6.8-3.6-12.7-6.6-16.9-5.1c-2.8,1-5.3,4.1-7.5,9.4 c-0.6,1.5-2.4,2.2-3.9,1.6c-1.5-0.6-2.2-2.4-1.6-3.9c2.9-7,6.5-11.1,11-12.8c6.7-2.4,13.7,1.2,21.7,5.4C71.5,55,82.6,60.8,95.8,57 c1.601-0.5,3.3,0.4,3.7,2c0.5,1.6-0.4,3.3-2,3.7C93.9,63.8,90.4,64.2,87.1,64.3"/><path fill="#fff" d="M59.864,55.8H36.34c-0.635,1.109-1.248,2.375-1.84,3.8c-0.455,1.137-1.599,1.814-2.78,1.814 c-0.179,0-0.358-0.015-0.536-0.047c0.204,5.363,0.505,13.239,0.515,13.239c0,0,0-0.002,0-0.006c0,2.601,2.1,4.7,4.7,4.7h17 c2.1,0,4-1.5,4.5-3.6l1-5.9c0.2-1.3,1.4-2.3,2.8-2.3c1.4,0,2.5,1,2.8,2.3l1,5.9c0.5,2.1,2.4,3.6,4.5,3.6h17c2.6,0,4.7-2.1,4.7-4.7 l0.414-10.714c-1.712,0.243-3.388,0.365-5.015,0.414C76.64,64.3,67.561,59.788,59.864,55.8"/><path fill="#faf4f2" d="M90.7,55.8H74.419c4.027,1.448,8.273,2.424,12.777,2.424c1.682,0,3.399-0.136,5.154-0.435L92.4,56.5 C92,56,91.4,55.8,90.7,55.8"/><path fill="#ededee" d="M74.419,55.8H59.864c7.697,3.988,16.776,8.5,27.236,8.5c1.627-0.049,3.303-0.171,5.015-0.414 l0.236-6.096c-1.756,0.299-3.473,0.435-5.154,0.435C82.693,58.224,78.447,57.247,74.419,55.8"/><path fill="#fff" d="M98.9,81.3l-8.1-1.4L96.3,48l8.1,1.4c3.5,0.6,5.8,4,5.2,7.5L106.3,76 C105.7,79.5,102.4,81.9,98.9,81.3z"/><path fill="#454b54" d="M100,84.4c-0.5,0-1.1,0-1.6-0.1L90.8,83c-1.6-0.3-2.7-1.8-2.5-3.4l5-32c0.1-0.8,0.6-1.5,1.2-2 s1.5-0.6,2.3-0.5l8.1,1.4c5.1,0.9,8.6,5.8,7.6,11l-3.4,19.1C108.5,81.1,104.6,84.4,100,84.4z M94.8,77.5l4.6,0.8 c0.2,0,0.4,0.1,0.6,0.1c1.7,0,3.1-1.2,3.4-2.9l3.4-19.1c0.3-1.9-0.9-3.7-2.8-4l-5.1-0.9L94.8,77.5z"/><path fill="#fff" d="M29.1,81.3l8.1-1.4L31.7,48l-8.1,1.4c-3.5,0.6-5.8,4-5.2,7.5L21.7,76C22.3,79.5,25.6,81.9,29.1,81.3z"/><path fill="#454b54" d="M28,84.4L28,84.4c-4.6,0-8.5-3.3-9.3-7.8l-3.4-19.1c-0.9-5.1,2.5-10,7.6-11l8.1-1.4 c0.8-0.1,1.6,0,2.2,0.5c0.7,0.5,1.1,1.2,1.2,1.9L40,79.3c0.3,1.6-0.8,3.2-2.4,3.5l-8.1,1.4C29.1,84.3,28.6,84.4,28,84.4z M29.2,51.5 L24,52.4c-1.9,0.3-3.1,2.1-2.8,4l3.4,19.1c0.3,1.7,1.7,2.9,3.4,2.9l0,0c0.2,0,0.4,0,0.6-0.1l5.2-0.9L29.2,51.5z"/><path fill="#454b54" d="M25.4,50.8h-0.1c-1.7-0.1-2.9-1.5-2.9-3.1C23.3,25.1,41.5,7.5,64,7.5c22.1,0,40.3,17.3,41.5,39.4 c0.1,1.7-1.2,3.1-2.8,3.2c-1.7,0.1-3.1-1.2-3.2-2.8c-1-18.9-16.6-33.7-35.5-33.7c-19.2,0-34.8,15.1-35.6,34.4 C28.4,49.5,27,50.8,25.4,50.8z"/><path fill="#454b54" d="M96.3,62.8c-1.7,0-3-1.3-3-3c0-23.4-10.7-36.9-29.3-36.9c-12.8,0-21.9,6.3-26.3,18.2 c-0.6,1.6-2.3,2.3-3.9,1.8c-1.6-0.6-2.3-2.3-1.8-3.9c5.4-14.2,16.7-22.1,32-22.1c22.1,0,35.3,16,35.3,42.9 C99.3,61.5,97.9,62.8,96.3,62.8z"/></svg>