<svg xmlns="http://www.w3.org/2000/svg" id="Layer_1" x="0" y="0" version="1.1" viewBox="0 0 128 128" xml:space="preserve"><path fill="#fff" d="M40,32c0,13.8,10.5,35,23.7,35s24-21.2,24-35l0.3-8H64H40V32z"/><polygon fill="#b5a809" points="91,29 80,1 53,1 39,8 37,29 37.3,29.1"/><path fill="#7b7c3c" d="M91,29L88.3,3.7c-0.2-1.5-1.4-2.7-3-2.7H80l0,14.1c0,3.1-2.4,5.8-5.5,6c-3.5,0.3-7.1,0.4-10.7,0.4 c0,0,0,0,0,0c-2.6,0-5.1-0.1-7.7-0.2c-1.7-0.1-3.2,1.3-3.2,3v6.8C61.5,31.3,78.3,31.4,91,29z"/><path fill="#e4e4e7" d="M109,114.7C109,89.9,88.9,81,64,81h0c-24.9,0-45,8.9-45,33.7v9.3h40L109,114.7z"/><path fill="#aeb3b7" d="M89,85.1V107c0,3.3-2.7,6-6,6H62c-1.7,0-3,1.3-3,3l0,8h50v-9.2l0,0C109,99.1,101.1,89.8,89,85.1z"/><path fill="#444b54" d="M19,127c-1.7,0-3-1.3-3-3v-9.2c0-19.3,11.2-31.5,32.5-35.4c1.6-0.3,3.2,0.8,3.5,2.4c0.3,1.6-0.8,3.2-2.4,3.5 C31.3,88.6,22,98.5,22,114.8v9.2C22,125.7,20.7,127,19,127z"/><path fill="#444b54" d="M109,127c-1.7,0-3-1.3-3-3v-9.2c0-16.2-9.3-26.2-27.5-29.5c-1.6-0.3-2.7-1.9-2.4-3.5c0.3-1.6,1.9-2.7,3.5-2.4 c21.2,3.9,32.5,16.2,32.5,35.4v9.2C112,125.7,110.7,127,109,127z"/><path fill="#444b54" d="M49,127c-1.7,0-3-1.3-3-3v-5.2c0-1.7,1.3-3,3-3s3,1.3,3,3v5.2C52,125.7,50.7,127,49,127z"/><path fill="#444b54" d="M79,127c-1.7,0-3-1.3-3-3v-5.2c0-1.7,1.3-3,3-3s3,1.3,3,3v5.2C82,125.7,80.7,127,79,127z"/><path fill="#444b54" d="M49,107c-1.7,0-3-1.3-3-3v-5.2c0-1.7,1.3-3,3-3s3,1.3,3,3v5.2C52,105.7,50.7,107,49,107z"/><path fill="#444b54" d="M79,107c-1.7,0-3-1.3-3-3v-5.2c0-1.7,1.3-3,3-3s3,1.3,3,3v5.2C82,105.7,80.7,107,79,107z"/><path fill="#444b54" d="M63.7,70c-8.5,0-19.5-8-25-25.8c-0.5-1.6,0.4-3.3,2-3.8c1.6-0.5,3.3,0.4,3.8,2C47.8,53.1,55.5,64,63.7,64 C74.3,64,85,45.4,85,32H40c-1.7,0-3-1.3-3-3s1.3-3,3-3h48c1.7,0,3,1.3,3,3v3c0,7.5-2.9,16.8-7.6,24.3C77.8,65.1,70.8,70,63.7,70z"/><path fill="#efde97" d="M53,5V1H42.4c-1.5,0-2.8,1.2-3,2.7L39,8h11C51.7,8,53,6.7,53,5z"/></svg>