<svg xmlns="http://www.w3.org/2000/svg" id="Layer_1" x="0" y="0" version="1.1" viewBox="0 0 128 128" xml:space="preserve"><path fill="#e4e4e7" d="M101.5,45c-6-0.4-11.6,1.5-16,4.8c-0.8-1.7-1.8-3.3-2.9-4.9l-71.3,0C6.7,51.9,4,60.1,4,69 c0,12.3,5.1,26,13.4,36.4l3.8,5.9c0.8,1.2,2.1,2.1,3.6,2.2c13.8,1.7,27.7,1.8,41.5,0.3c1.4-0.2,2.7-0.9,3.5-2.1l4.9-6.8 c4.5-5.5,8.2-11.6,10.8-16.9c4,3.1,9,4.9,14.5,4.9c13.8,0,24.8-11.6,24-25.5C123.2,55.5,113.4,45.8,101.5,45z M100,79 c-5.5,0-10-4.5-10-10s4.5-10,10-10s10,4.5,10,10S105.5,79,100,79z"/><path fill="#c9c9c9" d="M69.9,104.4c-0.7,0-1.3-0.2-1.9-0.7c-1.3-1-1.5-2.9-0.4-4.2l0.1-0.1c3.6-4.5,7.1-9.9,9.8-15.3 c0.7-1.5,2.5-2.1,4-1.3c1.5,0.7,2.1,2.5,1.3,4c-2.9,5.8-6.6,11.6-10.5,16.4l-0.1,0.1C71.6,104.1,70.8,104.4,69.9,104.4z M100,90 c-1.7,0-3-1.3-3-3s1.3-3,3-3c4.2,0,8.1-1.7,10.9-4.7c2.9-3,4.3-7,4-11.2c-0.1-1.7,1.2-3.1,2.8-3.2c1.7-0.1,3.1,1.2,3.2,2.8 c0.4,5.9-1.6,11.5-5.7,15.7C111.3,87.6,105.9,90,100,90z"/><path fill="#fff" d="M61.6,123.4l2.3-3.2c-12.3,1.1-24.8,1-37.1-0.3l2,3.1L61.6,123.4z"/><path fill="#444b54" d="M100,82c-7.2,0-13-5.8-13-13s5.8-13,13-13s13,5.8,13,13S107.2,82,100,82z M100,62c-3.9,0-7,3.1-7,7 s3.1,7,7,7s7-3.1,7-7S103.9,62,100,62z"/><path fill="#444b54" d="M100,42c-4.8,0-9.3,1.2-13.4,3.6c-0.5-0.8-0.9-1.6-1.4-2.3c-0.6-0.8-1.5-1.3-2.5-1.3c0,0,0,0,0,0l-71.3,0 c-1,0-1.9,0.5-2.5,1.3C3.7,50.9,1,59.8,1,69c0,12.9,5.2,27.2,14,38.3c0.6,0.7,1.5,1.1,2.4,1.1c0.7,0,1.3-0.2,1.9-0.6 c1.3-1,1.5-2.9,0.5-4.2C11.9,93.6,7,80.4,7,69c0-7.5,2.1-14.7,5.9-21L81,48c0.7,1.1,1.3,2.1,1.8,3.2c0.7,1.5,2.5,2.1,4,1.3 c0.2-0.1,0.4-0.2,0.5-0.3c3.7-2.8,8-4.2,12.6-4.2c11.6,0,21,9.4,21,21s-9.4,21-21,21c-4.6,0-9-1.5-12.7-4.3c-1.3-1-3.2-0.7-4.2,0.6 c-0.1,0.1-0.2,0.3-0.3,0.5c0,0,0,0,0,0c0,0,0,0,0,0c0,0,0,0,0,0c-2.9,5.7-6.6,11.5-10.5,16.3c-1,1.3-0.8,3.2,0.4,4.2 c0.6,0.5,1.2,0.7,1.9,0.7c0.9,0,1.7-0.4,2.3-1.1c4.2-5.2,7.4-10.4,9.6-14.5c4.1,2.3,8.6,3.5,13.4,3.5c14.9,0,27-12.1,27-27 S114.9,42,100,42z"/><path fill="#444b54" d="M47,127c-14.7,0-29.4-1.7-43.7-5.1c-1.6-0.4-2.6-2-2.2-3.6s2-2.6,3.6-2.2c27.7,6.5,56.9,6.5,84.6,0 c1.6-0.4,3.2,0.6,3.6,2.2s-0.6,3.2-2.2,3.6C76.4,125.3,61.7,127,47,127z"/><g><path fill="#fff" d="M28.4,99.7c-0.9,0-1.8-0.4-2.4-1.1c-1-1.3-2.1-2.7-3-4.2c-0.9-1.4-0.5-3.3,0.9-4.1c1.4-0.9,3.3-0.5,4.1,0.9 c0.8,1.3,1.7,2.5,2.6,3.7c1,1.3,0.8,3.2-0.5,4.2C29.7,99.5,29,99.7,28.4,99.7z"/></g><g><path fill="#fff" d="M19.1,80.9c-1.4,0-2.6-0.9-2.9-2.3C15.4,75.3,15,72,15,69c0-3.8,0.7-7.5,2-11c0.6-1.6,2.3-2.4,3.9-1.8 c1.6,0.6,2.4,2.3,1.8,3.9c-1.1,2.9-1.6,5.9-1.6,9c0,2.6,0.4,5.3,1,8.2c0.4,1.6-0.6,3.2-2.2,3.6C19.6,80.8,19.4,80.9,19.1,80.9z"/></g></svg>