<svg xmlns="http://www.w3.org/2000/svg" viewBox="0 0 479.999 479.999"><path fill="#ffebd2" d="M363.999,400.319v-280.51c14.99-9.61,24.74-26.68,23.96-45.98c-1.09-26.81-22.87-48.63-49.68-49.78	c-11.52-0.49-22.25,2.77-31.08,8.66c-6.79,4.53-15.81,3.27-21.03-3.01c-23.988-28.917-68.324-28.95-92.34,0	c-5.22,6.28-14.24,7.54-21.03,3.01c-8.83-5.89-19.56-9.15-31.08-8.66c-26.81,1.15-48.59,22.97-49.68,49.78	c-0.78,19.3,8.97,36.37,23.96,45.98v280.51c-18.2,9.05-30,27.72-30,48.45v15.23c0,4.418,3.582,8,8,8h292c4.418,0,8-3.582,8-8v-15.23	C393.999,428.039,382.199,409.369,363.999,400.319z"/><path fill="#cbe3fa" d="M387.959,73.829c0.78,19.3-8.97,36.37-23.96,45.98v53.19h-248v-53.19	c-14.99-9.61-24.74-26.68-23.96-45.98c1.09-26.81,22.87-48.63,49.68-49.78c11.52-0.49,22.25,2.77,31.08,8.66	c6.79,4.53,15.81,3.27,21.03-3.01c23.988-28.917,68.324-28.95,92.34,0c5.22,6.28,14.24,7.54,21.03,3.01	c8.83-5.89,19.56-9.15,31.08-8.66C365.089,25.199,386.869,47.019,387.959,73.829z"/><path fill="#6e6f80" d="M140.999,240.129c0,41.21,25.18,76.54,61,91.44c0,22.755-14.331,43.546-36.49,51.19	c-43.454,15.114-44.197,14.89-49.51,17.56v-227.32h25V240.129z"/><path fill="#585966" d="M338.999,240.129v-67.13h25v227.32c-5.419-2.709-6.743-2.684-49.51-17.56	c-22.171-7.648-36.49-28.442-36.49-51.19C313.819,316.669,338.999,281.339,338.999,240.129z"/><path fill="#cbe3fa" d="M239.999,388.179l-4.7,1.85c-12.25,4.81-20.3,16.62-20.3,29.78v52.19h-121c-4.418,0-8-3.582-8-8	v-15.23c0-23.625,15.223-43.861,36.39-51.14c0.1-0.1,31.696-10.896,43.12-14.87c8.9-3.07,16.59-8.29,22.59-14.96L239.999,388.179z"/><path fill="#cbe3fa" d="M393.999,448.769v15.23c0,4.418-3.582,8-8,8h-171v-52.19c0-13.16,8.05-24.969,20.3-29.78	c71.028-27.893,53.887-21.164,56.6-22.23c6,6.67,13.69,11.89,22.59,14.96c43.537,15.143,44.106,14.858,49.51,17.56	C382.199,409.369,393.999,428.039,393.999,448.769z"/><path fill="#ffdfba" d="M273.628,349.29c-21.295,7.714-45.638,7.837-67.249,0.004c-3.595-1.303-5.75-5.01-5.12-8.782	c0.489-2.923,0.741-5.912,0.741-8.942c23.598,9.823,51.154,10.342,76,0c0,3.03,0.252,6.02,0.741,8.942	C279.371,344.28,277.22,347.988,273.628,349.29z"/><path fill="#fff3e4" d="M225.759,338.109c-47.725-6.81-84.76-47.996-84.76-97.98v-67.13h30c0,11.94,0,48,0.01,48.33	c0.48,41.09,25.97,76.03,61.76,90.56C247.541,317.883,242.088,340.201,225.759,338.109z"/><path fill="#eef7ff" d="M293.956,369.964c4.074,4.058,2.601,10.972-2.751,13.075l-35.005,13.75	c-12.25,4.81-20.3,16.62-20.3,29.78v37.43c0,4.418-3.582,8-8,8h-12.9v-52.19c0-13.16,8.05-24.97,20.3-29.78	c71.028-27.893,53.886-21.164,56.6-22.23C292.564,368.539,293.25,369.261,293.956,369.964z"/><path fill="#b5d5f5" d="M239.999,388.179l-4.7,1.85c-12.25,4.81-20.3,16.62-20.3,29.78v52.19h-8c-4.418,0-8-3.582-8-8v-44.19	c0-14.49,6.359-27.748,16.976-36.669c2.215-1.861,5.296-2.31,7.99-1.253L239.999,388.179z"/><path fill="#eef7ff" d="M197.002,371.294c6.111,2.399,6.92,10.777,1.335,14.227c-3.425,2.116-7.12,3.881-11.047,5.238	c-8.671,3.026-43.98,15.1-44.08,15.2c-22.126,7.637-37.21,28.585-37.21,52.29v5.75c0,4.418-3.582,8-8,8h-4c-4.418,0-8-3.582-8-8	v-15.23c0-23.678,15.267-43.874,36.39-51.14c0.1-0.099,31.907-10.969,43.12-14.87c8.9-3.07,16.59-8.29,22.59-14.96L197.002,371.294z"/><path fill="#eef7ff" d="M240.388,8c10.916,0.069,14.853,14.41,5.626,20.242c-5.36,3.388-10.147,7.6-14.184,12.457	c-15.419,18.55-43.191-10.852-22.305-24.36C218.887,10.284,229.192,7.929,240.388,8z"/><path fill="#eef7ff" d="M153.999,135.038v29.961c0,4.418-3.582,8-8,8h-30v-53.19c-14.99-9.61-24.74-26.68-23.96-45.98	c1.083-26.643,22.793-48.939,50.379-49.806c11.719-0.368,17.203,14.636,7.921,21.8c-27.503,21.226-26.913,62.255,0.53,82.815	C152.872,130.138,153.999,132.536,153.999,135.038z"/><path fill="#eef7ff" d="M349.114,25.684c7.075,1.853,8.083,11.553,1.551,14.842c-1.924,0.969-3.78,2.054-5.559,3.245	c-6.495,4.35-15.55,3.401-21.04-3.198c-5.101-6.131-1.3-15.496,6.635-16.307C336.814,23.642,343.056,24.097,349.114,25.684z"/><path d="M371.999,395.597V123.982c15.663-11.787,24.752-30.734,23.949-50.476c-1.256-30.894-26.437-56.129-57.326-57.451 c-12.834-0.545-25.236,2.907-35.861,9.996c-3.381,2.257-7.867,1.628-10.436-1.465c-27.238-32.813-77.468-32.749-104.654,0 c-2.566,3.092-7.051,3.722-10.436,1.465c-10.624-7.088-23.031-10.545-35.86-9.996c-30.889,1.322-56.07,26.557-57.326,57.451 c-0.803,19.742,8.287,38.689,23.949,50.476v231.598c0,4.418,3.582,8,8,8s8-3.582,8-8V180.999h9c0,0,0.005,60.415,0.009,60.543 c0.877,28.059,11.469,54.4,31.367,74.28c3.124,3.121,8.189,3.122,11.314-0.005c3.123-3.126,3.12-8.191-0.005-11.314 c-17.208-17.191-26.685-40.055-26.685-64.378v-59.125h182v59.125c0,50.178-40.822,91-91,91c-19.857,0-32.651-6.292-35.676-7.21 c-5.099-1.56-10.367,2.298-10.325,7.713c-0.025,19.655-12.516,37.157-31.101,43.565l-43.11,14.864 c-24.998,8.667-41.788,32.25-41.788,58.715v23.227c0,4.418,3.582,8,8,8s8-3.582,8-8v-23.227c0-19.678,12.499-37.209,31.103-43.624 l43.011-14.83c21.522-7.42,36.966-25.892,40.896-47.751c68.415,20.706,137.529-30.547,137.988-101.742 c0.001-0.063,0.002-67.826,0.002-67.826c0-4.418-3.582-8-8-8h-215v-45.192c0-2.727-1.389-5.266-3.685-6.736 c-13.34-8.545-20.921-23.093-20.278-38.914c1.378-33.883,39.776-53.842,68.32-34.795c10.218,6.816,23.814,4.859,31.627-4.555 c20.835-25.097,59.236-25.051,80.032,0c7.814,9.414,21.412,11.373,31.627,4.556c28.549-19.047,66.942,0.916,68.32,34.795 c0.643,15.821-6.938,30.369-20.278,38.914c-2.296,1.471-3.685,4.01-3.685,6.736v268.797l-38.897-13.412 c-9.157-3.157-16.961-8.997-22.568-16.888c-2.56-3.602-7.554-4.448-11.155-1.888c-2.46,1.748-3.632,4.633-3.313,7.434 l-40.067,15.736l-20.328-7.983c-4.113-1.617-8.756,0.409-10.371,4.522c-1.615,4.112,0.409,8.755,4.522,10.371l7.228,2.839 c-8.789,7.441-14.052,18.443-14.052,30.477v52.188c0,4.418,3.582,8,8,8s8-3.582,8-8v-52.188c0-9.938,5.977-18.707,15.227-22.339 l51.692-20.301c6.281,5.829,13.714,10.302,21.969,13.148l43.01,14.83c18.604,6.415,31.103,23.945,31.103,43.624v23.227 c0,4.418,3.582,8,8,8s8-3.582,8-8v-23.227C401.999,426.725,390.342,406.687,371.999,395.597z"/><path d="M222.999,228.999v-14c0-4.418-3.582-8-8-8s-8,3.582-8,8v14c0,4.418,3.582,8,8,8S222.999,233.417,222.999,228.999z"/><path d="M272.999,228.999v-14c0-4.418-3.582-8-8-8s-8,3.582-8,8v14c0,4.418,3.582,8,8,8S272.999,233.417,272.999,228.999z"/><path d="M263.999,409.999h-8c-4.418,0-8,3.582-8,8s3.582,8,8,8h8c4.418,0,8-3.582,8-8S268.418,409.999,263.999,409.999z"/><path d="M263.999,449.999h-8c-4.418,0-8,3.582-8,8s3.582,8,8,8h8c4.418,0,8-3.582,8-8S268.418,449.999,263.999,449.999z"/></svg>