<svg xmlns="http://www.w3.org/2000/svg" data-name="Layer 1" viewBox="0 0 512 512"><path fill="#d05458" d="M100.4,456.21,79.88,476.73a31.76,31.76,0,0,1-44.91-44.92L55.48,411.3Z"/><polygon fill="#598baa" points="142.75 324.03 55.48 411.3 100.4 456.21 187.66 368.95 142.75 324.03"/><path fill="#ba4d55" d="M54.97,476.73a31.753,31.753,0,0,1,0-44.92L65.481,421.3l-10-10L34.97,431.81a31.759,31.759,0,0,0,32.455,52.6A31.609,31.609,0,0,1,54.97,476.73Z"/><rect width="123.415" height="14.142" x="42.407" y="365.595" fill="#3e5c72" transform="rotate(-44.977 104.115 372.668)"/><path fill="#598baa" d="M239.77,272.54a144.094,144.094,0,0,1-25.57-34.56l-14.57,14.57a18.74,18.74,0,0,0,0,26.52l33.6,33.61a18.758,18.758,0,0,0,26.52,0l14.58-14.58A144.317,144.317,0,0,1,239.77,272.54Z"/><path fill="#f7c365" d="M274.33,298.1a144.457,144.457,0,1,1,169.7-25.56A144.317,144.317,0,0,1,274.33,298.1Z"/><path fill="#97c9fa" d="M422.91,89.4a114.558,114.558,0,1,1-162.01,0A114.554,114.554,0,0,1,422.91,89.4Z"/><polygon fill="#3e5c72" points="226.69 306.13 226.47 306.35 175.87 356.95 175.77 357.05 155.25 336.54 155.35 336.44 205.95 285.83 206.17 285.61 226.69 306.13"/><path fill="#77add8" d="M280.9,109.4a114.57,114.57,0,0,1,151.4-9.385A114.558,114.558,0,1,0,271.518,260.8,114.57,114.57,0,0,1,280.9,109.4Z"/><path fill="#284268" d="M349.093,201.92a10.182,10.182,0,1,0-7.191,2.974A10.181,10.181,0,0,0,349.093,201.92Zm-8.486-5.9a1.831,1.831,0,1,1,2.589,0A1.9,1.9,0,0,1,340.607,196.023Z"/><path fill="#284268" d="M310.386,177.6a10.17,10.17,0,1,0,0-14.383A10.139,10.139,0,0,0,310.386,177.6Zm5.9-8.486a1.83,1.83,0,0,1,2.588,2.589,1.9,1.9,0,0,1-2.588,0,1.831,1.831,0,0,1,0-2.589Z"/><path fill="#284268" d="M373.417,226.245a10.181,10.181,0,1,0-7.191,2.974A10.18,10.18,0,0,0,373.417,226.245Zm-9.021-7.191a1.831,1.831,0,1,1,3.125,1.294,1.9,1.9,0,0,1-2.589,0A1.841,1.841,0,0,1,364.4,219.054Z"/><path fill="#284268" d="M383.36,236.188a10.17,10.17,0,1,0,14.382,0A10.181,10.181,0,0,0,383.36,236.188Zm8.485,8.485a1.9,1.9,0,0,1-2.588,0,1.83,1.83,0,1,1,2.588,0Z"/><path fill="#284268" d="M286.061,153.271a10.171,10.171,0,1,0-2.978-7.191A10.139,10.139,0,0,0,286.061,153.271Zm5.9-8.486a1.83,1.83,0,1,1,2.588,2.589,1.894,1.894,0,0,1-2.588,0A1.833,1.833,0,0,1,291.958,144.785Z"/><path fill="#284268" d="M268.927,131.924a10.17,10.17,0,1,0-7.191-2.979A10.1,10.1,0,0,0,268.927,131.924Zm-1.294-11.464a1.831,1.831,0,1,1-.536,1.3A1.846,1.846,0,0,1,267.633,120.46Z"/><path fill="#284268" d="M322.548,224.025a10.17,10.17,0,1,0,14.382,0A10.1,10.1,0,0,0,322.548,224.025Zm8.485,5.9a1.832,1.832,0,0,1,0,2.59,1.9,1.9,0,0,1-2.588,0,1.831,1.831,0,0,1,0-2.589A1.894,1.894,0,0,1,331.033,229.921Z"/><path fill="#284268" d="M298.223,199.7a10.17,10.17,0,1,0,14.382,0A10.183,10.183,0,0,0,298.223,199.7Zm9.022,7.192a1.844,1.844,0,0,1-.537,1.294,1.9,1.9,0,0,1-2.588,0,1.83,1.83,0,1,1,3.125-1.294Z"/><path fill="#284268" d="M354.063,265.706a10.165,10.165,0,1,0-7.19-2.974A10.138,10.138,0,0,0,354.063,265.706Zm-1.293-11.459a1.83,1.83,0,0,1,2.588,2.588,1.892,1.892,0,0,1-2.588,0,1.828,1.828,0,0,1,0-2.588Z"/><path fill="#284268" d="M273.9,175.375a10.17,10.17,0,1,0,14.383,0A10.183,10.183,0,0,0,273.9,175.375Zm8.486,5.9a1.831,1.831,0,0,1,0,2.589,1.9,1.9,0,0,1-2.589,0,1.831,1.831,0,0,1,2.589-2.589Z"/><path fill="#284268" d="M249.574,165.433a10.17,10.17,0,1,0,0-14.382A10.136,10.136,0,0,0,249.574,165.433Zm5.9-8.485a1.83,1.83,0,1,1,2.588,2.588,1.894,1.894,0,0,1-2.588,0,1.83,1.83,0,0,1,0-2.588Z"/><path fill="#284268" d="M395.522,165.433a10.17,10.17,0,1,0,0-14.382A10.137,10.137,0,0,0,395.522,165.433Zm5.9-8.485a1.83,1.83,0,1,1,2.589,2.588,1.9,1.9,0,0,1-2.589,0,1.83,1.83,0,0,1,0-2.588Z"/><path fill="#284268" d="M371.2,141.108a10.169,10.169,0,0,0,14.382,0h0a10.17,10.17,0,1,0-14.382,0Zm5.9-8.485a1.9,1.9,0,0,1,2.589,0,1.83,1.83,0,0,1,0,2.588,1.9,1.9,0,0,1-2.589,0,1.83,1.83,0,0,1,0-2.588Z"/><path fill="#284268" d="M419.847,189.758a10.17,10.17,0,1,0,0-14.383A10.141,10.141,0,0,0,419.847,189.758Zm5.9-8.486a1.831,1.831,0,0,1,2.589,2.589,1.9,1.9,0,0,1-2.589,0,1.831,1.831,0,0,1,0-2.589Z"/><path fill="#284268" d="M346.872,102.4a10.17,10.17,0,1,0,14.383,0A10.182,10.182,0,0,0,346.872,102.4Zm8.486,8.485a1.9,1.9,0,0,1-2.588,0,1.83,1.83,0,1,1,2.588,0Z"/><path fill="#284268" d="M322.548,78.077a10.17,10.17,0,1,0,14.382,0A10.181,10.181,0,0,0,322.548,78.077Zm8.485,8.485a1.894,1.894,0,0,1-2.588,0,1.83,1.83,0,1,1,2.588,0Z"/><path fill="#284268" d="M427.039,144.082a10.165,10.165,0,1,0-7.192-2.974A10.133,10.133,0,0,0,427.039,144.082Zm-1.295-11.459a1.83,1.83,0,1,1,2.589,2.588,1.9,1.9,0,0,1-2.589,0,1.83,1.83,0,0,1,0-2.588Z"/><path fill="#284268" d="M402.713,119.757a10.165,10.165,0,1,0-7.191-2.973A10.141,10.141,0,0,0,402.713,119.757ZM401.419,108.3a1.831,1.831,0,0,1,2.589,2.589,1.9,1.9,0,0,1-2.589,0,1.831,1.831,0,0,1,0-2.589Z"/><path fill="#284268" d="M378.389,95.438a10.1,10.1,0,0,0,7.191-2.979h0a10.167,10.167,0,1,0-7.191,2.98Zm-1.3-11.464a1.894,1.894,0,0,1,2.589,0,1.83,1.83,0,0,1,0,2.588,1.9,1.9,0,0,1-2.589,0,1.83,1.83,0,0,1,0-2.588Z"/><path fill="#284268" d="M298.223,248.35a10.17,10.17,0,1,0,14.382,0A10.181,10.181,0,0,0,298.223,248.35Zm8.485,8.485a1.894,1.894,0,0,1-2.588,0,1.831,1.831,0,1,1,2.588,0Z"/><path fill="#284268" d="M273.9,224.025a10.169,10.169,0,1,0,14.382,0A10.1,10.1,0,0,0,273.9,224.025Zm8.485,8.486a1.9,1.9,0,0,1-2.588,0,1.829,1.829,0,0,1,0-2.589,1.892,1.892,0,0,1,2.587,0,1.831,1.831,0,0,1,0,2.59Z"/><path fill="#284268" d="M249.574,199.7a10.17,10.17,0,1,0,14.382,0A10.181,10.181,0,0,0,249.574,199.7Zm8.485,8.486a1.9,1.9,0,0,1-2.588,0,1.83,1.83,0,1,1,2.588,0Z"/><path fill="#284268" d="M359.035,163.213a10.17,10.17,0,1,0,14.382,0A10.183,10.183,0,0,0,359.035,163.213Zm8.486,5.9a1.831,1.831,0,0,1,0,2.589,1.9,1.9,0,0,1-2.589,0,1.831,1.831,0,0,1,2.589-2.589Z"/><path fill="#284268" d="M334.71,138.889a10.17,10.17,0,0,0,14.382,14.382h0a10.17,10.17,0,1,0-14.383-14.382Zm8.485,5.9a1.83,1.83,0,0,1,0,2.589,1.9,1.9,0,0,1-2.589,0,1.831,1.831,0,0,1,0-2.589A1.9,1.9,0,0,1,343.2,144.785Z"/><path fill="#284268" d="M383.36,187.538a10.17,10.17,0,1,0,14.382,0A10.181,10.181,0,0,0,383.36,187.538Zm9.021,7.191a1.84,1.84,0,0,1-.536,1.294,1.894,1.894,0,0,1-2.588,0,1.83,1.83,0,1,1,3.124-1.294Z"/><path fill="#284268" d="M407.685,211.863a10.17,10.17,0,1,0,14.382,0A10.18,10.18,0,0,0,407.685,211.863Zm8.485,5.9a1.83,1.83,0,0,1,0,2.588,1.894,1.894,0,0,1-2.588,0,1.83,1.83,0,1,1,2.588-2.588Z"/><path fill="#284268" d="M310.386,114.563a10.17,10.17,0,1,0,14.382,0A10.181,10.181,0,0,0,310.386,114.563Zm8.485,5.9a1.83,1.83,0,1,1-1.294-.536A1.844,1.844,0,0,1,318.871,120.46Z"/><path fill="#284268" d="M293.252,107.6a10.136,10.136,0,0,0,7.191-2.974h0a10.182,10.182,0,1,0-7.192,2.974Zm0-12a1.829,1.829,0,0,1,1.294,3.124l-2.588-2.588A1.843,1.843,0,0,1,293.252,95.6Zm-1.294.536,2.588,2.588a1.894,1.894,0,0,1-2.588,0A1.831,1.831,0,0,1,291.958,96.136Z"/><path fill="#284268" d="M267.271,75.722a6,6,0,1,0,7.458,9.4,108.546,108.546,0,1,1-25.313,28.426,6.012,6.012,0,0,0-.843-7.411l0,0a6.006,6.006,0,0,0-9.357,1.092,120.586,120.586,0,1,0,28.058-31.5Z"/><path fill="#284268" d="M116.817,370.035,85.143,401.71a6,6,0,1,0,8.485,8.485L125.3,378.521a6,6,0,1,0-8.486-8.486Z"/><path fill="#284268" d="M135.706,351.147l-4.214,4.214a6,6,0,1,0,8.485,8.485l4.213-4.213a6,6,0,1,0-8.484-8.486Z"/><path fill="#284268" d="M235.527,64.03c-46.656,46.657-56.2,116.586-28.628,172.765L195.384,248.31a24.779,24.779,0,0,0,0,35l2.3,2.3L155.251,328.05l-8.262-8.262a6,6,0,0,0-8.486,0L30.723,427.568a37.762,37.762,0,0,0,53.4,53.4L191.907,373.19a6,6,0,0,0,0-8.485l-7.651-7.651L226.69,314.62l2.3,2.3a24.752,24.752,0,0,0,35.005,0l11.514-11.514a150.8,150.8,0,0,0,172.765-28.628c58.655-58.655,58.655-154.094,0-212.749S294.182,5.375,235.527,64.03ZM75.64,472.486a25.79,25.79,0,0,1-36.432,0h0a25.762,25.762,0,0,1,0-36.432l16.273-16.273,36.433,36.432ZM100.4,447.728,63.966,411.3l78.78-78.779,36.433,36.432Zm75.372-99.159-12.034-12.034L206.171,294.1l12.034,12.034Zm79.74-40.133a12.752,12.752,0,0,1-18.034,0L203.87,274.829a12.765,12.765,0,0,1,0-18.034l9.012-9.013a150.694,150.694,0,0,0,51.641,51.642Zm184.28-40.143c-53.978,53.978-141.8,53.977-195.778,0s-53.976-141.8,0-195.777a138.593,138.593,0,0,1,195.778,0C493.767,126.492,493.767,214.317,439.791,268.293Z"/></svg>