<svg xmlns="http://www.w3.org/2000/svg" viewBox="0 0 480.025 480.025"><path fill="#ffbd7b" d="M267.392,10.362c13.16,3.121,26.975,3.146,40.24,0c36.62-8.66,74.68,7.1,94.45,39.13	c7.032,11.386,16.65,21.162,28.45,28.45c26.17,16.15,41.48,44.52,41.48,74.33c0,18.052-4.7,22.188-4.7,40.24s4.7,22.188,4.7,40.24	c0,29.635-15.145,58.076-41.48,74.33c-11.386,7.032-21.162,16.65-28.45,28.45c-19.543,31.668-57.385,47.871-94.45,39.13	c-13.16-3.121-26.975-3.146-40.24,0c-37.09,8.747-74.92-7.483-94.45-39.13c-7.032-11.386-16.65-21.162-28.45-28.45	c-31.668-19.543-47.871-57.385-39.13-94.45c3.121-13.16,3.146-26.975,0-40.24c-8.747-37.09,7.483-74.92,39.13-94.45	c11.386-7.032,21.162-16.65,28.45-28.45C192.589,17.638,230.536,1.671,267.392,10.362z"/><path fill="#ffbd7b" d="M172.392,105.363c13.213,3.134,27.027,3.133,40.24,0c36.62-8.66,74.68,7.1,94.45,39.13	c7.032,11.386,16.65,21.162,28.45,28.45c26.17,16.15,41.48,44.52,41.48,74.33c0,18.052-4.7,22.188-4.7,40.24	c0,18.052,4.7,22.188,4.7,40.24c0,29.635-15.145,58.076-41.48,74.33c-11.386,7.032-21.162,16.65-28.45,28.45	c-19.543,31.668-57.385,47.871-94.45,39.13c-13.16-3.121-26.975-3.146-40.24,0c-37.09,8.747-74.92-7.483-94.45-39.13	c-7.032-11.386-16.65-21.162-28.45-28.45c-31.668-19.543-47.871-57.385-39.13-94.45c3.121-13.16,3.146-26.975,0-40.24	c-8.747-37.09,7.483-74.92,39.13-94.45c11.385-7.032,21.162-16.65,28.45-28.45C97.519,112.752,135.402,96.64,172.392,105.363z"/><path fill="#faa157" d="M407.914,327.371c-9.75,12.775-16.497,27.872-40.451,40.092c9.213-18.085,12.074-39.16,7.2-59.83	c-3.134-13.214-3.133-27.027,0-40.24c8.747-37.089-7.483-74.92-39.13-94.45c-11.34-7.005-21.132-16.602-28.45-28.45	c-19.77-32.03-57.83-47.79-94.45-39.13c-13.108,3.108-26.922,3.158-40.24,0c-20.309-4.789-41.427-2.185-59.82,7.2	c12.279-24.075,27.234-30.64,40.061-40.431c13.975-10.669,24.422,6.177,64.019-3.199c43.95-10.39,89.62,8.52,113.34,46.96	c8.553,13.817,20.103,25.451,34.14,34.14c31.41,19.38,49.78,53.42,49.78,89.19c0,27.849-10.912,34.863-2.619,73.352	C412.411,317.762,411.133,323.152,407.914,327.371z"/><path fill="#ffd3a6" d="M264.823,108.757c20.007,8.491,16.726,37.67-4.567,42.027c-12.832,2.626-24.906,4.837-42.864,0.579	c-37.163-8.764-74.969,7.544-94.45,39.13c-7.019,11.363-16.626,21.147-28.45,28.45c-26.17,16.15-41.48,44.52-41.48,74.33	c0,21.509,8.998,31.266,2.212,60.955c-4.942,21.623-35.052,23.661-42.43,2.743c-2.97-8.422-4.782-18.091-4.782-29.218	c0-20.648,8.959-32.492,2.35-60.36c-8.747-37.089,7.483-74.92,39.13-94.45c11.34-7.005,21.132-16.602,28.45-28.45	c19.675-31.9,57.641-47.811,94.45-39.13c13.108,3.108,26.922,3.158,40.24,0C233.604,100.403,250.786,102.8,264.823,108.757z"/><path fill="#a07765" d="M239.092,185.162c15.63,1.08,27.1,23.19,21.83,34.3c-6.66,14.06-41.59,13.72-47.82,1.04	C207.642,209.423,221.672,183.942,239.092,185.162z"/><path fill="#a07765" d="M212.012,357.012c19.06-1.3,34.52,25.34,29,38c-6.51,14.93-45,16.78-53,2	C181.442,384.883,193.622,358.262,212.012,357.012z"/><path fill="#a07765" d="M122.012,213.012c14.57,1.63,23.47,21.06,19,30c-6.04,12.08-39.25,10.53-44-1	C93.162,232.652,105.782,211.202,122.012,213.012z"/><path fill="#c79a83" d="M124.045,224.021c-7.713,2.752-14.042,10.236-16.563,17.537c-1.651,4.784-8.438,5.202-10.43,0.55	c-4.012-9.371,8.74-30.905,24.96-29.096C129.197,213.812,129.262,222.16,124.045,224.021z"/><path fill="#a07765" d="M96.012,320.012c14.22,1.29,21.71,21.06,17,29c-5.97,10.07-35.12,7.17-39-4	C70.992,336.302,81.982,318.732,96.012,320.012z"/><path fill="#c79a83" d="M243.725,199.612c-8.002,3.309-14.466,11.651-17.288,19.799c-2.084,6.017-10.397,6.884-13.278,1.205	c-5.648-11.133,8.552-36.671,25.933-35.454C250.869,185.972,250.288,196.898,243.725,199.612z"/><path fill="#c79a83" d="M98.277,331.292c-6.023,2.447-11.104,7.971-13.423,13.796c-1.951,4.901-9.008,4.987-10.805,0.028	c-3.171-8.748,7.943-26.384,21.963-25.104C103.503,320.698,103.587,329.135,98.277,331.292z"/><path fill="#c79a83" d="M220.731,369.541c-11.132,2.699-19.708,14.571-21.953,25.71c-1.061,5.263-8.049,6.609-10.675,1.926	c-7.95-14.175,10.093-47.955,33.248-38.606C226.533,360.663,226.161,368.224,220.731,369.541z"/><path d="M477.444,210.787c9.477,40.051-7.687,81.486-42.708,103.106c-1.31,0.809-2.761,1.193-4.194,1.193	c-8.04,0-11.051-10.585-4.21-14.809c29.146-17.992,43.429-52.477,35.542-85.808c-3.398-14.365-3.398-29.551,0-43.916	c7.887-33.331-6.396-67.815-35.542-85.808c-12.562-7.754-23.3-18.492-31.054-31.054c-17.992-29.146-52.475-43.425-85.808-35.542	c-14.365,3.398-29.551,3.398-43.916,0c-33.331-7.888-67.815,6.396-85.808,35.542c-7.754,12.562-18.492,23.3-31.054,31.054	c-5.559,3.432-10.639,7.521-15.153,12.153c35.669-7.145,44.925,8.327,77.246,0.681c40.048-9.477,81.486,7.686,103.106,42.708	c6.453,10.453,15.39,19.39,25.843,25.843c35.021,21.62,52.185,63.056,42.708,103.106c-2.829,11.955-2.829,24.594,0,36.549	c9.477,40.051-7.687,81.486-42.708,103.106c-10.453,6.453-19.39,15.39-25.843,25.843c-21.621,35.022-63.06,52.186-103.106,42.708	c-26.384-6.241-35.853,2.577-58.595,2.58c-32.54,0.002-63.404-16.688-81.061-45.288c-6.453-10.453-15.39-19.39-25.843-25.843	c-35.021-21.62-52.185-63.056-42.708-103.106c2.829-11.955,2.829-24.594,0-36.549c-9.477-40.051,7.687-81.486,42.708-103.106	c6.248-3.856,11.927-8.559,16.879-13.975c2.983-3.261,8.044-3.485,11.303-0.506c3.261,2.981,3.487,8.042,0.506,11.303	c-5.952,6.509-12.776,12.158-20.283,16.793c-29.146,17.992-43.429,52.477-35.542,85.808c3.398,14.365,3.398,29.551,0,43.916	c-7.887,33.331,6.396,67.815,35.542,85.808c12.562,7.754,23.3,18.492,31.054,31.054c17.993,29.146,52.478,43.429,85.808,35.542	c14.365-3.398,29.551-3.398,43.916,0c33.329,7.886,67.815-6.396,85.808-35.542c7.754-12.562,18.492-23.3,31.054-31.054	c29.146-17.992,43.429-52.477,35.542-85.808c-3.398-14.365-3.398-29.551,0-43.916c7.887-33.331-6.396-67.815-35.542-85.808	c-12.562-7.754-23.3-18.492-31.054-31.054c-17.992-29.146-52.475-43.425-85.808-35.542c-14.365,3.398-29.551,3.398-43.916,0	c-17.968-4.252-36.892-2.072-53.436,6.101c-7.49,5.323-16.424-4.145-11.13-11.353c7.937-15.095,19.763-27.793,34.3-36.768	c10.453-6.453,19.39-15.39,25.843-25.843c21.621-35.021,63.06-52.185,103.106-42.708c11.955,2.828,24.594,2.828,36.549,0	c40.047-9.479,81.485,7.686,103.106,42.708c6.453,10.453,15.39,19.39,25.843,25.843c35.021,21.62,52.185,63.056,42.708,103.106	C474.615,186.193,474.615,198.832,477.444,210.787z M89.615,245.058c-6.273-15.236,11.296-42.465,33.285-39.996	c19.847,2.215,32.334,27.392,25.268,41.527C139.056,264.819,97.001,262.997,89.615,245.058z M104.409,238.965	c0.601,1.232,6.027,4.349,15.345,4.429c8.501,0.073,13.396-2.542,14.103-3.958c3.17-6.33-10.889-30.099-25.171-11.709	C104.665,232.902,103.999,237.853,104.409,238.965z M214.746,399.159c-10.469,0.444-17.957-2.737-19.698-5.955	c-2.104-3.886-6.961-5.329-10.844-3.227c-10.853,5.875,0.001,25.222,28.741,25.22c13.42,0,30.056-4.739,35.399-16.984	c7.991-18.309-11.997-50.884-36.875-49.182c-4.408,0.3-7.738,4.116-7.438,8.524c0.3,4.407,4.114,7.755,8.524,7.438	c12.902-0.852,24.312,19.517,21.125,26.818C232.25,395.09,224.776,398.734,214.746,399.159z M238.535,193.138	c4.387,0.305,8.229-3.019,8.535-7.426s-3.018-8.229-7.426-8.535c-23.289-1.641-42.018,30-33.725,46.86	c5.134,10.436,19.354,14.059,30.937,13.974c28.615-0.212,38.732-20.45,27.491-25.774c-3.991-1.894-8.764-0.188-10.654,3.805	c-1.348,2.843-7.747,5.902-16.955,5.97c-9.044,0.061-15.401-2.882-16.461-5.036C217.404,211.135,227.662,192.348,238.535,193.138z M119.894,353.092c-9.459,15.956-47.327,12.153-53.439-5.456c-4.977-14.337,10.543-37.402,30.282-35.59	C116.852,313.875,127.593,340.105,119.894,353.092z M104.254,335.209c-4.823-9.089-12.927-9.597-19.178-1.709	c-3.241,4.088-3.835,7.968-3.506,8.889c0.358,1.003,4.206,3.72,11.42,4.569c7.645,0.903,12.501-1.088,13.146-2.032	C106.622,344.043,106.783,339.974,104.254,335.209z M278.647,317.886c25.942,2.609,20.822-29.076,2.907-30.706	C263.757,285.541,252.925,315.296,278.647,317.886z"/></svg>