<svg xmlns="http://www.w3.org/2000/svg" width="512" height="512" data-name="Filled stroke cutting expand" viewBox="0 0 512 512"><path fill="#244ed6" d="M264,40h32a40,40,0,0,1,40,40V94a10,10,0,0,1-10,10H264a0,0,0,0,1,0,0V40A0,0,0,0,1,264,40Z"/><path fill="#f2f2f2" d="M64,488V373.225a30,30,0,0,1,20.015-28.289L200,304H312l115.985,40.936A30,30,0,0,1,448,373.225V488Z"/><polygon fill="#ffd4cf" points="312 304 256 376 200 304 216 248 296 248 312 304"/><path fill="#fbb8b0" d="M296,248H216l-5.656,19.8,13.695,11.639A36.042,36.042,0,0,0,247.351,288H264.6a36.027,36.027,0,0,0,23.428-8.666l13.594-11.652Z"/><polygon fill="#f2f2f2" points="192 304 256 336 184 368 192 304"/><polygon fill="#f2f2f2" points="320 304 256 336 328 368 320 304"/><polygon fill="#2471d6" points="224 352 240 384 272 384 288 352 256 336 224 352"/><polygon fill="#2471d6" points="224 488 240 384 272 384 288 488 224 488"/><path fill="#ffd4cf" d="M328,104H184V215.159a20,20,0,0,0,7.048,15.24L234.4,267.24A20,20,0,0,0,247.351,272H264.6a20,20,0,0,0,13.015-4.815l43.4-37.2A20,20,0,0,0,328,214.8Z"/><path fill="#ffd4cf" d="M152,136h22a10,10,0,0,1,10,10v28a10,10,0,0,1-10,10H152a0,0,0,0,1,0,0V136A0,0,0,0,1,152,136Z" transform="rotate(-180 168 160)"/><path fill="#ffd4cf" d="M338,136h22a0,0,0,0,1,0,0v48a0,0,0,0,1,0,0H338a10,10,0,0,1-10-10V146A10,10,0,0,1,338,136Z" transform="rotate(-180 344 160)"/><path fill="#5a80ed" d="M152,24h68a60,60,0,0,1,60,60v20a0,0,0,0,1,0,0H212a60,60,0,0,1-60-60V24A0,0,0,0,1,152,24Z"/><path fill="#244ed6" d="M136,56h64a48,48,0,0,1,48,48v0a0,0,0,0,1,0,0H184a48,48,0,0,1-48-48v0A0,0,0,0,1,136,56Z" transform="rotate(-180 192 80)"/><g><path d="M456,408V373.226a38.058,38.058,0,0,0-25.354-35.834L327.4,300.95a8,8,0,0,0-9.3-4.72l-12.211-42.741,20.333-17.428A27.969,27.969,0,0,0,336,214.8V208H320v6.8a11.982,11.982,0,0,1-4.19,9.11l-43.4,37.2A12.008,12.008,0,0,1,264.6,264H247.351a12.023,12.023,0,0,1-7.772-2.855L196.229,224.3A11.976,11.976,0,0,1,192,215.158V112H320v72a8,8,0,0,0,8,8h22a18.021,18.021,0,0,0,18-18V146a18.021,18.021,0,0,0-18-18H336V108.959A17.993,17.993,0,0,0,344,94V80a48.055,48.055,0,0,0-48-48H264v.194A67.7,67.7,0,0,0,220,16H152a8,8,0,0,0-8,8V44q0,2,.117,4H136a8,8,0,0,0-8,8,56.086,56.086,0,0,0,48,55.43V128H162a18.021,18.021,0,0,0-18,18v28a18.021,18.021,0,0,0,18,18h14v23.158a27.953,27.953,0,0,0,9.868,21.336l20.195,17.163L193.9,296.229a8,8,0,0,0-9.3,4.721l-59.267,20.918,5.326,15.088,51.424-18.15-6.025,48.2a8,8,0,0,0,11.187,8.3l32.287-14.35,12.17,24.339L217.136,480H136V424H120v56H72V373.226a22.034,22.034,0,0,1,14.678-20.747l27.985-9.876-5.326-15.088-27.984,9.877A38.058,38.058,0,0,0,56,373.226V488a8,8,0,0,0,8,8H448a8,8,0,0,0,8-8V424H440v56H392V424H376v56H294.864l-14.57-94.7,12.17-24.339,32.287,14.35a8,8,0,0,0,11.187-8.3l-6.025-48.2,95.408,33.673A22.034,22.034,0,0,1,440,373.226V408ZM350,144a2,2,0,0,1,2,2v28a2,2,0,0,1-2,2H336V144ZM328,80V94a2,2,0,0,1-2,2H288V84a67.6,67.6,0,0,0-10.332-36H296A32.036,32.036,0,0,1,328,80ZM160,44V32h60a52.059,52.059,0,0,1,52,52V96H255.43A56.086,56.086,0,0,0,200,48H160.152C160.051,46.671,160,45.335,160,44ZM144.8,64H200a40.071,40.071,0,0,1,39.2,32H184A40.071,40.071,0,0,1,144.8,64ZM162,176a2,2,0,0,1-2-2V146a2,2,0,0,1,2-2h14v32Zm67.219,97.337A28.032,28.032,0,0,0,247.351,280H264.6a28.023,28.023,0,0,0,18.221-6.74l9.7-8.313,10.962,38.367L256,327.056l-47.483-23.742,10.936-38.277Zm-30.683,42.875,38.724,19.362L193.7,354.937ZM233.325,480l13.538-88h18.274l13.538,88Zm33.731-104H244.944l-10.772-21.544,21.828-9.7,21.828,9.7Zm7.684-40.426,38.724-19.362,4.841,38.725Z"/><rect width="16" height="24" x="280" y="144"/><rect width="16" height="24" x="216" y="144"/><path d="M248,232h16a24,24,0,0,0,24-24H224A24,24,0,0,0,248,232Z"/></g></svg>