<svg xmlns="http://www.w3.org/2000/svg" viewBox="0 0 480 480"><path fill="#ffebd2" d="M370,143.728v192H110v-192c0-8.84,7.16-16,16-16h228C362.84,127.728,370,134.888,370,143.728z"/><path fill="#eef7ff" d="M447.104,336.728l-14.79,41.7c-4.53,12.77-16.61,21.3-30.16,21.3h-324.3	c-13.55,0-25.63-8.53-30.16-21.3l-14.79-41.7H447.104z"/><path fill="#cbe3fa" d="M447.104,336.728l-6.154,17.344c-2.263,6.387-8.305,10.656-15.081,10.656H54.139	c-6.776,0-12.818-4.269-15.081-10.656l-6.154-17.344H447.104z"/><path fill="#fff3e4" d="M370,143.728v22H235.71c-42.918,0-77.71,34.792-77.71,77.71v92.29h-48v-192c0-8.837,7.163-16,16-16	h228C362.837,127.728,370,134.891,370,143.728z"/><polygon fill="#c79a83" points="370,226.728 370,296.728 305.13,281.728 110,281.728 110,233.728 159.97,239.728"/><path fill="#ffbd7b" d="M370,143.728v36.51l-38.37-6.62c-33.55-5.83-46.05,13.4-78.77,9.13l-55.43-4.62	c-20.28-2.64-35.81,4.47-35.71,4.44c-21.42,8.48-39.65,4.71-51.72,0.1v-38.94c0-8.84,7.16-16,16-16h228	C362.84,127.728,370,134.888,370,143.728z"/><path fill="#e0b7a3" d="M157.996,244.822c-0.008,4.112,0.016,12.254,0.008,30.907c-0.001,3.313-2.687,5.998-6,5.998H110v-48	l42.712,5.132C155.731,239.223,158.002,241.781,157.996,244.822z"/><path fill="#ffd3a6" d="M370,143.728c0,12.15-9.85,22-22,22h-15.06c-17.327-2.997-29.319-0.147-44.398,4.548	c-18.863,5.871-23.341,5.45-35.021,4.501c-64.609-5.245-68.135-6.631-83.271-3.23c-11,2.472-11.322,3.926-11.477,3.581	c-16.231,6.434-32.661,5.817-48.772-1.091v-30.31c0-8.84,7.16-16,16-16h228C362.84,127.728,370,134.888,370,143.728z"/><path d="M480,336.728c0,4.418-3.582,8-8,8h-19.247l-12.904,36.374c-5.651,15.926-20.801,26.626-37.698,26.626H77.849	c-16.897,0-32.047-10.7-37.697-26.626c-1.478-4.164,0.7-8.737,4.864-10.214c4.162-1.477,8.737,0.7,10.214,4.864	c3.391,9.556,12.48,15.976,22.619,15.976h324.303c10.139,0,19.229-6.42,22.619-15.976l11.006-31.024H8c-4.418,0-8-3.582-8-8	s3.582-8,8-8h354v-93.49c0,0-201.874,12.49-202.04,12.49c-4.192,0-7.715-3.265-7.977-7.506c-0.273-4.41,3.08-8.206,7.49-8.479	c220.131-13.625,213.599-14.917,217.221-9.387c1.89,2.894,1.305-4.561,1.305,106.372h94C476.418,328.728,480,332.31,480,336.728z M95.006,105.728c8.892,0,17.616-19.528,38.075-13.668l24.544,7.041c7.595,2.18,3.602,1.627,85.879,1.627	c20.1,0,22.361-10.77,36.522-11.485c28.961-1.465,25.82-2.527,41.278,7.092c10.326,6.427,22.917,8.054,34.544,4.464l30.513-9.427	c4.222-1.304,6.586-5.783,5.282-10.005c-1.305-4.223-5.786-6.586-10.005-5.282c-40.53,12.522-38.841,14.78-58.623,2.471	c-13.565-8.439-24.494-6.27-43.799-5.292c-18.572,0.941-21.585,11.465-35.713,11.465c-80.232,0-76.555,0.401-81.467-1.006	l-24.544-7.041c-25.931-7.441-41.995,11.864-47.28,14.637C84.075,95.903,87.317,105.728,95.006,105.728z M87.314,173.505	c1.228-4.245,5.661-6.686,9.908-5.463c7.305,2.113,29.138,19.916,61.552,7.088l0.012,0.03c6.677-3.312,23.194-7.071,39.489-4.985	c72.53,6.049,67.409,7.221,90.268,0.101c29.031-9.038,34.061-6.331,73.457,0.467v-27.015c0-4.411-3.589-8-8-8	c-243.234,0-229.636-0.739-232.743,1.556c-3.555,2.627-8.563,1.871-11.188-1.682c-2.625-3.554-1.872-8.562,1.682-11.187	c4.15-3.066,9.078-4.687,14.249-4.687h228c13.233,0,24,10.767,24,24v29.776l7.36,1.27c4.354,0.752,7.274,4.891,6.523,9.244	c-0.752,4.354-4.888,7.271-9.244,6.523l-52.375-9.038c-31.009-5.397-43.449,13.675-78.256,9.206c0,0-55.491-4.628-55.614-4.645	c-17.059-2.229-30.327,3.334-31.245,3.731c-10.249,4.842-28.641,8.121-47.149,3.717v80.215c200.504,0,187.546-0.114,188.931,0.206	l29.717,6.871c4.305,0.995,6.988,5.291,5.992,9.596c-0.998,4.321-5.312,6.987-9.596,5.992l-28.828-6.665H110c-4.418,0-8-3.582-8-8	v-93.722c-4.715-2.126-8.311-4.164-9.47-4.669C88.438,182.012,86.111,177.666,87.314,173.505z M165.205,189.769	c1.926-0.901,3.332-2.538,4.026-4.45C168.536,187.216,167.13,188.84,165.205,189.769z"/></svg>