<svg xmlns="http://www.w3.org/2000/svg" viewBox="0 0 480 480"><path fill="#cbe3fa" d="M448,112.413h-70c21.26-16.892,24.625-46.908-0.889-54.95c-2.147-0.677-3.335-2.961-2.623-5.096	C393.247-3.831,307.247,4.998,284,63.413c0-8.84-7.16-16-16-16h-56c-8.84,0-16,7.16-16,16	C172.753,4.998,86.752-3.833,105.511,52.366c0.713,2.135-0.475,4.421-2.622,5.097c-25.513,8.042-22.15,38.057-0.889,54.95H32	c-13.25,0-24,10.75-24,24v28c0,13.25,10.75,24,24,24h5v252.32c0,13.63,11.05,24.68,24.68,24.68h356.64	c13.63,0,24.68-11.05,24.68-24.68v-252.32h5c13.25,0,24-10.75,24-24v-28C472,123.163,461.25,112.413,448,112.413z"/><path fill="#ff6d7a" d="M377.111,57.464c-2.147-0.677-3.335-2.961-2.623-5.096C393.247-3.831,307.247,4.998,284,63.413	c0-8.84-7.16-16-16-16h-56c-8.84,0-16,7.16-16,16C172.753,4.998,86.752-3.833,105.511,52.366c0.713,2.135-0.475,4.421-2.622,5.097	c-25.513,8.042-22.15,38.057-0.889,54.95h276C399.26,95.521,402.625,65.505,377.111,57.464z"/><rect width="128" height="76" x="176" y="112.413" fill="#ff6d7a"/><path fill="#ffa4b8" d="M224,249.943c14.75-12.89,43.03-7.3,37.29,22.15c-2.79,14.31-13.62,29.94-32.98,34.79	c-2.83,0.71-5.79,0.71-8.62,0c-19.36-4.85-30.19-20.48-32.98-34.79C180.97,242.643,209.25,237.053,224,249.943z"/><path fill="#eef7ff" d="M61.919,465.413C47.641,465.413,37,454.05,37,440.733v-252.32h40	c0,269.619-0.245,253.703,0.495,257.122C79.701,455.712,72.332,465.413,61.919,465.413z"/><path fill="#b5d5f5" d="M443,188.413v8c0,4.418-3.582,8-8,8H45c-4.418,0-8-3.582-8-8v-8H443z"/><path fill="#eef7ff" d="M448.487,132.413H312c-4.418,0-8-3.582-8-8v-12c0,0,144.846,0.011,145.265,0.033	C462.07,113.112,461.309,132.413,448.487,132.413z"/><path fill="#eef7ff" d="M176,112.413v12c0,4.418-3.582,8-8,8H62.006c-13.259,0-24.008,10.751-24.008,24.01v8.105	c-0.017,19.234-28.968,20.358-29.965,1.15C7.986,164.777,8,167.012,8,136.413c0-13.255,10.745-24,24-24H176z"/><path fill="#ff8c95" d="M304,112.413v12c0,4.418-3.582,8-8,8H184c-4.418,0-8-3.582-8-8v-12H304z"/><path fill="#fe4f60" d="M196,63.413v49h-8.341c-4.23,0-7.659-3.429-7.659-7.659c0,0,0-41.476,0.001-41.544	c0.051-8.169,11.304-10.409,14.659-2.961C195.127,61.287,195.574,62.342,196,63.413z"/><path fill="#ff8c95" d="M268.359,61.413H235c-8.837,0-16,7.163-16,16v28c0,3.866-3.134,7-7,7h-16v-49c0-8.837,7.163-16,16-16	c0,0,56.678,0.011,57.012,0.032C277.902,48,277.266,61.413,268.359,61.413z"/><path fill="#ff8c95" d="M150.402,18.722c6.611,2.494,5.301,12.403-1.737,13.026c-17.109,1.515-28.157,13.655-20.155,37.615	c0.71,2.14-0.47,4.42-2.62,5.1c-14.967,4.72-19.994,16.999-17.299,29.761c0.89,4.215-2.283,8.189-6.591,8.189	c-21.26-16.89-24.621-46.91,0.889-54.95c2.15-0.68,3.332-2.957,2.622-5.097C94.026,17.971,121.801,7.933,150.402,18.722z"/><path fill="#ff8c95" d="M355.132,30.828c-19.64-2.146-47.732,10.064-63.934,34.755c-2.135,3.253-7.198,1.721-7.198-2.17	c13.994-35.169,50.73-52.361,73.665-48.22C367.676,17.001,365.245,31.933,355.132,30.828z"/><path fill="#fe4f60" d="M300,63.213v41.54c0,4.23-3.43,7.66-7.66,7.66H284v-49c0.43-1.07,0.87-2.13,1.34-3.16	C288.69,52.803,299.95,55.043,300,63.213z"/><path d="M448,104.413H292v-6.937c20.814,0.426,39.883-8.139,53.128-23.92c2.84-3.384,2.399-8.431-0.985-11.271 c-3.385-2.84-8.431-2.4-11.271,0.985c-9.95,11.856-24.382,18.643-40.872,18.201V65.021c16.821-39.844,63.42-50.505,74.351-36.619 c3.956,5.025,3.68,13.917-0.776,25.036c-1.859,4.636,0.947,9.834,5.849,10.819c5.317,1.068,12.182,3.775,14.69,10.599 c1.529,4.159,6.131,6.268,10.269,4.749c4.147-1.524,6.273-6.122,4.749-10.269c-3.023-8.224-9.258-14.474-17.927-18.14 c8.364-30.59-11.664-48.249-41.107-43.975c-26.265,3.809-53.741,23.675-65.53,53.235C275.752,62.501,276,60.3,276,104.413h-72v-41 c0-4.411,3.589-8,8-8h35.193c4.418,0,8-3.582,8-8s-3.582-8-8-8H212c-13.234,0-24,10.766-24,24v18.058 c-16.489,0.443-30.922-6.345-40.872-18.201c-2.84-3.383-7.886-3.825-11.271-0.985c-3.384,2.84-3.825,7.887-0.985,11.271 c13.169,15.69,32.196,24.349,53.128,23.92v6.937h-83.063c-8.934-8.066-13.648-19.211-11.564-27.857 c1.935-8.029,9.336-11.12,15.204-12.299c4.896-0.984,7.711-6.177,5.85-10.819c-2.865-7.148-6.592-20.1,0.632-26.528 c7.716-6.867,24.979-5.517,41.045,3.21c3.883,2.108,8.74,0.669,10.849-3.212c2.108-3.883,0.67-8.74-3.212-10.849 c-38.826-21.085-78.152-5.898-66.938,35.147c-21.857,9.301-25.15,33.191-12.598,53.207H32c-17.645,0-32,14.355-32,32v28 c0,16.633,12.757,30.337,29,31.855v244.467c0,18.019,14.659,32.678,32.678,32.678h356.645c18.019,0,32.678-14.659,32.678-32.678 V243.532c0-4.418-3.582-8-8-8s-8,3.582-8,8v197.203c0,9.196-7.481,16.678-16.678,16.678H61.678 c-9.196,0-16.678-7.481-16.678-16.678V188.413c0-4.418-3.582-8-8-8h-5c-8.822,0-16-7.178-16-16v-28c0-8.822,7.178-16,16-16h136 v33.742c0,4.418,3.582,8,8,8s8-3.582,8-8v-33.742h264c8.822,0,16,7.178,16,16v28c0,8.822-7.178,16-16,16H312v-30 c0-4.418-3.582-8-8-8s-8,3.582-8,8v30H95.968c-4.418,0-8,3.582-8,8s3.582,8,8,8H448c17.645,0,32-14.355,32-32v-28 C480,118.768,465.645,104.413,448,104.413z"/><path d="M217.746,314.642c4.09,1.025,8.417,1.024,12.509,0c35.808-8.974,48.792-50.849,33.268-69.453 c-2.83-3.392-7.874-3.849-11.268-1.018c-3.393,2.831-3.848,7.875-1.018,11.268c7.703,9.233-0.275,37.518-24.872,43.682 c-1.548,0.388-3.184,0.388-4.731,0c-16.686-4.182-25.011-17.997-27.069-28.556c-1.165-5.977-1.252-13.852,4.951-17.424 c5.402-3.112,13.844-1.871,19.22,2.827c3.327,2.907,8.381,2.567,11.288-0.76c2.907-3.327,2.567-8.38-0.76-11.288 c-10.542-9.213-26.411-11.166-37.734-4.644c-5.235,3.015-16.949,12.398-12.669,34.351 C181.818,288.793,193.775,308.635,217.746,314.642z"/><path d="M174.857,427.413c4.485,0.004,8.071-3.622,8.08-7.984v-63.881c0.014-7.457-9.075-10.759-13.907-5.341l-26.008,29.16 l-25.905-29.258c-4.933-5.571-14.038-1.914-14.053,5.288v64c-0.009,4.402,3.49,8.016,7.937,8.016c4.41,0,8.033-3.571,8.042-7.984 v-42.959l17.968,20.245c3.186,3.598,8.785,3.582,11.96,0.021l17.945-20.168v42.829 C166.907,423.816,170.439,427.409,174.857,427.413z"/><path d="M138.874,315.413c4.41,0,8.054-3.571,8.063-7.984v-63.88c0.009-4.394-3.481-8.016-7.937-8.016 c-4.41,0-8.054,3.571-8.063,7.984v63.88C130.928,311.79,134.418,315.413,138.874,315.413z"/><path d="M368.857,427.413c4.485,0.004,8.071-3.622,8.08-7.984v-63.881c0.014-7.457-9.075-10.759-13.907-5.341l-26.008,29.16 l-25.905-29.258c-4.932-5.571-14.038-1.915-14.053,5.288v64c-0.009,4.402,3.49,8.016,7.937,8.016c4.41,0,8.033-3.571,8.042-7.984 v-42.959l17.968,20.245c3.186,3.598,8.785,3.582,11.96,0.021l17.945-20.168v42.829 C360.907,423.816,364.439,427.409,368.857,427.413z"/><path d="M240,427.413c17.645,0,32-14.355,32-32v-16c0-17.645-14.355-32-32-32s-32,14.355-32,32v16 C208,413.058,222.355,427.413,240,427.413z M224,379.413c0-8.822,7.178-16,16-16s16,7.178,16,16v16c0,8.822-7.178,16-16,16 s-16-7.178-16-16V379.413z"/></svg>