<svg xmlns="http://www.w3.org/2000/svg" viewBox="0 0 64 64"><g data-name="Layer 31"><rect width="6" height="8" x="25" y="33" fill="#ffd3b6"/><path fill="#f9b995" d="M25,36.575a10.8,10.8,0,0,0,6,0V33H25Z"/><path fill="#a7d0e1" d="M17,41H39A12,12,0,0,1,51,53V63a0,0,0,0,1,0,0H5a0,0,0,0,1,0,0V53A12,12,0,0,1,17,41Z"/><path fill="#80bbce" d="M18,60A10,10,0,0,1,8,50H8a11.93,11.93,0,0,1,2.153-6.847A11.98,11.98,0,0,0,5,53V63H51V60Z"/><path fill="#ffd3b6" d="M17,13H39a0,0,0,0,1,0,0V24A11,11,0,0,1,28,35h0A11,11,0,0,1,17,24V13A0,0,0,0,1,17,13Z"/><path fill="#f9b995" d="M31,33A11,11,0,0,1,20,22V13H17V24a10.989,10.989,0,0,0,18.5,8.03A10.953,10.953,0,0,1,31,33Z"/><path fill="#f8c460" d="M29,1H27A12,12,0,0,0,15,13v5h2V17H27.343a4,4,0,0,0,2.829-1.172L32,14l1.828,1.828A4,4,0,0,0,36.657,17H39v1h2V13A12,12,0,0,0,29,1Z"/><path fill="#eaac47" d="M18,13A11.99,11.99,0,0,1,29.5,1.025C29.333,1.018,29.169,1,29,1H27A12,12,0,0,0,15,13v5h2V17h1Z"/><path fill="#f9b995" d="M16,17h1a0,0,0,0,1,0,0v6a0,0,0,0,1,0,0H16a3,3,0,0,1-3-3v0A3,3,0,0,1,16,17Z"/><path fill="#ffd3b6" d="M42,17h1a0,0,0,0,1,0,0v6a0,0,0,0,1,0,0H42a3,3,0,0,1-3-3v0A3,3,0,0,1,42,17Z" transform="rotate(180 41 20)"/><path fill="#f97878" d="M43,41.69V63H13V41.69A11.8,11.8,0,0,1,17,41h4l7,14,7-14h4A11.8,11.8,0,0,1,43,41.69Z"/><path fill="#ed5d5d" d="M43,47H37v8a4,4,0,0,0,4,4h2Z"/><path fill="#ed5d5d" d="M18,60a9.937,9.937,0,0,1-5-1.349V63H43V60Z"/><path fill="#7a838b" d="M24.162,43.741,28,41l-3.838-2.741A2,2,0,0,0,21,39.886v2.228A2,2,0,0,0,24.162,43.741Z"/><path fill="#5d6972" d="M24,42.114V39.886a1.954,1.954,0,0,1,.545-1.354l-.383-.273A2,2,0,0,0,21,39.886v2.228a2,2,0,0,0,3.162,1.627l.384-.274A1.946,1.946,0,0,1,24,42.114Z"/><path fill="#7a838b" d="M31.838,43.741,28,41l3.838-2.741A2,2,0,0,1,35,39.886v2.228A2,2,0,0,1,31.838,43.741Z"/><path fill="#5d6972" d="M34.278,39.373l.505-.361a1.99,1.99,0,0,0-2.945-.753L28,41l3.838,2.741a1.99,1.99,0,0,0,2.945-.753l-.505-.36A2,2,0,0,1,34.278,39.373Z"/><path fill="#7a838b" d="M33,59H59a0,0,0,0,1,0,0v0a4,4,0,0,1-4,4H37a4,4,0,0,1-4-4v0a0,0,0,0,1,0,0Z"/><path fill="#5d6972" d="M36,59H33a4,4,0,0,0,4,4h3A4,4,0,0,1,36,59Z"/><path fill="#f8c460" d="M39,47H53a0,0,0,0,1,0,0v8a4,4,0,0,1-4,4H43a4,4,0,0,1-4-4V47A0,0,0,0,1,39,47Z"/><path fill="#eaac47" d="M52,56H50a8,8,0,0,1-8-8V47H39v8a4,4,0,0,0,4,4h6a4,4,0,0,0,3.892-3.108A3.974,3.974,0,0,1,52,56Z"/><path d="M30,62H29V55.236l5.194-10.388c.059-.026.121-.037.179-.067A2.988,2.988,0,0,0,36,42.114V42h1a1,1,0,0,0,0-2H36v-.114a3,3,0,0,0-4-2.828V35.3A12.01,12.01,0,0,0,40,24a3.987,3.987,0,0,0,2-7.444V13A13.015,13.015,0,0,0,29,0H27A13.015,13.015,0,0,0,14,13v3.556A3.987,3.987,0,0,0,16,24a12.01,12.01,0,0,0,8,11.3v1.758a3,3,0,0,0-4,2.828V40H17A13.015,13.015,0,0,0,4,53V63a1,1,0,0,0,1,1H30a1,1,0,0,0,0-2ZM28,42.229l3.257,2.326h0a3.057,3.057,0,0,0,.671.353L28,52.764l-3.928-7.856a2.993,2.993,0,0,0,.671-.353ZM33.457,39a.983.983,0,0,1,.543.889v2.228a1,1,0,0,1-1.581.814h0L29.721,41l2.7-1.928A.988.988,0,0,1,33.457,39ZM40,22V18a2,2,0,0,1,0,4ZM14,20a2,2,0,0,1,2-2v4A2,2,0,0,1,14,20Zm4,4V18h9.343a4.968,4.968,0,0,0,3.536-1.464l1.828-1.829a1,1,0,0,0-1.414-1.414l-1.828,1.829A2.983,2.983,0,0,1,27.343,16H16V13A11.013,11.013,0,0,1,27,2h2A11.013,11.013,0,0,1,40,13v3H36.657a3,3,0,0,1-1.984-.75,1,1,0,1,0-1.322,1.5A4.992,4.992,0,0,0,36.657,18H38v6a10,10,0,0,1-20,0ZM28,36a11.986,11.986,0,0,0,2-.181v2.524l-2,1.428-2-1.428V35.819A11.986,11.986,0,0,0,28,36Zm-6,3.886A.983.983,0,0,1,22.543,39a1,1,0,0,1,.46-.113.988.988,0,0,1,.578.189L26.279,41l-2.7,1.927h0A1,1,0,0,1,22,42.114ZM6,53a11,11,0,0,1,6-9.786V49a1,1,0,0,0,2,0V42.426A10.966,10.966,0,0,1,17,42h3v.114a2.988,2.988,0,0,0,1.627,2.667c.058.03.12.041.179.067L27,55.236V62H14V53a1,1,0,0,0-2,0v9H6Z"/><path d="M23,21a1,1,0,0,0-1,1v1a1,1,0,0,0,2,0V22A1,1,0,0,0,23,21Z"/><path d="M33,24a1,1,0,0,0,1-1V22a1,1,0,0,0-2,0v1A1,1,0,0,0,33,24Z"/><circle cx="28" cy="45" r="1"/><circle cx="28" cy="49" r="1"/><path d="M59,58H52.974a4.954,4.954,0,0,0,.925-2H54a4,4,0,0,0,0-8V47a1,1,0,0,0-1-1H39a1,1,0,0,0-1,1v8a4.948,4.948,0,0,0,1.026,3H33a1,1,0,0,0-1,1,5.006,5.006,0,0,0,5,5H55a5.006,5.006,0,0,0,5-5A1,1,0,0,0,59,58Zm-3-6a2,2,0,0,1-2,2V50A2,2,0,0,1,56,52ZM40,55V48H52v7a3,3,0,0,1-3,3H43A3,3,0,0,1,40,55Zm15,7H37a3.006,3.006,0,0,1-2.829-2H57.829A3.006,3.006,0,0,1,55,62Z"/><path d="M40,39v4a1,1,0,0,0,2,0V39a1,1,0,0,1,1-1h2a3,3,0,0,0,3-3,1,1,0,0,1,1-1h2a1,1,0,0,0,0-2H49a3,3,0,0,0-3,3,1,1,0,0,1-1,1H43A3,3,0,0,0,40,39Z"/><path d="M51,36a1,1,0,0,0-1,1v2a1,1,0,0,1-1,1H48a3,3,0,0,0-3,3,1,1,0,0,0,2,0,1,1,0,0,1,1-1h1a3,3,0,0,0,3-3V37A1,1,0,0,0,51,36Z"/><path fill="#fff" d="M34.992,6a.987.987,0,0,1-.6-.2A9.039,9.039,0,0,0,32.6,4.751a1,1,0,0,1,.8-1.832A11.007,11.007,0,0,1,35.594,4.2a1,1,0,0,1-.6,1.8Z"/></g></svg>