<svg xmlns="http://www.w3.org/2000/svg" viewBox="0 0 64 64"><g data-name="24-mixer"><path fill="#fff" d="M1,42a2.006,2.006,0,0,1,2-2H4.5L5,41A25.308,25.308,0,0,0,7.84,51.99,6.979,6.979,0,0,1,1,45Z"/><path fill="#fff" d="M15.05,33.18l1.56-6.76a3.175,3.175,0,0,1,.83-1.51,3.136,3.136,0,0,1,3.19-.75l4.16,1.39-3.64.91a3.723,3.723,0,0,0-2.45,1.96l-3.22,6.43A1.846,1.846,0,0,1,15.05,33.18Z"/><path fill="#fff" d="M26.12,26.88,26,27l-9.19,9.19-1.12-1.12-.14-.14a.572.572,0,0,1-.07-.08l3.22-6.43a3.723,3.723,0,0,1,2.45-1.96l3.64-.91Z"/><path fill="#fff" d="M27.45,28.21l-.91,3.64a3.723,3.723,0,0,1-1.96,2.45l-6.43,3.22a.572.572,0,0,1-.08-.07l-1.26-1.26L26,27l.12-.12Z"/><path fill="#fff" d="M28.84,32.37a3,3,0,0,1,.16.98,3.145,3.145,0,0,1-.68,1.95,2.848,2.848,0,0,1-.23.26,3.175,3.175,0,0,1-1.51.83l-6.76,1.56a1.846,1.846,0,0,1-1.67-.43l6.43-3.22a3.723,3.723,0,0,0,1.96-2.45l.91-3.64Z"/><circle cx="45" cy="37" r="3" fill="#ede9e1"/><path fill="#ede9e1" d="M49,16a3.995,3.995,0,1,1-2.83,1.17A4,4,0,0,1,49,16Z"/><polygon fill="#beb4aa" points="32.5 20.5 28 16 30 14 39 23 37 25 32.5 20.5"/><polygon fill="#da684e" points="42 22 40 24 39 23 30 14 29 13 31 11 42 22"/><path fill="#918778" d="M45,20a4,4,0,0,0,6.83,2.83L52,23l9.32,9.32a8.066,8.066,0,0,1-1.04,1.15L52,41V36a7,7,0,0,0-11.45-5.4l-.03-.03L46,26l-4-4L31,11l-1-1,4.5-4.5L46,17l.17.17A4.025,4.025,0,0,0,45,20Z"/><path fill="#da684e" d="M63,27.33a8.243,8.243,0,0,1-1.68,4.99L52,23l-.17-.17a4,4,0,0,0-5.66-5.66L46,17,34.5,5.5l3.8-3.8A2.369,2.369,0,0,1,39.98,1a2.414,2.414,0,0,1,1.72.73l19,19.86A8.3,8.3,0,0,1,63,27.33Z"/><path fill="#da684e" d="M56,58.35v.24A4.4,4.4,0,0,1,51.59,63H9a3,3,0,0,1-3-3V59H26.23a11.344,11.344,0,0,0,10.52-7.01A24,24,0,0,0,38,48V36a6.958,6.958,0,0,1,2.05-4.95,5.345,5.345,0,0,1,.5-.45A7,7,0,0,1,52,36V51a5.346,5.346,0,0,0,2.3,3.88A4.452,4.452,0,0,1,56,58.35ZM48,37a3,3,0,1,0-3,3A3,3,0,0,0,48,37Z"/><path fill="#a34235" d="M26.58,36.39a3.175,3.175,0,0,0,1.51-.83,2.848,2.848,0,0,0,.23-.26c4.6.34,7.68.98,7.68,1.7,0,1.1-7.16,2-16,2S4,38.1,4,37c0-.92,4.95-1.69,11.69-1.93l1.12,1.12,1.26,1.26a.572.572,0,0,0,.08.07,1.846,1.846,0,0,0,1.67.43Z"/><path fill="#ede9e1" d="M7.84,51.99A25.308,25.308,0,0,1,5,41s9,1,15,1,15-1,15-1,0,18-15,18A13.1,13.1,0,0,1,7.84,51.99Z"/><path fill="#f58569" d="M20,39c8.84,0,16-.9,16-2v2l-1,2s-9,1-15,1S5,41,5,41l-.5-1L4,39V37C4,38.1,11.16,39,20,39Z"/><ellipse cx="20" cy="37" fill="#da684e" rx="16" ry="2"/><path fill="#ded9d0" d="M29.314,32.212l-1.389-4.16a.529.529,0,0,0-.121-.2l-2.66-2.66a.529.529,0,0,0-.2-.121l-4.161-1.389a3.631,3.631,0,0,0-3.7.875,3.672,3.672,0,0,0-.96,1.747l-1.561,6.758a2.3,2.3,0,0,0,.5,2.055.959.959,0,0,0,.135.162L17.717,37.8a.577.577,0,0,0,.1.085h0a2.343,2.343,0,0,0,1.582.61,2.413,2.413,0,0,0,.538-.061l6.758-1.561a3.673,3.673,0,0,0,1.75-.962,3.324,3.324,0,0,0,.273-.307A3.622,3.622,0,0,0,29.5,33.35,3.482,3.482,0,0,0,29.314,32.212Zm-3.9-5.332-8.6,8.6-.725-.728,3.059-6.108a3.225,3.225,0,0,1,2.124-1.7l3.366-.841Zm-9.876,6.412L17.1,26.531a2.659,2.659,0,0,1,.694-1.265,2.625,2.625,0,0,1,2.68-.631l2.533.846-1.973.493A4.221,4.221,0,0,0,18.253,28.2l-2.745,5.482A1.363,1.363,0,0,1,15.537,33.292Zm1.982,2.9,8.6-8.6.776.776-.842,3.368a3.222,3.222,0,0,1-1.7,2.122l-6.114,3.061Zm10.408-1.2a2.13,2.13,0,0,1-.187.211,2.664,2.664,0,0,1-1.272.7l-6.761,1.561a1.322,1.322,0,0,1-.381.027L24.8,34.747a4.218,4.218,0,0,0,2.221-2.776L27.519,30l.848,2.538a2.5,2.5,0,0,1,.133.817A2.634,2.634,0,0,1,27.927,34.991Z"/><path fill="#ded9d0" d="M47,18a3.971,3.971,0,0,1,.361-1.639,4.1,4.1,0,0,0-1.191.809,4,4,0,0,0,5.66,5.66,4.1,4.1,0,0,0,.809-1.191A3.982,3.982,0,0,1,47,18Z"/><path fill="#f58569" d="M54.3,54.88A5.346,5.346,0,0,1,52,51V36a6.937,6.937,0,0,0-8.473-6.828A6.992,6.992,0,0,1,49,36V51a5.346,5.346,0,0,0,2.3,3.88A4.452,4.452,0,0,1,53,58.35v.24A4.4,4.4,0,0,1,48.59,63h3A4.4,4.4,0,0,0,56,58.59v-.24A4.452,4.452,0,0,0,54.3,54.88Z"/><path fill="#bd4c3d" d="M9,60V59H6v1a3,3,0,0,0,3,3h3A3,3,0,0,1,9,60Z"/><path fill="#bd4c3d" d="M39.75,51.99A24,24,0,0,0,41,48V36a6.958,6.958,0,0,1,2.05-4.95,5.345,5.345,0,0,1,.5-.45,6.94,6.94,0,0,1,2.977-1.428A6.959,6.959,0,0,0,40.55,30.6a5.345,5.345,0,0,0-.5.45A6.958,6.958,0,0,0,38,36V48a24,24,0,0,1-1.25,3.99A11.344,11.344,0,0,1,26.23,59h3A11.344,11.344,0,0,0,39.75,51.99Z"/><path fill="#da684e" d="M5,41s9,1,15,1,15-1,15-1l.885-1.77C34.967,40.223,28.213,41,20,41S5.033,40.223,4.115,39.23L4.5,40Z"/><path fill="none" d="M24.637,26.1l-3.366.841a3.225,3.225,0,0,0-2.124,1.7l-3.059,6.108.725.728,8.6-8.6Z"/><path fill="none" d="M21.032,25.974l1.973-.493-2.533-.846a2.6,2.6,0,0,0-3.374,1.9l-1.561,6.761a1.363,1.363,0,0,0-.029.386L18.253,28.2A4.221,4.221,0,0,1,21.032,25.974Z"/><path fill="none" d="M24.8,34.747,19.326,37.49a1.322,1.322,0,0,0,.381-.027L26.468,35.9a2.664,2.664,0,0,0,1.272-.7,2.13,2.13,0,0,0,.187-.211A2.634,2.634,0,0,0,28.5,33.35a2.5,2.5,0,0,0-.133-.817L27.519,30l-.494,1.976A4.218,4.218,0,0,1,24.8,34.747Z"/><path fill="none" d="M17.519,36.188l.723.726,6.114-3.061a3.222,3.222,0,0,0,1.7-2.122l.842-3.368-.776-.776Z"/><polygon fill="#ded9d0" points="32.5 20.5 31.793 19.793 25.767 25.819 27.181 27.233 33.207 21.207 32.5 20.5"/><path fill="none" d="M2,42v3a5.944,5.944,0,0,0,5.3,5.951A25.9,25.9,0,0,1,5,41H3A1,1,0,0,0,2,42Z"/><path fill="#afa59b" d="M7.3,50.951A5.944,5.944,0,0,1,2,45V42a1,1,0,0,1,1-1H5l-.5-1L4,39H3a3,3,0,0,0-3,3v3a7.936,7.936,0,0,0,7.766,7.988A2.121,2.121,0,0,0,8,53h.462c-.219-.332-.429-.668-.622-1.01S7.47,51.3,7.3,50.951Z"/><path fill="#853929" d="M49,16a4,4,0,1,0,4,4A4.025,4.025,0,0,0,49,16Zm2.122,6.122A3,3,0,1,1,52,20,3.017,3.017,0,0,1,51.122,22.122Z"/><rect width="1.414" height="15.556" x="35.293" y="9.222" fill="#a34235" transform="rotate(-45 36 17)"/><rect width="1.414" height="12.728" x="33.293" y="12.636" fill="#918778" transform="rotate(-45 34 19)"/><path fill="#bd4c3d" d="M45,33a4,4,0,1,0,4,4A4,4,0,0,0,45,33Zm0,7a3,3,0,1,1,3-3A3,3,0,0,1,45,40Z"/><path fill="#ded9d0" d="M45,38a2.986,2.986,0,0,1-2.817-2,3,3,0,1,0,5.634,0A2.986,2.986,0,0,1,45,38Z"/><path fill="#ded9d0" d="M10.075,41.485C7.166,41.24,5,41,5,41A25.308,25.308,0,0,0,7.84,51.99,13.1,13.1,0,0,0,20,59a13.827,13.827,0,0,0,7.509-2H27A16.994,16.994,0,0,1,10.075,41.485Z"/><path fill="#f7f3eb" d="M30.905,46.026a8.7,8.7,0,0,0-.9,2.859,1.277,1.277,0,0,0,.168.744.977.977,0,0,0,.877.369,2.232,2.232,0,0,0,1.534-.848,5.075,5.075,0,0,0,.865-1.658,10.855,10.855,0,0,0,.547-2.66c.076-.968-.4-3.47-1.825-2.68-.528.292-.539,1.074-.644,1.62A13.156,13.156,0,0,1,30.905,46.026Z"/><path fill="#f7f3eb" d="M28.883,50.181a2.582,2.582,0,0,1-.914,1.145,14.418,14.418,0,0,1-2.43,1.425,1.507,1.507,0,0,1-1.361.131.349.349,0,0,1-.165-.18.439.439,0,0,1,0-.21,7.3,7.3,0,0,1,.587-1.673,18.319,18.319,0,0,1,1.424-3.057,9.407,9.407,0,0,1,1.651-2.15c.519-.414,1.821-1.046,2.253-.176a1.211,1.211,0,0,1,.037.712,26.852,26.852,0,0,1-.727,2.88A8.854,8.854,0,0,1,28.883,50.181Z"/><path fill="#a34235" d="M5.531,37.849C8.088,38.529,13.6,39,20,39s11.912-.471,14.469-1.151C32.749,36.785,26.932,36,20,36S7.251,36.785,5.531,37.849Z"/><path fill="#ded9d0" d="M15.2,35.283,17.717,37.8a.577.577,0,0,0,.1.085h0a2.343,2.343,0,0,0,1.582.61,2.413,2.413,0,0,0,.538-.061l6.758-1.561a3.673,3.673,0,0,0,1.75-.962,3.324,3.324,0,0,0,.273-.307c.068-.086.12-.18.179-.27q-.588-.05-1.211-.092a2.663,2.663,0,0,1-1.214.656l-6.761,1.561a1.322,1.322,0,0,1-.381.027l4.832-2.419q-1.04-.036-2.129-.053l-3.787,1.9-.723-.726,1.18-1.18c-.486,0-.964.013-1.437.023l-.449.449-.425-.427c-.455.013-.9.028-1.343.046a.177.177,0,0,0,.016.022A.959.959,0,0,0,15.2,35.283Z"/><polygon fill="#beb4aa" points="36.414 10.586 38 9 34.5 5.5 30 10 31 11 33.5 13.5 36.414 10.586 36.414 10.586"/><path fill="#80786a" d="M36.414,13.414a2,2,0,0,1,0-2.828L33.5,13.5,42,22l4,4-5.48,4.57.03.03A7,7,0,0,1,52,36v5l5.425-4.934a5.95,5.95,0,0,0-1.668-3.309Z"/><path fill="#f58569" d="M43.445,3.555,41.7,1.73A2.414,2.414,0,0,0,39.98,1a2.369,2.369,0,0,0-1.68.7L34.5,5.5,38,9Z"/><path fill="#beb4aa" d="M61.32,32.32l-2.569-2.569-.842.788a1.988,1.988,0,0,0,1.867,3.389l.5-.458A8.066,8.066,0,0,0,61.32,32.32Z"/><path fill="#f58569" d="M49.163,14.382,59.368,25.05a3.019,3.019,0,0,1,.126,4.007l-.743.694L61.32,32.32a8.284,8.284,0,0,0-.62-10.73L50.574,11.006a1.993,1.993,0,0,0-1.411,3.376Z"/></g></svg>