<svg xmlns="http://www.w3.org/2000/svg" viewBox="0 0 480 480"><path fill="#ffa4b8" d="M472,109v262c0,11.05-8.95,20-20,20H28c-11.05,0-20-8.95-20-20V109c0-11.05,8.95-20,20-20h424	C463.05,89,472,97.95,472,109z"/><path fill="#ffbfcb" d="M472,109c0,5.523-4.477,10-10,10H68c-11.046,0-20,8.954-20,20v232c0,11.046-8.954,20-20,20	c-11.046,0-20-8.954-20-20V109c0-11.046,8.954-20,20-20h424C463.046,89,472,97.954,472,109z"/><path fill="#cbe3fa" d="M178,87v306c0,8.84-7.16,16-16,16h-18c-8.84,0-16-7.16-16-16V87c0-8.84,7.16-16,16-16h18	C170.84,71,178,78.16,178,87z"/><path fill="#eef7ff" d="M162.326,86c-9.702,0-16.319,7.58-16.319,16v291.177C146.012,404.811,128,405.677,128,393V87	c0-8.837,7.163-16,16-16c0,0,18.706,0.011,19.054,0.034C172.56,71.652,171.853,86,162.326,86z"/><path fill="#eef7ff" d="M420,290v36c0,8.84-7.16,16-16,16h-88c-8.84,0-16-7.16-16-16v-36c0-8.84,7.16-16,16-16h88	C412.84,274,420,281.16,420,290z"/><path fill="#cbe3fa" d="M105.22,160.92l29.82,10.28c-1.31,2.66-2.04,5.65-2.04,8.8v40c0,3.16,0.735,6.14,2.035,8.8	l-29.815,10.28C94.83,242.66,84,234.95,84,223.95v-47.9C84,165.05,94.83,157.34,105.22,160.92z"/><path fill="#eef7ff" d="M135.04,171.2c7.32-14.91,28.605-14.923,35.92,0c1.31,2.66,2.04,5.64,2.04,8.8v40	c0,11.09-9.008,20-20,20c-11.029,0-20-8.937-20-20v-40C133,176.85,133.73,173.86,135.04,171.2z"/><path fill="#cbe3fa" d="M222,176.05v47.9c0,11-10.83,18.71-21.22,15.13l-29.82-10.28c1.31-2.66,2.04-5.65,2.04-8.8v-40	c0-3.16-0.73-6.14-2.04-8.8l29.82-10.28C211.17,157.34,222,165.05,222,176.05z"/><path fill="#fff" d="M153,190v40.161c0.017,5.922-6.668,9.605-11.51,6.195C136.201,232.63,133,226.581,133,220v-40	c0-11.118,9.079-20.121,20.224-19.999c8.009,0.088,11.769,9.996,5.975,15.526C155.344,179.208,153,184.375,153,190z"/><path fill="#eef7ff" d="M135.04,171.2c-0.78,1.583-1.248,3.057-1.533,4.337c-0.516,2.313-2.956,3.638-5.196,2.865	l-10.09-3.482c-10.39-3.58-21.223,4.13-21.22,15.13v34.321c-0.006,8.278-12.47,8.846-12.97,0.583	c-0.047-0.781-0.03,2.458-0.03-48.903c0-11,10.83-18.71,21.22-15.13L135.04,171.2z"/><path fill="#eef7ff" d="M222,176.05c0,2.339-2.925,3.439-4.431,1.651c-4.013-4.765-10.204-7.049-16.788-4.781l-24.456,8.434	c-1.605,0.553-3.266-0.601-3.348-2.296c-0.101-2.075-0.516-4.814-2.015-7.858l29.82-10.28C211.17,157.34,222,165.05,222,176.05z"/><path fill="#cbe3fa" d="M420,290v36c0,8.837-7.163,16-16,16h-36.066c-4.636,0-6.746-5.729-3.259-8.784	c14.732-12.912,22.374-32.093,19.393-53.507c-0.419-3.014,1.899-5.709,4.941-5.709H404C412.837,274,420,281.163,420,290z"/><path d="M452,81H185.24c-2.671-10.34-12.078-18-23.24-18h-18c-13.233,0-24,10.767-24,24v47.032c0,4.418,3.582,8,8,8s8-3.582,8-8V87 c0-4.411,3.589-8,8-8h18c4.411,0,8,3.589,8,8v46.258c0,4.418,3.582,8,8,8s8-3.582,8-8V97h266c6.617,0,12,5.383,12,12v262 c0,6.617-5.383,12-12,12H214.161c-4.418,0-8,3.582-8,8s3.582,8,8,8H452c15.439,0,28-12.561,28-28V109C480,93.561,467.439,81,452,81 z"/><path d="M300,282c-4.418,0-8,3.582-8,8v36c0,13.233,10.767,24,24,24h88c13.233,0,24-10.767,24-24v-36c0-13.233-10.767-24-24-24 h-61.839c-4.418,0-8,3.582-8,8s3.582,8,8,8H404c4.411,0,8,3.589,8,8v36c0,4.411-3.589,8-8,8h-88c-4.411,0-8-3.589-8-8v-36 C308,285.582,304.418,282,300,282z"/><path d="M323,242h74c4.418,0,8-3.582,8-8s-3.582-8-8-8h-74c-4.418,0-8,3.582-8,8S318.582,242,323,242z"/><path d="M230,223.95v-47.9c0-16.463-16.25-28.063-31.827-22.693l-24.031,8.284C168.908,155.579,161.294,152,153,152 c-15.439,0-28,12.561-28,28c0,43.236-0.104,41.024,0.253,43.711l-22.639,7.805C97.43,233.305,92,229.477,92,223.95v-47.9 c0-5.496,5.399-9.361,10.614-7.566c4.178,1.44,8.73-0.781,10.17-4.957c1.439-4.178-0.78-8.73-4.957-10.17 C92.259,147.994,76,159.575,76,176.05v47.9c0,16.459,16.245,28.063,31.828,22.693l24.051-8.292 C137.017,244.256,144.577,248,153,248c15.439,0,28-12.561,28-28v-15.903c0-4.418-3.582-8-8-8s-8,3.582-8,8V220 c0,6.617-5.383,12-12,12s-12-5.383-12-12v-40c0-6.617,5.383-12,12-12c4.612,0,8.744,2.577,10.781,6.726 c1.463,2.957,4.483,4.601,7.532,4.464c1.642-0.068-0.058,0.365,32.073-10.706c5.197-1.791,10.613,2.05,10.613,7.566v47.9 c0,5.504-5.402,9.359-10.613,7.566c-4.18-1.443-8.731,0.78-10.17,4.957c-1.439,4.178,0.78,8.73,4.957,10.17 C213.748,252.01,230,240.418,230,223.95z"/><path d="M178,263.129c-4.418,0-8,3.582-8,8V393c0,4.411-3.589,8-8,8h-18c-4.411,0-8-3.589-8-8V271.517c0-4.418-3.582-8-8-8 s-8,3.582-8,8V383H28c-6.617,0-12-5.383-12-12V109c0-6.617,5.383-12,12-12h58.936c4.418,0,8-3.582,8-8s-3.582-8-8-8H28 C12.561,81,0,93.561,0,109v262c0,15.439,12.561,28,28,28h92.76c2.671,10.34,12.078,18,23.24,18h18c13.233,0,24-10.767,24-24 V271.129C186,266.711,182.418,263.129,178,263.129z"/></svg>