<svg xmlns="http://www.w3.org/2000/svg" viewBox="0 0 480 480"><path fill="#ffebd2" d="M402,71.5v290H78v-276c0-8.84,7.16-16,16-16h74c5.8,0,11.05,2.35,14.85,6.15	c10.613,10.614,1.687,19.087,12.3,29.7C208.402,118.6,231,109.07,231,90.029V76.5c0-11.6,9.4-21,21-21h134	C394.84,55.5,402,62.66,402,71.5z"/><path fill="#eef7ff" d="M447.104,361.5l-14.79,41.7c-4.53,12.77-16.61,21.3-30.16,21.3h-324.3	c-13.55,0-25.63-8.53-30.16-21.3l-14.79-41.7H447.104z"/><path fill="#cbe3fa" d="M447.104,361.5l-6.154,17.344c-2.263,6.387-8.305,10.656-15.081,10.656H54.139	c-6.776,0-12.818-4.269-15.081-10.656L32.904,361.5H447.104z"/><path fill="#fff3e4" d="M191.02,99.5H134c-8.84,0-16,7.16-16,16v246H78v-276c0-8.84,7.16-16,16-16h74c11.6,0,21,9.4,21,21	C189,93.72,189.72,96.77,191.02,99.5z"/><path fill="#ffaa64" d="M402,71.5v29H282.611c-7.756,0-14.37,5.571-15.747,13.204	c-11.022,61.112-98.78,59.421-111.363,11.725c-1.854-7.026-8.197-11.929-15.464-11.929H78v-28c0-8.837,7.163-16,16-16h74	c11.6,0,21,9.4,21,21c0,11.686,9.552,21.175,21.321,20.999c11.55-0.173,20.679-9.919,20.679-21.47V76.5c0-11.598,9.402-21,21-21h134	C394.837,55.5,402,62.663,402,71.5z"/><path fill="#ffbd7b" d="M374.977,72.79H269.29c-11.598,0-21,9.402-21,21v13.53c0,11.55-9.13,21.29-20.68,21.47	c-11.436,0.162-15.725-14.61-6.479-20.57c5.936-3.826,9.869-10.601,9.869-18.191V76.5c0-11.598,9.402-21,21-21	c0,0,123.39,0.01,123.726,0.029C386.747,56.168,386.017,72.79,374.977,72.79z"/><path fill="#ffbd7b" d="M180.619,99.5H134c-8.16,0-14.89,6.11-15.87,14H78v-28c0-8.837,7.163-16,16-16h74.367	C189.613,69.5,195.73,99.5,180.619,99.5z"/><path d="M480,361.5c0,4.418-3.582,8-8,8h-19.247l-12.904,36.374c-5.651,15.926-20.801,26.626-37.698,26.626H77.849	c-16.898,0-32.047-10.7-37.698-26.626c-1.478-4.164,0.701-8.737,4.865-10.214c4.161-1.477,8.737,0.7,10.214,4.864	c3.39,9.556,12.48,15.976,22.619,15.976h324.303c10.139,0,19.229-6.42,22.619-15.976l11.006-31.024H8c-4.418,0-8-3.582-8-8	s3.582-8,8-8h62v-268c0-13.233,10.766-24,24-24h74c15.991,0,29,13.01,29,29c0,7.168,5.832,13,13,13s13-5.832,13-13v-14	c0-15.99,13.009-29,29-29h134c4.418,0,8,3.582,8,8s-3.582,8-8,8H252c-7.168,0-13,5.832-13,13v14c0,15.99-13.009,29-29,29	s-29-13.01-29-29c0-7.168-5.832-13-13-13H94c-4.411,0-8,3.589-8,8v268h308v-245H275.635c-7.292,78.355-119.782,76.846-129.063,13	h-21.958c-4.418,0-8-3.582-8-8s3.582-8,8-8H154c4.418,0,8,3.582,8,8c0,51.728,98,56.484,98-13c0-4.418,3.582-8,8-8h134	c4.418,0,8,3.582,8,8v253h62C476.418,353.5,480,357.082,480,361.5z M150,284.5c4.418,0,8-3.582,8-8s-3.582-8-8-8h-15	c-4.418,0-8,3.582-8,8s3.582,8,8,8H150z M345,205.5c4.418,0,8-3.582,8-8s-3.582-8-8-8h-26c-4.418,0-8,3.582-8,8s3.582,8,8,8H345z M295,294.5c-4.418,0-8,3.582-8,8s3.582,8,8,8h15c4.418,0,8-3.582,8-8s-3.582-8-8-8H295z M240,243.5c4.418,0,8-3.582,8-8	s-3.582-8-8-8h-12c-4.418,0-8,3.582-8,8s3.582,8,8,8H240z"/></svg>