<svg xmlns="http://www.w3.org/2000/svg" viewBox="0 0 478.959 478.959"><path fill="#ffbd7b" d="M454.212,59.022c-40.479-22.023-75.276-16.283-79.84-16.53c-2.3-21.21-21.41-36.67-42.72-34.24	c-43.64,4.974-85.699,18.982-123.94,41.35l-0.65,0.6c-15.87-17.17-41.21-23.02-63.23-13.34	c-46.598,20.485-85.153,57.386-106.79,106.66c-9.73,22.13-4.05,47.58,13.17,63.53l-0.61,0.66	c-22.354,38.217-36.373,80.273-41.35,123.94c-2.43,21.31,13.03,40.42,34.24,42.72c0,6.593-4.979,40.305,16.53,79.84	c7.77,14.31,25.08,20.46,40.21,14.46c12.53-4.97,20.54-17.04,20.54-30.07c0-6.568-2.115-9.916-3.37-24.56	c-1.709-20.307,1.05-31.597,1.05-33.46c12.93-0.37,24.19-9.56,26.79-22.52c8.584-42.714,30.086-67.61,31.27-70.32	c19.36,8.02,42.16,2.51,55.77-14.31c12.52-15.499,26.664-29.642,42.35-42.32c16.76-13.54,22.11-36.3,14.11-55.6	c2.847-1.243,27.54-22.673,70.32-31.27c12.96-2.6,22.15-13.86,22.52-26.79c1.328,0,13.832-2.702,33.46-1.05	c14.594,1.25,17.985,3.37,24.56,3.37c13.03,0,25.1-8.01,30.07-20.54C474.672,84.102,468.522,66.792,454.212,59.022z"/><path fill="#ffd3a6" d="M335.829,38.649c-37.902,4.783-87.438,26.593-109.747,39.533c-4.32-6.73-8.65-13.45-12.97-20.18	c-5.979-9.282-6.895-7.02-5.4-8.4c42.671-24.959,91.748-39.017,125.487-41.495C352.939,6.657,355.467,36.171,335.829,38.649z"/><path fill="#ffd3a6" d="M81.977,454.421c4.296,7.766-4.4,16.299-11.911,11.572c-4.503-2.834-8.348-6.817-11.044-11.781	c-13.578-24.957-19.073-52.41-16.53-79.83c0-0.1-0.28-0.021,22.68,1.94C62.949,404.28,69.297,431.499,81.977,454.421z"/><path fill="#faa157" d="M385.334,116.861c-1.863,0.22-3.43,0.435-4.752,0.591c0.104-2.776-6.196-74.858-6.21-74.96	c0.244,0,1.321-0.152,4.599-0.348c8.624-0.515,16.076,5.977,16.826,14.584c1.081,12.408,2.577,30.116,3.633,42.93	C400.129,108.134,393.78,115.863,385.334,116.861z"/><path fill="#faa157" d="M117.452,380.582c-0.11,0.915-0.234,1.854-0.362,2.852c-1.094,8.493-8.658,14.628-17.191,13.91	c-12.775-1.075-30.515-2.595-42.985-3.671c-8.732-0.753-15.231-8.394-14.578-17.135c0.059-0.79,0.114-1.51,0.156-2.165	C42.593,374.385,114.738,380.683,117.452,380.582z"/><path fill="#faa157" d="M296.396,169.641c-2.663,1.761-5.406,3.651-8.654,5.87c-2.247-5.43-74.535-118.695-80.68-125.31	c1.244-1.149,9.372-5.522,10.01-5.867c7.361-3.981,16.554-1.617,21.079,5.422c20.97,32.622,41.94,65.238,62.916,97.86	C305.812,154.996,303.715,164.801,296.396,169.641z"/><path fill="#ffd3a6" d="M193.896,261.903c14.615,9.398,4.891,32.272-11.947,27.98c-4.882-1.244-9.63-3.278-14.057-6.122	c-121.396-78.035-112.915-72.264-117.68-76.71c-17.22-15.95-22.9-41.4-13.17-63.53C58.73,94.133,98.202,56.363,144.351,36.637	c16.607-7.099,29.628,15.406,15.35,26.465c-26.85,20.795-48.453,48.071-62.658,80.42c-11.12,25.292-2.089,54.762,21,69.61	C143.32,229.385,168.608,245.643,193.896,261.903z"/><path fill="#ffd3a6" d="M46.962,348.452c-1.923,16.932-22.184,22.353-31.935,9.994c-5.895-7.471-7.916-16.785-6.775-26.794	c4.974-43.64,18.982-85.699,41.35-123.94l0.61-0.66c4.721,4.405,5.793,4.795,34.72,23.37	C64.531,267.088,51.682,307.04,46.962,348.452z"/><path fill="#faa157" d="M175.512,287.742c-0.763,1.747-0.746,0.889-5.847,8.607c-4.854,7.345-14.66,9.496-22.065,4.735	c-32.616-20.971-65.238-41.948-97.854-62.925c-7.037-4.526-9.398-13.719-5.418-21.078c0.472-0.872,4.708-8.757,5.883-10.028	C57.105,213.483,169.778,285.378,175.512,287.742z"/><path d="M476.106,102.187c-7.312,18.428-26.606,28.802-45.844,24.699c-13.561-2.891-27.797-3.78-42.554-2.249	c-3.069,13.584-13.806,24.589-28.074,27.452c-9.134,1.833-18.146,4.438-26.789,7.745c-4.151,1.589-8.761-0.512-10.33-4.613	c-1.579-4.126,0.486-8.752,4.613-10.331c9.474-3.625,19.352-6.481,29.359-8.489c10.021-2.011,16.919-11.263,16.043-21.521	l-6.045-70.812c-1.461-17.118-16.723-29.832-33.928-27.867c-38.826,4.426-77.368,16.301-113.567,36.214	c1.256,1.855-5.608-8.787,71.497,111.154c15.492,24.1,10.407,55.813-11.828,73.77c-14.679,11.853-28.562,25.553-41.16,41.121	c-14.512,17.936-37.791,24.746-58.8,18.839c-13.542,19.4-22.244,40.567-26.611,62.336c-2.863,14.268-13.867,25.011-27.453,28.079	c-1.485,14.301-0.738,28.525,2.25,42.548c5.441,25.527-14.401,48.697-39.58,48.697c-14.362,0-28.121-7.69-35.317-20.926	c-5.028-9.249-9.075-18.972-12.028-28.902c-1.26-4.235,1.152-8.689,5.388-9.949c4.232-1.26,8.688,1.153,9.948,5.387	c2.636,8.863,6.253,17.55,10.749,25.821c5.823,10.711,18.824,15.375,30.24,10.843c11.136-4.418,17.424-16.042,14.952-27.636	c-3.226-15.14-4.09-30.438-2.72-45.552l-65.811-5.618c-26.228-2.24-45.375-25.619-42.401-51.683	c2.922-25.651,8.981-51.437,18.392-76.6c1.548-4.139,6.162-6.236,10.295-4.691c4.139,1.548,6.239,6.157,4.691,10.295	c-8.618,23.046-14.594,47.474-17.481,72.808c-1.958,17.182,10.714,32.465,27.866,33.928l70.813,6.045	c10.254,0.875,19.511-6.022,21.521-16.043c4.619-23.025,13.678-45.385,27.443-65.83c-1.309-0.831-107.472-69.082-110.132-70.792	c-26.638-17.125-36.73-50.585-23.998-79.563C51.677,90.316,90.976,51.357,140.616,29.541c7.576-3.33,15.599-5.119,23.846-5.318	c4.43-0.076,8.085,3.388,8.191,7.804c0.106,4.417-3.388,8.084-7.805,8.191c-6.151,0.149-12.139,1.485-17.795,3.97	C101.295,64.3,64.804,100.213,44.362,146.739c-9.548,21.729-1.977,46.823,18.002,59.667l109.856,70.622	c17.197,11.057,39.914,7.344,52.842-8.633c13.142-16.245,27.798-30.789,43.545-43.505c15.867-12.813,19.487-35.456,8.422-52.669	C200.332,52.914,205.298,60.024,201.064,55.487c-3.014-3.23-2.839-8.293,0.393-11.307c1.918-1.791,55.603-35.472,129.289-43.876	c26.051-2.966,49.443,16.161,51.682,42.403l5.618,65.811c15.281-1.385,30.589-0.47,45.553,2.72	c11.596,2.472,23.217-3.816,27.637-14.952c4.529-11.416-0.133-24.416-10.845-30.24c-9.493-5.162-19.506-9.15-29.759-11.854	c-4.272-1.126-6.822-5.503-5.695-9.775c1.127-4.271,5.499-6.825,9.775-5.695c11.491,3.03,22.703,7.494,33.321,13.268	C475.848,61.675,483.619,83.255,476.106,102.187z"/></svg>