<svg xmlns="http://www.w3.org/2000/svg" viewBox="0 0 480 480"><path fill="#cbe3fa" d="M472,105.345v317c0,8.84-7.16,16-16,16H56c-26.51,0-48-21.49-48-48v-316c0-15.46,12.54-28,28-28	c15.458,0,28,12.54,28,28v15h392C464.84,89.345,472,96.505,472,105.345z"/><path fill="#eef7ff" d="M472,105.345v80.26H358.51c-139.584,0-252.74,113.156-252.74,252.74H56c-26.51,0-48-21.49-48-48	V74.914c0-25.145,30.012-38.122,47.8-20.369c9.847,9.866,8.2,19.891,8.2,34.8h89c-13.66-15.52-20.58-32.44-15-41	c7.42-11.38,36.74-7.63,54,7c13.7,11.6,17.05,27.71,18,34h37c0.01-2.11,0.49-27.18,20-39c9.81-5.94,28.21-10.8,37-1	c7.72,8.6,6.43,26.73-7,40h159C464.837,89.345,472,96.508,472,105.345z"/><path fill="#c79a83" d="M210,89.345h-57c-13.66-15.52-20.58-32.44-15-41c7.42-11.38,36.74-7.63,54,7	C205.7,66.945,209.05,83.055,210,89.345z"/><path fill="#c79a83" d="M304,49.345c7.72,8.6,6.43,26.73-7,40h-50c0.01-2.11,0.49-27.18,20-39	C276.81,44.405,295.21,39.545,304,49.345z"/><path fill="#ffbd7b" d="M472,324.535v97.81c0,8.84-7.16,16-16,16H64v-81.81c0-17.67,14.33-32,32-32H472z"/><path fill="#ffbd7b" d="M472,142.445v119.9H96c-17.67,0-32-14.33-32-32v-55.9c0-17.68,14.33-32,32-32H472z"/><path fill="#e0b7a3" d="M165.25,89.345H153c-15.858-18.017-26.993-43.654-3.316-47.274	c8.696-1.329,14.147,8.633,8.788,15.609C152.162,65.89,159.439,80.694,165.25,89.345z"/><path fill="#e0b7a3" d="M273.575,47.005c12.29-5.128,21.334,12.121,9.425,19.34c-9.7,5.88-14.69,15.02-17.26,23H247	c0.01-2.11,0.49-27.18,20-39C269.112,49.066,271.322,47.945,273.575,47.005z"/><path fill="#ffd3a6" d="M129.992,330.247c-14.49,30.56-23.02,64.494-24.104,100.3c-0.131,4.337-3.652,7.798-7.991,7.798H64	v-81.81c0-17.673,14.327-32,32-32h30.387C129.325,324.535,131.251,327.592,129.992,330.247z"/><path fill="#ffd3a6" d="M472,142.445v35.16c0,4.418-3.582,8-8,8H358.51c-69.956,0-133.273,28.424-179.024,74.354	c-1.511,1.517-3.552,2.387-5.693,2.387H96c-17.673,0-32-14.327-32-32v-55.9c0-17.68,14.33-32,32-32H472z"/><path d="M72,174.441v55.903c0,13.233,10.766,24,24,24h368v-149c0-4.411-3.589-8-8-8c-263.833,0-246.34,0.084-247.54-0.151	c-2.224-0.435-4.294-1.863-5.465-3.986c-1.701-3.077-1.841-19.622-16.167-31.759c-16.241-13.76-38.956-13.593-42.129-8.731	c-2.223,3.406,0.858,14.984,12.004,28.628h13.716c4.418,0,8,3.582,8,8s-3.582,8-8,8H64c-4.418,0-8-3.582-8-8v-15	c0-11.028-8.972-20-20-20s-20,8.972-20,20v316c0,22.056,17.944,40,40,40h400c4.411,0,8-3.589,8-8v-89.807H96	c-13.234,0-24,10.767-24,24v24.903c0,4.418-3.582,8-8,8s-8-3.582-8-8v-24.903c0-22.056,17.944-40,40-40h376c4.418,0,8,3.582,8,8	v97.807c0,13.233-10.767,24-24,24H56c-30.878,0-56-25.121-56-56v-316c0-19.851,16.149-36,36-36s36,16.149,36,36v7h65.036	c-8.103-12.936-12.391-27.172-5.735-37.372c11.194-17.155,46.44-11.194,65.871,5.269c11.666,9.883,16.957,22.656,19.357,32.104	h23.159c1.559-10.321,6.643-27.831,23.167-37.842c12.149-7.36,34.718-13.305,47.101,0.5c2.95,3.289,2.676,8.347-0.613,11.297	c-3.288,2.949-8.346,2.677-11.297-0.613c-5.164-5.757-19.183-2.175-26.899,2.5c-9.938,6.021-13.759,16.747-15.228,24.158H456	c13.233,0,24,10.767,24,24v157c0,4.418-3.582,8-8,8H96c-22.056,0-40-17.944-40-40v-55.903c0-22.056,17.944-40,40-40h321	c4.418,0,8,3.582,8,8s-3.582,8-8,8H96C82.766,150.441,72,161.208,72,174.441z"/></svg>