<svg xmlns="http://www.w3.org/2000/svg" viewBox="0 0 479.993 479.993"><path fill="#ffebd2" d="M281.018,367.613c-0.1,0-36.46-12.59-43.1-14.86c-21.512-7.43-36.49-27.727-36.49-51.19	c35.82-14.9,61-50.23,61-91.44v-3.07c14.021,0,25.06-11.354,25.07-24.98v-94.46c0.02-43.93-35.54-79.58-79.47-79.61h-67.65	c-32.51,0-61.75,19.76-73.84,49.93c-14.91-0.01-27.03,12.07-27.04,26.98v97.46c-0.01,13.319,10.759,24.56,24.93,24.56v3.19	c0,41.21,25.18,76.54,61,91.44c0,22.908-14.319,44.044-36.49,51.19c-0.099,0.032-43.02,14.77-43.12,14.87	c-21.78,7.55-36.39,28.08-36.39,51.14v45.23c0,4.42,3.58,8,8,8h292c4.42,0,8-3.58,8-8v-45.23	C317.428,395.693,302.808,375.163,281.018,367.613z"/><path fill="#585966" d="M208.028,8.003c43.93,0.03,79.49,35.68,79.47,79.61v94.46c-0.01,13.645-11.069,24.98-25.07,24.98	v-44.119c0-4.69-4.017-8.394-8.687-7.97c-48.891,4.438-97.214-8.235-137.52-36.278c-3.92-2.728-9.363-1.491-11.617,2.719	c-8.098,15.124-20.561,25.474-34.956,30.87c-3.135,1.175-5.22,4.151-5.22,7.499c0,50.783,0.098,47.159-0.18,47.159	c-13.7-0.005-24.76-11.01-24.75-24.56v-97.46c0.01-14.91,12.13-26.99,27.04-26.98c12.09-30.17,41.33-49.93,73.84-49.93H208.028z"/><path fill="#ffdfba" d="M196.988,319.253c-22.4,8.02-45.77,7.64-67.15-0.01c-3.61-1.29-5.77-5.01-5.14-8.79	c0.458-2.749,0.73-5.772,0.73-8.89c23.6,9.82,51.15,10.34,76,0c0,3.114,0.297,6.294,0.73,8.89	C202.788,314.243,200.608,317.953,196.988,319.253z"/><path fill="#6e6f80" d="M210.465,8.062c13.022,0.403,12.678,19.948-0.349,20.093c-10.476,0.116-23.334,0.001-39.688-0.172	c-32.732-0.345-61.857,19.923-73.89,49.95c-14.91-0.01-27.015,12.07-27.025,26.98v47.42c-3.05,1.22-5.085,4.151-5.085,7.441v47.159	c-14.168,0-24.94-11.238-24.93-24.56v-97.46c0.01-14.91,12.13-26.99,27.04-26.98c12.09-30.17,41.33-49.93,73.84-49.93	C140.378,8.003,209.656,8.037,210.465,8.062z"/><path fill="#fff3e4" d="M166.265,290.711c10.672,2.532,8.876,18.329-2.092,18.41c-54.853,0.406-99.745-43.916-99.745-98.997	v-50.349c0-3.34,2.09-6.319,5.22-7.499c2.15-0.805,4.226-1.712,6.224-2.705c6.219-3.092,13.53,1.278,13.589,8.223	c0.065,7.721,0.046,19.146-0.033,36.33C89.203,243.301,124.137,280.716,166.265,290.711z"/><path fill="#80aaff" d="M317.428,418.763v45.23c0,4.418-3.582,8-8,8h-292c-4.418,0-8-3.582-8-8v-45.23	c0-23.06,14.61-43.59,36.39-51.14c0.1-0.1,31.612-10.867,43.12-14.87c2.66-0.92,5.22-2.03,7.65-3.32	c11.56,26.15,37.72,43.56,66.84,43.56s55.28-17.41,66.84-43.56c2.43,1.29,4.99,2.4,7.65,3.32c0.1,0.035,43,14.86,43.1,14.86	C302.808,375.163,317.428,395.693,317.428,418.763z"/><path fill="#9cbcff" d="M104.972,363.732c4.082,5.428,1.699,13.252-4.723,15.465c-0.313,0.108-24.325,8.321-24.432,8.427	c-21.78,7.55-36.39,28.08-36.39,51.14v23.23c0,5.523-4.477,10-10,10h-12c-4.418,0-8-3.582-8-8v-45.23	c0-23.06,14.61-43.59,36.39-51.14c0,0,0.01-0.01,0.03-0.01c33.829-12.102,43.143-14.147,50.74-18.18	C98.852,354.56,101.675,359.348,104.972,363.732z"/><rect width="216" height="47" x="55.428" y="424.993" fill="#585966"/><path fill="#6e6f80" d="M271.428,424.993v17.29h-168.5c-12.523,0-22.823,9.806-23.472,22.276	c-0.218,4.193-3.778,7.434-7.976,7.434H55.428v-47H271.428z"/><path fill="#cbe3fa" d="M436.428,402.981c0,37.376-29.736,68.528-67.109,69.007c-37.968,0.486-68.891-30.138-68.891-67.994	v-15c0-4.418,3.582-8,8-8h120c4.418,0,8,3.582,8,8V402.981z"/><path fill="#eef7ff" d="M436.428,388.993c0,3.866-3.134,7-7,7h-80c-12.686,0-23,10.3-23,23	c0,8.781,1.663,17.173,4.692,24.878c2.783,7.078-6.168,12.963-11.469,7.508c-11.898-12.244-19.223-28.956-19.223-47.386v-15	c0-4.418,3.582-8,8-8h120C432.846,380.993,436.428,384.575,436.428,388.993z"/><path d="M146.428,198.993v-14c0-4.418-3.582-8-8-8s-8,3.582-8,8v14c0,4.418,3.582,8,8,8S146.428,203.412,146.428,198.993z"/><path d="M196.428,198.993v-14c0-4.418-3.582-8-8-8s-8,3.582-8,8v14c0,4.418,3.582,8,8,8S196.428,203.412,196.428,198.993z"/><path d="M295.495,178.418V87.616c0.03-48.27-39.188-87.586-87.458-87.616h-67.663c-34.297,0-64.88,19.581-79.259,50.345 c-16.654,2.569-29.61,17.024-29.621,34.565v97.459c-0.01,15.506,10.765,28.234,25.017,31.646 c0.845,22.975,9.125,45.278,23.552,63.185c2.771,3.44,7.808,3.983,11.248,1.21c3.441-2.771,3.983-7.808,1.211-11.249 c-13.146-16.317-20.095-36.043-20.095-57.044v-50.338c16.557-6.194,30.403-18.099,39.203-34.539 c41.653,29.01,91.79,42.269,142.797,37.689v47.188c0,50.178-40.822,91-91,91c-20.946,0-33.126-6.74-36.427-7.399 c-4.921-0.989-9.614,2.81-9.574,7.901c-0.025,19.655-12.516,37.158-31.102,43.566l-43.103,14.862 c-25.004,8.665-41.794,32.248-41.794,58.717v53.227c0,4.418,3.582,8,8,8s8-3.582,8-8v-53.227c0-19.285,12.009-36.501,30-43.219 v96.446c0,4.418,3.582,8,8,8s8-3.582,8-8v-39h149.857c4.418,0,8-3.582,8-8s-3.582-8-8-8H63.428v-46.988l28.112-9.693 c21.523-7.42,36.967-25.892,40.897-47.751c68.599,20.763,137.991-30.862,137.991-102.443v-56.125c0-4.825-4.251-8.566-9.052-7.931 c-52.036,6.901-105.054-6.44-148.082-39.419c-4.249-3.258-10.453-1.493-12.35,3.52c-6.74,17.83-20.58,30.988-38.702,36.134 c-3.44,0.977-5.814,4.119-5.814,7.696v43.032c-5.385-2.804-8.937-8.291-8.933-14.645v-97.46 c0.006-10.343,8.423-18.988,19.03-18.988c3.367,0,6.255-2.058,7.443-5.024C84.906,33.61,110.969,16,140.375,16h67.652 c39.447,0.025,71.492,32.159,71.468,71.607v90.801c-0.003,4.418,3.551,8.004,7.969,8.005 C291.88,186.414,295.492,182.834,295.495,178.418z"/><path d="M279.392,363.594c-0.28-3.146-2.403-5.838-5.357-6.854l-33.505-11.553c-8.276-2.854-15.537-7.973-20.996-14.803 c-2.759-3.452-7.794-4.013-11.243-1.255c-3.452,2.758-4.014,7.792-1.255,11.244c3.691,4.618,7.993,8.655,12.772,12.017 c-18.65,32.382-61.225,42.743-92.764,21.433c-3.659-2.472-8.633-1.512-11.107,2.15c-2.474,3.661-1.511,8.634,2.15,11.107 c39.565,26.731,92.89,13.435,115.898-27.252c1.505,0.557-2.089-0.694,29.442,10.178v101.987c0,4.418,3.582,8,8,8s8-3.582,8-8 C279.428,357.866,279.447,364.213,279.392,363.594z"/><path d="M444.428,384.607v-3.614c0-4.418-3.582-8-8-8h-136c-4.418,0-8,3.582-8,8v23c0,15.613,4.7,30.615,13.592,43.384 c2.526,3.626,7.513,4.519,11.137,1.993c3.626-2.525,4.519-7.511,1.994-11.137c-7.015-10.073-10.723-21.913-10.723-34.241v-15h120 v15c0,33.084-26.916,60-60,60h-71c-4.418,0-8,3.582-8,8s3.582,8,8,8h142c4.418,0,8-3.582,8-8s-3.582-8-8-8h-24.436 c17.892-13.917,29.436-35.629,29.436-60v-3.347c3.838-0.335,8.593-0.009,12.143,2.704c7.751,5.922,7.992,22.251,0.479,32.355 c-2.637,3.545-1.9,8.557,1.645,11.193c3.569,2.653,8.575,1.878,11.193-1.646C486.919,422.353,479.113,382.691,444.428,384.607z"/><path d="M335.049,346.407c-1.776,5.199,2.105,10.588,7.571,10.588c3.327,0,6.434-2.092,7.569-5.416 c4.477-13.104,1.34-21.311-0.95-27.303c-2.032-5.317-3.259-8.526,0.123-15.976c1.827-4.023,0.046-8.765-3.978-10.592 c-4.021-1.826-8.766-0.046-10.591,3.978c-6.145,13.534-3.015,21.722-0.5,28.302C336.244,335.093,337.654,338.78,335.049,346.407z"/><path d="M385.049,346.407c-1.776,5.199,2.105,10.588,7.571,10.588c3.327,0,6.434-2.092,7.569-5.416 c4.477-13.104,1.34-21.311-0.95-27.303c-2.032-5.317-3.259-8.526,0.123-15.976c1.827-4.023,0.046-8.765-3.978-10.592 c-4.021-1.826-8.766-0.046-10.591,3.978c-6.145,13.534-3.015,21.722-0.5,28.302C386.244,335.093,387.654,338.78,385.049,346.407z"/></svg>