<svg xmlns="http://www.w3.org/2000/svg" viewBox="0 0 480 480"><path fill="#ffbd7b" d="M464.68,319.925c15.581-15.581,4.704-42.68-17.68-42.68h-28.05c22.808-15.767,22.651-49.342,0-65H447	c6.9,0,13.16-2.8,17.68-7.32c15.581-15.581,4.704-42.68-17.68-42.68H290.14c18.62-2.96,32.86-19.11,32.86-38.57	c0-30.784-33.898-49.164-59.631-33.2c0.106,0-7.065-17.273-19.603-34.83c-4.845-6.785-11.815-17.891-27.977-17.891	c-6.424,0-12.834,2.103-18.102,6.26c-6.83,5.384-17.754,23.13-22.202,31.376c-8.775,16.277-15.112,33.709-18.777,52.444	c-2.686,13.743,4.64,26.859,16.478,32.263c2.952,1.355,6.415,2.147,6.822,2.147H33c-6.9,0-13.16,2.8-17.68,7.32	c-15.581,15.581-4.704,42.68,17.68,42.68h28.05c-22.638,15.649-22.775,49.256,0,65H33c-6.9,0-13.16,2.8-17.68,7.32	c-15.581,15.581-4.704,42.68,17.68,42.68h28.05c-22.638,15.649-22.775,49.256,0,65H33c-6.9,0-13.16,2.8-17.68,7.32	c-15.581,15.581-4.704,42.68,17.68,42.68h414c6.9,0,13.16-2.8,17.68-7.32c15.581-15.581,4.704-42.68-17.68-42.68h-28.05	c22.808-15.767,22.651-49.342,0-65H447C453.9,327.245,460.16,324.445,464.68,319.925z M257.367,160.537	c4.051-1.668,6.094-3.522,6.223-3.522c4.25,2.61,9.051,4.42,14.171,5.23h-31.834C253.73,162.083,254.715,161.638,257.367,160.537z"/><path fill="#ff6d7a" d="M274.858,127.835c-5.163-26.398-15.777-50.745-31.092-72.189	c-4.845-6.785-11.815-17.891-27.977-17.891c-6.424,0-12.834,2.103-18.102,6.26c-6.83,5.384-17.754,23.13-22.202,31.376	c-8.775,16.277-15.112,33.709-18.777,52.444c-2.686,13.743,4.64,26.86,16.478,32.263c2.952,1.355,6.415,2.147,6.822,2.147	c73.65,0,71.68,0.65,77.357-1.708C268.827,155.816,277.867,143.226,274.858,127.835z"/><path fill="#80aaff" d="M323,123.675c0,19.46-14.24,35.61-32.86,38.57h-12.38c-18.549-2.935-32.87-19.045-32.87-38.57	c0-21.468,17.388-39.05,39.06-39.05C305.51,84.625,323,102.105,323,123.675z"/><path fill="#eef7ff" d="M418.95,392.245H61.05c-22.808-15.767-22.65-49.343,0-65h357.9	C441.533,342.856,441.769,376.471,418.95,392.245z"/><path fill="#eef7ff" d="M418.95,277.245H61.05c-22.808-15.767-22.65-49.343,0-65h357.9	C441.533,227.856,441.769,261.471,418.95,277.245z"/><path fill="#ffd3a6" d="M448.198,162.273c14.136,0.666,13.38,21.964-0.772,21.959C409.659,184.218,311.62,184.26,55,184.245	c-10.566-0.001-19.421,6.545-23.143,15.436c-3.33,7.955-14.078,9.251-19.088,2.231c-12.204-17.1,0.316-39.667,20.23-39.667	C33,162.245,447.801,162.254,448.198,162.273z"/><path fill="#ffd3a6" d="M448.227,277.274c14.769,0.714,13.961,22.967-0.825,22.964	c-38.106-0.007-136.449,0.013-391.401,0.007c-10.497,0-19.214,6.429-22.998,15.104c-3.431,7.865-14.055,9.393-19.412,2.69	C0.284,301.39,12.205,277.245,33,277.245C33,277.245,447.82,277.255,448.227,277.274z"/><path fill="#ffd3a6" d="M448.304,392.278c12.796,0.657,12.046,19.945-0.767,19.935c-37.08-0.029-134.58,0.076-394.537,0.032	c-10.97-0.002-19.978,6.989-23.469,16.31c-2.873,7.671-13.214,9.116-17.589,2.19c-10.732-16.992,1.582-38.5,21.057-38.5	C33,392.245,447.872,392.256,448.304,392.278z"/><path fill="#cbe3fa" d="M412.987,231.485H67.013c-10.235,0-14.547-13.228-6.165-19.1c0.311-0.218-16.829-0.14,358.102-0.14	C427.755,218.331,423.093,231.485,412.987,231.485z"/><path fill="#cbe3fa" d="M412.987,346.485H67.013c-10.235,0-14.547-13.228-6.165-19.1c0.311-0.218-16.829-0.14,358.102-0.14	C427.755,333.331,423.093,346.485,412.987,346.485z"/><path fill="#ff8c95" d="M219.874,38.008c11.607,1.488,14.166,17.547,3.55,22.473c-4.015,1.863-7.645,4.659-10.525,8.323	c-11.965,15.236-26.704,42.16-33.225,64.709c-4.153,14.361-25.69,9.495-23.051-5.22c4.68-26.092,17.009-54.953,36.276-79.489	C199.086,40.935,209.109,36.628,219.874,38.008z"/><path fill="#9cbcff" d="M303.568,89.9c6.772,3.912,4.471,14.16-3.315,14.897c-18.464,1.746-33.454,16.337-35.199,35.329	c-0.707,7.698-10.952,10.032-14.828,3.344c-9.924-17.121-6.187-40.984,13.143-52.994C276.057,82.604,291.518,82.938,303.568,89.9z"/><path d="M33,220.245h383.285c7.371,5.963,11.715,14.952,11.715,24.5c0,4.418,3.582,8,8,8s8-3.582,8-8	c0-8.756-2.418-17.203-6.811-24.5H447c18.196,0,33-14.804,33-33s-14.804-33-33-33H319.675c7.051-8.229,11.325-18.906,11.325-30.567	c0-4.418-3.582-8-8-8s-8,3.582-8,8c0,15.268-11.078,27.988-25.617,30.567h-10.874c-14.539-2.58-25.617-15.3-25.617-30.567	c0-17.124,13.931-31.055,31.054-31.055c4.418,0,8-3.582,8-8s-3.582-8-8-8c-5.881,0-11.508,1.094-16.703,3.073	c-6.092-12.69-13.553-24.721-22.286-35.838c-14.766-18.796-43.565-18.812-58.344,0c-18.842,23.986-31.897,52.493-37.752,82.44	c-0.848,4.336,1.98,8.539,6.316,9.387c4.336,0.849,8.539-1.982,9.387-6.316c5.371-27.473,17.346-53.624,34.631-75.626	c8.34-10.618,24.827-10.635,33.18,0c8.306,10.573,15.371,22.038,21.066,34.15c-19.797,16.902-22.198,46.541-5.224,66.352H33	c-18.196,0-33,14.804-33,33S14.804,220.245,33,220.245z M33,170.245c221.583,0-349.728,0,414,0c9.374,0,17,7.626,17,17	s-7.626,17-17,17H33c-9.374,0-17-7.626-17-17S23.626,170.245,33,170.245z M480,302.245c0,18.196-14.804,33-33,33H63.715	C56.344,341.208,52,350.196,52,359.745c0,4.418-3.582,8-8,8s-8-3.582-8-8c0-8.756,2.418-17.203,6.811-24.5H33	c-18.196,0-33-14.804-33-33s14.804-33,33-33h9.812c-4.393-7.297-6.812-15.744-6.812-24.5c0-4.418,3.582-8,8-8s8,3.582,8,8	c0,10.305,5.053,19.964,13.518,25.864c4.603,3.156,4.691,9.759,0.314,13.039c-2.878,2.152-2.251,1.598-32.832,1.598	c-9.374,0-17,7.626-17,17s7.626,17,17,17h414c9.374,0,17-7.626,17-17s-7.626-17-17-17H115.064c-4.418,0-8-3.582-8-8s3.582-8,8-8H447	C465.196,269.245,480,284.048,480,302.245z M480,417.245c0,18.196-14.804,33-33,33H33c-18.196,0-33-14.804-33-33s14.804-33,33-33	h383.285c7.371-5.963,11.715-14.952,11.715-24.5c0-4.418,3.582-8,8-8s8,3.582,8,8c0,16.203-8.284,30.778-20.545,39.11	c-3.173,2.166,22.082,1.39-390.455,1.39c-9.374,0-17,7.626-17,17s7.626,17,17,17h414c9.374,0,17-7.626,17-17c0-4.418,3.582-8,8-8	S480,412.827,480,417.245z"/></svg>