<svg xmlns="http://www.w3.org/2000/svg" viewBox="0 0 64 64"><g data-name="13-bake"><path fill="#da684e" d="M63,57v4a2.006,2.006,0,0,1-2,2H3a2.006,2.006,0,0,1-2-2V57Z"/><path fill="#e8e4dc" d="M57.93,52.77A2.007,2.007,0,0,0,59,51V17a2.006,2.006,0,0,0-2-2H7a2.006,2.006,0,0,0-2,2V51a1.891,1.891,0,0,0,.18.82,2,2,0,0,0,.89.95A1.941,1.941,0,0,0,7,53H57A1.941,1.941,0,0,0,57.93,52.77ZM63,11V57H1V11H63Z"/><path fill="#afa59b" d="M53.67,3.5A3.005,3.005,0,0,1,52,9a3.067,3.067,0,0,1-1.67-.5Z"/><path fill="#e8e4dc" d="M53.67,3.5l-3.34,5A3.005,3.005,0,0,1,52,3,3.067,3.067,0,0,1,53.67,3.5Z"/><path fill="#afa59b" d="M40.67,3.5A3.005,3.005,0,0,1,39,9a3.067,3.067,0,0,1-1.67-.5Z"/><path fill="#e8e4dc" d="M40.67,3.5l-3.34,5A3.005,3.005,0,0,1,39,3,3.067,3.067,0,0,1,40.67,3.5Z"/><path fill="#e8e4dc" d="M25,3a3,3,0,0,1,0,6Z"/><path fill="#da684e" d="M59,1H5A4,4,0,0,0,1,5v6H63V5A4,4,0,0,0,59,1ZM12,9a3,3,0,1,1,3-3A3,3,0,0,1,12,9ZM25,9a3,3,0,1,1,3-3A3,3,0,0,1,25,9ZM39,9a3.067,3.067,0,0,1-1.67-.5A3.005,3.005,0,0,1,39,3a3.067,3.067,0,0,1,1.67.5A3.005,3.005,0,0,1,39,9ZM52,9a3.067,3.067,0,0,1-1.67-.5A3.005,3.005,0,0,1,52,3a3.067,3.067,0,0,1,1.67.5A3.005,3.005,0,0,1,52,9Z"/><path fill="#afa59b" d="M25,3V9a3,3,0,0,1,0-6Z"/><path fill="#e8e4dc" d="M12,3a3,3,0,0,1,0,6Z"/><path fill="#afa59b" d="M12,3V9a3,3,0,0,1,0-6Z"/><path fill="#873a29" d="M61,61H3a2.006,2.006,0,0,1-2-2v2a2.006,2.006,0,0,0,2,2H61a2.006,2.006,0,0,0,2-2V59A2.006,2.006,0,0,1,61,61Z"/><path fill="#f58569" d="M59,1H5A4,4,0,0,0,1,5V7A4,4,0,0,1,5,3H59a4,4,0,0,1,4,4V5A4,4,0,0,0,59,1Z"/><polygon fill="#a64733" points="39 9 25 9 12 9 1 9 1 11 25 11 39 11 63 11 63 9 52 9 39 9"/><path fill="#ff9873" d="M10,50H54l1-6V43l2.93,9.77A1.941,1.941,0,0,1,57,53H7a1.941,1.941,0,0,1-.93-.23L9,43v1Z"/><path fill="#da684e" d="M9,43,6.07,52.77A2.007,2.007,0,0,1,5,51V17a2.006,2.006,0,0,1,2-2H9Z"/><path fill="#da684e" d="M59,51a2.007,2.007,0,0,1-1.07,1.77L55,43V15h2a2.006,2.006,0,0,1,2,2Z"/><path fill="#bd4c3d" d="M28,15H9V44l4-10h1.69a11.738,11.738,0,0,1,6.83-6.52,8.224,8.224,0,0,0,2.06-1.25,3.909,3.909,0,0,1,.54-.35,8.736,8.736,0,0,1,2.85-2.18C32.27,21,41,21,41,21V19.5a1.5,1.5,0,0,1,3,0V20l1.06.53A1.721,1.721,0,0,1,46,22.06v.23A1.707,1.707,0,0,1,44.29,24h-.58a1.7,1.7,0,0,1-1.21-.5L42,23l-1.69,1.69A8.146,8.146,0,0,1,44,27v.33A47.981,47.981,0,0,1,49,27V25.5a1.5,1.5,0,0,1,3,0V26l1.06.53A1.721,1.721,0,0,1,54,28.06v.23A1.707,1.707,0,0,1,52.29,30h-.58a1.7,1.7,0,0,1-1.21-.5L50,29l-5,5h7l3,10V15Z"/><path fill="#a64123" d="M52,34l3,10H44.76A4.351,4.351,0,0,0,47,40c0-5-2-6-2-6Z"/><path fill="#a64123" d="M16.25,44H9l4-10h1.69A11.3,11.3,0,0,0,14,38,8.56,8.56,0,0,0,16.25,44Z"/><polygon fill="#f58569" points="55 44 54 50 10 50 9 44 16.25 44 37.26 44 44.76 44 55 44"/><path fill="#80321b" d="M14.049,39c-.031-.322-.049-.654-.049-1a11.3,11.3,0,0,1,.69-4H13v5Z"/><polygon fill="#91391f" points="13 39 13 34 12.17 36.07 9 44 11.636 44 13 39"/><path fill="#80321b" d="M52,34H45s1.724.868,1.969,5H52Z"/><polygon fill="#91391f" points="52.909 44 55 44 52.6 36 52 34 52 39 52.909 44"/><path fill="#da684e" d="M18.631,48a5.634,5.634,0,0,1-5.381-4H9l1,6H54l.333-2Z"/><rect width="46" height="6" x="9" y="15" fill="#6e2f23"/><path fill="#a64736" d="M57,15H55v6h2a2,2,0,0,1,2,2V17A2.006,2.006,0,0,0,57,15Z"/><path fill="#bd4c3d" d="M7,21H9V15H7a2.006,2.006,0,0,0-2,2v6A2,2,0,0,1,7,21Z"/><path fill="#733125" d="M45,34h1.7a7.634,7.634,0,0,0-.411-1.286Z"/><path fill="#662b21" d="M42.5,23.5,42,23l-1.69,1.69A8.146,8.146,0,0,1,44,27v.33A47.981,47.981,0,0,1,49,27V25.5a1.5,1.5,0,0,1,3,0V26l1.06.53a1.734,1.734,0,0,1,.218.152A1.679,1.679,0,0,0,53.5,26.5a1.7,1.7,0,0,0,.5-1.21v-.23a1.721,1.721,0,0,0-.94-1.53L52,23v-.5a1.5,1.5,0,0,0-3,0V24a47.981,47.981,0,0,0-5,.33V24h-.29A1.7,1.7,0,0,1,42.5,23.5Z"/><path fill="#662b21" d="M21.52,27.48a8.224,8.224,0,0,0,2.06-1.25,3.909,3.909,0,0,1,.54-.35C28.05,21,41,21,41,21V19.5a1.5,1.5,0,0,1,3,0V20l1.06.53a1.734,1.734,0,0,1,.218.152A1.679,1.679,0,0,0,45.5,20.5a1.7,1.7,0,0,0,.5-1.21v-.23a1.721,1.721,0,0,0-.94-1.53L44,17v-.5a1.5,1.5,0,0,0-3,0V18s-12.95,0-16.88,4.88a3.909,3.909,0,0,0-.54.35,8.224,8.224,0,0,1-2.06,1.25A11.738,11.738,0,0,0,14.69,31a10.965,10.965,0,0,0-.647,3h.647A11.738,11.738,0,0,1,21.52,27.48Z"/><path fill="#de8054" d="M14.69,34a11.738,11.738,0,0,1,6.83-6.52,8.224,8.224,0,0,0,2.06-1.25,3.909,3.909,0,0,1,.54-.35C25.24,25.25,27.49,24.5,32,24a18.774,18.774,0,0,1,8.31.69A8.146,8.146,0,0,1,44,27v.33c-5.33.63-13,2.45-13,7.67,0,5.3,3.42,7.82,6.26,9H16.25A8.56,8.56,0,0,1,14,38,11.3,11.3,0,0,1,14.69,34Z"/><path fill="#d5683c" d="M44,20l1.06.53A1.721,1.721,0,0,1,46,22.06v.23A1.707,1.707,0,0,1,44.29,24h-.58a1.7,1.7,0,0,1-1.21-.5L42,23l-1.69,1.69A18.774,18.774,0,0,0,32,24c-4.51.5-6.76,1.25-7.88,1.88a8.736,8.736,0,0,1,2.85-2.18C32.27,21,41,21,41,21V19.5a1.5,1.5,0,0,1,3,0Z"/><path fill="#de8054" d="M49,27V25.5a1.5,1.5,0,0,1,3,0V26l1.06.53A1.721,1.721,0,0,1,54,28.06v.23A1.707,1.707,0,0,1,52.29,30h-.58a1.7,1.7,0,0,1-1.21-.5L50,29l-5,5s2,1,2,6a4.351,4.351,0,0,1-2.24,4h-7.5C34.42,42.82,31,40.3,31,35c0-5.22,7.67-7.04,13-7.67A47.981,47.981,0,0,1,49,27Z"/><path fill="#d5683c" d="M44,27.33V27a8.146,8.146,0,0,0-3.69-2.31A13.543,13.543,0,0,0,39,24.312c-4.444.606-11,2.4-11,7.688,0,7.2-9.716,9.537-13.847,7.747A8.345,8.345,0,0,0,16.25,44H37.26C34.42,42.82,31,40.3,31,35,31,29.78,38.67,27.96,44,27.33Z"/><path fill="#e9986a" d="M27.934,24.991a4.4,4.4,0,0,0-1.214.568,1.676,1.676,0,0,0-.709,1.054.746.746,0,0,0,.139.6.864.864,0,0,0,.492.256,2.374,2.374,0,0,0,1.708-.45c.5-.325.938-.734,1.47-1.011.637-.331,1.383-.459,1.991-.834.108-.066.223-.176.179-.289a.259.259,0,0,0-.1-.107,2.543,2.543,0,0,0-1.721-.246A8.329,8.329,0,0,0,27.934,24.991Z"/><path fill="#e9986a" d="M16.585,31.191c-.4.381-.771.961-.482,1.424a.97.97,0,0,0,.879.383,2.9,2.9,0,0,0,.966-.281l5.541-2.343a.959.959,0,0,0,.432-.285.6.6,0,0,0-.193-.777,1.7,1.7,0,0,0-.862-.268A7.861,7.861,0,0,0,16.585,31.191Z"/><path fill="#e9986a" d="M21.579,32.757,18.551,33.92c-.629.241-1.339.569-1.512,1.224a1.475,1.475,0,0,0,.013.72,2.964,2.964,0,0,0,2.283,2.025,6.884,6.884,0,0,0,3.17-.2,8.792,8.792,0,0,0,2.653-1.042,4.04,4.04,0,0,0,1.753-2.2,1.752,1.752,0,0,0-1.191-2.257C24.37,31.693,22.847,32.271,21.579,32.757Z"/><path fill="#de8054" d="M29.1,29.478a1.605,1.605,0,0,0-.017,1.074.749.749,0,0,0,.943.405,2.345,2.345,0,0,0,.895-.729c.513-.584,1.012-1.189,1.505-1.8.163-.2.609-.581.568-.875-.037-.265-.419-.462-.59-.511-.669-.194-1.415.325-1.99.717A3.178,3.178,0,0,0,29.1,29.478Z"/><path fill="#d5683c" d="M48.775,28.192A11.366,11.366,0,0,0,45,31c-3.536,3.536-3,4-5,7-1.538,2.307-7.21,1.061-8.842-4.181A4.851,4.851,0,0,0,31,35c0,5.3,3.42,7.82,6.26,9h7.5A4.351,4.351,0,0,0,47,40c0-5-2-6-2-6l4.99-4.99A.931.931,0,0,0,48.775,28.192Z"/><ellipse cx="34.016" cy="35.75" fill="#e9986a" rx=".413" ry=".574"/><ellipse cx="37.016" cy="30.75" fill="#e9986a" rx=".574" ry=".413"/><ellipse cx="38.016" cy="34.75" fill="#e9986a" rx=".413" ry=".574" transform="rotate(-44.98 38.017 34.75)"/><ellipse cx="34.016" cy="33.75" fill="#e9986a" rx=".413" ry=".574"/><ellipse cx="36.271" cy="36.25" fill="#e9986a" rx=".825" ry="1.148" transform="rotate(-45.02 36.27 36.25)"/><ellipse cx="36.271" cy="33.25" fill="#e9986a" rx=".825" ry="1.148" transform="rotate(-45.02 36.27 33.25)"/><path fill="#b85a30" d="M14.868,41.946A8.415,8.415,0,0,0,16.25,44H37.26c-2.655-1.1-5.815-3.378-6.216-8H31S28,43,14.868,41.946Z"/><path fill="#d6cec1" d="M59,51a2.007,2.007,0,0,1-1.07,1.77A1.941,1.941,0,0,1,57,53H7a1.941,1.941,0,0,1-.93-.23,2,2,0,0,1-.89-.95A1.891,1.891,0,0,1,5,51V17a2.006,2.006,0,0,1,2-2h3V11H1V57H63V51Z"/><path fill="#9a3e32" d="M57,14H7a3,3,0,0,0-3,3V51a3,3,0,0,0,3,3H57a3,3,0,0,0,3-3V17A3,3,0,0,0,57,14Zm2,37a2,2,0,0,1-2,2H7a2,2,0,0,1-2-2V17a2,2,0,0,1,2-2H57a2,2,0,0,1,2,2Z"/><path fill="#85392b" d="M25,2a4,4,0,1,0,4,4A4,4,0,0,0,25,2ZM22,6a3,3,0,0,1,2.5-2.95v5.9A3,3,0,0,1,22,6Zm3.5,2.95V3.05a2.99,2.99,0,0,1,0,5.9Z"/><path fill="#85392b" d="M12,2a4,4,0,1,0,4,4A4,4,0,0,0,12,2ZM9,6a3,3,0,0,1,2.5-2.95v5.9A3,3,0,0,1,9,6Zm3.5,2.95V3.05a2.991,2.991,0,0,1,0,5.9Z"/><path fill="#85392b" d="M39,2a4,4,0,1,0,4,4A4,4,0,0,0,39,2ZM36,6a2.994,2.994,0,0,1,4.223-2.736L36.951,8.172A2.992,2.992,0,0,1,36,6Zm3,3a3.017,3.017,0,0,1-1.223-.264l3.272-4.908A2.987,2.987,0,0,1,39,9Z"/><path fill="#85392b" d="M52,2a4,4,0,1,0,4,4A4,4,0,0,0,52,2ZM49,6a2.994,2.994,0,0,1,4.223-2.736L49.951,8.172A2.992,2.992,0,0,1,49,6Zm3,3a3.017,3.017,0,0,1-1.223-.264l3.272-4.908A2.987,2.987,0,0,1,52,9Z"/><path fill="#ffc5a3" d="M10,50l-.429-2.571L6.86,50.14l0,0L6.07,52.77A1.941,1.941,0,0,0,7,53H17l3-3Z"/><path fill="#ffc5a3" d="M55,44l-1,6H39l-3,3H57a1.941,1.941,0,0,0,.93-.23L55,43Z"/><path fill="#ffae91" d="M5.192,51.808a2,2,0,0,0,.878.962l.788-2.628Z"/><path fill="#f8aea3" d="M9,21H7a2,2,0,0,0-2,2V34l4-4Z"/><path fill="#f8a390" d="M55,43l2.93,9.77A2.007,2.007,0,0,0,59,51V30l-4,4Z"/><path fill="#ed8871" d="M46,22.29A1.707,1.707,0,0,1,44.29,24h-.58a1.7,1.7,0,0,1-1.21-.5L42,23l-1.69,1.69a9.509,9.509,0,0,1,3.2,1.8L49,21H45.612A1.7,1.7,0,0,1,46,22.06Z"/><polygon fill="#f79b8f" points="9 21 9 30 18 21 9 21"/><path fill="#d26a5d" d="M41,21H36l-.384.384A48.559,48.559,0,0,1,41,21Z"/><polygon fill="#ec9589" points="55 44 55 43 55 34 52.692 36.308 55 44"/><path fill="#9a5244" d="M45.06,20.53,44,20v-.5a1.5,1.5,0,0,0-3,0V21h4.612A1.706,1.706,0,0,0,45.06,20.53Z"/><polygon fill="#bb6353" points="18 21 24 15 9 15 9 21 18 21"/><path fill="#bb6353" d="M41,21V19.5a1.5,1.5,0,0,1,3,0V20l1.06.53a1.706,1.706,0,0,1,.552.47H49l6-6H42l-6,6Z"/><path fill="#d7725f" d="M7,21H9V15H7a2.006,2.006,0,0,0-2,2v6A2,2,0,0,1,7,21Z"/><path fill="#ffba92" d="M31,35c0-4.735,6.307-6.668,11.458-7.458l1.048-1.048a9.509,9.509,0,0,0-3.2-1.8,17.974,17.974,0,0,0-7.217-.783L18.5,38.5l-3.579,3.579A8.477,8.477,0,0,0,16.25,44H26l5.566-5.566A10.069,10.069,0,0,1,31,35Z"/><path fill="#ff9366" d="M40.31,24.69,42,23l.5.5a1.7,1.7,0,0,0,1.21.5h.58A1.707,1.707,0,0,0,46,22.29v-.23a1.721,1.721,0,0,0-.94-1.53L44,20v-.5a1.5,1.5,0,0,0-3,0V21a48.559,48.559,0,0,0-5.384.384l-2.523,2.523A17.974,17.974,0,0,1,40.31,24.69Z"/><path fill="#ffc9aa" d="M31,35a10.069,10.069,0,0,0,.566,3.434L42.458,27.542C37.307,28.332,31,30.265,31,35Z"/><path fill="none" d="M31.067,34.277c.026-.155.054-.309.091-.458C31.121,33.968,31.09,34.12,31.067,34.277Z"/><path fill="#ea865e" d="M31.322,37.642c-.024-.093-.04-.191-.062-.286C31.282,37.451,31.3,37.549,31.322,37.642Z"/><path fill="#ea865e" d="M31.554,38.4c-.035-.1-.064-.2-.1-.308C31.49,38.194,31.519,38.3,31.554,38.4Z"/><path fill="#ea865e" d="M14.868,41.947c.02.041.034.089.055.13l.012-.012C14.915,42.023,14.888,41.988,14.868,41.947Z"/><path fill="#f9ab8b" d="M31,36h.044c-.028-.322-.044-.655-.044-1a4.346,4.346,0,0,1,.067-.723c.023-.157.054-.309.091-.458h0c.963-3.879,6.6-5.557,11.3-6.277l1.048-1.048a9.509,9.509,0,0,0-3.2-1.8A13.543,13.543,0,0,0,39,24.312c-4.444.606-11,2.4-11,7.688,0,5.962-6.661,8.587-11.3,8.3l-1.66,1.66C28.024,42.933,31,36,31,36Zm-1.9-6.522a3.178,3.178,0,0,1,1.314-1.719c.575-.392,1.321-.911,1.99-.717.171.049.553.246.59.511.041.294-.405.673-.567.875-.494.611-.993,1.216-1.506,1.8a2.355,2.355,0,0,1-.895.729.749.749,0,0,1-.943-.405A1.605,1.605,0,0,1,29.1,29.478Z"/><path fill="#ea865e" d="M14.923,42.077A8.4,8.4,0,0,0,16.25,44a8.412,8.412,0,0,1-1.315-1.935Z"/><path fill="#f8b48e" d="M31.963,25.037l-.1.1A.431.431,0,0,0,31.963,25.037Z"/><path fill="#ffc9aa" d="M22.505,37.687a8.782,8.782,0,0,0,2.653-1.042,4.04,4.04,0,0,0,1.753-2.2,1.752,1.752,0,0,0-1.191-2.257,3.061,3.061,0,0,0-.749-.163l-5.81,5.81c.058.016.116.037.174.05A6.884,6.884,0,0,0,22.505,37.687Z"/><path fill="#ffc9aa" d="M30.029,30.957a2.355,2.355,0,0,0,.895-.729c.513-.584,1.012-1.189,1.506-1.8.162-.2.608-.581.567-.875-.037-.265-.419-.462-.59-.511-.669-.194-1.415.325-1.99.717A3.178,3.178,0,0,0,29.1,29.478a1.605,1.605,0,0,0-.017,1.074A.749.749,0,0,0,30.029,30.957Z"/><path fill="#f9ab8b" d="M31.158,33.819c-.037.149-.065.3-.091.458A4.98,4.98,0,0,0,31,35c0,.345.016.678.044,1h0a10.14,10.14,0,0,0,.216,1.356c.022.095.038.193.062.286.04.155.089.3.136.449.032.1.061.208.1.308l.014.033L33,37a8,8,0,0,1-1.845-3.178Z"/><path fill="#ea865e" d="M31,35a4.98,4.98,0,0,1,.067-.723A4.346,4.346,0,0,0,31,35Z"/><polygon fill="#dc7f54" points="14.868 41.946 14.868 41.947 14.868 41.946 14.868 41.946"/><path fill="#dc7f54" d="M15.043,41.957c-.06,0-.116-.006-.175-.011h0c.02.041.047.076.067.118Z"/><path fill="#f28b5c" d="M31.554,38.4c-.035-.1-.064-.2-.1-.308-.047-.148-.1-.294-.136-.449-.024-.093-.04-.191-.062-.286A10.14,10.14,0,0,1,31.044,36H31s-2.976,6.933-15.957,5.957l-.108.108A8.412,8.412,0,0,0,16.25,44H26l5.566-5.566Z"/><path fill="#dc7f54" d="M31.566,38.434l0,0-.014-.033Z"/><path fill="#dc7f54" d="M31.458,38.091c-.047-.148-.1-.294-.136-.449C31.362,37.8,31.411,37.943,31.458,38.091Z"/><path fill="#dc7f54" d="M31.044,36a10.14,10.14,0,0,0,.216,1.356A10.14,10.14,0,0,1,31.044,36Z"/><path fill="#a15547" d="M44,24.33V24h-.29a1.7,1.7,0,0,1-1.21-.5L42,23l-1.69,1.69a9.509,9.509,0,0,1,3.2,1.8L45.85,24.15C45.28,24.2,44.661,24.253,44,24.33Z"/><path fill="#a15547" d="M41,19.5a1.5,1.5,0,0,1,3,0V20l1.06.53a1.734,1.734,0,0,1,.218.152A1.679,1.679,0,0,0,45.5,20.5a1.7,1.7,0,0,0,.5-1.21v-.23a1.721,1.721,0,0,0-.94-1.53L44,17v-.5a1.491,1.491,0,0,0-2.157-1.343l-.686.686A1.493,1.493,0,0,0,41,16.5V18s-.806,0-2.076.076l-3.306,3.306A47.934,47.934,0,0,1,41,21Z"/><polygon fill="#ffae91" points="16.25 44 13 44 9.571 47.429 10 50 20 50 26 44 16.25 44"/><polygon fill="#fba" points="39 50 54 50 55 44 45 44 39 50"/><polygon fill="#ea865e" points="55 44 52.692 36.308 45 44 55 44"/><path fill="#ea865e" d="M16.25,44a8.477,8.477,0,0,1-1.329-1.921L13,44Z"/><polygon fill="#cf6444" points="50 39 52 39 52 37 50 39"/><polygon fill="#d76847" points="52 39 52.909 44 55 44 52.692 36.308 52 37 52 39"/><polygon fill="#f98f76" points="54 50 54.333 48 41 48 39 50 54 50"/><path fill="#fca08a" d="M18.631,48a5.634,5.634,0,0,1-5.381-4H13L9.571,47.429,10,50H20l2-2Z"/><path fill="#ffbf9a" d="M14,22a1,1,0,0,1-1-1,3.563,3.563,0,0,1,1.293-2.707c.49-.49.707-.731.707-1.293a1,1,0,0,1,2,0,3.563,3.563,0,0,1-1.293,2.707C15.217,20.2,15,20.438,15,21A1,1,0,0,1,14,22Z"/><path fill="#ffbf9a" d="M20,22a1,1,0,0,1-1-1,3.563,3.563,0,0,1,1.293-2.707c.49-.49.707-.731.707-1.293a1,1,0,0,1,2,0,3.563,3.563,0,0,1-1.293,2.707C21.217,20.2,21,20.438,21,21A1,1,0,0,1,20,22Z"/><path fill="#ffbf9a" d="M26,22a1,1,0,0,1-1-1,3.563,3.563,0,0,1,1.293-2.707c.49-.49.707-.731.707-1.293a1,1,0,0,1,2,0,3.563,3.563,0,0,1-1.293,2.707C27.217,20.2,27,20.438,27,21A1,1,0,0,1,26,22Z"/><rect width="30" height="2" x="13" y="57" fill="#f58569" rx="1" ry="1"/><rect width="5" height="2" x="46" y="57" fill="#f58569" rx="1" ry="1"/><path fill="#ffd5bd" d="M14,22a1,1,0,0,0,1-1H13A1,1,0,0,0,14,22Z"/><path fill="#ffe3d4" d="M15.707,19.707A3.563,3.563,0,0,0,17,17a1,1,0,0,0-2,0c0,.562-.217.8-.707,1.293A3.563,3.563,0,0,0,13,21h2C15,20.438,15.217,20.2,15.707,19.707Z"/><path fill="#ffd5bd" d="M21,17c0,.562-.217.8-.707,1.293a4.308,4.308,0,0,0-1.066,1.48l3.48-3.48A1,1,0,0,0,21,17Z"/><path fill="#ffe3d4" d="M17,40.5a.5.5,0,0,1-.354-.854l2-2a.5.5,0,0,1,.708.708l-2,2A.5.5,0,0,1,17,40.5Z"/><path fill="#ffe3d4" d="M7.5,50a.5.5,0,0,1-.354-.854l7.5-7.5a.5.5,0,0,1,.708.708l-7.5,7.5A.5.5,0,0,1,7.5,50Z"/><path fill="#ffe3d4" d="M15,24.5a.5.5,0,0,1-.354-.854l2-2a.5.5,0,0,1,.708.708l-2,2A.5.5,0,0,1,15,24.5Z"/><path fill="#ffe3d4" d="M36.354,33.646a.5.5,0,0,0-.708,0L16.293,53h1.414L36.354,34.354A.5.5,0,0,0,36.354,33.646Z"/><polygon fill="#ffe3d4" points="59 29.293 35.293 53 36.707 53 59 30.707 59 29.293"/><path fill="#ffe3d4" d="M13.354,25.646a.5.5,0,0,0-.708,0L5,33.293v1.414l8.354-8.353A.5.5,0,0,0,13.354,25.646Z"/></g></svg>