<svg xmlns="http://www.w3.org/2000/svg" viewBox="0 0 64 64"><g data-name="16-China"><polygon fill="#fedb03" points="34 32.82 31.5 35.38 32.09 39 29 37.29 25.91 39 26.5 35.38 24 32.82 27.45 32.29 29 29 30.55 32.29 34 32.82"/><path fill="#c74841" d="M42,58.7v.99a1.8,1.8,0,0,1-.63,1.41l-2.01,1.61a1.264,1.264,0,0,1-.79.29H37.41A1.574,1.574,0,0,1,36,61.3a1.914,1.914,0,0,1,.41-1.2l2.18-2.6a1.289,1.289,0,0,1,1-.5h1A1.574,1.574,0,0,1,42,58.7Z"/><path fill="#c74841" d="M57.22,48.31A1.479,1.479,0,0,1,58,49.63v4.9A1.441,1.441,0,0,1,56.59,56a1.354,1.354,0,0,1-1-.43l-1.18-1.22A1.511,1.511,0,0,1,54,53.31V50.37a1.529,1.529,0,0,1,.41-1.04l.87-.9a1.357,1.357,0,0,1,1.63-.27Z"/><path fill="#c74841" d="M63,11v6H60l1,3-8,6-1-1-5,3v2h6v2l-4,2,4,6v6l-9,7H36l-2-2-5,2-5-4,2-2V45l-4-3-3,1H11L3,34l1-1V29L1,26V21l7-1,2-4,4-2h2V12h3l2,3-1,1v2l3,1,2,1,1,3h5l3,2,2-1h3l2-2V20l4-2,4-1-1-2H45V12h2l1-5h6l2,5,3,2,2-3ZM31.5,35.38,34,32.82l-3.45-.53L29,29l-1.55,3.29L24,32.82l2.5,2.56L25.91,39,29,37.29,32.09,39Z"/><path d="M4.028,36.661l-1.775-2a1,1,0,0,1,.04-1.371L3,32.586V29.414L.293,26.707A1,1,0,0,1,0,26V21a1,1,0,0,1,.858-.99l6.482-.926,1.765-3.531a1,1,0,0,1,.448-.448l4-2A1,1,0,0,1,14,13h1V12a1,1,0,0,1,1-1h3a1,1,0,0,1,.832.445l2,3a1,1,0,0,1-.125,1.262L21,16.414v.865l2.316.772a1,1,0,0,1,.131.054l2,1a1,1,0,0,1,.5.579L26.721,22H31a1.006,1.006,0,0,1,.555.168l2.517,1.678,1.481-.741A1,1,0,0,1,36,23h2.586L40,21.586V20h2v2a1,1,0,0,1-.293.707l-2,2A1,1,0,0,1,39,25H36.236l-1.789.895a1,1,0,0,1-1-.063L30.7,24H26a1,1,0,0,1-.948-.684l-.869-2.607-1.567-.783-2.932-.977A1,1,0,0,1,19,18V16a1,1,0,0,1,.293-.707l.42-.42L18.465,13H17v1a1,1,0,0,1-1,1H14.236l-3.491,1.745-1.85,3.7a1,1,0,0,1-.753.543L2,21.867v3.719l2.707,2.707A1,1,0,0,1,5,29v4a1,1,0,0,1-.293.707l-.333.333,1.148,1.293Z"/><path d="M29,54a1,1,0,0,1-.625-.219l-5-4a1,1,0,0,1-.082-1.488L25,46.586V45.5l-3.181-2.386-2.5.834A1,1,0,0,1,19,44H11a1,1,0,0,1-.747-.336L5.8,38.659,7.3,37.331,11.449,42h7.389l2.846-.948a.99.99,0,0,1,.916.148l4,3a1,1,0,0,1,.4.8v2a1,1,0,0,1-.293.707l-1.21,1.21,3.673,2.938,4.459-1.784a1,1,0,0,1,1.078.222L36.414,52h7.243L52,45.511V40.3l-3.832-5.748a1,1,0,0,1,.385-1.45L52,31.382V31H47a1,1,0,0,1-1-1V28a1,1,0,0,1,.485-.857l5-3a1,1,0,0,1,1.222.15l.387.387,6.729-5.048-.771-2.316A1,1,0,0,1,60,16h2V12h-.465l-1.7,2.555a1,1,0,0,1-1.387.277l-3-2a1,1,0,0,1-.374-.46L53.323,8h-4.5l-.839,4.2A1,1,0,0,1,47,13H46v1h2a1,1,0,0,1,.9.553l1,2a1,1,0,0,1-.653,1.417l-3.893.973-1.9.952-.894-1.79,2-1a.987.987,0,0,1,.205-.075l2.79-.7L47.382,16H45a1,1,0,0,1-1-1V12a1,1,0,0,1,1-1h1.181l.839-4.2A1,1,0,0,1,48,6h6a1,1,0,0,1,.929.628l1.884,4.712,1.91,1.273,1.445-2.168A1,1,0,0,1,61,10h2a1,1,0,0,1,1,1v6a1,1,0,0,1-1,1H61.388l.56,1.684A1,1,0,0,1,61.6,20.8l-8,6a1,1,0,0,1-1.307-.093l-.448-.448L48,28.566V29h5a1,1,0,0,1,1,1v2a1,1,0,0,1-.553.9L50.46,34.388l3.372,5.057A1.006,1.006,0,0,1,54,40v6a1,1,0,0,1-.386.789l-9,7A1,1,0,0,1,44,54H36a1,1,0,0,1-.707-.293l-1.534-1.533-4.388,1.755A1,1,0,0,1,29,54Z"/><path d="M38.572,64H37.414A2.57,2.57,0,0,1,35,61.3a2.872,2.872,0,0,1,.646-1.84h0l2.171-2.606A2.313,2.313,0,0,1,39.586,56h1A2.57,2.57,0,0,1,43,58.7v.994a2.81,2.81,0,0,1-1.006,2.194L39.981,63.5A2.242,2.242,0,0,1,38.572,64Zm-1.389-3.257A.9.9,0,0,0,37,61.3c0,.426.245.7.414.7h1.158a.272.272,0,0,0,.16-.066l2.013-1.612A.824.824,0,0,0,41,59.691V58.7c0-.426-.245-.7-.414-.7h-1a.329.329,0,0,0-.232.137Z"/><path d="M56.586,57a2.4,2.4,0,0,1-1.721-.737l-1.172-1.219A2.489,2.489,0,0,1,53,53.312V50.37a2.493,2.493,0,0,1,.691-1.731l.868-.9h0a2.372,2.372,0,0,1,2.814-.469l.307.16A2.464,2.464,0,0,1,59,49.63v4.9A2.446,2.446,0,0,1,56.586,57ZM56,49.124l-.865.9A.507.507,0,0,0,55,50.37v2.942a.5.5,0,0,0,.135.345l1.172,1.219A.422.422,0,0,0,57,54.529v-4.9a.479.479,0,0,0-.243-.428l-.307-.16a.376.376,0,0,0-.45.082Z"/><path d="M32.09,40a1,1,0,0,1-.484-.125L29,38.435l-2.606,1.44a1,1,0,0,1-1.471-1.036l.509-3.12-2.148-2.2a1,1,0,0,1,.565-1.688l2.927-.447L28.1,28.575a1,1,0,0,1,1.81,0l1.319,2.809,2.927.447a1,1,0,0,1,.565,1.688l-2.148,2.2.509,3.12A1,1,0,0,1,32.09,40ZM29,36.292a1,1,0,0,1,.483.125l1.288.712-.258-1.586a1,1,0,0,1,.271-.859l1.141-1.169-1.531-.235a1,1,0,0,1-.754-.563L29,31.354l-.64,1.363a1,1,0,0,1-.754.563l-1.531.235,1.141,1.169a1,1,0,0,1,.271.859l-.258,1.586,1.288-.712A1,1,0,0,1,29,36.292Z"/><rect width="2" height="2" x="35" y="28"/><rect width="2" height="2" x="39" y="31"/><rect width="2" height="2" x="39" y="37"/><rect width="2" height="2" x="35" y="40"/></g></svg>