<svg xmlns="http://www.w3.org/2000/svg" viewBox="0 0 480 480"><path fill="#ffebd2" d="M333,196v93c0,4.42-3.58,8-8,8h-9c-28.43,0.04-49.622-18.301-61.08-43.66	c-0.646-1.429-1.23-2.89-1.85-4.33c-10.13,23.7-29.25,42.65-53.07,52.56c0,23.796,16.049,44.135,36.49,51.19	c0.79,0.28,43.093,14.86,43.093,14.86C301.373,375.17,316,395.7,316,418.77V464c0,4.42-3.58,8-8,8H16c-4.42,0-8-3.58-8-8v-45.23	c0-23.06,14.61-43.59,36.39-51.14c0.101-0.1,42.688-14.688,43.98-15.19c21.251-8.255,35.63-28.15,35.63-50.87	c-35.47-14.75-60.51-49.54-60.99-90.24c-13.835,0-25.01-11.201-25.01-25V108C38,52.77,82.77,8,138,8h48c55.23,0,100,44.77,100,100	v41C311.96,149,333,170.04,333,196z"/><path fill="#cbe3fa" d="M316,418.77V464c0,4.418-3.582,8-8,8H16c-4.418,0-8-3.582-8-8v-45.23	c0-23.06,14.61-43.59,36.39-51.14c0.1-0.1,31.612-10.867,43.12-14.87c2.66-0.92,5.22-2.03,7.65-3.32	C106.72,375.59,132.88,393,162,393s55.28-17.41,66.84-43.56c6.769,3.594,9.818,3.77,50.743,18.18	C301.335,375.279,316,395.7,316,418.77z"/><path fill="#eef7ff" d="M103.545,363.738c4.082,5.428,1.699,13.252-4.723,15.465c-0.313,0.108-24.325,8.321-24.432,8.427	C52.61,395.18,38,415.71,38,438.77V462c0,5.523-4.477,10-10,10H16c-4.418,0-8-3.582-8-8v-45.23c0-23.06,14.61-43.59,36.39-51.14	c0,0,0.01-0.01,0.03-0.01c33.829-12.102,43.143-14.147,50.74-18.18C97.424,354.567,100.248,359.354,103.545,363.738z"/><path fill="#585966" d="M286,149v-41C286,52.772,241.229,8,186,8h-48C82.771,8,38,52.772,38,108v78.33	c0,13.807,11.193,25,25,25c0.1,0,0,0.776,0-58.39c0-4.69,4.018-8.394,8.688-7.97c48.891,4.438,97.212-8.235,137.519-36.278	c3.92-2.728,9.363-1.491,11.617,2.719c8.049,15.033,20.473,25.444,34.955,30.873c3.135,1.175,5.221,4.152,5.221,7.499	c0,0,0,60.927-0.01,61.217c-0.11,13.48-2.92,26.33-7.92,38.01c0.62,1.44,1.204,2.901,1.85,4.33	c11.458,25.359,32.65,43.7,61.08,43.66h9c4.418,0,8-3.582,8-8v-93C333,170.04,311.96,149,286,149z"/><path fill="#6e6f80" d="M322.681,297H316c-28.43,0.04-49.622-18.301-61.08-43.66c-0.646-1.429-1.23-2.89-1.85-4.33	c2.2-5.14,3.98-10.51,5.28-16.07c0.67,1.54,1.301,3.123,1.99,4.65c18.28,40.541,47.83,48.064,62.827,49.522	C329.379,287.715,328.807,297,322.681,297z"/><path fill="#6e6f80" d="M191.034,8.124c12.881,0.638,12.421,19.887-0.474,20.075C183.7,28.299,176.272,28.158,168,28	C112.78,26.942,68,72.77,68,128v17.52c-2.91,1.18-5,4.04-5,7.42c0,55.577-0.006,57.758,0.01,58.39c-13.832,0-25.01-11.204-25.01-25	V108C38,52.772,82.772,8,138,8C138,8,189.366,8.042,191.034,8.124z"/><path fill="#42434d" d="M295.696,150.002c3.686,0.772,6.304,4.06,6.304,7.826V186c0,17.26-10.71,32.06-25.84,38.09	c-1.164,9.704-3.573,19.072-6.982,27.807c-2.565,6.575-11.86,6.754-14.727,0.305c-0.532-1.197-0.981-2.262-1.382-3.192	c5.318-12.422,7.828-25.507,7.92-38.01c13.832,0,25.01-11.204,25.01-25v-37C289.324,149,292.568,149.346,295.696,150.002z"/><path fill="#fff3e4" d="M154.773,281.888c14.986,6.084,8.99,28.537-7.016,26.222C99.5,301.133,63,259.683,63,210.13v-57.19	c0-4.69,4.019-8.39,8.688-7.97c2.595,0.235,5.366,0.438,8.296,0.588C87.268,145.932,93,151.918,93,159.211c0,0,0,31.719,0.01,32.119	C93.495,232.419,118.982,267.358,154.773,281.888z"/><path fill="#ffdfba" d="M195.628,319.291c-21.295,7.714-45.638,7.837-67.249,0.004c-3.595-1.303-5.75-5.01-5.12-8.782	c0.489-2.923,0.741-5.912,0.741-8.942c23.598,9.823,51.154,10.342,76,0c0,3.03,0.252,6.02,0.741,8.942	C201.371,314.281,199.221,317.989,195.628,319.291z"/><rect width="216" height="47" x="54" y="425" fill="#585966"/><path fill="#585966" d="M458,420h-2l-7.63-80.51c-0.78-8.21-7.67-14.49-15.93-14.49h-98.88c-8.26,0-15.15,6.28-15.93,14.49	L310,420h-2c-7.73,0-14,6.27-14,14v24c0,7.73,6.27,14,14,14h150c7.73,0,14-6.27,14-14v-24C472,426.27,465.73,420,458,420z"/><path fill="#6e6f80" d="M433.433,325.03c6.349,0.39,5.902,9.97-0.459,9.97H353.56c-8.26,0-15.15,6.28-15.93,14.49	l-6.251,65.986c-0.243,2.565-2.397,4.524-4.973,4.524H310l7.63-80.51c0.78-8.21,7.67-14.49,15.93-14.49	C333.56,325,433.105,325.01,433.433,325.03z"/><path fill="#6e6f80" d="M458.943,420.031c6.324,0.421,5.841,9.969-0.497,9.969H328c-7.73,0-14.029,6.27-14,14	c0.046,12.343-0.021,18.502-0.02,22.021c0,3.305-2.675,5.979-5.98,5.979c-7.732,0-14-6.268-14-14v-24c0-7.732,6.268-14,14-14	C308,420,458.632,420.011,458.943,420.031z"/><path fill="#6e6f80" d="M270,425v17.29H101.5c-12.523,0-22.823,9.806-23.472,22.276C77.809,468.759,74.25,472,70.051,472H54	v-47H270z"/><path d="M129,185v14c0,4.418,3.582,8,8,8s8-3.582,8-8v-14c0-4.418-3.582-8-8-8S129,180.582,129,185z"/><path d="M179,185v14c0,4.418,3.582,8,8,8s8-3.582,8-8v-14c0-4.418-3.582-8-8-8S179,180.582,179,185z"/><path d="M277.964,363.6c-0.277-3.152-2.413-5.839-5.357-6.854l-33.505-11.553c-18.585-6.408-31.077-23.911-31.101-43.566 c0.044-5.737-5.834-9.676-11.133-7.421C137.221,318.973,71,275.011,71,210.125v-57.181c50.932,4.648,100.996-8.571,142.795-37.694 c8.605,16.058,22.373,28.219,39.205,34.534v60.341c0,25.061-9.974,48.41-28.084,65.747c-3.191,3.055-3.302,8.119-0.247,11.311 c3.056,3.192,8.12,3.302,11.311,0.247c19.364-18.536,30.813-42.92,32.729-69.348C283.198,214.599,294,201.541,294,186v-28.172 c17.68,3.701,31,19.408,31,38.172v93h-9.092c-12.28,0-23.425-3.965-33.122-11.787c-3.439-2.774-8.475-2.234-11.25,1.205 c-2.773,3.439-2.233,8.476,1.205,11.25C285.357,299.842,299.878,305,315.895,305H333c4.418,0,8-3.582,8-8V196 c0-27.61-20.452-50.525-47-54.412V108C294,48.449,245.552,0,186,0h-47.996C78.451,0,30,48.451,30,108.004v78.329 c0,4.418,3.582,8,8,8s8-3.582,8-8v-78.329C46,57.273,87.273,16,138.004,16H186c50.729,0,92,41.271,92,92v78 c0,6.483-3.65,12.125-9,14.992V144c0-3.577-2.374-6.719-5.814-7.696c-17.827-5.063-31.934-18.233-38.703-36.134 c-1.895-5.01-8.093-6.779-12.35-3.52c-42.361,32.468-94.953,46.469-148.081,39.419C59.256,135.435,55,139.168,55,144v66.125 c0,71.905,69.727,123.14,137.991,102.446c3.931,21.858,19.374,40.329,40.895,47.749L262,370.013v36.277c0,4.418,3.582,8,8,8 s8-3.582,8-8C278,362.2,278.012,364.135,277.964,363.6z"/><path d="M227.581,417H62v-46.987c11.888-4.099,29.007-10.019,29.452-10.184c22.155,39.066,72.059,52.867,111.1,30.258 c3.823-2.214,5.128-7.108,2.914-10.932c-2.214-3.823-7.109-5.128-10.932-2.914c-32.266,18.684-71.583,6.145-88.91-23.84 c5.722-4.023,10.75-9.008,14.885-14.827c2.56-3.602,1.715-8.596-1.887-11.155c-3.601-2.559-8.596-1.714-11.155,1.887 c-5.608,7.891-13.412,13.731-22.568,16.888l-43.11,14.864C16.79,368.725,0,392.307,0,418.773V472c0,4.418,3.582,8,8,8s8-3.582,8-8 v-53.227c0-19.285,12.009-36.501,30-43.219V472c0,4.418,3.582,8,8,8s8-3.582,8-8v-39h165.581c4.418,0,8-3.582,8-8 S231.999,417,227.581,417z"/><path d="M458,412h-98.581c-4.418,0-8,3.582-8,8s3.582,8,8,8H458c3.309,0,6,2.691,6,6v24c0,3.309-2.691,6-6,6H308 c-3.309,0-6-2.691-6-6v-24c0-3.309,2.691-6,6-6h2.01c3.143,0,6.137-1.913,7.39-4.963c0.67-1.633-0.038,4.032,8.191-82.792 c0.391-4.13,3.815-7.246,7.965-7.246h98.889c4.149,0,7.573,3.115,7.965,7.246l4.121,43.499c0.416,4.399,4.316,7.623,8.719,7.21 c4.398-0.417,7.626-4.32,7.209-8.719l-4.121-43.499C455.163,326.345,444.892,317,432.444,317h-98.889 c-12.447,0-22.719,9.345-23.893,21.737l-7.003,73.922C293.102,415.051,286,423.71,286,434v24c0,12.131,9.869,22,22,22h150 c12.131,0,22-9.869,22-22v-24C480,421.869,470.131,412,458,412z"/><path d="M387,303h44c4.418,0,8-3.582,8-8s-3.582-8-8-8h-44c-4.418,0-8,3.582-8,8S382.582,303,387,303z"/></svg>