<svg xmlns="http://www.w3.org/2000/svg" viewBox="0 0 482 482"><path fill="#fe4f60" d="M396,248v201c0,13.255-10.745,24-24,24H110c-13.255,0-24-10.745-24-24V248c0-4.971,4.029-9,9-9	c40.317,0,73-32.684,73-73v-38c0-4.971,4.029-9,9-9h128c4.971,0,9,4.029,9,9v38c0,40.316,32.683,73,73,73	C391.971,239,396,243.029,396,248z"/><path fill="#ff6d7a" d="M321.631,198.529c3.082,6.176,3.427,13.356,0.855,19.761	c-38.855,96.805-109.926,170.644-202.98,210.921C103.67,436.066,86,424.425,86,407.169V248c0-5.004,4.095-8.993,9.099-9	C135.372,238.947,168,206.289,168,166v-38c0-4.971,4.029-9,9-9h128c4.971,0,9,4.03,9,9.001c0,41.652-0.041,39.14,0.11,42.039	C314.666,180.233,317.31,189.87,321.631,198.529z"/><path fill="#d6f4fc" d="M320,305v70c0,13.25-10.75,24-24,24H186c-13.25,0-24-10.75-24-24v-70c0-13.25,10.75-24,24-24h110	C309.25,281,320,291.75,320,305z"/><path fill="#f1fafc" d="M290.88,281c-28.056,45.376-65.654,85.469-112.9,116.62C168.67,394.32,162,385.44,162,375v-70	c0-13.25,10.75-24,24-24H290.88z"/><path fill="#42434d" d="M320,340v35c0,13.25-10.75,24-24,24H186c-13.25,0-24-10.75-24-24v-35H320z"/><path fill="#4d4e59" d="M246,340c-20.157,21.743-43.12,41.202-68.02,57.62c-4.206,0-15.23-10.623-15.23-16.69	c-1.144-4.113-0.75-6.29-0.75-40.93H246z"/><path d="M396,230h-9c-35.29,0-64-28.71-64-64v-47c0-4.971-4.029-9-9-9H177V82c0-35.29,28.71-64,64-64s64,28.71,64,64	c0,4.971,4.029,9,9,9s9-4.029,9-9c0-45.215-36.785-82-82-82s-82,36.785-82,82c0,8.378,0,74.895,0,84c0,35.29-28.71,64-64,64	c-4.253,0-7.618,0-12,0c-25.364,0-46,20.636-46,46v27c0,15.439-12.561,28-28,28c-4.971,0-9,4.029-9,9s4.029,9,9,9	c25.364,0,46-20.636,46-46v-27c0-13.38,9.435-24.591,22-27.346V449c0,18.196,14.804,33,33,33h262c18.196,0,33-14.804,33-33V239	C405,234.029,400.971,230,396,230z M387,449c0,8.271-6.729,15-15,15H110c-8.271,0-15-6.729-15-15V248c45.215,0,82-36.785,82-82v-38	h128v38c0,45.215,36.785,82,82,82V449z M482,340c0,4.971-4.029,9-9,9c-25.364,0-46-20.636-46-46v-27	c0-6.329-2.058-12.298-5.952-17.262c-3.067-3.911-2.384-9.568,1.527-12.636c3.913-3.069,9.569-2.385,12.636,1.526	C441.615,255.793,445,265.604,445,276v27c0,15.439,12.561,28,28,28C477.971,331,482,335.029,482,340z M296,272H186	c-18.196,0-33,14.804-33,33v70c0,18.196,14.804,33,33,33h110c18.196,0,33-14.804,33-33v-70C329,286.804,314.196,272,296,272z M311,375c0,8.271-6.729,15-15,15H186c-8.271,0-15-6.729-15-15v-26h112c4.971,0,9-4.029,9-9s-4.029-9-9-9H171v-26	c0-8.271,6.729-15,15-15h110c8.271,0,15,6.729,15,15V375z"/></svg>