<svg xmlns="http://www.w3.org/2000/svg" width="512" height="512" data-name="Filled stroke cutting expand" viewBox="0 0 512 512"><path fill="#fa5d3f" d="M352,136H160l3.356-46.987A70,70,0,0,1,233.178,24h45.644a70,70,0,0,1,69.822,65.013Z"/><path fill="#244ed6" d="M64,488V380.522a30,30,0,0,1,19.127-27.96L208,304h96l124.873,48.562A30,30,0,0,1,448,380.522V488Z"/><polygon fill="#f2f2f2" points="200 320 256 376 312 320 312 488 200 488 200 320"/><polygon fill="#5a80ed" points="200 304 128 376 168 392 152 432 176 488 200 488 200 304"/><polygon fill="#5a80ed" points="312 304 384 376 344 392 360 432 336 488 312 488 312 304"/><polygon fill="#ffd4cf" points="312 320 256 376 200 320 216 248 296 248 312 320"/><path fill="#fbb8b0" d="M296,248H216l-4.6,20.693,12.638,10.741A36.042,36.042,0,0,0,247.351,288H264.6a36.027,36.027,0,0,0,23.428-8.666l12.544-10.752Z"/><path fill="#fa5d3f" d="M160,184s8,48-24,80l24,8s-24,64,16,80l10.087-12.609C200.272,321.66,224,299.629,224,276.922L240,184Z"/><path fill="#fa5d3f" d="M352,184s-8,48,24,80l-24,8s24,64-16,80l-10.087-12.609C311.728,321.66,288,299.629,288,276.922L272,184Z"/><path fill="#ffd4cf" d="M276.145,97.611l-2.708,1.934a30,30,0,0,1-34.874,0l-2.708-1.934a30,30,0,0,0-46.542,17.136L184,136v79.159a20,20,0,0,0,7.048,15.24L234.4,267.24A20,20,0,0,0,247.351,272H264.6a20,20,0,0,0,13.015-4.815l43.4-37.2A20,20,0,0,0,328,214.8V136l-5.313-21.253A30,30,0,0,0,276.145,97.611Z"/><path fill="#ffd4cf" d="M152,136h22a10,10,0,0,1,10,10v28a10,10,0,0,1-10,10H152a0,0,0,0,1,0,0V136A0,0,0,0,1,152,136Z" transform="rotate(-180 168 160)"/><path fill="#ffd4cf" d="M338,136h22a0,0,0,0,1,0,0v48a0,0,0,0,1,0,0H338a10,10,0,0,1-10-10V146A10,10,0,0,1,338,136Z" transform="rotate(-180 344 160)"/><path d="M456,400V380.522a37.765,37.765,0,0,0-24.228-35.417L366.694,319.8a87.967,87.967,0,0,0,.293-14.24,134.61,134.61,0,0,0-4.97-28.463l16.513-5.5a8,8,0,0,0,3.127-13.247c-23.54-23.539-23.122-57.511-22.2-69.034A18.007,18.007,0,0,0,368,174V146a18,18,0,0,0-8.35-15.189l-3.027-42.369A78,78,0,0,0,278.821,16H233.179a78,78,0,0,0-77.8,72.442l-1.643,22.988,15.959,1.14,1.643-22.987A62.219,62.219,0,0,1,233.179,32h45.642a62.219,62.219,0,0,1,61.843,57.583L343.408,128h-9.162l-3.8-15.194A38,38,0,0,0,271.5,91.1h0l-2.707,1.934a22,22,0,0,1-25.575,0L240.5,91.1a38,38,0,0,0-58.951,21.705L177.754,128H162a18.021,18.021,0,0,0-18,18v28a18,18,0,0,0,8.556,15.318c.957,11.51,1.444,45.369-22.213,69.025a8,8,0,0,0,3.127,13.247l16.513,5.5a134.61,134.61,0,0,0-4.97,28.463,87.967,87.967,0,0,0,.293,14.24L80.228,345.105A37.764,37.764,0,0,0,56,380.522V488a8,8,0,0,0,8,8H448a8,8,0,0,0,8-8V416H440v64H348.133l19.221-44.849a8.007,8.007,0,0,0,.074-6.122L354.4,396.457l32.572-13.029a8,8,0,0,0,2.686-13.085L360.314,341a46.165,46.165,0,0,0,2.627-5.5l63.033,24.513A21.863,21.863,0,0,1,440,380.522V400ZM362.154,260.183,349.47,264.41a8,8,0,0,0-4.96,10.4c.2.534,18.54,50.458-6.353,67.081l-6-7.5c-2.838-3.548-5.954-7.158-9.254-10.978q-1.442-1.67-2.906-3.372V320h-.039C308.171,306.263,296,291.076,296,276.922a8.032,8.032,0,0,0-.116-1.358L293.859,263.8l32.363-27.74A27.969,27.969,0,0,0,336,214.8V192h7.22C342.513,206.605,343.892,235.65,362.154,260.183Zm-130.16,17.459.345-2.007A28.041,28.041,0,0,0,247.351,280H264.6a28.024,28.024,0,0,0,15.054-4.392l.35,2.034c.271,15.66,9.326,30.047,19.832,43.2L256,364.687l-43.838-43.84C222.668,307.689,231.723,293.3,231.994,277.642ZM208,339.314l42.343,42.343a8,8,0,0,0,11.314,0L304,339.314V480H208ZM336,144h14a2,2,0,0,1,2,2v28a2,2,0,0,1-2,2H336ZM210.816,101.378A21.7,21.7,0,0,1,231.2,104.12l2.709,1.935a38.008,38.008,0,0,0,44.175,0l2.707-1.935a22,22,0,0,1,34.131,12.567l5.074,20.3V214.8a11.982,11.982,0,0,1-4.19,9.11l-43.4,37.2A12.008,12.008,0,0,1,264.6,264H247.351a12.023,12.023,0,0,1-7.772-2.855L196.229,224.3A11.976,11.976,0,0,1,192,215.158V136.984l5.074-20.3A21.7,21.7,0,0,1,210.816,101.378ZM160,146a2,2,0,0,1,2-2h14v32H162a2,2,0,0,1-2-2ZM149.846,260.183c18.262-24.531,19.64-53.576,18.934-68.183H176v23.158a27.953,27.953,0,0,0,9.868,21.336l32.255,27.413-2.007,11.657a8.032,8.032,0,0,0-.116,1.358c0,15.339-14.294,31.89-26.906,46.495-3.3,3.82-6.416,7.43-9.254,10.977l-5.994,7.493c-24.79-16.6-6.552-66.551-6.356-67.078a8,8,0,0,0-4.96-10.4ZM181.275,480l-8.208-19.151-14.707,6.3L163.867,480H72V380.522a21.863,21.863,0,0,1,14.026-20.5l63.033-24.513a46.165,46.165,0,0,0,2.627,5.5l-29.343,29.343a8,8,0,0,0,2.686,13.085L157.6,396.457l-13.029,32.572a8.007,8.007,0,0,0,.074,6.122l6.858,16,14.707-6.3L160.658,431.9l14.77-36.924a8,8,0,0,0-4.457-10.4l-28.736-11.494L162.118,353.2a44.285,44.285,0,0,0,10.911,6.232,8,8,0,0,0,9.218-2.43L192,344.806V480Zm159.754-95.428a8,8,0,0,0-4.457,10.4l14.77,36.924L330.725,480H320V344.807L329.753,357a8,8,0,0,0,9.218,2.43,44.285,44.285,0,0,0,10.911-6.232l19.883,19.882Z"/><rect width="16" height="24" x="280" y="144"/><rect width="16" height="24" x="216" y="144"/><path d="M248,232h16a24,24,0,0,0,24-24H224A24,24,0,0,0,248,232Z"/></svg>