<svg xmlns="http://www.w3.org/2000/svg" viewBox="0 0 480.235 480.235"><circle cx="436.5" cy="73.705" r="35.5" fill="#ffbd7b"/><path fill="#ffd3a6" d="M452.174,58.388c-15.925,1.993-29.022,15.014-31.01,30.971c-0.927,7.441-10.68,9.636-14.689,3.299	c-14.484-22.898,1.328-53.215,28.404-54.418c7.594-0.337,14.69,1.711,20.602,5.458C461.819,47.715,459.619,57.456,452.174,58.388z"/><path fill="#ffbd7b" d="M463.796,178.766c40.071,144.856-68.276,292.646-222.553,293.436	C113.809,472.854,9.049,369.611,8.008,242.18C6.792,93.391,143.088-15.732,284.875,12.507c9.325,1.857,15.126,11.455,12.132,20.48	c-8.696,26.216,7.699,52.755,36.308,54.189c7.483,0.375,13.724,5.781,14.849,13.189c7.464,49.142,49.784,77.091,96.796,66.954	C453.289,165.523,461.524,170.554,463.796,178.766z M319,240.205c0-43.63-35.37-79-79-79s-79,35.37-79,79s35.37,79,79,79	S319,283.835,319,240.205z"/><path fill="#ffd3a6" d="M297,33.025c-2.76,8.34-3,17.16-0.8,25.21C140.976,60.706,32.412,212.193,78.569,359.623	c5.464,17.454-17.75,29.086-28.29,14.14c-19.75-28.005-33.455-60.577-39.218-95.818c-26.035-159.07,114.193-296.601,273.68-265.43	C294.12,14.355,300,23.945,297,33.025z"/><path d="M95.58,292.044l-10-5c-3.96-1.97-8.76-0.37-10.74,3.58c-1.97,3.95-0.37,8.76,3.58,10.74l10,5	c3.988,1.976,8.764,0.344,10.74-3.58C101.13,298.835,99.53,294.024,95.58,292.044z M381,262.205h-11c-4.42,0-8,3.58-8,8s3.58,8,8,8	h11c4.42,0,8-3.58,8-8S385.42,262.205,381,262.205z M366.91,336.895c-3.49-2.72-8.51-2.09-11.22,1.4l-7,9	c-4.14,5.312-0.227,12.91,6.3,12.91c6.152,0,7.514-5.668,13.32-12.09C371.03,344.625,370.4,339.605,366.91,336.895z M247.81,398.714	l-8-3c-4.14-1.56-8.75,0.54-10.3,4.68s0.54,8.75,4.68,10.3l8,3c4.096,1.54,8.742-0.513,10.3-4.68	C254.04,404.875,251.95,400.265,247.81,398.714z M433.58,214.044l-8-4c-3.96-1.97-8.76-0.37-10.74,3.58	c-1.97,3.95-0.37,8.76,3.58,10.74l8,4c3.988,1.976,8.764,0.344,10.74-3.58C439.13,220.835,437.53,216.024,433.58,214.044z M152.49,365.714c-3.13-3.12-8.19-3.12-11.32,0l-5.66,5.66c-5.016,5.033-1.446,13.66,5.66,13.66c4.354,0,6.119-2.799,11.32-8	C155.61,373.905,155.61,368.845,152.49,365.714z M89,189.205h-8c-4.42,0-8,3.58-8,8s3.58,8,8,8h8c4.42,0,8-3.58,8-8	S93.42,189.205,89,189.205z M238,75.205h-7c-4.42,0-8,3.58-8,8s3.58,8,8,8h7c4.42,0,8-3.58,8-8S242.42,75.205,238,75.205z M137.97,87.254c-3.84-2.19-8.72-0.85-10.92,2.98l-4,7c-3.071,5.385,0.889,11.97,6.94,11.97c6.893,0,7.986-7.02,10.96-11.03	C143.14,94.335,141.81,89.455,137.97,87.254z M436.5,30.205c-23.99,0-43.5,19.51-43.5,43.5s19.51,43.5,43.5,43.5	s43.5-19.51,43.5-43.5S460.49,30.205,436.5,30.205z M436.5,101.205c-15.16,0-27.5-12.34-27.5-27.5s12.34-27.5,27.5-27.5	s27.5,12.34,27.5,27.5S451.66,101.205,436.5,101.205z M240,153.205c-4.42,0-8,3.58-8,8s3.58,8,8,8c39.15,0,71,31.85,71,71	s-31.85,71-71,71s-71-31.85-71-71c0-22.1,10.03-42.56,27.51-56.12c3.49-2.71,4.12-7.74,1.41-11.23c-2.71-3.49-7.73-4.12-11.22-1.41	c-21.42,16.62-33.7,41.68-33.7,68.76c0,47.97,39.03,87,87,87s87-39.03,87-87C327,192.234,287.97,153.205,240,153.205z M466.41,160.405c-1.586-4.441-6.565-6.524-10.77-4.66c-1.49,0.65-36.77,15.78-69.15-6.16c-33.18-22.47-31.34-63-31.31-63.41	c0.298-5.42-4.798-9.551-10.01-8.18c-13.24,3.46-27-0.46-35.07-9.96c-2.86-3.38-7.91-3.79-11.27-0.93	c-3.37,2.86-3.79,7.91-0.93,11.27c9.99,11.79,25.6,17.87,41.59,16.71c5.178,59.615,57.617,94.718,114.34,78.19	c45.16,144.38-63.362,290.93-213.83,290.93c-123.51,0-224-100.49-224-224c0-149.114,143.969-257.181,287.4-214.9	c4.24,1.26,8.68-1.17,9.93-5.41c1.25-4.23-1.17-8.68-5.41-9.93C154.86-35.221,0,79.336,0,240.205c0,132.656,107.333,240,240,240	C405.741,480.205,521.349,316.206,466.41,160.405z M380,13.205c0,7.17-5.83,13-13,13s-13-5.83-13-13s5.83-13,13-13	S380,6.035,380,13.205z"/></svg>