<svg xmlns="http://www.w3.org/2000/svg" width="512" height="512" data-name="Filled expand" viewBox="0 0 512 512"><g data-name="20 copy 5"><path fill="#666" d="M24,468V331.472a40,40,0,0,1,25.641-37.334L128,264h80l78.359,30.138A40,40,0,0,1,312,331.472V488H44A20,20,0,0,1,24,468Z"/><polygon fill="#ffd4cf" points="216 264 168 296 120 264 136 216 200 216 216 264"/><polygon fill="#faa231" points="120 264 168 296 112 320 120 264"/><polygon fill="#faa231" points="216 264 168 296 232 320 216 264"/><polygon fill="#999" points="216 264 272 312 232 328 248 360 200 432 184 432 216 264"/><polygon fill="#999" points="120 264 64 312 104 328 88 360 136 432 152 432 120 264"/><path fill="#fbb8b0" d="M205.056,231.169,200,216H136l-5.111,15.333,20.953,10.477a36.186,36.186,0,0,0,16.1,3.8h0a36.173,36.173,0,0,0,16.264-3.882Z"/><path fill="#ffd4cf" d="M238,120h-6V80H104v40H98a10,10,0,0,0-10,10v20a10,10,0,0,0,10,10h6v21.459a30,30,0,0,0,16.584,26.833L159,227.5a20,20,0,0,0,17.979-.045l38.575-19.534A30,30,0,0,0,232,181.156V160h6a10,10,0,0,0,10-10V130A10,10,0,0,0,238,120Z"/><rect width="16" height="16" x="128" y="128" fill="#ae7069"/><rect width="16" height="16" x="192" y="128" fill="#ae7069"/><path fill="#ae7069" d="M168,198c-13.458,0-24-8.785-24-20h16c0,1.41,3.037,4,8,4s8-2.59,8-4h16C192,189.215,181.458,198,168,198Z"/><path fill="#666" d="M256,456H488a0,0,0,0,1,0,0v12a20,20,0,0,1-20,20H256a0,0,0,0,1,0,0V456A0,0,0,0,1,256,456Z"/><polygon fill="#f2f2f2" points="344 456 264 456 256 368 256 312 264 312 264 304 344 304 344 312 352 312 352 368 344 456"/><path fill="#ffd4cf" d="M240,432H200v56h96A56,56,0,0,0,240,432Z"/><path fill="#f2f2f2" d="M290,224h28a10,10,0,0,1,10,10v38a0,0,0,0,1,0,0H280a0,0,0,0,1,0,0V234A10,10,0,0,1,290,224Z"/><path fill="#faa231" d="M382.868,456H337.132a10,10,0,0,1-9.959-9.1L320,368h80l-7.173,78.9A10,10,0,0,1,382.868,456Z"/><rect width="16" height="56" x="352" y="400" fill="#fa7d29"/><path fill="#fa7d29" d="M176,24h36a20,20,0,0,1,20,20V88a0,0,0,0,1,0,0H176a0,0,0,0,1,0,0V24A0,0,0,0,1,176,24Z"/><path fill="#faa231" d="M154.239,104H106A10,10,0,0,1,96,94V54a30,30,0,0,1,30-30h82L192.552,75.494A40,40,0,0,1,154.239,104Z"/><rect width="16" height="16" x="160" y="328" fill="#ccc"/><rect width="16" height="16" x="160" y="368" fill="#ccc"/><path fill="#f2f2f2" d="M488,312V296H376v16l48,54.857V432h-4a20,20,0,0,0-20,20v4h64v-4a20,20,0,0,0-20-20h-4V366.857Z"/><polygon fill="#fa7d29" points="474 328 390 328 432 376 474 328"/><circle cx="464" cy="288" r="16" fill="#faa231"/><path fill="#e6e6e6" d="M318.586,264H289.414a30,30,0,0,0-29.592,25.068L256,312h96l-3.822-22.932A30,30,0,0,0,318.586,264Z"/><g><rect width="16" height="16" x="128" y="128"/><rect width="16" height="16" x="192" y="128"/><path d="M192,178H176c0,1.41-3.037,4-8,4s-8-2.59-8-4H144c0,11.215,10.542,20,24,20S192,189.215,192,178Z"/><rect width="16" height="16" x="160" y="328"/><rect width="16" height="16" x="160" y="368"/><path d="M494.021,317.268A8,8,0,0,0,496,312V296a8,8,0,0,0-8-8h-1.371a24.006,24.006,0,0,0-13.4-30.154A16.026,16.026,0,0,1,488,248V232a32.055,32.055,0,0,0-31.255,25.121A24.007,24.007,0,0,0,441.371,288H376a8,8,0,0,0-8,8v16a8,8,0,0,0,1.979,5.268L424,379.005v45h-4a27.87,27.87,0,0,0-17.627,6.26l5.594-61.535A8,8,0,0,0,400,360H360V312c0-.029,0-.059,0-.088s0-.085,0-.127l0-.062c0-.053,0-.105-.007-.158l0-.033c0-.063-.008-.127-.013-.19v-.008q-.033-.394-.1-.777l-3.8-22.8A37.881,37.881,0,0,0,336,260.189V234a18.021,18.021,0,0,0-18-18H290a18.021,18.021,0,0,0-18,18v26.189a37.855,37.855,0,0,0-19.455,24.6l-29.656-25.42-13.175-39.525,9.453-4.786A37.82,37.82,0,0,0,240,181.156V168h6a18.021,18.021,0,0,0,18-18V130a18.021,18.021,0,0,0-18-18h-6V44a28.032,28.032,0,0,0-28-28v1.072A8,8,0,0,0,208,16h-8v6.826L184.889,73.195A31.8,31.8,0,0,1,154.239,96H106a2,2,0,0,1-2-2V54a22.025,22.025,0,0,1,22-22h58V16H126A38.043,38.043,0,0,0,88,54V94a17.993,17.993,0,0,0,8,14.959V112H90a18.021,18.021,0,0,0-18,18v20a18.021,18.021,0,0,0,18,18h6v13.459a37.792,37.792,0,0,0,21.006,33.988l9.21,4.6-13.1,39.316-3.783,3.242-68.97,26.527A38.226,38.226,0,0,0,16,324.6V392H32V324.6A22.131,22.131,0,0,1,46.1,304.07L73.05,293.706l-14.257,12.22a8,8,0,0,0,2.236,13.5L92.957,332.2,80.845,356.422a8,8,0,0,0,.5,8.016L121.052,424H88V408H72v24a8,8,0,0,0,8,8H192v40H44a12.013,12.013,0,0,1-12-12V408H16v60a28.032,28.032,0,0,0,28,28H296a8,8,0,0,0,8-8,64.065,64.065,0,0,0-34.206-56.633L264,367.637V320h80v40H320a8,8,0,0,0-7.967,8.725l7.173,78.9c.011.124.024.247.038.37H312v16H480v16H320v16H488a8,8,0,0,0,8-8V456a8,8,0,0,0-8-8H471.715A28.043,28.043,0,0,0,444,424h-4V379.005ZM240,128h6a2,2,0,0,1,2,2v20a2,2,0,0,1-2,2h-6ZM96,152H90a2,2,0,0,1-2-2V130a2,2,0,0,1,2-2h6ZM253.182,425.365A64.061,64.061,0,0,0,240,424H214.948L248.485,373.7ZM243.044,332.2,248,330.217v11.894ZM200.214,77.793l13.693-45.641A12.019,12.019,0,0,1,224,44V80H199.5Q199.879,78.91,200.214,77.793ZM124.161,201.137A21.881,21.881,0,0,1,112,181.459V112h42.239A47.734,47.734,0,0,0,190.1,96H224v85.156a21.9,21.9,0,0,1-12.062,19.627l-38.574,19.533a12.057,12.057,0,0,1-10.788.028ZM168,286.385l-25.652-17.1-12.826-8.551,11.151-33.452,14.747,7.373a28.111,28.111,0,0,0,25.172-.064l14.692-7.44,11.2,33.583ZM204.428,282l-3.332,17.5-14.663-5.5Zm-53.154,12.469-16.019,6.865-3.829-20.1ZM140.281,424l-43.05-64.575,13.924-27.847a8,8,0,0,0-4.184-11.006L79.235,309.478l35.49-30.419L142.333,424Zm37.1,0H158.62l-20.3-106.576,30.346-13.006,29.392,11.022Zm16.287,0,27.608-144.941,28.092,24.078-1.237,7.418q-.069.382-.1.777v.008c0,.063-.009.127-.013.19l0,.033c0,.053,0,.105-.007.158l0,.062c0,.042,0,.085,0,.127s0,.059,0,.088v.986l-18.971,7.588a8,8,0,0,0-4.184,11.006l13.924,27.847L195.719,424Zm93.666,56H208V440h32A48.078,48.078,0,0,1,287.333,480ZM288,234a2,2,0,0,1,2-2h28a2,2,0,0,1,2,2v22H288Zm-22.556,70,2.269-13.616A21.931,21.931,0,0,1,289.414,272h29.172a21.931,21.931,0,0,1,21.7,18.384L342.556,304ZM384.859,446.181A1.99,1.99,0,0,1,382.868,448H368V400H352v48H337.132a1.99,1.99,0,0,1-1.991-1.819L328.76,376h62.48ZM464,272a8,8,0,1,1-8,8A8.009,8.009,0,0,1,464,272Zm-80,36.994V304h96v4.994L470.37,320H393.63ZM444,440a12.02,12.02,0,0,1,11.314,8H408.686A12.02,12.02,0,0,1,420,440Zm-12-76.148L407.63,336h48.74Z"/></g></g></svg>