<svg xmlns="http://www.w3.org/2000/svg" width="512" height="512" data-name="Filled expand" viewBox="0 0 512 512"><g data-name="17 copy 5"><path fill="#faa231" d="M188,24H132A60,60,0,0,0,72,84V246a10,10,0,0,0,10,10H238a10,10,0,0,0,10-10V84A60,60,0,0,0,188,24Z"/><path fill="#ffd4cf" d="M246,168H224V128h22a10,10,0,0,1,10,10v20A10,10,0,0,1,246,168Z"/><path fill="#ffd4cf" d="M64,128H86a10,10,0,0,1,10,10v20a10,10,0,0,1-10,10H64a0,0,0,0,1,0,0V128A0,0,0,0,1,64,128Z" transform="rotate(-180 80 148)"/><path fill="#f2f2f2" d="M24,468V339.2a30,30,0,0,1,17.428-27.239L128,272h64l104,48V488H44A20,20,0,0,1,24,468Z"/><polygon fill="#804913" points="56 304 80 392 80 432 240 432 240 392 264 304 232 288 216 360 104 360 88 288 56 304"/><rect width="32" height="16" x="184" y="384" fill="#faa231"/><path fill="#ffd4cf" d="M208,288l-5.574,5.574a60,60,0,0,1-84.852,0L112,288l24-64h48Z"/><path fill="#fbb8b0" d="M190.865,242.305,184,224H136l-6.912,18.432,19.256,9.628a26.129,26.129,0,0,0,11.627,2.745h0a26.137,26.137,0,0,0,11.746-2.8Z"/><path fill="#ffd4cf" d="M216,104H176L128,72l-9,32H104l-8,24v61.459a30,30,0,0,0,16.584,26.833L155.5,237.75a10,10,0,0,0,8.99-.023l43.064-21.807A30,30,0,0,0,224,189.156V128Z"/><rect width="16" height="16" x="184" y="144" fill="#ae7069"/><rect width="16" height="16" x="120" y="144" fill="#ae7069"/><path fill="#ae7069" d="M160,212c-13.458,0-24-8.785-24-20h16c0,1.41,3.037,4,8,4s8-2.59,8-4h16C184,203.215,173.458,212,160,212Z"/><path fill="#994635" d="M468,488H284a20,20,0,0,1-20-20V456h24l8-8H448l8,8h32v12A20,20,0,0,1,468,488Z"/><path fill="#ffd4cf" d="M240,432H200v56h96A56,56,0,0,0,240,432Z"/><g><polygon fill="#fa5131" points="376 272 272 272 288 456 360 456 376 272"/><path fill="#b03414" d="M336,264V224h24V208H328a8,8,0,0,0-8,8v48H256v16H392V264Z"/><path fill="#b03414" d="M320,336h0a24,24,0,0,1-24,24H279.65l-4.17-48H296A24,24,0,0,1,320,336Z"/></g><g><rect width="16" height="64" x="424" y="280" fill="#b03414"/><path fill="#cc751f" d="M344,416H488a0,0,0,0,1,0,0v0a40,40,0,0,1-40,40H384a40,40,0,0,1-40-40v0A0,0,0,0,1,344,416Z"/><rect width="128" height="32" x="352" y="384" fill="#804913"/><path fill="#cc751f" d="M384,336h64a40,40,0,0,1,40,40v8a0,0,0,0,1,0,0H344a0,0,0,0,1,0,0v-8A40,40,0,0,1,384,336Z"/><polygon fill="#faa231" points="416 432 376 384 456 384 416 432"/><path fill="#fa5131" d="M434,264h38a0,0,0,0,1,0,0v22a10,10,0,0,1-10,10H424a0,0,0,0,1,0,0V274A10,10,0,0,1,434,264Z"/></g><g><rect width="32" height="16" x="184" y="384"/><rect width="16" height="16" x="184" y="144"/><rect width="16" height="16" x="120" y="144"/><path d="M160,212c-13.458,0-24-8.785-24-20h16c0,1.41,3.037,4,8,4s8-2.59,8-4h16C184,203.215,173.458,212,160,212Z"/></g><path d="M496,384v-8a48.053,48.053,0,0,0-48-48h-8V304h30a18.021,18.021,0,0,0,18-18V264a8,8,0,0,0-8-8H442a18.026,18.026,0,0,0-17.889,16H424v56H384a48.205,48.205,0,0,0-4.861.245L383.334,280H392V264H336V224h24V208H328a8,8,0,0,0-8,8v48H256v16h8.666l1.515,17.426L210.429,271.7,207.543,264H238a18.021,18.021,0,0,0,18-18V172.96A18,18,0,0,0,264,158V138a18,18,0,0,0-8-14.96V84a68.077,68.077,0,0,0-68-68H176V32h12a52.059,52.059,0,0,1,52,52v36H229.766l-6.176-18.53A8,8,0,0,0,216,96H178.422L132.438,65.344a8,8,0,0,0-12.139,4.49L112.939,96H104a8,8,0,0,0-7.59,5.47L90.234,120H80V84a52.059,52.059,0,0,1,52-52h28V16H132A68.077,68.077,0,0,0,64,84v39.04A18,18,0,0,0,56,138v20a18,18,0,0,0,8,14.96V246a18.021,18.021,0,0,0,18,18h30.457l-2.886,7.695-71.495,33A38.114,38.114,0,0,0,16,339.2V392H32V339.2A22.065,22.065,0,0,1,44.781,319.22l6.287-2.9L72,393.071V432a8,8,0,0,0,8,8H192v40H44a12.013,12.013,0,0,1-12-12V408H16v60a28.032,28.032,0,0,0,28,28H296a8,8,0,0,0,8-8,64.1,64.1,0,0,0-56-63.5V393.071L268.092,319.4l1.642,18.884,1.947,22.408c0,.054.01.107.016.161l5.551,63.84,15.94-1.386L288.378,368H296a32,32,0,0,0,0-64H282.812l-2.086-24h86.548l-4.609,53.007A48.056,48.056,0,0,0,336,376v8a8,8,0,0,0,8,8v16a8,8,0,0,0-8,8,47.809,47.809,0,0,0,12.253,32H312v16H480v4a12.013,12.013,0,0,1-12,12H321v16H468a28.032,28.032,0,0,0,28-28V456a8,8,0,0,0-8-8h-4.253A47.809,47.809,0,0,0,496,416a8,8,0,0,0-8-8V392A8,8,0,0,0,496,384ZM440,274a2,2,0,0,1,2-2h30v14a2,2,0,0,1-2,2H440ZM232,136h14a2,2,0,0,1,2,2v20a2,2,0,0,1-2,2H232Zm0,53.156V176h8v70a2,2,0,0,1-2,2H201.543l-6.324-16.867,15.948-8.076A37.818,37.818,0,0,0,232,189.156Zm-109.153,92.7,16.26-43.362,12.814,6.407a18.082,18.082,0,0,0,16.183-.041l12.754-6.459,16.295,43.455-.506,1.1,1.109.512.944,2.517-1.93,1.931a52.06,52.06,0,0,1-73.54,0l-1.93-1.931.944-2.517,1.109-.512ZM104,129.3l5.766-17.3H119a8,8,0,0,0,7.7-5.834l6.02-21.4,38.841,25.894A8,8,0,0,0,176,112h34.234L216,129.3v59.858a21.894,21.894,0,0,1-12.062,19.627l-43.063,21.806a2,2,0,0,1-1.8,0l-42.915-21.457A21.881,21.881,0,0,1,104,189.459ZM72,158V138a2,2,0,0,1,2-2H88v24H74A2,2,0,0,1,72,158Zm10,90a2,2,0,0,1-2-2V176h8v13.459a37.792,37.792,0,0,0,21.006,33.988l15.712,7.856L118.457,248Zm22.812,43.513a8.005,8.005,0,0,0,1.531,2.144l5.573,5.573a68.079,68.079,0,0,0,96.168,0l5.573-5.573a8.005,8.005,0,0,0,1.531-2.144l7.107,3.28L209.583,352H110.417L97.705,294.793ZM287.333,480H208V440h32A48.078,48.078,0,0,1,287.333,480Zm-55.051-90.1A7.992,7.992,0,0,0,232,392v32H88V392a7.992,7.992,0,0,0-.282-2.1L65.8,309.52l17.042-7.865,13.351,60.08A8,8,0,0,0,104,368H216a8,8,0,0,0,7.81-6.265l13.351-60.081L254.2,309.52ZM296,320a16,16,0,0,1,0,32h-9.013L285.9,339.461,284.206,320ZM448,448H384a32.056,32.056,0,0,1-30.987-24H398.92l10.934,13.121a8,8,0,0,0,12.292,0L433.08,424h45.907A32.056,32.056,0,0,1,448,448Zm-88-40V392h12.254l13.333,16Zm33.08-16h45.84L416,419.5Zm53.333,16,13.333-16H472v16ZM352,376a32.036,32.036,0,0,1,32-32h64a32.036,32.036,0,0,1,32,32Z"/></g></svg>