<svg xmlns="http://www.w3.org/2000/svg" width="512" height="512" data-name="Filled stroke cutting expand" viewBox="0 0 512 512"><path fill="#666" d="M64,488V380.522a30,30,0,0,1,19.127-27.96L208,304h96l124.873,48.562A30,30,0,0,1,448,380.522V488Z"/><path fill="#4d4d4d" d="M368,326.691c0,27.13-65.589,49.123-111.968,49.123s-111.968-21.993-111.968-49.123,65.589-78.6,111.968-78.6S368,299.562,368,326.691Z"/><path fill="#ffd4cf" d="M288.036,336H223.964a20,20,0,0,1-19.677-23.578L216,248h80l11.713,64.422A20,20,0,0,1,288.036,336Z"/><path fill="#fbb8b0" d="M296,248H216l-3.874,21.309,11.911,10.122A36.034,36.034,0,0,0,247.351,288H264.6a36.022,36.022,0,0,0,23.428-8.667L299.854,269.2Z"/><path fill="#ffd4cf" d="M328,104H184V215.159a20,20,0,0,0,7.048,15.24L234.4,267.24A20,20,0,0,0,247.351,272H264.6a20,20,0,0,0,13.015-4.815l43.4-37.2A20,20,0,0,0,328,214.8Z"/><path fill="#ffd4cf" d="M152,136h22a10,10,0,0,1,10,10v28a10,10,0,0,1-10,10H152a0,0,0,0,1,0,0V136A0,0,0,0,1,152,136Z" transform="rotate(-180 168 160)"/><path fill="#ffd4cf" d="M338,136h22a0,0,0,0,1,0,0v48a0,0,0,0,1,0,0H338a10,10,0,0,1-10-10V146A10,10,0,0,1,338,136Z" transform="rotate(-180 344 160)"/><path fill="#2471d6" d="M188,112h28l24-24v24h32l24-24v24h30a10,10,0,0,0,10-10V64a40,40,0,0,0-40-40H168V92A20,20,0,0,0,188,112Z"/><path d="M431.773,345.106,375.779,323.33c-1.55-12.06-10.985-24.34-19.009-32.827L345.144,301.5c9.3,9.837,14.856,19.255,14.856,25.194,0,8.552-12.862,19.016-33.567,27.309-21.275,8.521-48.251,13.814-70.4,13.814S206.9,362.521,185.629,354c-20.7-8.293-33.567-18.757-33.567-27.309,0-11.693,21.479-36.317,51.225-53.493l-6.871,37.793A28,28,0,0,0,223.964,344h64.072a28,28,0,0,0,27.548-33.009l-6.862-37.742a177.542,177.542,0,0,1,22.258,15.265l10.041-12.457a192.671,192.671,0,0,0-35.208-22.5l20.409-17.493A27.968,27.968,0,0,0,336,214.8V192h14a18.021,18.021,0,0,0,18-18V146a18.021,18.021,0,0,0-18-18H336V116.96A18,18,0,0,0,344,102V64a48.055,48.055,0,0,0-48-48H168a8,8,0,0,0-8,8V56h16V32H296a32.036,32.036,0,0,1,32,32v38a2,2,0,0,1-2,2H304V88a8,8,0,0,0-13.657-5.657L268.687,104H248V88a8,8,0,0,0-13.657-5.657L212.687,104H188a12.013,12.013,0,0,1-12-12V72H160V92a28.035,28.035,0,0,0,16,25.3V128H162a18.021,18.021,0,0,0-18,18v28a18.021,18.021,0,0,0,18,18h14v23.159a27.956,27.956,0,0,0,9.868,21.336l20.207,17.173c-33.436,16.595-66.729,46.389-69.784,69.635l-56.064,21.8A37.764,37.764,0,0,0,56,380.522V408H72V380.522a21.863,21.863,0,0,1,14.026-20.5l53.255-20.71c5.832,11.124,19.511,21.178,40.4,29.545q2.125.851,4.32,1.662V416h-8v16h8v8h16v-8h8V416h-8V375.665c18.519,5.15,38.635,8.149,56.031,8.149,17.376,0,37.467-2.992,55.969-8.132V416h-8v16h8v8h16v-8h8V416h-8V370.538q2.225-.822,4.382-1.685c20.876-8.362,34.551-18.409,40.389-29.525l53.2,20.69A21.863,21.863,0,0,1,440,380.522V480H392V424H376v56H136V424H120v56H72V424H56v64a8,8,0,0,0,8,8H448a8,8,0,0,0,8-8V380.522A37.764,37.764,0,0,0,431.773,345.106ZM297.249,323.689A11.969,11.969,0,0,1,288.036,328H223.964a12,12,0,0,1-11.806-14.146l8.664-47.654,8.4,7.135A28.025,28.025,0,0,0,247.351,280H264.6a28.019,28.019,0,0,0,18.222-6.741l8.338-7.147,8.68,47.742A11.971,11.971,0,0,1,297.249,323.689ZM350,144a2,2,0,0,1,2,2v28a2,2,0,0,1-2,2H336V144ZM162,176a2,2,0,0,1-2-2V146a2,2,0,0,1,2-2h14v32Zm30,39.159V120h24a8,8,0,0,0,5.657-2.343L232,107.313V112a8,8,0,0,0,8,8h32a8,8,0,0,0,5.657-2.343L288,107.313V112a8,8,0,0,0,8,8h24v94.8a11.982,11.982,0,0,1-4.191,9.111l-43.4,37.2A12.008,12.008,0,0,1,264.6,264H247.351a12.009,12.009,0,0,1-7.771-2.856L196.229,224.3A11.979,11.979,0,0,1,192,215.159Z"/><rect width="16" height="24" x="280" y="144"/><rect width="16" height="24" x="216" y="144"/><path d="M264,232a24,24,0,0,0,24-24H224a24,24,0,0,0,24,24Z"/></svg>