<svg xmlns="http://www.w3.org/2000/svg" viewBox="0 0 64 64"><g data-name="16-China"><polygon fill="#fedb03" points="34 32.82 31.5 35.38 32.09 39 29 37.29 25.91 39 26.5 35.38 24 32.82 27.45 32.29 29 29 30.55 32.29 34 32.82"/><path fill="#c74841" d="M42,58.7v.99a1.8,1.8,0,0,1-.63,1.41l-2.01,1.61a1.264,1.264,0,0,1-.79.29H37.41A1.574,1.574,0,0,1,36,61.3a1.914,1.914,0,0,1,.41-1.2l2.18-2.6a1.289,1.289,0,0,1,1-.5h1A1.574,1.574,0,0,1,42,58.7Z"/><path fill="#c74841" d="M57.22,48.31A1.479,1.479,0,0,1,58,49.63v4.9A1.441,1.441,0,0,1,56.59,56a1.354,1.354,0,0,1-1-.43l-1.18-1.22A1.511,1.511,0,0,1,54,53.31V50.37a1.529,1.529,0,0,1,.41-1.04l.87-.9a1.357,1.357,0,0,1,1.63-.27Z"/><path fill="#c74841" d="M63,11v6H60l1,3-8,6-1-1-5,3v2h6v2l-4,2,4,6v6l-9,7H36l-2-2-5,2-5-4,2-2V45l-4-3-3,1H11L3,34l1-1V29L1,26V21l7-1,2-4,4-2h2V12h3l2,3-1,1v2l3,1,2,1,1,3h5l3,2,2-1h3l2-2V20l4-2,4-1-1-2H45V12h2l1-5h6l2,5,3,2,2-3ZM31.5,35.38,34,32.82l-3.45-.53L29,29l-1.55,3.29L24,32.82l2.5,2.56L25.91,39,29,37.29,32.09,39Z"/><polygon fill="#fedb03" points="37 28.764 36.5 29.276 36.618 30 36 29.658 35.382 30 35.5 29.276 35 28.764 35.69 28.658 36 28 36.31 28.658 37 28.764"/><polygon fill="#fedb03" points="41 31.764 40.5 32.276 40.618 33 40 32.658 39.382 33 39.5 32.276 39 31.764 39.69 31.658 40 31 40.31 31.658 41 31.764"/><polygon fill="#fedb03" points="41 37.764 40.5 38.276 40.618 39 40 38.658 39.382 39 39.5 38.276 39 37.764 39.69 37.658 40 37 40.31 37.658 41 37.764"/><polygon fill="#fedb03" points="37 40.764 36.5 41.276 36.618 42 36 41.658 35.382 42 35.5 41.276 35 40.764 35.69 40.658 36 40 36.31 40.658 37 40.764"/><polygon fill="#ad3a34" points="25.91 39 26.5 35.38 24.719 33.556 23 33.82 25.5 36.38 24.91 40 28 38.29 31.09 40 30.812 38.293 29 37.29 25.91 39"/><polygon fill="#ad3a34" points="28.264 30.561 28 30 26.88 32.378 27.45 32.29 28.264 30.561"/></g></svg>