<svg xmlns="http://www.w3.org/2000/svg" width="512" height="512" data-name="Filled stroke cutting expand" viewBox="0 0 512 512"><path fill="#f94267" d="M64,488V380.522a30,30,0,0,1,19.127-27.96L208,304h96l124.873,48.562A30,30,0,0,1,448,380.522V488Z"/><polygon fill="#f2f2f2" points="224 488 200 360 256 336 312 360 288 488 224 488"/><polygon fill="#ffd4cf" points="312 312 256 336 200 312 216 248 296 248 312 312"/><path fill="#fbb8b0" d="M296,248H216l-5.073,20.291,13.112,11.143A36.04,36.04,0,0,0,247.351,288H264.6a36.028,36.028,0,0,0,23.428-8.666l13.015-11.156Z"/><polygon fill="#f94267" points="192 304 256 336 184 368 192 304"/><polygon fill="#f94267" points="320 304 256 336 328 368 320 304"/><polygon fill="#832c52" points="192 304 128 360 168 368 152 400 208 488 224 488 192 304"/><polygon fill="#832c52" points="320 304 384 360 344 368 360 400 304 488 288 488 320 304"/><path fill="#ffd4cf" d="M328,104H184V215.159a20,20,0,0,0,7.048,15.24L234.4,267.24A20,20,0,0,0,247.351,272H264.6a20,20,0,0,0,13.015-4.815l43.4-37.2A20,20,0,0,0,328,214.8Z"/><path fill="#ffd4cf" d="M152,136h22a10,10,0,0,1,10,10v28a10,10,0,0,1-10,10H152a0,0,0,0,1,0,0V136A0,0,0,0,1,152,136Z" transform="rotate(-180 168 160)"/><path fill="#ffd4cf" d="M338,136h22a0,0,0,0,1,0,0v48a0,0,0,0,1,0,0H338a10,10,0,0,1-10-10V146a10,10,0,0,1,10-10Z" transform="rotate(-180 344 160)"/><path fill="#4d4d4d" d="M236,24h58a10,10,0,0,1,10,10V44a60,60,0,0,1-60,60H176a0,0,0,0,1,0,0V84a60,60,0,0,1,60-60Z" transform="rotate(-180 240 64)"/><path fill="#999" d="M284,24h68a0,0,0,0,1,0,0V44a60,60,0,0,1-60,60H224a0,0,0,0,1,0,0V84A60,60,0,0,1,284,24Z" transform="rotate(-180 288 64)"/><path fill="#4d4d4d" d="M304,56h64a0,0,0,0,1,0,0v0a48,48,0,0,1-48,48H256a0,0,0,0,1,0,0v0a48,48,0,0,1,48-48Z"/><g><path d="M431.773,345.105,337.01,308.254l-11.742-10.275a8,8,0,0,0-8.814-1.15L305.666,253.68l20.556-17.619A27.971,27.971,0,0,0,336,214.8V192h14a18.021,18.021,0,0,0,18-18V146a18.021,18.021,0,0,0-18-18H336V109.672A56.1,56.1,0,0,0,376,56a8,8,0,0,0-8-8h-8.117Q360,46,360,44V24a8,8,0,0,0-8-8H284q-2.014,0-4,.116V16H236a68.077,68.077,0,0,0-68,68V94a17.993,17.993,0,0,0,8,14.959V128H162a18.021,18.021,0,0,0-18,18v28a18.021,18.021,0,0,0,18,18h14v23.158a27.953,27.953,0,0,0,9.868,21.336l20.423,17.357-10.745,42.978a8,8,0,0,0-8.814,1.15l-11.741,10.274L80.227,345.105A37.765,37.765,0,0,0,56,380.522V400H72V380.522a21.862,21.862,0,0,1,14.026-20.5l53.65-20.864-16.944,14.825a8,8,0,0,0,3.7,13.866l29.73,5.946-11.316,22.631a8,8,0,0,0,.405,7.873L193.427,480H72V416H56v72a8,8,0,0,0,8,8H448a8,8,0,0,0,8-8V380.522A37.765,37.765,0,0,0,431.773,345.105ZM230.729,480l-20.02-115.116L256,344.754l45.291,20.13L281.271,480Zm6.531-144.426-29.378,13.057L202.6,318.243Zm66.858,13.057L274.74,335.574,309.4,318.243ZM350,144a2,2,0,0,1,2,2v28a2,2,0,0,1-2,2H336V144ZM344,32V44q0,2-.152,4H320V64h39.2A40.071,40.071,0,0,1,320,96H264.8A40.071,40.071,0,0,1,304,64V48a56.086,56.086,0,0,0-55.43,48H232V84a52.059,52.059,0,0,1,52-52ZM184,84a52.059,52.059,0,0,1,52-52h4.229A67.882,67.882,0,0,0,216,84V96H186a2,2,0,0,1-2-2Zm-22,92a2,2,0,0,1-2-2V146a2,2,0,0,1,2-2h14v32Zm30,39.158V112H320V214.8a11.981,11.981,0,0,1-4.191,9.11l-43.4,37.2A12.006,12.006,0,0,1,264.6,264H247.351a12.02,12.02,0,0,1-7.771-2.855L196.229,224.3A11.983,11.983,0,0,1,192,215.158Zm37.219,58.179A28.03,28.03,0,0,0,247.351,280H264.6a28.023,28.023,0,0,0,18.222-6.74l9.26-7.938,9.709,38.837L256,327.056l-45.793-22.9,9.686-38.747Zm-42.5,46.99-.312-.8.15-.131ZM212.392,480l-51.211-80.474,13.974-27.948a8,8,0,0,0-5.586-11.423l-24.091-4.818,37.932-33.191,3.4-1.321L214.489,480ZM440,480H318.573l27.813-43.7-13.5-8.59L299.608,480h-2.1l27.683-159.174,3.4,1.321,37.931,33.19-24.091,4.818a8,8,0,0,0-5.586,11.423l13.974,27.948-7.75,12.179,13.5,8.59,10.182-16a8,8,0,0,0,.4-7.873l-11.316-22.631,29.73-5.946a8,8,0,0,0,3.7-13.866l-16.943-14.824,53.649,20.863A21.862,21.862,0,0,1,440,380.522Z"/><rect width="16" height="24" x="280" y="144"/><rect width="16" height="24" x="216" y="144"/><path d="M264,232a24,24,0,0,0,24-24H224a24,24,0,0,0,24,24Z"/><rect width="16" height="24" x="248" y="376"/><rect width="16" height="24" x="248" y="424"/></g></svg>