<svg xmlns="http://www.w3.org/2000/svg" viewBox="0 0 480 480"><path fill="#ffebd2" d="M435.51,367.59c-45.922-15.835-45.657-15.5-50.67-18.15c-17.52-9.25-28.84-27.55-28.84-47.87	c7-2.91,13.59-6.6,19.67-10.97c15.83-1.37,31.62-3.32,47.28-5.85c11.58-1.88,20.05-11.95,20.05-23.68V107.51	C443,52.55,398.45,8,343.5,8h-50C238.55,8,194,52.55,194,107.51v153.56c0,11.73,8.47,21.8,20.05,23.67	c15.22,2.46,30.62,4.38,46.14,5.76c6.11,4.41,12.76,8.14,19.81,11.07c0,23.069-14.597,43.618-36.49,51.19l-43.02,14.83	c-21.83,7.53-36.49,28.08-36.49,51.18V464c0,4.418,3.582,8,8,8h292c4.418,0,8-3.582,8-8v-45.23	C472,395.67,457.341,375.118,435.51,367.59z"/><path fill="#42434d" d="M417,210.13v-60.349c0-3.354-2.103-6.326-5.243-7.503c-15.47-5.799-27.47-16.881-34.948-30.882	c-2.245-4.204-7.691-5.424-11.604-2.702c-40.297,28.036-88.617,40.716-137.518,36.277c-4.67-0.424-8.687,3.28-8.687,7.97v57.19	c0,33.09,16.24,62.4,41.19,80.37c-15.52-1.38-30.92-3.3-46.14-5.76C202.47,282.87,194,272.8,194,261.07V107.51	C194,52.55,238.55,8,293.5,8h50c54.95,0,99.5,44.55,99.5,99.51v153.56c0,11.73-8.47,21.8-20.05,23.68	c-15.66,2.53-31.45,4.48-47.28,5.85C400.7,272.64,417,243.28,417,210.13z"/><path fill="#ffdfba" d="M308.656,136.428c5.135-1.605,10.344,2.268,10.344,7.647V181c0,20.81-11.02,39.1-27.53,49.33	c-3.6,23.24-13.31,44.75-27.81,62.55c-1.17-0.76-2.33-1.56-3.47-2.38c-10.231-0.904-22.665-2.281-35.09-4.08	c21.887-18.106,35.907-45.525,35.92-76.23V207c14.35-0.01,25.98-11.65,25.98-26v-39.07	C294.516,140.447,301.797,138.572,308.656,136.428z"/><path fill="#ffe773" d="M472,418.77V464c0,4.418-3.582,8-8,8H172c-4.418,0-8-3.582-8-8v-45.23	c0-23.1,14.659-43.652,36.49-51.18c45.922-15.835,45.657-15.5,50.67-18.15C262.72,375.59,288.88,393,318,393	s55.28-17.41,66.84-43.56c5.464,2.889,5.669,2.632,50.67,18.15C457.341,375.118,472,395.67,472,418.77z"/><path fill="#fff0a6" d="M255.216,357.285c8.99,15.067,1.86,34.585-14.726,40.305C218.66,405.119,204,425.67,204,448.77V464	c0,4.418-3.582,8-8,8h-24c-4.418,0-8-3.582-8-8v-45.23c0-23.1,14.676-43.605,36.49-51.18c42.95-14.915,44.246-14.754,50.67-18.15	C252.36,352.152,253.716,354.771,255.216,357.285z"/><path fill="#ffdfba" d="M352.429,322.965c-21.647,8.015-46.119,8.434-68.835,0.012c-3.763-1.395-5.858-5.396-4.961-9.308	c0.896-3.909,1.367-7.961,1.367-12.099c23.647,9.843,51.203,10.321,76,0c0,4.138,0.47,8.19,1.367,12.099	C358.262,317.571,356.184,321.574,352.429,322.965z"/><path fill="#585966" d="M345.871,38.275c-7.32,0.171-14.748,0.224-22.371-0.275c-54.95,0-99.5,44.55-99.5,99.51v8.01	c-2.91,1.18-5.038,4.041-5,7.42c0.554,49.448-2.956,64.299,5,88.34c6.62,19.99,19.44,37.16,36.19,49.22	c-15.892-1.413-30.803-3.304-46.14-5.76C202.47,282.87,194,272.8,194,261.07V107.51C194,52.55,238.55,8,293.5,8	c0,0,51.755,0.011,52.629,0.034C365.69,8.541,365.433,37.818,345.871,38.275z"/><path fill="#ffebd2" d="M279.51,367.59c-45.922-15.835-45.657-15.5-50.67-18.15c-17.51-9.25-28.84-27.555-28.84-47.865	c35.8-14.88,60.99-50.185,61.02-91.385V207c14.35-0.01,25.98-11.65,25.98-26V87.54C287,43.611,251.389,8,207.46,8h-68.61	c-31.194,0-58.992,18.14-71.947,45.627c-1.151,2.441-3.356,4.277-6.024,4.685C47.896,60.298,38,71.524,38,85c0,1.34,0,94.22,0,97.46	C38,195.723,48.726,207,63.02,207c0,3.356,0.02,3.121-0.02,3c0.03,41.23,25.19,76.655,61,91.575	c0,23.055-14.607,43.616-36.49,51.185l-43.02,14.83C22.66,375.12,8,395.67,8,418.77V464c0,4.418,3.582,8,8,8h292	c4.418,0,8-3.582,8-8v-45.23C316,395.67,301.341,375.118,279.51,367.59z"/><path fill="#42434d" d="M287,87.54V181c0,14.35-11.63,25.99-25.98,26v-61.7c0.02-26.51-21.41-48.045-47.92-48.065h-102	c-26.51-0.02-48.03,21.425-48.04,47.935C63.057,151.95,63.102,207,63,207c-14.26,0-25-11.27-25-24.54c0-3.24,0-96.12,0-97.46	c0-13.476,9.897-24.702,22.879-26.688c2.668-0.408,4.873-2.244,6.024-4.685C79.858,26.14,107.656,8,138.85,8h68.61	C251.389,8,287,43.611,287,87.54z"/><path fill="#fff3e4" d="M77.614,145.448c8.455-0.245,15.427,6.546,15.419,15.004c-0.009,9.766,0.024,30.211-0.033,30.108	c0.019,25.797,9.628,48.532,24.982,65.691c15.232,17.022-8.905,40.795-25.344,24.936C74.721,263.903,63.021,239.574,63,210.56	c0.033,0.1,0.019,3.21,0.051-50.121C63.056,152.329,69.507,145.683,77.614,145.448z"/><path fill="#ff6d7a" d="M316,418.77V464c0,4.418-3.582,8-8,8H16c-4.418,0-8-3.582-8-8v-45.23	c0-23.1,14.659-43.652,36.49-51.18c45.922-15.835,45.657-15.5,50.67-18.15C106.72,375.59,132.88,393,162,393	s55.28-17.41,66.84-43.56c5.465,2.889,5.669,2.632,50.67,18.15C301.341,375.118,316,395.67,316,418.77z"/><path fill="#ff8c95" d="M99.216,357.285c8.99,15.067,1.86,34.585-14.726,40.305C62.66,405.119,48,425.67,48,448.77V464	c0,4.418-3.582,8-8,8H16c-4.418,0-8-3.582-8-8v-45.23c0-23.1,14.676-43.605,36.49-51.18c42.95-14.915,44.246-14.754,50.67-18.15	C96.36,352.152,97.716,354.771,99.216,357.285z"/><path fill="#ffdfba" d="M196.429,322.965c-21.647,8.015-46.119,8.434-68.835,0.012c-3.763-1.395-5.858-5.396-4.961-9.308	c0.896-3.909,1.367-7.956,1.367-12.094c23.647,9.843,51.203,10.321,76,0c0,4.138,0.47,8.185,1.367,12.094	C202.262,317.571,200.184,321.574,196.429,322.965z"/><path fill="#585966" d="M211.853,12.393C221.303,21.843,214.61,38,201.247,38H168.85c-30.036,0-56.923,16.818-70.443,42.605	c-2.112,4.028-5.763,7.113-10.167,8.247C76.579,91.858,68,102.453,68,115v8.98c-6.583,13.311-4.928,18.24-4.98,83.02	C48.76,207,38,195.73,38,182.46V85c0-13.476,9.897-24.702,22.879-26.688c2.668-0.408,4.873-2.244,6.024-4.685	C79.858,26.14,107.656,8,138.85,8h62.397C205.225,8,209.04,9.58,211.853,12.393z"/><path fill="#fada86" d="M348,418.77c0,49.527,0.27,47.919-0.8,53.23H308c4.42,0,8-3.58,8-8v-45.23	c0-9.43-2.44-18.44-6.83-26.31c8.618,1.069,17.561,0.568,26.28-1.584c4.25-1.049,8.532,1.52,9.657,5.75	C346.999,403.737,348,411.169,348,418.77z"/><path fill="#ffdfba" d="M333.283,391.376c-8.02,1.723-16.199,2.066-24.113,1.084c-6.34-11.4-16.739-20.412-29.66-24.87	c-27.327-9.429-18.474-6.373-39.51-13.62c1.426-0.734,16.454-3.867,28.167-18.598c2.086-2.624,5.634-3.596,8.802-2.504l12.971,4.472	c21.644,7.462,38.858,22.985,48.761,42.51C341.091,384.561,338.448,390.266,333.283,391.376z"/><path fill="#2c2c33" d="M260.19,290.5c-3.27-0.345-14.062-1.1-35.09-4.08c5.5-4.55,10.5-9.69,14.9-15.32	C245.78,278.48,252.58,285.02,260.19,290.5z"/><path fill="#2c2c33" d="M319,87.54v33.886c0,7.03-4.584,13.237-11.304,15.3c-6.58,2.021-13.533,3.791-20.696,5.204V87.54	c0-29.16-15.69-54.66-39.1-68.49c11.234-5.851,24.25-9.712,37.96-10.76C306.31,28.51,319,56.57,319,87.54z"/><path d="M282.112,360.022l-43.01-14.829c-8.028-2.768-15.128-7.69-20.534-14.234c-2.813-3.406-7.855-3.886-11.262-1.073 c-3.407,2.813-3.888,7.855-1.074,11.263c3.548,4.295,7.641,8.067,12.153,11.242c-19.983,34.688-66.637,43.589-97.99,17.52 c-3.397-2.824-8.441-2.36-11.266,1.036c-2.825,3.397-2.361,8.441,1.036,11.267c39.113,32.524,97.625,21.374,122.385-22.379 c1.452,0.538-3.642-1.23,44.346,15.315C295.501,381.564,308,399.095,308,418.773V472c0,4.418,3.582,8,8,8s8-3.582,8-8v-53.227 C324,392.271,307.167,368.662,282.112,360.022z"/><path d="M131.01,312.562c66.852,20.264,135.411-28.245,137.932-98.508c10.645-2.558,19.355-10.13,23.478-20.075 c4.222-0.22,7.58-3.702,7.58-7.979v-14c0-3.356-2.069-6.226-5-7.413V148.39c26.204-6.007,51.573-16.967,74.797-33.142 c8.809,16.455,22.661,28.349,39.203,34.539v60.338c0,50.178-40.822,91-91,91c-15.183,0-30.206-3.811-43.447-11.021 c-3.878-2.111-8.739-0.681-10.852,3.201c-2.112,3.88-0.68,8.738,3.201,10.852c1.585,0.863,3.196,1.673,4.822,2.453 c-0.569,5.256-2.028,10.332-4.369,15.14c-2.61,5.363,1.357,11.504,7.188,11.504c2.965,0,5.813-1.655,7.199-4.5 c2.49-5.116,4.255-10.6,5.265-16.22c68.658,20.709,137.44-30.597,137.99-101.563C424.999,210.895,425,144,425,144 c0-3.576-2.374-6.719-5.814-7.695c-18.263-5.188-32.014-18.445-38.702-36.134c-1.895-5.008-8.096-6.784-12.35-3.521 c-21.46,16.447-46.036,28.536-73.134,35.279V87.541C295,39.271,255.729,0,207.459,0h-68.608c-34.321,0-64.917,19.63-79.285,50.421 C42.847,53.039,30.012,67.534,30,84.974v90.994c0,4.418,3.582,8,8,8s8-3.582,8-8V85c0-10.477,8.523-19,19-19 c3.271,0,6.213-1.991,7.428-5.029C83.355,33.652,109.428,16,138.852,16h68.608C246.907,16,279,48.093,279,87.541V181 c0,7.038-4.052,13.128-9.953,16.086v-51.783c0.022-30.899-24.933-56.015-55.944-56.035c0,0-102.026-0.069-102.04-0.069 c-30.917,0-55.96,25-55.998,55.93c0,0-0.065,64.68-0.065,64.877c0.029,42.512,24.856,79.303,60.719,96.598 c-1.926,17.583-13.822,32.729-30.821,38.59l-43.011,14.829C16.833,368.662,0,392.271,0,418.773V472c0,4.418,3.582,8,8,8 s8-3.582,8-8v-53.227c0-19.679,12.499-37.21,31.102-43.624l43.011-14.83C111.637,352.898,127.082,334.423,131.01,312.562z M71.002,210.599c0.028-0.418,0.063-65.326,0.063-65.427c0.015-21.854,17.623-39.938,39.999-39.938h102.029 c21.863,0.014,39.96,17.727,39.951,40.058c-0.027,74.145-0.022,62.932-0.022,64.895c-0.017,50.093-40.498,90.938-91.137,90.938 C112.002,301.125,71.363,260.582,71.002,210.599z"/><path d="M136,164c-4.418,0-8,3.582-8,8v14c0,4.418,3.582,8,8,8s8-3.582,8-8v-14C144,167.582,140.418,164,136,164z"/><path d="M188,194c4.418,0,8-3.582,8-8v-14c0-4.418-3.582-8-8-8s-8,3.582-8,8v14C180,190.418,183.582,194,188,194z"/><path d="M438.112,360.022l-43.01-14.829c-7.564-2.608-14.352-7.162-19.626-13.169c-2.917-3.32-7.972-3.647-11.29-0.733 c-3.32,2.916-3.648,7.971-0.733,11.29c3.246,3.696,6.92,6.978,10.921,9.794c-5.851,10.101-14.428,18.609-24.693,24.351 c-3.856,2.157-5.233,7.031-3.077,10.888c2.158,3.857,7.032,5.232,10.888,3.077c12.955-7.247,23.753-18.042,31.045-30.861 c1.345,0.5-3.412-1.151,44.361,15.32C451.501,381.564,464,399.095,464,418.773V472c0,4.418,3.582,8,8,8s8-3.582,8-8v-53.227 C480,392.271,463.167,368.662,438.112,360.022z"/><path d="M307.322,16H343.5c50.453,0,91.5,41.05,91.5,91.506v153.563c0,7.894-5.607,14.529-13.333,15.779 c-4.362,0.706-7.325,4.813-6.62,9.175c0.7,4.328,4.772,7.326,9.175,6.62C439.739,290.132,451,276.854,451,261.068V107.506 C451,48.227,402.775,0,343.5,0h-36.178c-4.418,0-8,3.582-8,8S302.904,16,307.322,16z"/><path d="M352,186v-14c0-4.418-3.582-8-8-8s-8,3.582-8,8v14c0,4.418,3.582,8,8,8S352,190.418,352,186z"/></svg>