<svg xmlns="http://www.w3.org/2000/svg" viewBox="0 0 480 480"><path fill="#ffbd7b" d="M428,130.5v179H52v-179c0-12.7,10.3-23,23-23h330C417.7,107.5,428,117.8,428,130.5z"/><path fill="#ffd3a6" d="M428,130.5v17H125c-12.747,0-23,10.358-23,23v139H52v-179c0-12.7,10.3-23,23-23h330	C417.7,107.5,428,117.8,428,130.5z"/><rect width="376" height="46" x="52" y="190.5" fill="#cbe3fa"/><path fill="#eef7ff" d="M447.104,309.5l-14.79,41.7c-4.53,12.77-16.61,21.3-30.16,21.3h-324.3	c-13.55,0-25.63-8.53-30.16-21.3l-14.79-41.7H447.104z"/><path fill="#cbe3fa" d="M447.104,309.5l-6.154,17.344c-2.263,6.387-8.305,10.656-15.081,10.656H54.139	c-6.776,0-12.818-4.269-15.081-10.656L32.904,309.5H447.104z"/><rect width="50" height="46" x="52" y="190.5" fill="#eef7ff"/><path fill="#c79a83" d="M309.2,217.1c0-21.709,0-16.715,0-39.2c0-13.48-10.92-24.4-24.4-24.4c-13.493,0-24.4,10.92-24.4,24.4	c0,26.256,0,48.124,0,74.2c0,13.48-10.92,24.4-24.4,24.4c-13.493,0-24.4-10.92-24.4-24.4v-9.2c0-13.48-10.92-24.4-24.4-24.4	c-13.493,0-24.4,10.92-24.4,24.4v13.2c0,13.48-10.92,24.4-24.4,24.4c-13.493,0-24.4-10.92-24.4-24.4c0-9.125,0-66.711,0-78.62	c0-13.48-10.92-24.4-24.4-24.4H52V130.5c0-12.7,10.3-23,23-23h330c12.7,0,23,10.3,23,23v23h-45.6c-13.48,0-24.4,10.92-24.4,24.4	c0,22.485,0,17.5,0,39.2c0,13.398-10.848,24.4-24.4,24.4C320.111,241.5,309.2,230.581,309.2,217.1z"/><path fill="#e0b7a3" d="M428,130.5v17H125c-8.4,0-15.76,4.51-19.76,11.24c-4.24-3.53-9.69-5.66-15.64-5.66H52V130.5	c0-12.7,10.3-23,23-23h330C417.7,107.5,428,117.8,428,130.5z"/><path d="M480,309.5c0,4.418-3.582,8-8,8h-19.247l-12.904,36.374c-5.651,15.926-20.801,26.626-37.698,26.626H77.849	c-16.898,0-32.047-10.7-37.698-26.626c-1.478-4.164,0.701-8.737,4.865-10.214c4.161-1.479,8.737,0.699,10.214,4.864	c3.39,9.556,12.48,15.976,22.619,15.976h324.303c10.139,0,19.229-6.42,22.619-15.976l11.006-31.024H8c-4.418,0-8-3.582-8-8	s3.582-8,8-8h36v-65c0-4.418,3.582-8,8-8h62c4.418,0,8,3.582,8,8v19.6c0,9.043,7.357,16.4,16.4,16.4s16.4-7.357,16.4-16.4V242.9	c0-17.865,14.535-32.4,32.4-32.4c17.865,0,32.4,14.535,32.4,32.4v9.199c0,9.043,7.357,16.4,16.4,16.4s16.4-7.357,16.4-16.4V177.9	c0-17.865,14.534-32.4,32.399-32.4s32.4,14.535,32.4,32.4v16.89c0,4.418-3.582,8-8,8s-8-3.582-8-8V177.9	c0-9.043-7.357-16.4-16.4-16.4s-16.399,7.357-16.399,16.4v50.6c55.1,0,52.213-0.647,55.259,1.646	C334.299,238.269,350,230.752,350,217.1V177.9c0-17.865,14.535-32.4,32.4-32.4H420v-15c0-8.271-6.729-15-15-15H75	c-8.271,0-15,6.729-15,15v52h46v-5.02c0-9.043-7.357-16.399-16.4-16.399c-4.418,0-8-3.582-8-8c0-16.94,40.4-6.397,40.4,24.399v13.02	c0,4.418-3.582,8-8,8H52c-4.418,0-8-3.582-8-8v-60c0-17.094,13.907-31,31-31h330c17.094,0,31,13.906,31,31v60c0,4.418-3.582,8-8,8	h-29.322c-4.418,0-8-3.582-8-8s3.582-8,8-8H420v-21h-37.6c-9.043,0-16.4,7.357-16.4,16.4V217.1c0,25.647-28.417,40.885-49.688,27.4	H268.4v7.6c0,17.865-14.535,32.4-32.4,32.4s-32.4-14.535-32.4-32.4V242.9c0-9.043-7.357-16.4-16.4-16.4s-16.4,7.357-16.4,16.4V256.1	c0,17.865-14.535,32.4-32.4,32.4S106,273.965,106,256.1v-11.6H60v57h360v-57h-23c-4.418,0-8-3.582-8-8s3.582-8,8-8h31	c4.418,0,8,3.582,8,8v65h36C476.418,301.5,480,305.082,480,309.5z"/></svg>