<svg xmlns="http://www.w3.org/2000/svg" viewBox="0 0 448.43 448.43"><g data-name="Layer 2"><g data-name="donut, dessert, sugar, bakery, chocolate, food, meal, fast, restaurant, junk, fastfood"><path fill="#edb24a" d="M224.37,5.48c-120.93-.09-219,98-218.89,218.89C5.56,343.28,105.15,442.87,224.06,443,345,443,443,345,443,224.06,442.87,105.15,343.28,5.56,224.37,5.48Zm3,278.61a60,60,0,1,1,56.75-56.75A60,60,0,0,1,227.34,284.09Z"/><path fill="#ffda9f" d="M208.38,6.05C94.92,14.17,5.4,108.82,5.48,224.37,5.55,333.6,89.61,426.52,195.46,441c113.47-8.12,203-102.77,202.9-218.32C398.29,113.44,314.24,20.52,208.38,6.05Zm75.71,221.29a60,60,0,0,1-83.94,51.79,58.65,58.65,0,0,1-17.41,3.57,60,60,0,1,1,20.95-114.79,59,59,0,0,1,17.41-3.57A60,60,0,0,1,284.09,227.34Z"/><path fill="#edb24a" d="M225.72,9.25c-113.36,8-203.27,102.69-203.27,218.2,0,77.19,45.46,145,105.84,184a45.88,45.88,0,0,0,52.88-2.13q3.45-2.67,6.67-5.71l30-28.39a23.76,23.76,0,0,1,16.32-6.5c13.1,0,18.25,10.63,18.25,23.74V395c0,13.67,11.18,25.27,24.85,25a24.38,24.38,0,0,0,23.91-24.38V360.28a30.76,30.76,0,0,1,30.76-30.76h0a30.76,30.76,0,0,1,22.46,9.75l.13.14a62.77,62.77,0,0,0,19.73,14.31,217.71,217.71,0,0,0,41.11-127.66C415.34,115.13,332.76,23.49,225.72,9.25Zm15.47,278.16a60,60,0,0,1-19.64-3.31,60,60,0,1,1,22.3-116.54,60,60,0,0,1-2.66,119.85Z"/><path fill="#9b4738" d="M225.62,5.48C104.44,4.72,5.47,103,5.48,224.22a218.58,218.58,0,0,0,100.35,184,45.89,45.89,0,0,0,52.88-2.13,86,86,0,0,0,6.67-5.72l30-28.38a23.67,23.67,0,0,1,16.31-6.5h0a23.72,23.72,0,0,1,23.73,23.73v2.61c0,13.66,11.19,25.27,24.85,25a24.37,24.37,0,0,0,23.91-24.37V357.05a30.76,30.76,0,0,1,30.76-30.76h0A30.74,30.74,0,0,1,337.39,336l.13.14a62.81,62.81,0,0,0,27.84,17.41A41.42,41.42,0,0,0,413,334.79a217.67,217.67,0,0,0,30-110.57C443,103.88,345.78,6.24,225.62,5.48Zm-1.4,278.69a60,60,0,1,1,60-60A60,60,0,0,1,224.22,284.17Z"/><path fill="#d8765d" d="M208.74,6C95.38,14,5.47,108.71,5.48,224.22a218.58,218.58,0,0,0,100.35,184,45.89,45.89,0,0,0,52.88-2.13,86,86,0,0,0,6.67-5.72l30-28.38a23.73,23.73,0,0,1,40,17.23v2.61c0,13.66,11.19,25.27,24.85,25a24.37,24.37,0,0,0,23.91-24.37V357.05a30.76,30.76,0,0,1,30.76-30.76h0A30.74,30.74,0,0,1,337.39,336l.13.14a63,63,0,0,0,19.73,14.31,217.71,217.71,0,0,0,41.11-127.66C398.36,111.89,315.78,20.26,208.74,6Zm15.48,278.15a60,60,0,1,1,60-60A60,60,0,0,1,224.22,284.17Z"/><path fill="#f19f93" d="M28.18,127.24A104.16,104.16,0,0,0,168.31,29.57,105.31,105.31,0,0,0,167,13.09,219.69,219.69,0,0,0,28.18,127.24Z"/><path fill="#9b4738" d="M284.17,392.43V357.05a30.77,30.77,0,0,1,21.46-29.33h-2.78a33.5,33.5,0,0,0-33.5,33.5v26.34s1.6,18.21-8.78,29.22A24.37,24.37,0,0,0,284.17,392.43Z"/><path fill="#9b4738" d="M156.22,382.67,148,390.59a75.81,75.81,0,0,1-20.06,14,94.23,94.23,0,0,1-17.29,6.28,45.79,45.79,0,0,0,48.06-4.8,86,86,0,0,0,6.67-5.72l30-28.38a23.67,23.67,0,0,1,16.31-6.5A64.66,64.66,0,0,0,156.22,382.67Z"/><path fill="#9b4738" d="M210.34,295.35a71,71,0,0,0,59.71-32.5,60,60,0,1,1,0-77.27,71.12,71.12,0,1,0-59.71,109.77Z"/><path fill="#333" d="M370.15,379.73A213.6,213.6,0,0,1,160.8,427.89a5.48,5.48,0,0,0-3.26,10.46,224.61,224.61,0,0,0,220.11-50.63,5.48,5.48,0,0,0-7.5-8Z"/><path fill="#333" d="M92.92,42.55c-3.37,2.44-6.72,5-10,7.65a5.48,5.48,0,1,0,6.91,8.5c3.09-2.51,6.27-5,9.48-7.28a5.48,5.48,0,0,0-6.43-8.87Z"/><path fill="#333" d="M158.78,224.22a65.37,65.37,0,1,0,41.31-60.85,5.48,5.48,0,0,0,4,10.19,54.5,54.5,0,1,1-21.67,15.66,5.48,5.48,0,0,0-8.39-7A65.5,65.5,0,0,0,158.78,224.22Z"/><path fill="#333" d="M225.66,0H224.2a221.63,221.63,0,0,0-97.9,22.53,5.47,5.47,0,1,0,4.8,9.84A211.3,211.3,0,0,1,225.59,11c116.84.74,211.89,96.4,211.89,213.26A213,213,0,0,1,408.24,332c-8.25,14-24.66,20.91-39.9,16.7a57.41,57.41,0,0,1-26.81-16.3l-.14-.14a36.22,36.22,0,0,0-62.69,24.75v35.38a19,19,0,0,1-18.54,18.89,18.42,18.42,0,0,1-13.3-5.4,20,20,0,0,1-6-14.13v-2.61A29.21,29.21,0,0,0,191.6,368l-30,28.39c-2,1.88-4.1,3.68-6.26,5.36a40.41,40.41,0,0,1-46.56,1.85,213.13,213.13,0,0,1-43-322,5.48,5.48,0,1,0-8.14-7.34,224.11,224.11,0,0,0,45.22,338.52,51.4,51.4,0,0,0,59.2-2.4,90.81,90.81,0,0,0,7.09-6.07l30-28.38a18.26,18.26,0,0,1,30.81,13.25v2.61a31,31,0,0,0,9.25,21.95,29.3,29.3,0,0,0,20.62,8.54h.55a30,30,0,0,0,29.29-29.85V357.05a25.29,25.29,0,0,1,43.74-17.28l.12.13a68.36,68.36,0,0,0,31.92,19.41c20,5.51,41.51-3.41,52.26-21.72A224.25,224.25,0,0,0,225.66,0Z"/><path fill="#333" d="M65.9,289.09a5.48,5.48,0,0,0,9.8-4.9L69.12,271a5.48,5.48,0,0,0-9.8,4.9Z"/><path fill="#333" d="M145.69,286.32a5.47,5.47,0,0,0-7.68-1l-11.68,8.95a5.48,5.48,0,0,0,3.34,9.83A5.39,5.39,0,0,0,133,303L144.68,294A5.49,5.49,0,0,0,145.69,286.32Z"/><path fill="#333" d="M130.53,344.53l-6.7,13.1a5.48,5.48,0,0,0,9.75,5l6.7-13.1a5.48,5.48,0,0,0-9.75-5Z"/><path fill="#333" d="M112.86,220.76a5.47,5.47,0,0,0,3,7.14l13.62,5.55a5.6,5.6,0,0,0,2.07.4,5.48,5.48,0,0,0,2.06-10.55L120,217.75A5.48,5.48,0,0,0,112.86,220.76Z"/><path fill="#333" d="M146.18,155.67a5.49,5.49,0,0,0-7.51-1.91L126,161.28a5.48,5.48,0,1,0,5.6,9.42l12.65-7.52A5.49,5.49,0,0,0,146.18,155.67Z"/><path fill="#333" d="M70.24,195.57a5.48,5.48,0,0,0,2.51-10.35l-13.08-6.73a5.48,5.48,0,1,0-5,9.74L67.74,195A5.49,5.49,0,0,0,70.24,195.57Z"/><path fill="#333" d="M113.26,87.75a5.47,5.47,0,0,0-4.92,6l1.43,14.64a5.49,5.49,0,0,0,5.45,4.95,4.89,4.89,0,0,0,.54,0,5.48,5.48,0,0,0,4.92-6l-1.44-14.65A5.47,5.47,0,0,0,113.26,87.75Z"/><path fill="#333" d="M195.54,136.5a5.47,5.47,0,0,0,7.51-1.89L210.6,122a5.48,5.48,0,1,0-9.4-5.62L193.65,129A5.47,5.47,0,0,0,195.54,136.5Z"/><path fill="#333" d="M183.56,51.89a5.48,5.48,0,1,0-7.87,7.62l10.23,10.57a5.48,5.48,0,0,0,7.87-7.62Z"/><path fill="#333" d="M279.41,54.55A5.48,5.48,0,0,0,274,49l-14.71-.26h-.09a5.48,5.48,0,0,0-.1,11l14.72.25h.09A5.49,5.49,0,0,0,279.41,54.55Z"/><path fill="#333" d="M269.08,118.12,257,126.45a5.48,5.48,0,0,0,3.11,10,5.42,5.42,0,0,0,3.09-1l12.13-8.33a5.48,5.48,0,1,0-6.2-9Z"/><path fill="#333" d="M346.86,87.84,333.7,81.26a5.48,5.48,0,0,0-4.9,9.8L342,97.64a5.48,5.48,0,0,0,4.9-9.8Z"/><path fill="#333" d="M343.57,138.83A5.49,5.49,0,0,0,335.9,140l-8.76,11.81a5.48,5.48,0,0,0,8.8,6.53l8.76-11.82A5.47,5.47,0,0,0,343.57,138.83Z"/><path fill="#333" d="M387.78,169.55a5.48,5.48,0,0,0-8.5,6.92l9.3,11.4a5.48,5.48,0,1,0,8.49-6.92Z"/><path fill="#333" d="M323.54,243.51a5.49,5.49,0,0,0,7.7-.87l9.17-11.51a5.48,5.48,0,0,0-8.57-6.83l-9.17,11.51A5.48,5.48,0,0,0,323.54,243.51Z"/><path fill="#333" d="M382.33,237a5.48,5.48,0,0,0,2.82,7.22l13.47,5.91a5.48,5.48,0,1,0,4.4-10l-13.47-5.91A5.49,5.49,0,0,0,382.33,237Z"/><path fill="#333" d="M349.89,302.38a5.49,5.49,0,0,0,3.6-1.35l11.09-9.67a5.48,5.48,0,0,0-7.2-8.26l-11.09,9.67a5.48,5.48,0,0,0,3.6,9.61Z"/><path fill="#333" d="M299.66,312.55H300a5.48,5.48,0,0,0,5.16-5.78l-.85-14.69a5.48,5.48,0,0,0-10.94.63l.85,14.69A5.48,5.48,0,0,0,299.66,312.55Z"/><path fill="#333" d="M220.52,316.39a5.47,5.47,0,0,0-.73,7.71l9.38,11.34a5.49,5.49,0,0,0,4.22,2,5.48,5.48,0,0,0,4.22-9l-9.38-11.34A5.48,5.48,0,0,0,220.52,316.39Z"/></g></g></svg>