<svg xmlns="http://www.w3.org/2000/svg" width="512" height="512" data-name="Filled stroke cutting expand" viewBox="0 0 512 512"><path fill="#666" d="M64,488V380.522a30,30,0,0,1,19.127-27.96L208,304h96l124.873,48.562A30,30,0,0,1,448,380.522V488Z"/><path fill="#ffd4cf" d="M288.036,336H223.964a20,20,0,0,1-19.677-23.578L216,248h80l11.713,64.422A20,20,0,0,1,288.036,336Z"/><path fill="#fbb8b0" d="M296,248H216l-3.874,21.309,11.911,10.123A36.04,36.04,0,0,0,247.351,288H264.6a36.026,36.026,0,0,0,23.428-8.667L299.854,269.2Z"/><path fill="#ffd4cf" d="M328,104H184V215.159a20,20,0,0,0,7.048,15.24L234.4,267.24A20,20,0,0,0,247.351,272H264.6a20,20,0,0,0,13.015-4.815l43.4-37.2A20,20,0,0,0,328,214.8Z"/><path fill="#ffd4cf" d="M152,136h22a10,10,0,0,1,10,10v28a10,10,0,0,1-10,10H152a0,0,0,0,1,0,0V136A0,0,0,0,1,152,136Z" transform="rotate(-180 168 160)"/><path fill="#ffd4cf" d="M338,136h22a0,0,0,0,1,0,0v48a0,0,0,0,1,0,0H338a10,10,0,0,1-10-10V146A10,10,0,0,1,338,136Z" transform="rotate(-180 344 160)"/><path fill="#fa5d3f" d="M256,24l61.142,24.457A30,30,0,0,1,336,76.311V94a10,10,0,0,1-10,10H224Z"/><path fill="#f29a49" d="M241.679,104H168V54a30,30,0,0,1,30-30h90L270.414,82.62A30,30,0,0,1,241.679,104Z"/><polygon fill="#fa5d3f" points="168 312 168 408 344 408 344 312 384 328 384 488 128 488 128 328 168 312"/><g><path d="M431.772,345.106,392,329.638V328a8,8,0,0,0-5.029-7.428l-40-16a8,8,0,0,0-10.026,3.657l-23.527-9.15-8.186-45.027,20.99-17.991A27.966,27.966,0,0,0,336,214.8V192h14a18.021,18.021,0,0,0,18-18V146a18.021,18.021,0,0,0-18-18H336V108.96A18,18,0,0,0,344,94V76.311a37.818,37.818,0,0,0-23.888-35.282l-13.141-5.257-5.942,14.856,13.141,5.256A21.9,21.9,0,0,1,328,76.311V94a2,2,0,0,1-2,2H272.707a38.388,38.388,0,0,0,5.37-11.081L295.663,26.3A8,8,0,0,0,288,16H198a38.043,38.043,0,0,0-38,38v50a8,8,0,0,0,8,8h8v16H162a18.021,18.021,0,0,0-18,18v28a18.021,18.021,0,0,0,18,18h14v23.159a27.951,27.951,0,0,0,9.868,21.335l20.868,17.735-8.154,44.85-23.527,9.15a8,8,0,0,0-10.026-3.657l-40,16A8,8,0,0,0,120,328v1.638L80.228,345.106A37.763,37.763,0,0,0,56,380.522V400H72V380.522a21.864,21.864,0,0,1,14.026-20.5L120,346.806V480H72V416H56v72a8,8,0,0,0,8,8H448a8,8,0,0,0,8-8V380.522A37.763,37.763,0,0,0,431.772,345.106ZM176,325.028l19.989-7.773A28.006,28.006,0,0,0,223.964,344h64.072a28.006,28.006,0,0,0,27.975-26.745L336,325.028V400H176ZM350,144a2,2,0,0,1,2,2v28a2,2,0,0,1-2,2H336V144ZM176,54a22.025,22.025,0,0,1,22-22h79.248l-14.5,48.322A21.863,21.863,0,0,1,241.679,96H176ZM162,176a2,2,0,0,1-2-2V146a2,2,0,0,1,2-2h14v32Zm30,39.159V112H320V214.8a11.984,11.984,0,0,1-4.19,9.111l-43.4,37.2A12.008,12.008,0,0,1,264.6,264H247.351a12.011,12.011,0,0,1-7.772-2.856L196.229,224.3A11.976,11.976,0,0,1,192,215.159Zm37.218,58.177A28.029,28.029,0,0,0,247.351,280H264.6a28.016,28.016,0,0,0,18.221-6.741l8.339-7.147,8.68,47.742A12,12,0,0,1,288.036,328H223.964a12,12,0,0,1-11.806-14.146l8.664-47.653ZM440,480H392V432H376v48H136V333.417l24-9.6V408a8,8,0,0,0,8,8H344a8,8,0,0,0,8-8V323.816l24,9.6V416h16V346.806l33.974,13.212A21.864,21.864,0,0,1,440,380.522Z"/><rect width="16" height="24" x="280" y="144"/><rect width="16" height="24" x="216" y="144"/><path d="M264,232a24,24,0,0,0,24-24H224a24,24,0,0,0,24,24Z"/><rect width="40" height="16" x="312" y="440"/></g></svg>