<svg xmlns="http://www.w3.org/2000/svg" viewBox="0 0 48 48"><g data-name="25-automatic coffee machine"><path fill="#dfd4c3" d="M30,10a1,1,0,0,0,1-1V4H45V47H26.76a6,6,0,0,0,5.6-3.85A20.294,20.294,0,0,0,33.05,41h1.83A5.121,5.121,0,0,0,40,35.88V26a5,5,0,0,0-5-5H32.49c-.28-1.24-.49-2-.49-2H14a60.253,60.253,0,0,0-2,13.48,29.636,29.636,0,0,0,1.64,10.67A6,6,0,0,0,19.24,47H3V4H15V9a1,1,0,0,0,1,1h1v3h4V10h4v3h4V10Z"/><path fill="#dfd4c3" d="M37,27v8a3,3,0,0,1-3,3h-.36A40.006,40.006,0,0,0,34,32.48,48.8,48.8,0,0,0,33.11,24H34A3,3,0,0,1,37,27Z"/><rect width="4" height="3" x="17" y="10" fill="#e0dfde"/><rect width="4" height="3" x="25" y="10" fill="#e0dfde"/><polygon fill="#5c4534" points="1 1 47 1 47 4 45 4 31 4 15 4 3 4 1 4 1 1"/><path fill="#785745" d="M31,9a1,1,0,0,1-1,1H16a1,1,0,0,1-1-1V4H31Z"/><path fill="#f7f7f7" d="M40,26v9.88A5.121,5.121,0,0,1,34.88,41H33.05a27.038,27.038,0,0,0,.59-3H34a3,3,0,0,0,3-3V27a3,3,0,0,0-3-3h-.89c-.21-1.16-.43-2.18-.62-3H35A5,5,0,0,1,40,26Z"/><path fill="#ebeae8" d="M12,32.48A60.253,60.253,0,0,1,14,19H32s.21.76.49,2c.19.82.41,1.84.62,3A48.8,48.8,0,0,1,34,32.48,40.006,40.006,0,0,1,33.64,38a27.038,27.038,0,0,1-.59,3,20.294,20.294,0,0,1-.69,2.15A6,6,0,0,1,26.76,47H19.24a6,6,0,0,1-5.6-3.85A29.636,29.636,0,0,1,12,32.48ZM16,23s-.52,3.13-.81,6c-.11,1.1-.19,2.17-.19,3,0,.31,0,.65.01,1,.01,3.02.2,7.31,1.99,10a3.415,3.415,0,0,0,2.41,1h7.18A3.415,3.415,0,0,0,29,43a12.967,12.967,0,0,0,1.75-5.5,36.282,36.282,0,0,0,.24-4.5c.01-.35.01-.69.01-1,0-.83-.08-1.9-.19-3-.29-2.87-.81-6-.81-6Z"/><path fill="#e9e2da" d="M30.81,29H15.19c.29-2.87.81-6,.81-6H30S30.52,26.13,30.81,29Z"/><path fill="#c7b198" d="M31,32c0,.31,0,.65-.01,1H15.01c-.01-.35-.01-.69-.01-1,0-.83.08-1.9.19-3H30.81C30.92,30.1,31,31.17,31,32Z"/><path fill="#463325" d="M15.01,33H30.99a36.282,36.282,0,0,1-.24,4.5A12.967,12.967,0,0,1,29,43a3.415,3.415,0,0,1-2.41,1H19.41A3.415,3.415,0,0,1,17,43C15.21,40.31,15.02,36.02,15.01,33Z"/><path fill="#463325" d="M44,1a2,2,0,0,1-2,2H6A2,2,0,0,1,4,1H1V4H47V1Z"/><path fill="#614639" d="M20,6H31V4H15V9a1,1,0,0,0,1,1h2V8A2,2,0,0,1,20,6Z"/><path fill="#c2c0bc" d="M29,10H25v3h1a2,2,0,0,1,2-2h1Z"/><path fill="#c2c0bc" d="M21,10H17v3h1a2,2,0,0,1,2-2h1Z"/><path fill="#d4b592" d="M13,11a1,1,0,0,0,1,1h1v3h1v4h2V13H17V10H16a1,1,0,0,1-1-1V4H3V6H13Z"/><polygon fill="#d4b592" points="23 15 24 15 24 19 26 19 26 15 26 13 25 13 25 10 21 10 21 12 23 12 23 15"/><polygon fill="#d4b592" points="31 6 43 6 45 6 45 4 31 4 31 6"/><path fill="#d4b592" d="M13.64,43.15A29.636,29.636,0,0,1,12,32.48,60.253,60.253,0,0,1,14,19H11A60.253,60.253,0,0,0,9,32.48a29.636,29.636,0,0,0,1.64,10.67A6,6,0,0,0,16.24,47h3A6,6,0,0,1,13.64,43.15Z"/><path fill="#ebeae8" d="M38,36V26a3,3,0,0,0-3-3V21H32.49c.19.82.41,1.84.62,3H34a3,3,0,0,1,3,3v8a3,3,0,0,1-3,3h-.36a27.038,27.038,0,0,1-.59,3h1.83c.041,0,.079-.011.12-.012V39A3,3,0,0,0,38,36Z"/><rect width="8" height="3" x="19" y="44" fill="#f7f7f7" rx="1.5"/><path fill="#f7f7f7" d="M31.5,24a2.484,2.484,0,0,0-1.286.366c.177,1.179.426,2.949.6,4.634.11,1.1.19,2.17.19,3,0,.31,0,.65-.01,1a36.282,36.282,0,0,1-.24,4.5,19.37,19.37,0,0,1-.413,2.2,2.452,2.452,0,0,0,3.129-.674c.06-.337.122-.665.174-1.027A40.006,40.006,0,0,0,34,32.48a46.9,46.9,0,0,0-.772-7.781A2.487,2.487,0,0,0,31.5,24Z"/><path fill="#f7f7f7" d="M14.5,40a2.468,2.468,0,0,0,1.156-.3A29.629,29.629,0,0,1,15.01,33c-.01-.35-.01-.69-.01-1,0-.83.08-1.9.19-3,.17-1.685.419-3.455.6-4.634a2.469,2.469,0,0,0-3.022.34A47.1,47.1,0,0,0,12,32.48a37.371,37.371,0,0,0,.527,6.539A2.485,2.485,0,0,0,14.5,40Z"/><path fill="#f2eae2" d="M25.852,29h4a55.326,55.326,0,0,0-.9-6h-4A55.326,55.326,0,0,1,25.852,29Z"/><path fill="#dfd4c3" d="M25.981,33h4c.011-.34.019-.676.019-1,0-.985-.058-2-.148-3h-4c.09,1,.148,2.015.148,3C26,32.324,25.992,32.66,25.981,33Z"/><path fill="#694e3b" d="M25.981,33A79.745,79.745,0,0,1,24.6,44H26.59a3.4,3.4,0,0,0,2.156-.792A76.465,76.465,0,0,0,29.981,33Z"/><path d="M46,1V3H2V1H0V4A1,1,0,0,0,1,5H14V9a2,2,0,0,0,2,2v2a1,1,0,0,0,1,1h1v4H14a1,1,0,0,0-.964.734A60.549,60.549,0,0,0,11,32.481a31.051,31.051,0,0,0,1.705,11.031A7.029,7.029,0,0,0,14.344,46H4V11H2V47a1,1,0,0,0,1,1H45a1,1,0,0,0,1-1V42H44v4H31.656A7.029,7.029,0,0,0,33.3,43.512c.186-.481.35-.99.5-1.512h1.079A6.122,6.122,0,0,0,41,35.879V26a6.006,6.006,0,0,0-6-6H33.286c-.177-.732-.3-1.2-.322-1.266A1,1,0,0,0,32,18H28V14h1a1,1,0,0,0,1-1V11a2,2,0,0,0,2-2V5H44V40h2V5h1a1,1,0,0,0,1-1V1ZM18,12V11h2v1ZM34.308,25.031A2,2,0,0,1,36,27v8a2,2,0,0,1-1.215,1.839A42.814,42.814,0,0,0,35,32.481,47.054,47.054,0,0,0,34.308,25.031ZM35,22a4,4,0,0,1,4,4v9.879a4.094,4.094,0,0,1-1.207,2.914A4.153,4.153,0,0,1,34.879,40h-.573c.071-.342.133-.7.193-1.05A3.993,3.993,0,0,0,38,35V27a4,4,0,0,0-4-4h-.059q-.1-.525-.2-1Zm-3.775-2A57.623,57.623,0,0,1,33,32.481a29.108,29.108,0,0,1-1.571,10.312A4.972,4.972,0,0,1,26.758,46H19.242a4.972,4.972,0,0,1-4.671-3.207A29.108,29.108,0,0,1,13,32.481,57.623,57.623,0,0,1,14.775,20H18v2H16a1,1,0,0,0-.986.836A76.965,76.965,0,0,0,14,32c0,3.1,0,8.3,2.168,11.555a1.127,1.127,0,0,0,.124.152A4.385,4.385,0,0,0,19.414,45h7.172a4.385,4.385,0,0,0,3.122-1.293,1.127,1.127,0,0,0,.124-.152C32,40.3,32,35.1,32,32a76.965,76.965,0,0,0-1.014-9.164A1,1,0,0,0,30,22H28V20Zm-14.92,8c.184-1.569.409-3.095.549-4H18v4ZM30,32H16c0-.571.039-1.261.1-2H29.9C29.961,30.739,30,31.429,30,32Zm-.02,2c-.06,2.749-.349,6.171-1.755,8.358A2.4,2.4,0,0,1,26.586,43H19.414a2.4,2.4,0,0,1-1.639-.642c-1.406-2.187-1.7-5.609-1.755-8.358ZM28,28V24h1.146c.14.905.365,2.431.549,4Zm-2,0H20V24h6Zm-6-6V20h6v2Zm6-4H20V14h1a1,1,0,0,0,1-1V11h2v2a1,1,0,0,0,1,1h1Zm2-6H26V11h2Zm2-3H16V5H30Z"/><rect width="2" height="2" x="2" y="7"/></g></svg>