<svg xmlns="http://www.w3.org/2000/svg" width="512" height="512" data-name="Filled stroke cutting expand" viewBox="0 0 512 512"><path fill="#fa5d3f" d="M64,488V380.522a30,30,0,0,1,19.127-27.96L208,304h96l124.873,48.562A30,30,0,0,1,448,380.522V488Z"/><path fill="#fed672" d="M184.042,349.319A51.864,51.864,0,0,0,223.964,368h64.072a52.017,52.017,0,0,0,51.969-50l-36-14H208l-36,14A51.849,51.849,0,0,0,184.042,349.319Z"/><path fill="#ffd4cf" d="M288.036,336H223.964a20,20,0,0,1-19.677-23.578L216,248h80l11.713,64.422A20,20,0,0,1,288.036,336Z"/><path fill="#fbb8b0" d="M296,248H216l-3.874,21.309,11.911,10.122A36.034,36.034,0,0,0,247.351,288H264.6a36.022,36.022,0,0,0,23.428-8.667L299.854,269.2Z"/><path fill="#ffd4cf" d="M184,104V215.159a20,20,0,0,0,7.048,15.24L234.4,267.24A20,20,0,0,0,247.351,272H264.6a20,20,0,0,0,13.015-4.815l43.4-37.2A20,20,0,0,0,328,214.8V104Z"/><path fill="#ffd4cf" d="M152,136h22a10,10,0,0,1,10,10v28a10,10,0,0,1-10,10H152a0,0,0,0,1,0,0V136A0,0,0,0,1,152,136Z" transform="rotate(-180 168 160)"/><path fill="#ffd4cf" d="M338,136h22a0,0,0,0,1,0,0v48a0,0,0,0,1,0,0H338a10,10,0,0,1-10-10V146A10,10,0,0,1,338,136Z" transform="rotate(-180 344 160)"/><rect width="256" height="56" x="128" y="432" fill="#fed672"/><path fill="#804913" d="M304,24H208a40,40,0,0,0-40,40V96l16,16h24l16-24,24,24h96V64A40,40,0,0,0,304,24Z"/><g><path d="M440,480H392V432a8,8,0,0,0-8-8H128a8,8,0,0,0-8,8v48H72V380.522a21.863,21.863,0,0,1,14.026-20.5L106.9,351.9l-5.8-14.912-20.874,8.118A37.764,37.764,0,0,0,56,380.522V488a8,8,0,0,0,8,8H448a8,8,0,0,0,8-8V424H440Zm-304,0V440H376v40Z"/><path d="M431.773,345.106l-88.855-34.555-.013,0-29.486-11.467-8.187-45.027,20.99-17.991A27.968,27.968,0,0,0,336,214.8V192h14a18.021,18.021,0,0,0,18-18V146a18.021,18.021,0,0,0-18-18H336v-8h8a8,8,0,0,0,8-8V64a48.055,48.055,0,0,0-48-48H224V32h80a32.036,32.036,0,0,1,32,32v40H251.313L229.657,82.343a8,8,0,0,0-12.313,1.219L203.719,104H187.313L176,92.687V64a32.036,32.036,0,0,1,32-32V16a48.055,48.055,0,0,0-48,48V96a8,8,0,0,0,2.343,5.657L176,115.313V128H162a18.021,18.021,0,0,0-18,18v28a18.021,18.021,0,0,0,18,18h14v23.159a27.956,27.956,0,0,0,9.868,21.336l20.868,17.734-8.155,44.85L169.1,310.546l-.01,0L117.1,330.766l5.8,14.912,42.523-16.536A60,60,0,0,0,223.964,376h64.072a60,60,0,0,0,58.542-46.858l79.4,30.876A21.863,21.863,0,0,1,440,380.522V408h16V380.522A37.764,37.764,0,0,0,431.773,345.106ZM350,144a2,2,0,0,1,2,2v28a2,2,0,0,1-2,2H336V144ZM162,176a2,2,0,0,1-2-2V146a2,2,0,0,1,2-2h14v32Zm30,39.159V120h16a8,8,0,0,0,6.656-3.562l10.587-15.881,17.1,17.1A8,8,0,0,0,248,120h72v94.8a11.982,11.982,0,0,1-4.191,9.111l-43.4,37.2A12.008,12.008,0,0,1,264.6,264H247.351a12.009,12.009,0,0,1-7.771-2.856L196.229,224.3A11.979,11.979,0,0,1,192,215.159Zm37.218,58.176A28.025,28.025,0,0,0,247.351,280H264.6a28.019,28.019,0,0,0,18.222-6.741l8.338-7.147,8.68,47.742A12,12,0,0,1,288.036,328H223.964a12,12,0,0,1-11.806-14.146l8.664-47.654Zm92.6,70.858A43.882,43.882,0,0,1,288.036,360H223.964a44.056,44.056,0,0,1-43.417-36.74l15.441-6A28.008,28.008,0,0,0,223.964,344h64.072a28.008,28.008,0,0,0,27.976-26.745l15.441,6A43.573,43.573,0,0,1,321.816,344.193Z"/><rect width="16" height="24" x="280" y="144"/><rect width="16" height="24" x="216" y="144"/><path d="M264,232a24,24,0,0,0,24-24H224a24,24,0,0,0,24,24Z"/></g></svg>