<svg xmlns="http://www.w3.org/2000/svg" viewBox="0 0 482 482"><path fill="#42434d" d="M441,61.5h-52v-31c0-8.84-7.16-16-16-16h-66c-8.84,0-16,7.16-16,16v31H191v-31c0-8.84-7.16-16-16-16	h-66c-8.84,0-16,7.16-16,16v31H41c-17.67,0-32,14.33-32,32v342c0,17.67,14.33,32,32,32h400c17.67,0,32-14.33,32-32v-342	C473,75.83,458.67,61.5,441,61.5z"/><path fill="#d6f4fc" d="M419,177.5v224c0,8.84-7.16,16-16,16H79c-8.84,0-16-7.16-16-16v-224c0-8.84,7.16-16,16-16h324	C411.84,161.5,419,168.66,419,177.5z"/><path fill="#f1fafc" d="M419,177.5v47.145c0,10.129-9.287,17.666-19.216,15.668	C267.36,213.658,155.127,261.28,92.213,355.726c-8.777,13.176-29.312,6.958-29.304-8.875C62.924,313.307,63,260.615,63,177.501	c0-8.837,7.164-16.001,16-16.001h324C411.837,161.5,419,168.663,419,177.5z"/><path fill="#4d4e59" d="M441,61.5H314.12v-7.88c0-8.837,7.164-16,16-16h42.812c14.707,0,15.78-22.15,1.104-23.087	C373.229,14.481,377.529,14.5,307,14.5c-8.836,0-16,7.163-16,16v31H116.12v-7.88c0-8.837,7.164-16,16-16h42.812	c15.006,0,15.864-23.12,0.068-23.12h-66c-8.836,0-16,7.163-16,16v31H41c-17.673,0-32,14.327-32,32	c0,2.423-0.02,342.343,0.035,343.513c1.01,21.71,33.715,20.558,33.715-1.175V127.25c0-17.673,14.327-32,32-32h366.587	C463.268,95.25,464.597,61.5,441,61.5z"/><path d="M441,52.5H41c-22.607,0-41,18.393-41,41v342c0,22.607,18.393,41,41,41h400c22.607,0,41-18.393,41-41v-342	C482,70.893,463.607,52.5,441,52.5z M464,435.5c0,12.682-10.317,23-23,23H41c-12.683,0-23-10.318-23-23v-342	c0-12.682,10.317-23,23-23h400c12.683,0,23,10.318,23,23V435.5z M305,264.5H177c-29.973,0-40.195-40-22-40c4.971,0,9,4.029,9,9	c0,7.168,5.832,13,13,13h128c7.168,0,13-5.832,13-13c0-4.971,4.029-9,9-9C345.198,224.5,334.988,264.5,305,264.5z M403,152.5H79	c-13.785,0-25,11.215-25,25v224c0,13.785,11.215,25,25,25h324c13.785,0,25-11.215,25-25v-224C428,163.715,416.785,152.5,403,152.5z M410,401.5c0,3.86-3.141,7-7,7H79c-3.859,0-7-3.14-7-7v-224c0-3.86,3.141-7,7-7h324c3.859,0,7,3.14,7,7V401.5z M223,115.5	c0-9.925,8.075-18,18-18s18,8.075,18,18s-8.075,18-18,18S223,125.425,223,115.5z M133,115.5c0-9.925,8.075-18,18-18s18,8.075,18,18	s-8.075,18-18,18S133,125.425,133,115.5z M313,115.5c0-9.925,8.075-18,18-18s18,8.075,18,18s-8.075,18-18,18S313,125.425,313,115.5z M109,5.5h66c25.01,0,32.927,34,16,34c-4.971,0-9-4.029-9-9c0-3.86-3.141-7-7-7h-66c-3.859,0-7,3.14-7,7c0,4.971-4.029,9-9,9	C76.178,39.5,83.938,5.5,109,5.5z M307,5.5h66c25.01,0,32.927,34,16,34c-4.971,0-9-4.029-9-9c0-3.86-3.141-7-7-7h-66	c-3.859,0-7,3.14-7,7c0,4.971-4.029,9-9,9C274.178,39.5,281.938,5.5,307,5.5z"/></svg>