<svg xmlns="http://www.w3.org/2000/svg" viewBox="0 0 452.875 452.875"><path fill="#befa91" d="M444.593,321.564l-64.431-111.428c-2.033-3.515-6.528-4.72-10.046-2.692l-40.161,23.15	c-3.524,2.032-4.729,6.538-2.693,10.06l64.441,111.44h-49.091c-3.904,0-7.359-3.088-7.359-7.479c0-5.831-6.461-9.346-11.358-6.18	l-58.163,37.618c-4.464,2.887-4.491,9.41-0.047,12.33l58.168,38.22c4.894,3.215,11.4-0.295,11.4-6.15	c0-4.064,3.295-7.359,7.359-7.359h49.181C438.702,413.095,468.122,362.255,444.593,321.564z"/><path fill="#daffbf" d="M420.942,348.835c-4.21,2.07-9,3.26-14.2,3.26h-15.04l-64.441-111.44	c-2.04-3.52-0.827-8.03,2.693-10.06l10.036-5.788c3.824-2.205,8.712-0.896,10.922,2.926L420.942,348.835z"/><path fill="#9ceb63" d="M406.742,352.095h-15.04l-2.265-3.918c-3.103-5.368,0.77-12.082,6.971-12.082h10.335	c12.387,0,20.099-13.451,13.78-24.15l-4.375-7.404c-2.39-4.045-0.823-9.269,3.399-11.331c3.8-1.856,8.387-0.456,10.504,3.205	l4.272,7.39l-0.02,0.01C446.902,325.155,431.522,352.095,406.742,352.095z"/><path fill="#befa91" d="M328.365,93.892c-3.528,2.057-8.055,0.871-10.121-2.651l-25.072-42.756	c-23.99-40.91-83.27-40.37-106.59,0.82L123.21,161.273c-2.01,3.551-0.771,8.058,2.772,10.08l40.489,23.113	c3.556,2.03,8.085,0.789,10.11-2.77l63.822-112.183l24.942,42.532c2.073,3.535,0.881,8.084-2.66,10.148	c-5.074,2.958-4.857,10.37,0.386,13.018l62.124,31.382c4.78,2.415,10.465-0.883,10.738-6.232l3.561-69.695	C339.794,94.79,333.449,90.927,328.365,93.892z"/><path fill="#daffbf" d="M172.158,97.105c6.344,2.936,8.826,10.671,5.383,16.756c-20.297,35.874-29.297,51.456-33.309,58.624	c-2.17,3.88-7.08,5.24-10.94,3.04l-7.311-4.171c-3.54-2.02-4.782-6.53-2.772-10.08l33.512-59.204	C159.79,96.648,166.505,94.489,172.158,97.105z"/><path fill="#daffbf" d="M333.135,165.545c1.804,0.911,2.9,2.799,2.797,4.817c-0.272,5.34-5.958,8.642-10.738,6.232	l-62.124-31.382c-5.25-2.65-5.468-10.058-0.388-13.008l0.002-0.01c3.55-2.06,4.739-6.608,2.66-10.148l-14.391-24.544	c-6.277-10.705,10.029-20.257,16.302-9.558l16.667,28.429c2.08,3.53,0.89,8.08-2.65,10.14l-0.01,0.01	c-5.08,2.96-4.86,10.36,0.39,13.01L333.135,165.545z"/><path fill="#daffbf" d="M226.997,53.409c-2.323,1.43-5.204,1.458-7.637,0.224c-14.508-7.36-33.713-2.943-42.567,13.042	c-0.1-0.067-0.47,0.758,9.79-17.37c19.824-35.025,65.532-40.384,92.956-17.039c6.314,5.374,1.099,15.676-6.986,13.836	C259.723,43.183,243.471,43.272,226.997,53.409z"/><path fill="#9ceb63" d="M240.373,79.564l-2.237,3.929c-3.064,5.382-10.801,5.439-13.944,0.103l-5.609-9.522	c-6.256-10.682-21.781-10.514-27.79,0.35l-4.167,7.52c-2.277,4.109-7.572,5.406-11.49,2.816c-3.532-2.335-4.655-7.005-2.569-10.69	c4.389-7.756,4.125-7.465,4.227-7.396c12.01-21.68,43.04-22.08,55.59-0.71L240.373,79.564z"/><path fill="#befa91" d="M196.954,353.134H68.962l24.397-42.337c1.998-3.468,6.468-4.759,10.074-2.668	c5.036,2.919,11.303-0.91,11.01-6.723l-3.464-68.95c-0.267-5.302-5.899-8.573-10.639-6.184l-61.798,31.151	c-5.21,2.626-5.421,9.987-0.371,12.91c3.504,2.028,4.703,6.511,2.682,10.019l-24.732,42.941c-23.25,40.38,5.92,90.77,52.51,90.74	h128.284c4.052,0,7.358-3.283,7.361-7.336v-46.216C204.281,356.425,201.012,353.134,196.954,353.134z"/><path fill="#9ceb63" d="M105.112,406.03c0,4.421-3.584,8.005-8.005,8.005h-7.995v-0.01c-24.67,0-40.11-26.84-27.58-48.2	l7.43-12.69h4.548c6.175,0,10.025,6.695,6.918,12.032l-5.086,8.738c-6.264,10.67,1.403,24.12,13.77,24.12h7.995	C101.528,398.025,105.112,401.608,105.112,406.03z"/><path fill="#daffbf" d="M47.093,338.395c-1.418,2.461-2.64,4.959-3.676,7.481c-8.388,20.422-39.405,8.986-32.187-11.878	c2.518-7.277,2.549-6.616,29.625-53.643c2.021-3.51,0.818-7.989-2.682-10.019c-5.059-2.932-4.84-10.285,0.371-12.91l61.798-31.151	c4.373-2.205,10.332,0.261,10.667,6.701C111.408,240.655,47.169,338.277,47.093,338.395z"/><path fill="#daffbf" d="M344.926,359.956c-65.935,42.64-54.097,34.971-55.577,35.943c-3.708,2.436-8.51,2.442-12.218,0.006	l-11.446-7.522c-4.44-2.92-4.422-9.44,0.047-12.33l58.163-37.618c4.9-3.16,11.358,0.35,11.358,6.18c0,4.398,3.463,7.479,7.359,7.479	C346.869,352.095,348.5,357.645,344.926,359.956z"/><path d="M445.448,382.149c-3.545-2.634-8.557-1.895-11.192,1.652c-10.05,13.532-25.527,21.293-42.464,21.293h-56.539 c-4.418,0-8,3.582-8,8v6.171l-56.351-37.028l56.351-36.442v6.299c0,4.418,3.582,8,8,8h71.493c30.585,0,49.795-32.857,34.919-59.469 c-0.298-0.687,3.39,5.716-58.256-100.856c-2.212-3.825-7.105-5.133-10.931-2.921c-3.825,2.212-5.133,7.105-2.921,10.93 c65.935,114.02,57.01,98.681,57.853,100.109c9.449,15.995-2.062,36.206-20.664,36.206h-10.427l-65.82-113.825 c-2.214-3.824-7.105-5.133-10.931-2.921c-3.824,2.212-5.133,7.105-2.921,10.93l61.188,105.815h-34.583v-13 c0-6.329-7.027-10.155-12.345-6.718l-79,51.09c-4.846,3.134-4.875,10.232-0.049,13.403l79,51.91 c5.244,3.446,12.394-0.267,12.394-6.686v-13h48.539c22.051,0,42.21-10.116,55.31-27.753 C449.735,389.794,448.996,384.783,445.448,382.149z"/><path d="M343.346,182.128l4.833-94.727c0.324-6.329-6.528-10.522-12.02-7.318l-11.311,6.597l-24.777-42.243 c-10.705-18.252-28.774-30.488-49.573-33.57c-4.377-0.647-8.439,2.371-9.087,6.741c-0.647,4.371,2.371,8.439,6.741,9.086 c16.218,2.403,29.755,11.579,38.118,25.838l28.814,49.126c2.23,3.804,7.118,5.086,10.931,2.863l5.431-3.167l-3.453,67.685 l-60.346-30.476l5.488-3.201c3.822-2.229,5.109-7.141,2.87-10.958c-40.904-69.736-22.355-38.03-36.728-62.494 c-15.557-26.48-54.039-26.452-69.475,0.801l-57.197,101.046c-2.177,3.845-0.824,8.727,3.021,10.903 c3.819,2.163,8.712,0.848,10.902-3.021c65.27-115.307,56.442-99.608,57.266-101.095c9.046-16.342,32.316-16.478,41.688-0.53 l5.651,9.618l-65.178,114.554c-3.047,5.353,0.866,11.958,6.945,11.958c2.783,0,5.486-1.454,6.961-4.045L240.51,95.51l17.638,30.072 l-11.276,6.577c-5.472,3.191-5.23,11.196,0.424,14.052l84.455,42.652C336.907,191.467,343.052,187.9,343.346,182.128z"/><path d="M73.552,361.134H204.3c4.418,0,8-3.582,8-8s-3.582-8-8-8H82.808l17.157-29.77l11.146,6.455 c5.482,3.175,12.316-0.999,12-7.324l-4.708-93.699c-0.29-5.768-6.431-9.345-11.591-6.742l-83.986,42.333 c-5.652,2.849-5.921,10.874-0.408,14.067l11.178,6.473l-24.406,42.38c-12.958,22.502-12.162,50,2.076,71.764 c1.535,2.347,4.093,3.621,6.702,3.621c6.252,0,10.201-7.009,6.687-12.381c-10.919-16.69-11.531-37.773-1.6-55.02l28.389-49.296 c2.201-3.822,0.894-8.705-2.924-10.915l-5.287-3.062l59.808-30.145l3.353,66.724l-5.345-3.096 c-3.828-2.216-8.73-0.906-10.941,2.928L54.637,361.78c-15.197,25.893,2.451,58.296,31.836,60.16 c1.004,0.147-6.21,0.094,117.779,0.094c4.418,0,8-3.582,8-8s-3.582-8-8-8c-130.93,0-113.112-0.011-114.797-0.011 c-19.396,0.043-30.211-20.483-21.014-36.155L73.552,361.134z"/></svg>