<svg xmlns="http://www.w3.org/2000/svg" viewBox="0 0 480.027 480.027"><path fill="#ff6d7a" d="M419.014,99.027h-358c-13.25,0-24,10.75-24,24v46c0,13.25,10.75,24,24,24h7v255	c0,13.25,10.75,24,24,24h296c13.25,0,24-10.75,24-24v-255h7c13.25,0,24-10.75,24-24v-46	C443.014,109.777,432.264,99.027,419.014,99.027z"/><path fill="#ff8c95" d="M92.014,472.027c-13.255,0-24-10.745-24-24v-255h40c0,272.62-0.205,256.156,0.403,259.398	C110.33,462.628,102.395,472.027,92.014,472.027z"/><path fill="#fe4f60" d="M412.014,193.027v8c0,4.418-3.582,8-8,8h-328c-4.418,0-8-3.582-8-8v-8H412.014z"/><rect width="344" height="66" x="68.014" y="301.027" fill="#cbe3fa"/><path fill="#ff8c95" d="M284.614,262.957c24.13,1.89,42.15,22.98,40.26,47.1c-4.62,58.92-54.62,95.18-84.76,95.18h-0.2	c-30.14,0-80.14-36.26-84.76-95.18c-1.89-24.12,16.13-45.21,40.26-47.1c20-1.57,37.88,10.58,44.5,28.53h0.2	C246.734,273.537,264.614,261.387,284.614,262.957z"/><path fill="#ff8c95" d="M420.273,99.06c19.223,0.994,18.088,29.968-1.16,29.968H101.014c-13.255,0-24,10.745-24,24v24.986	c0,8.292-6.722,15.014-15.014,15.014h-0.986c-13.255,0-24-10.745-24-24v-46c0-13.255,10.745-24,24-24	C61.014,99.027,419.856,99.038,420.273,99.06z"/><rect width="90" height="94" x="195.014" y="99.027" fill="#cbe3fa"/><path fill="#eef7ff" d="M285.014,99.027v22c0,4.418-3.582,8-8,8h-74c-4.418,0-8-3.582-8-8v-22H285.014z"/><path fill="#eef7ff" d="M108.014,309.027v50c0,4.418-3.582,8-8,8h-32v-66h32	C104.432,301.027,108.014,304.609,108.014,309.027z"/><path d="M419.014,91.027h-95.39c9.509-9.662,15.39-22.905,15.39-37.5c0-40.75-43.794-66.19-79.03-47.025 c-3.882,2.111-5.316,6.969-3.205,10.85c2.11,3.882,6.97,5.316,10.85,3.206c24.743-13.458,55.386,4.461,55.386,32.97 c0,20.678-16.822,37.5-37.5,37.5h-37.5v-37.5c0-29.5-24-53.5-53.5-53.5s-53.5,24-53.5,53.5c0,26.954,20.04,49.304,46,52.964v49.536 c0,4.418,3.582,8,8,8s8-3.582,8-8v-49h74v49c0,4.418,3.582,8,8,8s8-3.582,8-8v-49h126c8.822,0,16,7.178,16,16v46 c0,8.822-7.178,16-16,16h-358c-8.822,0-16-7.178-16-16v-46c0-8.822,7.178-16,16-16h59.226c4.418,0,8-3.582,8-8s-3.582-8-8-8H61.014 c-17.645,0-32,14.355-32,32v46c0,17.645,14.355,32,32,32h343v92h-48.161c-4.418,0-8,3.582-8,8s3.582,8,8,8h48.161v50h-48.161 c-4.418,0-8,3.582-8,8s3.582,8,8,8h48.161v73c0,8.822-7.178,16-16,16h-296c-8.822,0-16-7.178-16-16v-73h47.581c4.418,0,8-3.582,8-8 s-3.582-8-8-8H76.014v-50h40.613c4.418,0,8-3.582,8-8s-3.582-8-8-8H76.014v-58.936c0-4.418-3.582-8-8-8s-8,3.582-8,8v213.936 c0,17.645,14.355,32,32,32h296c17.645,0,32-14.355,32-32V201.002c17.183-0.531,31-14.665,31-31.975v-46 C451.014,105.382,436.658,91.027,419.014,91.027z M195.014,91.027c-21.95,0-38-17.41-38-37.5c0-20.678,16.822-37.5,37.5-37.5 s37.5,16.822,37.5,37.5v37.5H195.014z"/><path d="M196.037,270.93c15.883-1.246,30.847,8.344,36.365,23.322c1.159,3.145,4.155,5.234,7.507,5.234 c6.885,0,10.312-7.332,6.844-12.472c-8.471-20.689-29.577-33.786-51.968-32.035c-28.477,2.237-49.835,27.225-47.612,55.707 c4.913,62.601,58.206,102.55,92.736,102.55c37.16,0,88.227-42.43,92.945-102.554c2.223-28.479-19.136-53.467-47.612-55.704 c-4.398-0.341-8.256,2.945-8.602,7.349c-0.346,4.405,2.944,8.256,7.35,8.602c19.685,1.546,34.449,18.82,32.913,38.504 c-4.459,56.811-53.063,87.802-76.785,87.802h-0.209c-23.723,0-72.326-30.991-76.785-87.799 C161.588,289.75,176.353,272.476,196.037,270.93z"/></svg>