<svg xmlns="http://www.w3.org/2000/svg" viewBox="0 0 481.99 481.99"><path fill="#fe4f60" d="M408.565,21.223l-141.14,156.57c-7.13,7.9-6.81,20,0.71,27.53l8.54,8.54 c7.53,7.52,19.63,7.84,27.53,0.71l156.57-141.14c8.12-7.32,12.22-17.39,12.22-27.47C472.995,12.446,431.325-4.025,408.565,21.223z M439.355,55.363l-10,10c-3.498,3.518-9.22,3.521-12.72,0c-3.52-3.51-3.52-9.21,0-12.72l10-10c3.51-3.52,9.21-3.52,12.72,0 C442.875,46.153,442.875,51.853,439.355,55.363z"/><path fill="#ff6d7a" d="M470.106,31.628c3.523,8.372-6.116,16.424-13.721,11.456c-14.446-9.436-34.863-8.236-47.82,6.138	L281.117,190.604c-8.088,8.972-22.698-2.827-13.693-12.812l141.14-156.57C426.778,1.019,459.676,6.842,470.106,31.628z"/><path d="M434.836,0.018c-12.727,0.329-24.43,5.718-32.953,15.174c-153.442,170.212-144.79,158.783-147.438,167.84L94.114,228.205	C0.486,254.704-31.204,371.196,35.478,441.56c0.05,0.058,2.665,2.823,2.401,2.559c69.465,69.497,188.948,39.04,215.915-56.238	l33.238-117.607c1.352-4.782-1.431-9.756-6.214-11.108c-4.777-1.349-9.756,1.429-11.108,6.214l-33.237,117.603	c-18.954,66.969-95.308,101.066-158.035,68.688c75.129-0.756,129.961-55.891,158.985-124.466c1.938-4.577-0.203-9.858-4.78-11.796	c-4.576-1.936-9.858,0.202-11.796,4.78c-29.384,69.423-84.332,120.465-159.01,112.701l192.522-192.521	c3.515-3.515,3.515-9.214,0-12.729c-3.516-3.514-9.214-3.514-12.728,0L49.108,420.161c-8.26-79.453,50.673-136.383,124.722-163.77	c4.662-1.725,7.043-6.901,5.319-11.563s-6.899-7.045-11.563-5.319c-74.307,27.483-136.456,84.321-137.26,164.049	c-32.33-62.638,1.614-139.046,68.68-158.028l156.179-44.002c2.705,7.092,6.246,9.819,15.126,18.7	c10.923,10.921,28.457,11.37,39.924,1.033l156.57-141.145C498.24,51.78,477.571-1.133,434.836,0.018z M454.752,66.745	L298.182,207.89c-4.349,3.922-11.003,3.75-15.143-0.393l-8.539-8.539c-4.142-4.142-4.314-10.793-0.393-15.143l141.145-156.57	c10.741-11.915,29.216-12.385,40.55-1.05C467.125,37.516,466.68,55.994,454.752,66.745z M439.359,42.639	c3.515,3.515,3.515,9.214,0,12.729c-10.084,10.084-11.481,12.636-16.364,12.636c-7.947,0-12.051-9.678-6.364-15.364l10-10	C430.146,39.125,435.843,39.125,439.359,42.639z"/></svg>