<svg xmlns="http://www.w3.org/2000/svg" viewBox="0 0 480.009 480.009"><path fill="#befa91" d="M259.601,297.839c-0.474-0.133-1.073,2.658,9.36-35.14c10.386-37.628,49.31-59.71,86.94-49.33l8,2.21	c14.94,4.13,23.71,19.59,19.59,34.53l-2.21,8c-10.39,37.63-49.32,59.71-86.95,49.32L259.601,297.839z"/><path fill="#daffbf" d="M383.491,250.109c-1.409,5.066-7.03,6.402-10.535,3.51c-7.212-5.951-15.671-6.436-18.556-7.71	c-37.63-10.38-76.56,11.7-86.94,49.33l-1.22,4.43l-6.64-1.83c-0.474-0.133-1.073,2.658,9.36-35.14	c10.386-37.628,49.31-59.71,86.94-49.33l8,2.21C378.841,219.709,387.644,235.178,383.491,250.109z"/><path fill="#befa91" d="M265.201,119.979c-0.62-0.171-1.4,3.501,12.05-45.21c13.367-48.411,63.45-76.82,111.87-63.46	l10.28,2.84c19.23,5.31,30.51,25.2,25.21,44.43l-2.84,10.29c-13.37,48.41-63.45,76.82-111.87,63.46L265.201,119.979z"/><path fill="#befa91" d="M220.421,297.839l-34.75,9.59c-37.63,10.39-76.55-11.69-86.94-49.32l-2.21-8	c-4.13-14.94,4.64-30.4,19.59-34.53l7.99-2.21c37.63-10.38,76.559,11.7,86.95,49.33C221.515,300.591,220.897,297.7,220.421,297.839z"/><path fill="#daffbf" d="M184.389,241.165c-14.873-2.574-25.856,0.024-39.176,3.834c-15.422,4.41-23.554,20.669-19.29,34.627	c2.194,7.183-7.015,12.258-11.988,6.629c-14.217-16.095-16.353-33.946-17.414-36.145c-4.13-14.94,4.64-30.4,19.59-34.53l7.99-2.21	c24.166-6.668,48.867,0.05,66.195,15.677C195.534,233.769,191.338,242.367,184.389,241.165z"/><path fill="#befa91" d="M214.801,119.979l-44.7,12.35c-48.41,13.36-98.49-15.05-111.86-63.46l-2.84-10.29	c-5.31-19.23,5.97-39.12,25.2-44.43l10.29-2.84c48.41-13.36,98.498,15.051,111.86,63.46	C216.197,123.481,215.422,119.808,214.801,119.979z"/><path fill="#daffbf" d="M171.581,50.242c-26.372-4.58-46.28,4.447-50.02,4.867c-19.23,5.31-30.751,25.268-25.2,44.43	c2.729,9.421-8.538,15.86-15.11,9.227c-21.4-21.596-24.48-47.396-25.85-50.187c-5.31-19.23,5.97-39.12,25.2-44.43l10.29-2.84	c32.698-9.028,66.164,1.007,88.561,23.392C185.749,40.993,180.352,51.765,171.581,50.242z"/><path fill="#ffaa64" d="M333.111,472.009h-186.21c13.08-38.87,49.82-66.87,93.1-66.87S320.031,433.139,333.111,472.009z"/><path fill="#ffbd7b" d="M217.238,440.66c-12.771,7.488-24.063,18.005-32.717,31.349h-37.62	c9.894-29.402,31.344-49.848,56.643-59.841C221.879,404.926,234.244,430.689,217.238,440.66z"/><path fill="#daffbf" d="M396.291,32.578c-39.22-3.59-64.18,16.6-78.63,35.97c-16.13,8-33.26,19.12-48.2,34.44l7.79-28.22	c13.114-47.484,62.654-79.084,122.52-60.51C410.533,17.598,407.511,33.609,396.291,32.578z"/><path d="M432.319,60.705l-2.84,10.288c-12.723,46.085-56.503,76.659-104.411,72.213c-4.399-0.408-7.635-4.306-7.227-8.705	c0.408-4.398,4.307-7.628,8.705-7.227c39.987,3.716,76.8-21.748,87.509-60.539l2.84-10.288c4.125-14.943-4.676-30.458-19.62-34.584	l-10.287-2.84C342.799,6.824,297.166,32.707,284.965,76.9l-4.294,15.553c27.152-22.946,58.689-34.3,79.236-39.666	c4.279-1.113,8.646,1.444,9.762,5.719c1.117,4.275-1.444,8.646-5.719,9.762c-28.582,7.464-80.297,27.413-105.522,77.161	c-5.369,10.587-8.114,19.379-10.653,29.871v125.323c1.277-1.954,2.6-3.879,4.001-5.755l9.469-34.299	c11.573-41.924,54.861-66.477,96.787-54.907l7.996,2.207c19.173,5.294,30.465,25.198,25.171,44.37l-2.208,7.996	c-10.164,36.818-45.118,61.083-83.322,57.401c-4.397-0.424-7.619-4.333-7.194-8.731c0.424-4.397,4.331-7.624,8.731-7.194	c30.333,2.93,58.238-16.308,66.362-45.733l2.208-7.996c2.945-10.668-3.338-21.743-14.006-24.688l-7.996-2.207	c-33.397-9.22-67.885,10.341-77.107,43.741l-1.885,6.828c6.792-5.248,14.295-10.009,22.513-14.251	c3.926-2.026,8.752-0.488,10.778,3.438c2.027,3.926,0.487,8.752-3.438,10.778c-28.581,14.755-49.7,37.601-56.824,69.498	c-0.057,0.256-0.037-3.2-0.037,62.154c1.228,5.116-2.672,9.871-7.771,9.871c-34.945,0-66.294,20.037-81.208,50.866h162.372	c-8.481-17.367-22.538-31.926-39.807-40.851c-3.925-2.029-5.463-6.855-3.434-10.78c2.028-3.925,6.856-5.461,10.78-3.435	c22.599,11.679,40.552,31.548,49.973,55.065h23.091c4.418,0,8,3.582,8,8s-3.582,8-8,8c-54.105,0-189.772,0-243.993,0	c-4.418,0-8-3.582-8-8s3.582-8,8-8h23.557c15.005-37.679,50.118-63.439,90.44-66.545v-58.105	c-7.541-31.105-28.407-53.285-56.403-67.738c-3.926-2.026-5.465-6.853-3.438-10.778s6.852-5.466,10.778-3.438	c8.218,4.243,15.721,9.004,22.513,14.252l-1.885-6.828c-9.219-33.39-43.706-52.968-77.106-43.741l-7.997,2.207	c-10.667,2.945-16.951,14.021-14.005,24.688l2.208,7.996c8.32,30.134,37.911,49.67,68.827,45.445	c4.373-0.596,8.412,2.465,9.01,6.844c0.599,4.377-2.465,8.411-6.843,9.01c-38.939,5.314-76.001-19.314-86.417-57.041l-2.208-7.996	c-5.293-19.172,5.998-39.076,25.171-44.37l7.997-2.207c41.923-11.571,85.212,12.982,96.787,54.907l9.469,34.298	c1.232,1.651,2.407,3.338,3.544,5.049V173.405c-3.906-16.421-10.613-31.005-20.093-44.26l-39.448,10.891	c-52.71,14.552-107.151-16.325-121.705-69.043l-2.84-10.288c-6.474-23.447,7.336-47.791,30.784-54.266l10.288-2.84	c43.823-12.095,90.047,7.047,112.416,46.557c2.177,3.845,0.824,8.727-3.021,10.903c-3.845,2.176-8.726,0.824-10.903-3.021	c-18.747-33.113-57.496-49.16-94.234-39.016l-10.288,2.84c-14.944,4.126-23.745,19.641-19.62,34.584l2.84,10.288	c12.199,44.184,57.831,70.081,102.024,57.877l32.57-8.992c-26.782-28.443-62.485-41.606-84.488-47.352	c-4.275-1.116-6.835-5.486-5.719-9.762c1.116-4.274,5.487-6.833,9.762-5.719c25.994,6.788,69.568,23.17,99.609,60.478	c1.347,0.917,2.418,2.249,3.007,3.873c7.225,9.623,12.837,19.479,17.287,30.058c4.355-10.355,9.907-20.215,17.235-29.989	l12.303-44.565c14.553-52.714,68.986-83.596,121.705-69.043l10.288,2.84C424.983,12.914,438.793,37.258,432.319,60.705z"/></svg>