<svg xmlns="http://www.w3.org/2000/svg" viewBox="0 0 482 482"><path fill="#d6f4fc" d="M454.839,55v386c0,17.67-14.33,32-32,32H59.159c-17.67,0-32-14.33-32-32v-2.64	c0-17.68,14.33-32,32-32h201.5c15.57,0,28.88-11.2,31.54-26.54l39.3-219.93H73.309c-25.41,0-46-20.59-46-46V55	c0-25.41,20.59-46,46-46h335.53C434.249,9,454.839,29.59,454.839,55z"/><path fill="#f1fafc" d="M289.459,388.33l-10.486,32.502c-1.475,4.57-5.729,7.668-10.531,7.668H58.412	c-14.244,0-15.007-21.435-0.778-22.104c1.185-0.056,201.726-0.036,203.025-0.036C273.169,406.36,284.219,399.13,289.459,388.33z"/><path fill="#f1fafc" d="M408.949,68h-276.64c-25.405,0-46,20.595-46,46c0,38.6-59,40.193-59-0.11V55	c0-25.405,20.595-46,46-46h335.53C449.119,9,447.564,68,408.949,68z"/><circle cx="377.499" cy="357" r="42" fill="#f9f9f9"/><polygon fill="#bdeffc" points="454.839,159.89 454.839,207.89 322.919,207.89 331.499,159.89"/><path fill="#fff" d="M402.551,323.285c5.352,3.983,2.421,12.369-4.25,12.361c-22.133-0.026-42.218,17.795-42.112,42.232	c0.029,6.664-8.372,9.574-12.36,4.235c-19.939-26.693-2.022-64.936,30.932-67.026C385.197,314.425,394.882,317.577,402.551,323.285z"/><path d="M463.841,55c0-30.327-24.673-55-55-55H73.307c-30.327,0-55,24.673-55,55v58.894c0,30.327,24.673,55,55,55h372.532V441	c0,12.682-10.317,23-23,23H59.159c-12.682,0-23-10.318-23-23v-2.64c0-12.682,10.318-23,23-23h201.504	c19.997,0,36.987-14.301,40.399-34.006l31.305-180.819c0.848-4.898-2.436-9.556-7.333-10.404c-4.9-0.848-9.556,2.435-10.403,7.333	l-31.305,180.819c-1.914,11.054-11.445,19.077-22.663,19.077H59.159c-22.607,0-41,18.393-41,41V441c0,22.607,18.393,41,41,41h363.68	c22.607,0,41-18.393,41-41C463.839,436.491,463.841,64.069,463.841,55z M36.307,113.894V55c0-20.402,16.598-37,37-37h335.534	c20.402,0,37,16.598,37,37v95.894H73.307C52.905,150.894,36.307,134.296,36.307,113.894z M377.499,408c28.121,0,51-22.878,51-51	s-22.879-51-51-51s-51,22.878-51,51S349.378,408,377.499,408z M377.499,324c18.196,0,33,14.804,33,33s-14.804,33-33,33	s-33-14.804-33-33S359.303,324,377.499,324z M350.499,60c0,4.97-4.029,9-9,9h-10c-4.971,0-9-4.03-9-9s4.029-9,9-9h10	C346.47,51,350.499,55.03,350.499,60z M350.499,108c0,4.97-4.029,9-9,9h-10c-4.971,0-9-4.03-9-9s4.029-9,9-9h10	C346.47,99,350.499,103.03,350.499,108z M161.499,185c-4.971,0-9,4.03-9,9v21.886c-23.842,4.265-42,25.139-42,50.189v45.133	c0,28.122,22.878,51,51,51s51-22.878,51-51v-45.133c0-25.05-18.158-45.924-42-50.189V194C170.499,189.03,166.47,185,161.499,185z M194.499,266.075v45.133c0,18.196-14.804,33-33,33s-33-14.804-33-33v-45.133c0-15.076,10.166-27.814,24-31.742V311	c0,4.97,4.029,9,9,9s9-4.03,9-9v-76.668C184.333,238.261,194.499,250.999,194.499,266.075z"/></svg>