<svg xmlns="http://www.w3.org/2000/svg" viewBox="0 0 480 480"><path fill="#ffebd2" d="M287.431,370.32V107.1c0-54.731-44.368-99.1-99.1-99.1h-49.8c-54.731,0-99.1,44.369-99.1,99.1	c0,270.052-0.069,263.256,0.031,263.206c-18.215,9.047-30.031,27.73-30.031,48.464V464c0,4.418,3.582,8,8,8h292c4.418,0,8-3.582,8-8	v-45.23C317.431,398.044,305.629,379.375,287.431,370.32z"/><path fill="#ffa4b8" d="M317.431,418.77V464c0,4.418-3.582,8-8,8h-292c-4.418,0-8-3.582-8-8v-45.23	c0-23.06,14.61-43.59,36.39-51.14c0.1-0.1,31.612-10.867,43.12-14.87c2.66-0.92,5.22-2.03,7.65-3.32	c11.56,26.15,37.72,43.56,66.84,43.56s55.28-17.41,66.84-43.56c2.43,1.29,4.99,2.4,7.65,3.32c0.1,0.035,43,14.86,43.1,14.86	C302.811,375.17,317.431,395.7,317.431,418.77z"/><path fill="#ffbfcb" d="M104.976,363.738c4.082,5.428,1.699,13.252-4.723,15.465c-0.313,0.108-24.325,8.321-24.432,8.427	c-21.78,7.55-36.39,28.08-36.39,51.14V462c0,5.523-4.477,10-10,10h-12c-4.418,0-8-3.582-8-8v-45.23c0-23.06,14.61-43.59,36.39-51.14	c0,0,0.01-0.01,0.03-0.01c33.829-12.102,43.143-14.147,50.74-18.18C98.855,354.567,101.679,359.354,104.976,363.738z"/><rect width="216" height="47" x="55.431" y="425" fill="#585966"/><path fill="#6e6f80" d="M271.431,425v17.29h-168.5c-12.523,0-22.823,9.806-23.472,22.276	C79.24,468.759,75.681,472,71.482,472H55.431v-47H271.431z"/><path fill="#585966" d="M237.921,352.76c-21.625-7.424-36.49-27.918-36.49-51.19c35.82-14.9,61-50.23,61-91.44v-60.347	c0-3.348-2.086-6.324-5.221-7.499c-14.483-5.429-26.907-15.841-34.955-30.873c-2.254-4.21-7.697-5.447-11.617-2.719	c-40.298,28.037-88.619,40.717-137.52,36.278c-4.67-0.424-8.687,3.28-8.687,7.969v57.19c0,41.21,25.18,76.54,61,91.44	c0,23.232-14.828,43.753-36.49,51.19c-45.408,15.589-45.325,15.457-49.51,17.56V107.1c0-54.731,44.369-99.1,99.1-99.1h49.8	c54.731,0,99.1,44.369,99.1,99.1v263.22C283.612,368.41,285.184,368.986,237.921,352.76z"/><path fill="#6e6f80" d="M192.995,8.108c13.019,0.603,12.823,19.877-0.208,20.077c-7.31,0.112-15.286-0.019-24.255-0.185	c-54.721-1.011-99.1,44.37-99.1,99.1v18.42c-2.91,1.18-5,4.04-5,7.42v57.19c0,40.772,24.724,76.128,60.528,91.243l0.462,0.698	c-0.197,22.864-14.785,43.201-36.48,50.689c-43.686,14.911-45.47,15.53-49.51,17.56V107.1c0-54.731,44.369-99.1,99.1-99.1	C138.531,8,191.449,8.036,192.995,8.108z"/><path fill="#fff3e4" d="M156.204,281.888c14.986,6.084,8.99,28.537-7.016,26.222c-48.257-6.978-84.757-48.427-84.757-97.98	v-57.19c0-4.71,4.042-8.39,8.733-7.966c2.599,0.235,5.373,0.438,8.307,0.588c7.262,0.37,12.96,6.379,12.96,13.65	c0,0,0,31.719,0.01,32.119C94.926,232.419,120.412,267.358,156.204,281.888z"/><path fill="#ffdfba" d="M197.059,319.291c-21.295,7.714-45.638,7.837-67.249,0.004c-3.595-1.303-5.75-5.01-5.12-8.782	c0.489-2.923,0.741-5.912,0.741-8.942c23.598,9.823,51.154,10.342,76,0c0,3.03,0.252,6.02,0.741,8.942	C202.802,314.281,200.652,317.989,197.059,319.291z"/><path fill="#cbe3fa" d="M436.431,402.988c0,37.376-29.736,68.528-67.109,69.007c-37.968,0.486-68.891-30.138-68.891-67.994	v-15c0-4.418,3.582-8,8-8h120c4.418,0,8,3.582,8,8V402.988z"/><path fill="#eef7ff" d="M436.431,389c0,3.866-3.134,7-7,7h-80c-12.686,0-23,10.3-23,23c0,8.781,1.663,17.173,4.692,24.878	c2.783,7.078-6.168,12.963-11.469,7.508c-11.898-12.244-19.223-28.956-19.223-47.386v-15c0-4.418,3.582-8,8-8h120	C432.849,381,436.431,384.582,436.431,389z"/><path d="M279.395,363.601c-0.28-3.146-2.403-5.838-5.357-6.854l-33.505-11.553c-8.276-2.854-15.537-7.973-20.996-14.803 c-2.759-3.452-7.794-4.013-11.243-1.255c-3.452,2.758-4.014,7.792-1.255,11.244c3.691,4.618,7.993,8.655,12.772,12.017 c-18.65,32.382-61.225,42.743-92.764,21.433c-3.659-2.472-8.633-1.512-11.107,2.15c-2.474,3.661-1.511,8.634,2.15,11.107 c39.565,26.731,92.89,13.435,115.898-27.252c1.505,0.557-2.089-0.694,29.442,10.178V472c0,4.418,3.582,8,8,8s8-3.582,8-8 C279.431,357.872,279.45,364.219,279.395,363.601z"/><path d="M146.431,199v-14c0-4.418-3.582-8-8-8s-8,3.582-8,8v14c0,4.418,3.582,8,8,8S146.431,203.418,146.431,199z"/><path d="M196.431,199v-14c0-4.418-3.582-8-8-8s-8,3.582-8,8v14c0,4.418,3.582,8,8,8S196.431,203.418,196.431,199z"/><path d="M444.431,384.614V381c0-4.418-3.582-8-8-8h-136c-4.418,0-8,3.582-8,8v23c0,15.613,4.7,30.615,13.592,43.384 c2.526,3.626,7.513,4.519,11.137,1.993c3.626-2.525,4.519-7.511,1.994-11.137c-7.015-10.073-10.723-21.913-10.723-34.241v-15h120 v15c0,33.084-26.916,60-60,60h-71c-4.418,0-8,3.582-8,8s3.582,8,8,8h142c4.418,0,8-3.582,8-8s-3.582-8-8-8h-24.436 c17.892-13.917,29.436-35.629,29.436-60v-3.347c3.838-0.335,8.593-0.009,12.143,2.704c7.751,5.922,7.992,22.251,0.479,32.355 c-2.637,3.545-1.9,8.557,1.645,11.193c3.569,2.653,8.575,1.878,11.193-1.646C486.922,422.36,479.116,382.697,444.431,384.614z"/><path d="M335.052,346.414c-1.776,5.199,2.105,10.588,7.571,10.588c3.327,0,6.434-2.092,7.569-5.416 c4.477-13.104,1.34-21.311-0.95-27.303c-2.032-5.317-3.259-8.526,0.123-15.976c1.827-4.023,0.046-8.765-3.978-10.592 c-4.021-1.826-8.766-0.046-10.591,3.978c-6.145,13.534-3.015,21.722-0.5,28.302C336.247,335.099,337.658,338.787,335.052,346.414z"/><path d="M385.052,346.414c-1.776,5.199,2.105,10.588,7.571,10.588c3.327,0,6.434-2.092,7.569-5.416 c4.477-13.104,1.34-21.311-0.95-27.303c-2.032-5.317-3.259-8.526,0.123-15.976c1.827-4.023,0.046-8.765-3.978-10.592 c-4.021-1.826-8.766-0.046-10.591,3.978c-6.145,13.534-3.015,21.722-0.5,28.302C386.247,335.099,387.658,338.787,385.052,346.414z"/><path d="M295.431,314.807V107.101C295.431,48.045,247.386,0,188.331,0h-49.799C79.476,0,31.431,48.045,31.431,107.101v258.497 c-18.343,11.089-30,31.127-30,53.175V472c0,4.418,3.582,8,8,8s8-3.582,8-8v-53.227c0-19.285,12.009-36.501,30-43.219V472 c0,4.418,3.582,8,8,8s8-3.582,8-8v-39h149.857c4.418,0,8-3.582,8-8s-3.582-8-8-8H63.431v-46.988l28.112-9.693 c21.523-7.421,36.968-25.893,40.897-47.753c68.104,20.646,137.99-30.334,137.99-102.442V144c0-3.577-2.374-6.719-5.814-7.696 c-17.827-5.063-31.934-18.233-38.703-36.134c-1.893-5.009-8.096-6.782-12.349-3.52c-42.362,32.468-94.954,46.47-148.082,39.419 c-4.776-0.634-9.052,3.08-9.052,7.931v66.125c0,21.028,6.098,41.384,17.635,58.865c2.432,3.687,7.395,4.704,11.083,2.271 c3.688-2.434,4.704-7.396,2.271-11.083c-9.806-14.858-14.988-32.167-14.988-50.052v-57.181 c50.933,4.648,100.997-8.571,142.796-37.694c8.604,16.058,22.373,28.219,39.204,34.534v60.341 c0,66.606-67.972,108.576-126.421,83.851c-6.429-2.716-12.95,3.526-10.651,10.029c-0.983,18.677-13.199,35.041-31.032,41.189 l-38.896,13.412V107.101C47.431,56.868,88.298,16,138.532,16h49.799c50.233,0,91.101,40.868,91.101,91.101v207.706 c0,4.418,3.582,8,8,8S295.431,319.225,295.431,314.807z"/></svg>