<svg xmlns="http://www.w3.org/2000/svg" width="512" height="512" data-name="Filled expand" viewBox="0 0 512 512"><g data-name="09 copy 5"><circle cx="360" cy="328" r="16" fill="#999"/><path fill="#f2f2f2" d="M24,468V362.541a30,30,0,0,1,16.584-26.833L136,288h80l112,56V488H44A20,20,0,0,1,24,468Z"/><polygon fill="#ffd4cf" points="224 296 176 320 128 296 144 240 208 240 224 296"/><path fill="#fbb8b0" d="M212.426,255.489,208,240H144l-4.472,15.653,20.316,10.158a36.2,36.2,0,0,0,16.1,3.8h0a36.183,36.183,0,0,0,16.264-3.883Z"/><path fill="#ffd4cf" d="M240,120v-8.5L112,112v93.459a30,30,0,0,0,16.584,26.833L167,251.5a20,20,0,0,0,17.979-.045l38.575-19.534A30,30,0,0,0,240,205.156Z"/><rect width="16" height="16" x="136" y="152" fill="#ae7069"/><rect width="16" height="16" x="200" y="152" fill="#ae7069"/><path fill="#ffd4cf" d="M232,144h14a10,10,0,0,1,10,10v20a10,10,0,0,1-10,10H232a0,0,0,0,1,0,0V144A0,0,0,0,1,232,144Z"/><path fill="#ffd4cf" d="M96,144h14a10,10,0,0,1,10,10v20a10,10,0,0,1-10,10H96a0,0,0,0,1,0,0V144a0,0,0,0,1,0,0Z" transform="rotate(-180 108 164)"/><path fill="#ae7069" d="M176,224c-13.458,0-24-8.785-24-20h16c0,1.41,3.037,4,8,4s8-2.59,8-4h16C200,215.215,189.458,224,176,224Z"/><path fill="#f2f2f2" d="M256,56a24,24,0,0,0-45.073-11.493,40,40,0,0,0-69.86.011c-.095-.172-.183-.347-.282-.518A24,24,0,1,0,104,73.889V120H248V73.884A23.934,23.934,0,0,0,256,56Z"/><rect width="104" height="16" x="104" y="80" fill="#999"/><rect width="24" height="16" x="224" y="80" fill="#999"/><rect width="32" height="16" x="128" y="392" fill="#999"/><path fill="#e6e6e6" d="M324,344h72a60,60,0,0,1,60,60v36a0,0,0,0,1,0,0H264a0,0,0,0,1,0,0V404a60,60,0,0,1,60-60Z"/><polygon fill="#999" points="448 456 448 464 272 464.364 272 456 248 432 248 424 472 424 472 432 448 456"/><path fill="#666" d="M232,456H488a0,0,0,0,1,0,0v12a20,20,0,0,1-20,20H252a20,20,0,0,1-20-20V456A0,0,0,0,1,232,456Z"/><path fill="#ffd4cf" d="M264,432H224v56h96A56,56,0,0,0,264,432Z"/><g><rect width="16" height="16" x="136" y="152"/><rect width="16" height="16" x="200" y="152"/><path d="M200,204H184c0,1.41-3.037,4-8,4s-8-2.59-8-4H152c0,11.215,10.542,20,24,20S200,215.215,200,204Z"/><rect width="32" height="16" x="128" y="392"/><path d="M264,424H104V386.413a12.012,12.012,0,0,1,5.119-9.831l70.987-49.691,47.472-23.736q.207-.1.407-.218l64.437,32.218,7.156-14.31-70.186-35.093-11.936-41.778,9.711-4.917A37.82,37.82,0,0,0,248,205.156V192h6a18.021,18.021,0,0,0,18-18V154a18.021,18.021,0,0,0-18-18h-6v-8a8,8,0,0,0,8-8V77.159a32,32,0,0,0-44.644-45.611,47.973,47.973,0,0,0-70.7-.011A32.009,32.009,0,0,0,96,77.167V120a8,8,0,0,0,8,8v8H98a18.021,18.021,0,0,0-18,18v20a18.021,18.021,0,0,0,18,18h6v13.459a37.792,37.792,0,0,0,21.006,33.988l9.478,4.739-11.876,41.566-85.6,42.8A37.792,37.792,0,0,0,16,362.541V392H32V362.541a21.881,21.881,0,0,1,12.161-19.678l79.854-39.927q.2.115.407.219l35.987,17.994L99.943,363.475A28.022,28.022,0,0,0,88,386.413V424H72v16H216v40H44a12.013,12.013,0,0,1-12-12V408H16v60a28.032,28.032,0,0,0,28,28H320a8,8,0,0,0,8-8A64.072,64.072,0,0,0,264,424ZM104,176H98a2,2,0,0,1-2-2V154a2,2,0,0,1,2-2h6Zm150-24a2,2,0,0,1,2,2v20a2,2,0,0,1-2,2h-6V152ZM112,112V96h96V80H112V73.889a8,8,0,0,0-2.666-5.962,16,16,0,1,1,24.514-19.942l.2.371a8,8,0,0,0,6.983,4.162h.037a8,8,0,0,0,6.983-4.1,32,32,0,0,1,55.895-.008,8,8,0,0,0,6.982,4.094h.039a8,8,0,0,0,6.981-4.163,16,16,0,1,1,24.717,19.579A8,8,0,0,0,240,73.884V80H224V96h16v16Zm20.161,113.137A21.881,21.881,0,0,1,120,205.459V128H232v77.156a21.9,21.9,0,0,1-12.062,19.627l-38.574,19.533a12.054,12.054,0,0,1-10.788.028Zm5.876,66.937-.379-.758,11.386-39.849,14.377,7.188a28.118,28.118,0,0,0,25.171-.064l14.327-7.255,11.423,39.98-.379.758L176,311.056ZM232,480V440h32a48.078,48.078,0,0,1,47.333,40Z"/><path d="M256,404v4h16v-4a52.059,52.059,0,0,1,52-52h72a52.092,52.092,0,0,1,49.043,34.666l15.085-5.332A68.117,68.117,0,0,0,396,336H382.629a24,24,0,1,0-45.258,0H324A68.077,68.077,0,0,0,256,404Zm104-84a8,8,0,1,1-8,8A8.009,8.009,0,0,1,360,320Z"/><path d="M488,448H467.313l10.344-10.343A8,8,0,0,0,480,432v-8a8,8,0,0,0-8-8h-8V404c0-1.5-.05-3.025-.148-4.525l-15.966,1.05c.075,1.152.114,2.321.114,3.475v12H312v16H460.687l-16,16H336v16H480v4a12.013,12.013,0,0,1-12,12H344v16H468a28.032,28.032,0,0,0,28-28V456A8,8,0,0,0,488,448Z"/></g></g></svg>