<svg xmlns="http://www.w3.org/2000/svg" viewBox="0 0 479 479"><path fill="#eef7ff" d="M430.1,338.001l-14.79,41.7c-4.53,12.77-16.61,21.3-30.16,21.3H92.85c-13.55,0-25.63-8.53-30.16-21.3	l-14.79-41.7H430.1z"/><path fill="#cbe3fa" d="M430.1,338.001l-6.34,17.873c-2.266,6.383-8.305,10.647-15.078,10.647H69.318	c-6.773,0-12.812-4.265-15.078-10.647l-6.34-17.873H430.1z"/><path fill="#c79a83" d="M390.14,202.241c-4.7-20.65-26.48-32.34-46.21-25.1l-17.53-72.58	c-6.863-28.512-43.946-36.08-61.52-12.63c-12.341-18.617-39.515-18.511-51.76,0c-17.625-23.519-54.662-15.84-61.52,12.63	c-19.323,80.218-16.997,72.129-18.34,72.3c-19.33-6.63-40.74,4.88-45.4,25.38L57,338.001h364L390.14,202.241z"/><path fill="#e0b7a3" d="M184.579,94.034c1.427,4.961,0.065,10.325-3.614,13.946c-4.475,4.404-7.803,10.067-9.365,16.581	l-17.33,71.91c-3.84-9.15-11.48-16.37-21.01-19.61c1.343-0.171-0.982,7.899,18.34-72.3c1.686-6.999,5.195-12.742,9.793-17.074	C169.047,80.276,181.671,83.928,184.579,94.034z"/><path fill="#e0b7a3" d="M219.285,85.024c14.004-11.626,31.535,9.017,18.338,21.55c-5.863,5.568-9.622,13.443-9.622,22.427	v59.15c-4.611-5.169-11.822-9.831-20.02-11.9c0.022-74.909,0.02-66.613,0.02-67.25C208.001,99.347,212.442,90.705,219.285,85.024z"/><path fill="#e0b7a3" d="M293.716,78.012c12.081,0.261,12.815,18.088,0.778,19.152c-9.17,0.811-18.136,5.237-24.494,13.607	c0-6.629-0.886-12.449-5.12-18.84C271.344,83.306,281.671,77.752,293.716,78.012z"/><path fill="#e0b7a3" d="M99.794,182.77c14.107-11.298,31.442,9.382,18.232,21.718c-4.858,4.537-8.529,10.552-10.166,17.753	l-26.31,115.76H57l30.86-135.76C89.776,193.813,94.137,187.3,99.794,182.77z"/><path fill="#e0b7a3" d="M208.342,176.344c10.262,2.692,9.954,17.255-0.334,19.846c-16.136,4.063-29.523,17.78-31.128,36.421	c-0.05,0.58,0.33-3.76-9.05,105.39h-21.72c11.14-129.67,10.72-124.78,10.77-125.39C159.062,187.263,183.59,169.852,208.342,176.344z"/><path fill="#e0b7a3" d="M253.487,184.61c14.095-11.511,31.694,9.179,18.425,21.632C264.075,213.597,259,224.053,259,236.131	v101.87h-20v-121.87C239,202.384,244.863,191.653,253.487,184.61z"/><path fill="#e0b7a3" d="M344.418,176.966c14.618-5.125,25.643,13.681,14.145,24.061	c-7.643,6.899-12.319,17.202-11.413,28.965l9.28,108.01h-24.54c-11.146-129.752-10.724-124.789-10.77-125.39	C319.896,196.396,329.935,182.043,344.418,176.966z"/><path fill="#a07765" d="M320.918,210.853C320.858,213.371,321.122,213,320.918,210.853L320.918,210.853z"/><path fill="#a07765" d="M341.4,166.801c-6.164,1.466-11.745,4.227-16.48,7.993c-3.114,2.477-7.521,2.272-10.466-0.404	c-9.263-8.42-20.764-12.981-32.454-13.729v-51.66c0-6.198-1.855-12.04-4.965-16.861c-2.638-4.091-8.813-4.676-12.155-0.209	c3.24,4.89,5.12,10.76,5.12,17.07v52.246c-9.27,1.494-18.213,5.416-25.776,11.766c-3.02,2.536-7.387,2.576-10.403,0.034	c-20.352-17.155-50.542-16.608-70.313,1.379c-2.928,2.663-7.324,2.838-10.421,0.373c-4.744-3.775-10.33-6.535-16.487-7.999	l-2.4,9.94l-0.94,0.12c15.638,5.457,24.314,20.093,23.729,34.309c3.38-23.181,22.704-38.176,46.131-35.839	c19.452,2.291,35.88,19.362,35.88,40.8c0-34.583,40.498-54.219,67.84-31.28c16.965,14.233,13.519,34.26,14.28,22.46	c0.817-12.67,9.49-25.174,22.81-30.17C343.745,176.57,344.07,177.859,341.4,166.801z"/><path fill="#a07765" d="M156.989,211.169C156.65,213.498,156.908,213.149,156.989,211.169L156.989,211.169z"/><path d="M471,330.001H339.228l-10.11-117.704c-1.343-15.719,11.001-29.296,26.898-29.296c12.688,0,23.514,8.641,26.326,21.013	l17.964,79.035c0.979,4.308,5.264,7.008,9.574,6.028c4.308-0.979,7.007-5.266,6.027-9.574l-17.964-79.035	c-5.05-22.214-26.056-36.25-48.147-33.002l-15.618-64.785c-7.461-30.944-44.773-42.996-69.029-22.587	c-14.847-13.444-37.42-13.476-52.302,0c-24.258-20.411-61.569-8.353-69.028,22.587l-17.303,71.774	c-1.468,4.127,0.655,8.676,4.777,10.189c11.392,4.183,18.623,15.555,17.587,27.658l-10.109,117.699h-71.75	c31.044-136.584,28.596-129.405,32.815-135.45c2.529-3.623,1.643-8.61-1.98-11.139c-3.623-2.53-8.61-1.644-11.139,1.98	c-6.829,9.782-4.757,6.687-36.104,144.608c-15.179,0-27.423,0-42.615,0c-4.418,0-8,3.582-8,8s3.582,8,8,8	c39.998,0,369.628,0,410.777,0l-11.006,31.025c-3.391,9.555-12.48,15.975-22.619,15.975H92.849c-10.139,0-19.229-6.42-22.619-15.975	c-1.477-4.164-6.052-6.34-10.214-4.865c-4.164,1.478-6.342,6.051-4.865,10.214c5.65,15.926,20.8,26.625,37.698,26.625h292.303	c16.897,0,32.048-10.7,37.698-26.625l12.905-36.375H471c4.418,0,8-3.582,8-8S475.418,330.001,471,330.001z M318.625,106.431	l15.982,66.294c-6.005,3.445-11.071,8.217-14.904,14.285c-9.608-13.034-25.051-20.671-41.703-19.955	c0-62.658,1.1-63.936-3.416-73.984C289.221,79.483,313.774,86.314,318.625,106.431z M143.399,172.704l15.977-66.272	c4.839-20.076,29.378-26.97,44.04-13.36c-4.163,9.264-3.415,13.398-3.415,39.22c0,4.418,3.582,8,8,8s8-3.582,8-8v-23.291	c0-12.682,10.318-23,23-23c12.683,0,23,10.318,23,23v61.483c-9.466,3.774-17.489,10.403-23,18.826	c-18.798-28.727-60.35-29.911-80.703-2.299C154.608,181.178,149.527,176.229,143.399,172.704z M154.831,330.001l9.991-116.324	c1.107-16.839,15.13-30.676,33.044-30.676c18.27,0,33.133,14.864,33.133,33.133v113.867H154.831z M247,330.001V216.134	c0-18.27,14.864-33.133,33.134-33.133c17.336,0,31.528,13.025,33.012,30.298l10.024,116.702H247z"/></svg>