<svg xmlns="http://www.w3.org/2000/svg" viewBox="0 0 480 480"><path fill="#ffebd2" d="M357.59,413.62h-0.01c-1.23-0.44-40.79-14.06-43.09-14.86c-21.661-7.466-36.49-27.937-36.49-51.19	c7.32-3.04,14.19-6.93,20.49-11.57c0,0.1,22.309-1.726,46.1-5.2c11.74-1.72,20.41-11.87,20.41-23.73V153.51	C365,98.552,320.462,54,265.5,54h-51c-54.95,0-99.5,44.55-99.5,99.51v153.56c0,11.86,8.67,22.01,20.41,23.73	c23.756,3.469,46.1,5.3,46.1,5.2c6.3,4.64,13.17,8.53,20.49,11.57c0,23.273-14.847,43.73-36.49,51.19	c-13.487,4.691-43.022,14.77-43.12,14.87c-21.504,7.444-36.354,27.776-36.39,51.055c-0.006,4.023,3.207,7.315,7.23,7.315h293.54	c3.965,0,7.225-3.197,7.23-7.161C394.029,441.741,379.402,421.177,357.59,413.62z"/><path fill="#585966" d="M141,256.13c0,32.79,15.95,61.86,40.51,79.87c0,0.1-22.309-1.726-46.1-5.2	c-11.74-1.72-20.41-11.87-20.41-23.73V153.51C115,98.55,159.55,54,214.5,54h51c54.958,0,99.5,44.548,99.5,99.51v153.56	c0,11.86-8.67,22.01-20.41,23.73c-15.27,2.23-30.66,3.97-46.1,5.21c0-0.372,40.51-25.969,40.51-79.88V190	c-17.167-4.873-31.409-16.214-40.176-32.588c-2.254-4.21-7.697-5.447-11.617-2.719C243.506,185.098,191.521,196.704,141,190V256.13z"/><path fill="#6e6f80" d="M270.46,54.121c6.41,0.315,6.132,9.914-0.286,9.933c-6.936,0.021-15.329-0.018-25.674-0.055	c-54.95-0.195-99.5,44.55-99.5,99.51v28.5c-2.38,1.37-4,3.95-4,6.93v57.19c0,32.317,15.566,61.587,40.51,79.87	c0,0.1-21.819-1.671-46.1-5.2c-11.74-1.72-20.41-11.87-20.41-23.73V153.51C115,98.552,159.552,54,214.51,54	C214.51,54,268.816,54.041,270.46,54.121z"/><path fill="#cbe3fa" d="M357.59,413.62h-0.01c-1.23-0.44-40.79-14.06-43.09-14.86c-11.441-3.943-21.257-11.61-27.86-21.87	l-43.649,48.779c-1.59,1.777-4.372,1.777-5.962,0L193.37,376.89c-4.17,6.48-9.71,12.06-16.33,16.29	c-9.317,5.984-15,6.267-54.62,20.44c-0.02,0-0.03,0.01-0.03,0.01c-21.504,7.444-36.354,27.777-36.39,51.055	c-0.006,4.023,3.207,7.315,7.23,7.315h293.54c3.965,0,7.225-3.197,7.23-7.161C394.029,441.741,379.402,421.177,357.59,413.62z"/><path fill="#eef7ff" d="M177.04,393.18l9.386,42.594c1.442,6.546,9.811,8.523,14.029,3.314l23.075-28.498l-30.16-33.7	C189.2,383.37,183.66,388.95,177.04,393.18z"/><path fill="#eef7ff" d="M302.96,393.18l-9.385,42.595c-1.442,6.546-9.813,8.523-14.031,3.313L256.47,410.59l30.16-33.7	C290.8,383.37,296.34,388.95,302.96,393.18z"/><path fill="#fff3e4" d="M217.599,320.07c16.258,10.163,3.393,35.124-14.403,27.989C166.675,333.416,141,297.728,141,256.13	V190c4.327,0.575,9.424,1.116,15.176,1.457c8.332,0.494,14.824,7.428,14.824,15.774v28.899	C171,272.563,190.152,302.913,217.599,320.07z"/><path fill="#ffdfba" d="M273.631,365.273c-20.852,7.536-44.656,8.084-67.196,0c-3.626-1.301-5.796-5.025-5.164-8.825	c0.464-2.789,0.712-5.637,0.729-8.527l0.12-0.3c24.142,10.013,51.631,10.026,75.78-0.01c0.246,0.64-0.074,3.397,0.837,8.868	C279.366,360.253,277.23,363.972,273.631,365.273z"/><path fill="#eef7ff" d="M179.295,403.415c0.875,3.969-1.364,7.962-5.206,9.285l-41.137,14.201	C116.819,432.494,106,447.695,106,464.77c0,3.993-3.237,7.23-7.23,7.23h-5.54c-3.993,0-7.23-3.237-7.23-7.23	c0-23.06,14.61-43.59,36.39-51.14c0.1-0.099,31.862-10.954,43.12-14.87c4.116-1.432,7.98-3.3,11.53-5.58L179.295,403.415z"/><path fill="#fff" d="M197.669,433.295c1.578,7.209-9.525,10.299-11.242,2.479l-9.386-42.594	c6.62-4.23,12.16-9.81,16.33-16.29l4.487,5.013c2.086,2.33,1.93,5.895-0.34,8.045c-1.051,0.995-2.144,1.95-3.278,2.862	c-2.82,2.27-4.192,5.88-3.41,9.42L197.669,433.295z"/><path fill="#fff" d="M278.14,418.55l10.577,13.063c4.777,5.899-4.003,13.86-9.174,7.475L256.47,410.59l30.16-33.7	c1.161,1.802,2.424,3.533,3.789,5.185c1.875,2.27,1.836,5.557-0.128,7.75L278.53,402.96C274.59,407.36,274.43,413.96,278.14,418.55z"/><path fill="#cbe3fa" d="M141,190v81h-27.31C101.71,271,92,261.29,92,249.31v-37.62c0-11.98,9.71-21.69,21.69-21.69H141z"/><path fill="#eef7ff" d="M92,243.13v-31.44c0-11.979,9.711-21.69,21.69-21.69H141v10h-7.31c-11.979,0-21.69,9.711-21.69,21.69	v21.44C112,256.376,92,256.266,92,243.13z"/><path fill="#cbe3fa" d="M388,211.69v37.62c0,11.98-9.71,21.69-21.69,21.69H339v-81h27.31C378.29,190,388,199.71,388,211.69z"/><path fill="#eef7ff" d="M353,198v65c0,4.418-3.582,8-8,8h-6v-81h6C349.418,190,353,193.582,353,198z"/><path d="M360.206,406.056c-4.965-1.714,15.889,5.48-43.104-14.862c-16.897-5.826-23.057-18.405-25.143-20.267 c-2.621-2.349-6.532-2.722-9.576-0.816c-1.408,0.878,2.074-2.797-42.384,46.892l-36.819-41.151 c2.758-5.389,4.735-11.206,5.828-17.284c29.999,9.079,64.287,4.844,92.273-14.778c10.358-0.862,20.744-1.951,31.041-3.258 c-5.596,6.74-12.022,12.834-19.07,18.028c-6.201,4.571-2.952,14.441,4.753,14.441c1.647,0,3.311-0.508,4.739-1.56 c30.28-22.314,48.149-56.328,50.088-93.172C386.076,275.285,396,263.437,396,249.307v-37.613c0-13.713-9.345-25.278-22-28.677V134 C374,60.112,313.888,0,240,0S106,60.112,106,134v49.016c-12.655,3.398-22,14.964-22,28.677v37.613 c0,14.071,9.841,25.878,22.999,28.923v28.835c-0.001,15.769,11.715,29.374,27.253,31.647c4.366,0.641,8.434-2.382,9.074-6.757 c0.64-4.372-2.386-8.434-6.758-9.074c-7.736-1.132-13.57-7.931-13.569-15.818V271c0-4.604-3.907-8.351-8.653-7.967 c-0.216-0.017-0.432-0.033-0.653-0.033c-7.551,0-13.693-6.143-13.693-13.693v-37.613c0-7.55,6.143-13.693,13.693-13.693H133v59.353 c0.303,26.738,10.487,52.174,28.743,71.744c3.013,3.23,8.075,3.407,11.307,0.393c3.23-3.014,3.406-8.076,0.393-11.307 C157.681,301.286,149,279.247,149,256.125v-57.188c50.959,4.576,101.106-8.653,142.797-37.689 c8.79,16.42,22.629,28.338,39.203,34.539v60.338c0,64.782-66.166,108.87-125.873,84.08c-5.265-2.236-11.173,1.654-11.128,7.424 c-0.025,19.654-12.516,37.157-31.102,43.565l-43.103,14.862C94.79,414.72,78,438.304,78,464.773V472c0,4.418,3.582,8,8,8 s8-3.582,8-8v-7.227c0-19.678,12.499-37.209,31.103-43.624c3.364-1.223-13.625,4.697,43.01-14.83 c10.091-3.479,18.845-9.39,25.706-16.937l19.204,21.464l-18.785,23.205l-2.905-13.184c-0.951-4.315-5.221-7.043-9.534-6.091 c-4.314,0.951-7.042,5.219-6.091,9.534l6.48,29.41c1.439,6.532,9.817,8.516,14.03,3.312l27.612-34.109l8.17,9.131V472 c0,4.418,3.582,8,8,8s8-3.582,8-8v-39.943l8.17-9.131l27.612,34.109c4.209,5.199,12.59,3.225,14.03-3.313l3.901-17.708 c0.951-4.315-1.776-8.583-6.091-9.534c-4.316-0.952-8.584,1.776-9.534,6.091l-0.326,1.48l-18.785-23.205l19.205-21.465 c6.985,7.661,15.849,13.54,25.704,16.938c0,0,42.999,14.826,43.011,14.83C373.501,427.564,386,445.095,386,464.773V472 c0,4.418,3.582,8,8,8s8-3.582,8-8v-7.227C402,438.304,385.221,414.689,360.206,406.056z M344.534,279h12.222 c-0.794,11.88-3.809,27.538-12.442,43.701c-3.468,0.711-18.916,2.587-23.15,3.068C332.505,312.571,340.689,296.589,344.534,279z M302.483,146.17c-1.895-5.008-8.097-6.783-12.35-3.52c-18.388,14.093-38.817,24.785-60.721,31.777 c-46.061,14.702-83.214,7.642-88.312,7.578C140.463,181.997,140.331,182,122,182v-48c0-65.065,52.935-118,118-118 c46.24,0,86.346,26.739,105.687,65.563C325.011,58.982,296.364,46,265.5,46h-51c-12.222,0-24.215,2.037-35.646,6.054 c-4.168,1.465-6.36,6.031-4.896,10.2c1.466,4.168,6.033,6.361,10.2,4.895C193.881,63.732,204.089,62,214.5,62h51 c51.005,0,92.5,41.271,92.5,92v36c0,4.214,3.313,7.992,8.153,7.992c7.982,0,13.847,6.379,13.847,13.701v37.613 c0,7.55-6.143,13.693-13.693,13.693h-19.53c0.298-4.677,0.223,0.911,0.223-73c0-3.577-2.374-6.719-5.814-7.696 C323.028,177.149,309.211,163.968,302.483,146.17z"/><path d="M223,245v-14c0-4.418-3.582-8-8-8s-8,3.582-8,8v14c0,4.418,3.582,8,8,8S223,249.418,223,245z"/><path d="M273,245v-14c0-4.418-3.582-8-8-8s-8,3.582-8,8v14c0,4.418,3.582,8,8,8S273,249.418,273,245z"/></svg>