<svg xmlns="http://www.w3.org/2000/svg" width="512" height="512" data-name="Filled expand" viewBox="0 0 512 512"><g data-name="16 copy 5"><path fill="#f2f2f2" d="M24,468V331.472a40,40,0,0,1,25.641-37.334L128,264h80l104,40V488H44A20,20,0,0,1,24,468Z"/><polygon fill="#804913" points="64 288 88 392 88 432 248 432 248 392 272 288 240 280 224 360 112 360 96 280 64 288"/><path fill="#ffd4cf" d="M191.6,296H144.4a20,20,0,0,1-19.612-23.922L136,216h64l11.216,56.078A20,20,0,0,1,191.6,296Z"/><path fill="#fbb8b0" d="M200,216H136l-3.252,16.262,19.1,9.549a36.2,36.2,0,0,0,16.1,3.8h0a36.186,36.186,0,0,0,16.264-3.883L203.22,232.1Z"/><path fill="#ffd4cf" d="M238,120h-6V72H104v48H98a10,10,0,0,0-10,10v20a10,10,0,0,0,10,10h6v21.459a30,30,0,0,0,16.583,26.833L159,227.5a20,20,0,0,0,17.979-.045l38.575-19.534A30,30,0,0,0,232,181.156V160h6a10,10,0,0,0,10-10V130A10,10,0,0,0,238,120Z"/><path fill="#ae7069" d="M168,200c-13.458,0-24-8.785-24-20h16c0,1.41,3.037,4,8,4s8-2.59,8-4h16C192,191.215,181.458,200,168,200Z"/><rect width="192" height="160" x="280" y="304" fill="#d76b4c"/><path fill="#fa5131" d="M264,456H478a10,10,0,0,1,10,10v12a10,10,0,0,1-10,10H264a0,0,0,0,1,0,0V456A0,0,0,0,1,264,456Z"/><path fill="#ffd4cf" d="M240,432H200v56h96A56,56,0,0,0,240,432Z"/><path fill="#ffd4cf" d="M240,432H200v56h96A56,56,0,0,0,240,432Z"/><rect width="16" height="24" x="344" y="344" fill="#fb9d69"/><rect width="16" height="24" x="392" y="344" fill="#fb9d69"/><path fill="#f2f2f2" d="M336,400h80a0,0,0,0,1,0,0v16a40,40,0,0,1-40,40h0a40,40,0,0,1-40-40V400A0,0,0,0,1,336,400Z"/><rect width="32" height="16" x="192" y="384" fill="#f29a49"/><path fill="#fa5131" d="M226,104H208L184,80v24H153L129,80v24H106A10,10,0,0,1,96,94V54a30,30,0,0,1,30-30H256V74A30,30,0,0,1,226,104Z"/><rect width="16" height="16" x="128" y="128" fill="#ae7069"/><rect width="16" height="16" x="192" y="128" fill="#ae7069"/><path fill="#804913" d="M336,320h80a0,0,0,0,1,0,0v22a10,10,0,0,1-10,10H346a10,10,0,0,1-10-10V320A0,0,0,0,1,336,320Z"/><rect width="224" height="80" x="264" y="240" fill="#fa5131" rx="10" ry="10"/><circle cx="312" cy="280" r="16" fill="#b03414"/><circle cx="440" cy="280" r="16" fill="#b03414"/><rect width="16" height="16" x="352" y="264" fill="#b03414"/><rect width="16" height="16" x="384" y="264" fill="#b03414"/><g><rect width="16" height="16" x="128" y="128"/><rect width="16" height="16" x="192" y="128"/><path d="M168,200c-13.458,0-24-8.785-24-20h16c0,1.41,3.037,4,8,4s8-2.59,8-4h16C192,191.215,181.458,200,168,200Z"/><path d="M312,304a24,24,0,1,1,24-24A24.028,24.028,0,0,1,312,304Zm0-32a8,8,0,1,0,8,8A8.009,8.009,0,0,0,312,272Z"/><path d="M440,304a24,24,0,1,1,24-24A24.028,24.028,0,0,1,440,304Zm0-32a8,8,0,1,0,8,8A8.009,8.009,0,0,0,440,272Z"/><rect width="16" height="16" x="352" y="264"/><rect width="16" height="16" x="384" y="264"/><rect width="32" height="16" x="192" y="384"/></g><g><path d="M488,448h-8V376H464v72H411.747A47.809,47.809,0,0,0,424,416V400a8,8,0,0,0-8-8H336a8,8,0,0,0-8,8v16a47.809,47.809,0,0,0,12.253,32H312v16H480v16H320v16H488a8,8,0,0,0,8-8V456A8,8,0,0,0,488,448ZM344,416v-8h64v8a32,32,0,0,1-64,0Z"/><path d="M478,232H274a18.021,18.021,0,0,0-18,18v23.89l-39.285-15.11L209,220.206l10.167-5.149A37.818,37.818,0,0,0,240,181.156V168h6a18.021,18.021,0,0,0,18-18V130a18.021,18.021,0,0,0-18-18h-6v-2.672A38.063,38.063,0,0,0,264,74V24a8,8,0,0,0-8-8H152V32h96V74a22.025,22.025,0,0,1-22,22H211.313L189.657,74.343A8,8,0,0,0,176,80V96H156.313L134.657,74.343A8,8,0,0,0,121,80V96H106a2,2,0,0,1-2-2V54a22.025,22.025,0,0,1,22-22h10V16H126A38.043,38.043,0,0,0,88,54V94a18,18,0,0,0,8,14.96V112H90a18.021,18.021,0,0,0-18,18v20a18.021,18.021,0,0,0,18,18h6v13.459a37.792,37.792,0,0,0,21.006,33.988l9.951,4.976-7.672,38.357L40.358,289.137A38.226,38.226,0,0,0,16,324.6V424H32V324.6A22.13,22.13,0,0,1,46.1,304.07l12.3-4.732L80,392.911V424H64v16H192v40H44a12.013,12.013,0,0,1-12-12V440H16v28a28.032,28.032,0,0,0,28,28H296a8,8,0,0,0,8-8,63.733,63.733,0,0,0-16-42.288V328h40v14a18.026,18.026,0,0,0,16,17.889V376h16V360h32v16h16V359.889A18.026,18.026,0,0,0,424,342V328h40v32h16V327.889A18.026,18.026,0,0,0,496,310V250A18.021,18.021,0,0,0,478,232ZM240,128h6a2,2,0,0,1,2,2v20a2,2,0,0,1-2,2h-6ZM96,152H90a2,2,0,0,1-2-2V130a2,2,0,0,1,2-2h6ZM271.036,327.756c.318.053.64.1.964.133v104.7a63.577,63.577,0,0,0-16-6.564V392.911ZM124.162,201.137A21.881,21.881,0,0,1,112,181.459V112h17a8,8,0,0,0,8-8V99.314l10.343,10.343A8,8,0,0,0,153,112h31a8,8,0,0,0,8-8V99.314l10.343,10.343A8,8,0,0,0,208,112h16v69.156a21.894,21.894,0,0,1-12.062,19.627l-38.573,19.533a12.054,12.054,0,0,1-10.788.028Zm76.722,82.47A11.956,11.956,0,0,1,191.6,288H144.4a12,12,0,0,1-11.767-14.353l9.162-45.807,13.63,6.815a28.12,28.12,0,0,0,25.172-.064l13.59-6.882,9.188,45.937A11.956,11.956,0,0,1,200.884,283.607Zm-84.475-6.577A28.013,28.013,0,0,0,144.4,304H191.6a28.013,28.013,0,0,0,27.987-26.97l11.927,4.587L217.441,352H118.559l-14.077-70.383ZM96,424V392a7.955,7.955,0,0,0-.2-1.8L73.562,293.855,89.8,289.8l14.354,71.773A8,8,0,0,0,112,368H224a8,8,0,0,0,7.845-6.431L246.2,289.8l9.8,2.45V310a17.917,17.917,0,0,0,1.213,6.5l-17.008,73.7A7.955,7.955,0,0,0,240,392v32Zm112,56V440h32a48.078,48.078,0,0,1,47.333,40ZM408,342a2,2,0,0,1-2,2H346a2,2,0,0,1-2-2V328h64Zm72-32a2,2,0,0,1-2,2H274a2,2,0,0,1-2-2V250a2,2,0,0,1,2-2H478a2,2,0,0,1,2,2Z"/></g></g></svg>