<svg xmlns="http://www.w3.org/2000/svg" id="Layer_1" x="0" y="0" version="1.1" viewBox="0 0 128 128" xml:space="preserve"><path fill="#d3d8dd" d="M63,32C63,16.5,50.5,4,35,4S7,16.5,7,32v92h56V32z"/><path fill="#f46e67" d="M123.7 74.8L112 49 80 31 48 49 36.3 74.8 45 74.8 45 124 115 124 115 74.8z"/><path fill="#fff" d="M63 90H97V124H63z"/><path fill="#444b54" d="M64.7,23.1C60.8,10.1,48.6,1,35,1C17.9,1,4,14.9,4,32v80c0,1.7,1.3,3,3,3s3-1.3,3-3V37h38c1.7,0,3-1.3,3-3 s-1.3-3-3-3H10C10.6,17.7,21.6,7,35,7c11,0,20.8,7.3,24,17.9c0.5,1.6,2.1,2.5,3.7,2C64.3,26.4,65.2,24.7,64.7,23.1z"/><path fill="#444b54" d="M123.7,77.8c-1.1,0-2.2-0.7-2.7-1.8l-11.3-24.8L80,34.5L50.3,51.2L39,76c-0.7,1.5-2.5,2.2-4,1.5 c-1.5-0.7-2.2-2.5-1.5-4l11.7-25.7c0.3-0.6,0.7-1.1,1.3-1.4l32-18c0.9-0.5,2-0.5,2.9,0l32,18c0.6,0.3,1,0.8,1.3,1.4l11.7,25.7 c0.7,1.5,0,3.3-1.5,4C124.6,77.7,124.2,77.8,123.7,77.8z"/><path fill="#444b54" d="M124 121h-6V78c0-1.7-1.3-3-3-3s-3 1.3-3 3v43h-12V90c0-1.7-1.3-3-3-3H80c-1.7 0-3 1.3-3 3s1.3 3 3 3h9.8l-9.8 9.8L65.1 87.9C64.6 87.3 63.8 87 63 87c-1.7 0-3 1.3-3 3v31H48V84c0-1.7-1.3-3-3-3s-3 1.3-3 3v37H4c-1.7 0-3 1.3-3 3s1.3 3 3 3h120c1.7 0 3-1.3 3-3S125.7 121 124 121zM94 97.2v19.5l-9.8-9.8L94 97.2zM89.8 121H70.2l9.8-9.8L89.8 121zM66 116.8V97.2l9.8 9.8L66 116.8zM80 72c-5 0-9-4-9-9s4-9 9-9 9 4 9 9S85 72 80 72z"/><path fill="#fff" d="M80 60A3 3 0 1 0 80 66A3 3 0 1 0 80 60Z"/></svg>