<svg xmlns="http://www.w3.org/2000/svg" id="Layer_1" x="0" y="0" version="1.1" viewBox="0 0 128 128" xml:space="preserve"><path fill="#e2bea6" d="M122.1,124l1.1-3.8c0.1-0.5,0.2-1,0.2-1.5c0-1.8-1.4-3.5-2.6-5c-0.4-0.5-0.8-1-1.1-1.4l-0.8-1.1l0.3-1.3 c4.4-19,1.6-38.6-0.9-55.9c-0.2-1.2-0.4-2.5-0.6-3.7l-3-14.9l2-1c0.7-0.4,1.4-0.8,2-1.4c3.1-2.9,3.8-7.4,1.7-11.1 c-1.6-2.9-4.8-4.7-8.3-4.7H27.9c-3.2,0-5.9,2.2-6.4,5.2c-0.4,3.1,1.5,6,4.5,6.8l2.8,0.8l-0.7,2.8c-5.7,24.6-10.3,51-4.5,76.4 l0.3,1.2l-0.6,1c-0.2,0.3-0.4,0.6-0.6,0.9c-1.6,2.5-3.1,2.8-2.6,5.4c0.5,2.5,2.8,3.3,5.5,3.3H56v3H122.1z"/><path fill="#f7ead7" d="M52,55v-8h-8c-8.8,0-16,7.2-16,16c0-8.8-7.2-16-16-16H4v8c0,8.8,7.2,16,16,16c0,0-4.6,0-8,0H9 c-2.8,0-5,2.2-5,5v3c0,8.8,7.2,16,16,16c0,0-4.6,0-8,0H9c-2.8,0-5,2.2-5,5v3c0,8.8,7.2,16,16,16h8h8c8.8,0,16-7.2,16-16v-3 c0-2.8-2.2-5-5-5h-3c-3.4,0-8,0-8,0c8.8,0,16-7.2,16-16v-3c0-2.8-2.2-5-5-5h-3c-3.4,0-8,0-8,0C44.8,71,52,63.8,52,55z"/><path fill="#444b54" d="M118.8 127H71c-1.7 0-3-1.3-3-3s1.3-3 3-3h47.7c1.3 0 2.3-1 2.3-2.3 0-.7-1.1-2.1-2-3.2-.8-1-1.7-2.1-2.3-3.3-.3-.6-.4-1.4-.2-2.1l.2-.8c4.4-18.5 1.6-38.1-1.2-57l-.3-2.2c-.2-1.6.9-3.2 2.5-3.4 1.6-.2 3.2.9 3.4 2.5l.3 2.2c2.8 19.4 5.7 39.4 1.2 58.9.3.4.7.8 1 1.3 1.5 1.8 3.3 4.1 3.3 7C127.1 123.3 123.4 127 118.8 127zM84.3 36.3c-.1 0-.1 0-.2 0L51.8 34c-1.7-.1-2.9-1.5-2.8-3.2s1.5-2.9 3.2-2.8l32.3 2.3c1.7.1 2.9 1.5 2.8 3.2C87.2 35 85.9 36.3 84.3 36.3z"/><path fill="#444b54" d="M113 14.1h-5C91 3.3 70.3.7 51.1 7 49.8 7.4 49 8.5 49 9.8l0 7.3c0 .8.3 1.6.9 2.1.6.6 1.3.9 2.1.9h0 61c3.3 0 6.1 2.7 6.1 6.1 0 1.7-.7 3.3-1.9 4.4-1.2 1.2-2.9 1.7-4.6 1.6l-10.4-.7c-1.7-.1-3.1 1.1-3.2 2.8s1.1 3.1 2.8 3.2l10.4.7c.3 0 .6 0 .8 0 3 0 6-1.2 8.2-3.2 2.4-2.3 3.8-5.5 3.8-8.8C125.1 19.5 119.7 14.1 113 14.1zM16 37c-1.7 0-3-1.3-3-3V14c0-1.7 1.3-3 3-3s3 1.3 3 3v20C19 35.7 17.7 37 16 37zM40 37c-1.7 0-3-1.3-3-3V14c0-1.7 1.3-3 3-3s3 1.3 3 3v20C43 35.7 41.7 37 40 37z"/><path fill="#444b54" d="M36 74c10.5 0 19-8.5 19-19v-8c0-1.7-1.3-3-3-3h-8c-5 0-9.6 2-13 5.2V4c0-1.7-1.3-3-3-3s-3 1.3-3 3v45.2C21.6 46 17 44 12 44H4c-1.7 0-3 1.3-3 3v8c0 10.5 8.5 19 19 19h5v18h-5c-7.2 0-13-5.8-13-13v-3c0-1.7-1.3-3-3-3s-3 1.3-3 3v3c0 10.5 8.5 19 19 19h5v18h-5c-7.2 0-13-5.8-13-13v-2c0-1.7-1.3-3-3-3s-3 1.3-3 3v2c0 10.5 8.5 19 19 19h5v2c0 1.7 1.3 3 3 3s3-1.3 3-3v-2h5c10.5 0 19-8.5 19-19v-3c0-1.7-1.3-3-3-3s-3 1.3-3 3v3c0 7.2-5.8 13-13 13h-5V98h5c10.5 0 19-8.5 19-19v-3c0-1.7-1.3-3-3-3s-3 1.3-3 3v3c0 7.2-5.8 13-13 13h-5V74H36zM44 50h5v5c0 7.2-5.8 13-13 13h-5v-5C31 55.8 36.8 50 44 50zM7 55v-5h5c7.2 0 13 5.8 13 13v5h-5C12.8 68 7 62.2 7 55zM56 121A3 3 0 1 0 56 127 3 3 0 1 0 56 121z"/></svg>