<svg xmlns="http://www.w3.org/2000/svg" viewBox="0 0 128 128"><path fill="#fff" d="M122,104.3v3H22v-70c0-5.5,4.5-13,10-13h70l0,0C114.9,40.5,122,83.6,122,104.3z"/><path fill="#fff" d="M114,52.3H99c-5.5,0-10-4.5-10-10v-18h13L114,52.3z"/><path fill="#444b54" d="M113,55.3H99c-3.8,0-7.5-1.7-10-4.6c-1.1-1.3-0.9-3.2,0.4-4.2c1.3-1.1,3.2-0.9,4.2,0.4c1.3,1.6,3.3,2.5,5.4,2.5h14c1.7,0,3,1.3,3,3S114.7,55.3,113,55.3z"/><path fill="#444b54" d="M122,110.3H22c-1.7,0-3-1.3-3-3v-58c0-1.7,1.3-3,3-3s3,1.3,3,3v55h94c0-22-7.5-63.4-19.3-78.1c-1-1.3-0.8-3.2,0.5-4.2c1.3-1,3.2-0.8,4.2,0.5c13.8,17.2,20.7,61.8,20.7,81.9v3C125,109,123.7,110.3,122,110.3z"/><path fill="#444b54" d="M110 27.3H47c-1.7 0-3-1.3-3-3s1.3-3 3-3h63c1.7 0 3 1.3 3 3S111.7 27.3 110 27.3zM122 110.3H18c-1.7 0-3-1.3-3-3s1.3-3 3-3h104c1.7 0 3 1.3 3 3S123.7 110.3 122 110.3z"/><path fill="#fff" d="M37.9 101.80000000000001A9.6 9.6 0 1 0 37.9 121A9.6 9.6 0 1 0 37.9 101.80000000000001Z"/><g><path fill="#fff" d="M101.9 101.80000000000001A9.6 9.6 0 1 0 101.9 121A9.6 9.6 0 1 0 101.9 101.80000000000001Z"/></g><g><path fill="#444b54" d="M37.9,124c-7,0-12.6-5.7-12.6-12.6s5.7-12.6,12.6-12.6s12.6,5.7,12.6,12.6S44.8,124,37.9,124z M37.9,104.8c-3.7,0-6.6,3-6.6,6.6s3,6.6,6.6,6.6c3.7,0,6.6-3,6.6-6.6S41.5,104.8,37.9,104.8z"/></g><g><path fill="#444b54" d="M101.9,124c-7,0-12.6-5.7-12.6-12.6s5.7-12.6,12.6-12.6s12.6,5.7,12.6,12.6S108.8,124,101.9,124z M101.9,104.8c-3.7,0-6.6,3-6.6,6.6s3,6.6,6.6,6.6c3.7,0,6.6-3,6.6-6.6S105.5,104.8,101.9,104.8z"/></g><g><path fill="#cadbea" d="M74.8,60.3V41.6c0-2.8-2.2-5-5-5h-31c-2.8,0-5,2.2-5,5v18.7c0,2.8,2.2,5,5,5h31C72.5,65.3,74.8,63.1,74.8,60.3z"/><path fill="#6acef5" d="M92.4,24.3v11c0,2.8-2.2,5-5,5H21.2c-2.8,0-5-2.2-5-5v-11H92.4z"/><path fill="#f17786" d="M93.4,24.3v11c0,2.8-2.2,5-5,5H20.2c-2.8,0-5-2.2-5-5v-11H93.4z"/><path fill="#fff" d="M51.3 25.1H57.3V40.3H51.3zM36.3 25.1H42.3V40.3H36.3zM21.3 25.1H27.3V40.3H21.3zM66.3 25.1H72.3V40.3H66.3zM81.3 25.1H87.3V40.3H81.3z"/><path fill="#444b54" d="M88.4,43.3c-1.7,0-3-1.3-3-3s1.3-3,3-3c1.1,0,2-0.9,2-2v-8H18.2v8c0,1.1,0.9,2,2,2c1.7,0,3,1.3,3,3s-1.3,3-3,3c-4.4,0-8-3.6-8-8v-11c0-1.7,1.3-3,3-3h78.2c1.7,0,3,1.3,3,3v11C96.4,39.7,92.8,43.3,88.4,43.3z"/><path fill="#444b54" d="M27.4 43.3h-6.2c-1.7 0-3-1.3-3-3s1.3-3 3-3h6.2c1.7 0 3 1.3 3 3S29 43.3 27.4 43.3zM42.4 43.3h-6.2c-1.7 0-3-1.3-3-3s1.3-3 3-3h6.2c1.7 0 3 1.3 3 3S44 43.3 42.4 43.3zM57.4 43.3h-6.2c-1.7 0-3-1.3-3-3s1.3-3 3-3h6.2c1.7 0 3 1.3 3 3S59 43.3 57.4 43.3zM72.4 43.3h-6.2c-1.7 0-3-1.3-3-3s1.3-3 3-3h6.2c1.7 0 3 1.3 3 3S74 43.3 72.4 43.3zM87.4 43.3h-6.2c-1.7 0-3-1.3-3-3s1.3-3 3-3h6.2c1.7 0 3 1.3 3 3S89 43.3 87.4 43.3z"/></g><g><path fill="#444b54" d="M101.9,124h-84c-1.7,0-3-1.3-3-3s1.3-3,3-3h84c1.7,0,3,1.3,3,3S103.5,124,101.9,124z"/></g><g><path fill="#444b54" d="M5.9,124c-0.2,0-0.4,0-0.6-0.1c-0.2,0-0.4-0.1-0.6-0.2c-0.2-0.1-0.4-0.2-0.5-0.3c-0.2-0.1-0.3-0.2-0.5-0.4c-0.1-0.1-0.3-0.3-0.4-0.4c-0.1-0.2-0.2-0.3-0.3-0.5C3,122,3,121.8,2.9,121.6c0-0.2-0.1-0.4-0.1-0.6c0-0.2,0-0.4,0.1-0.6c0-0.2,0.1-0.4,0.2-0.6c0.1-0.2,0.2-0.3,0.3-0.5c0.1-0.2,0.2-0.3,0.4-0.5c0.1-0.1,0.3-0.3,0.5-0.4c0.2-0.1,0.3-0.2,0.5-0.3c0.2-0.1,0.4-0.1,0.6-0.2c1-0.2,2,0.1,2.7,0.8c0.1,0.1,0.3,0.3,0.4,0.5c0.1,0.2,0.2,0.3,0.3,0.5c0.1,0.2,0.1,0.4,0.2,0.6c0,0.2,0.1,0.4,0.1,0.6c0,0.2,0,0.4-0.1,0.6c0,0.2-0.1,0.4-0.2,0.6c-0.1,0.2-0.2,0.4-0.3,0.5c-0.1,0.2-0.2,0.3-0.4,0.4C7.4,123.7,6.7,124,5.9,124z"/></g><g><path fill="#444b54" d="M90.4,43.3h-3.1c-1.7,0-3-1.3-3-3s1.3-3,3-3h3.1c1.7,0,3,1.3,3,3S92,43.3,90.4,43.3z"/></g></svg>