<svg xmlns="http://www.w3.org/2000/svg" viewBox="0 0 128 128"><path fill="#e8ae82" d="M28,95.7c-0.8,3.6-5.7,4.3-7.2,0.9v-0.1c-0.8-1.7-1.4-3.5-1.9-5.3c-0.3-0.9-0.4-1.8-0.6-2.8 c-0.2-0.9-0.4-1.9-0.5-2.9c-0.7-7.7,0.8-16,4.7-23.3s9.9-13.7,17.3-18.1c7.4-4.3,16.1-6.7,24.8-6.6c8.7,0.1,17.3,2.6,24.7,7.1 c7.3,4.6,13.2,11,16.9,18.5c3.7,7.4,5.1,15.7,4.1,23.4l-0.5,2.9c-0.2,0.9-0.3,1.9-0.6,2.8c-0.6,1.8-1.2,3.6-2,5.3 c0,0.1-0.1,0.1-0.1,0.2c-1.6,3.3-6.5,2.6-7.2-1.1c-1.8-9.4-6-16.7-11.2-21.9c-3.5-3.5-7.4-6-11.5-7.8c-4.1-1.7-8.4-2.5-12.8-2.7 c-4.4-0.1-8.7,0.8-12.9,2.4c-0.5,0.1-1,0.4-1.5,0.7c-0.5,0.2-1.1,0.4-1.6,0.7c-0.9,0.6-2.1,1-3,1.7c-0.5,0.3-1,0.6-1.5,1 s-0.9,0.7-1.4,1.1c-1,0.7-1.8,1.6-2.8,2.4c-3.5,3.4-6.6,7.7-8.9,12.9c-0.6,1.3-1,2.7-1.5,4.1s-0.8,2.9-1.2,4.4 C28.1,95.6,28,95.7,28,95.7z"/><path fill="#ffc697" d="M28,95.7c-0.8,3.6-5.7,4.3-7.2,0.9v-0.1c-0.8-1.7-1.4-3.5-1.9-5.3c-0.3-0.9-0.4-1.8-0.6-2.8 c-0.2-0.9-0.4-1.9-0.5-2.9c-0.7-7.7,0.8-16,4.7-23.3s9.9-13.7,17.3-18.1c7.4-4.3,16.1-6.7,24.8-6.6c8.7,0.1,17.3,2.6,24.7,7.1 c7.3,4.6-8.1,24-12.2,22.2c-4.1-1.7-8.4-2.5-12.8-2.7c-4.4-0.1-8.7,0.8-12.9,2.4c-0.5,0.1-1,0.4-1.5,0.7c-0.5,0.2-1.1,0.4-1.6,0.7 c-0.9,0.6-2.1,1-3,1.7c-0.5,0.3-1,0.6-1.5,1s-0.9,0.7-1.4,1.1c-1,0.7-1.8,1.6-2.8,2.4c-3.5,3.4-6.6,7.7-8.9,12.9 c-0.6,1.3-1,2.7-1.5,4.1S28.4,94,28,95.5C28.1,95.6,28,95.7,28,95.7z"/><path fill="#ba7879" d="M29.5 77.9c-2.4 2.3-9.6 8-1.5 17.9 0 0 0-.1 0-.2.4-1.5.7-3 1.2-4.4s1-2.8 1.5-4.1c1.8-4 1.2-4.3 3.8-7.3C34.1 79.9 30.5 77.1 29.5 77.9zM107.1 97.7c0-.1.1-.1.1-.2.8-1.7 1.4-3.4 2-5.3.3-.9.5-1.8.6-2.8l.5-2.9c.4-3.4.4-6.9-.1-10.4l-.5-2.6-16.2 6.1 2.1 4.5C111.2 83.8 105.5 101 107.1 97.7z"/><path fill="#3f4a54" d="M28.1,98.6c-0.2,0-0.4,0-0.7-0.1c-1.6-0.4-2.6-2-2.3-3.6c0.3-1.4,0.7-3.1,1.3-4.7v-0.1 c0.2-0.5,0.3-0.9,0.5-1.4c0.3-0.9,0.7-1.9,1.1-2.9c2.4-5.4,5.6-10,9.6-13.9c1.2-1.2,3.1-1.1,4.2,0.1c1.2,1.2,1.1,3.1-0.1,4.2 c-3.4,3.3-6.2,7.4-8.2,12c-0.3,0.8-0.6,1.6-0.9,2.5c-0.2,0.5-0.3,0.9-0.5,1.4c-0.4,1.4-0.8,2.8-1.1,4.1 C30.7,97.6,29.4,98.6,28.1,98.6z"/><path fill="#3f4a54" d="M24.2 101.9c-2.7 0-5-1.5-6.1-4-.7-1.5 0-3.3 1.5-4s3.3 0 3.9 1.5c.1.2.2.6.8.5.3 0 .7-.2.8-.7V95c.4-1.6 2-2.6 3.6-2.3 1.6.4 2.6 2 2.3 3.6v.1c-.6 3-3.1 5.2-6.1 5.5C24.7 101.9 24.4 101.9 24.2 101.9zM103.7 102.8c-.3 0-.6 0-.9-.1-3-.4-5.3-2.6-5.9-5.6C95.4 89 91.8 82 86.5 76.7c-1.2-1.2-1.2-3.1 0-4.2 1.2-1.2 3.1-1.2 4.2 0 6.1 6.1 10.3 14.3 12 23.5.1.6.5.7.8.7.6.1.7-.3.8-.4l.1-.1c.7-1.5 2.5-2.1 4-1.4s2.1 2.5 1.4 4l-.1.2C108.6 101.4 106.3 102.8 103.7 102.8z"/><path fill="#3f4a54" d="M107.1,100.6c-0.4,0-0.9-0.1-1.3-0.3c-1.5-0.7-2.1-2.5-1.4-4c0.6-1.3,1.2-2.8,1.8-4.8 c0.3-0.8,0.4-1.7,0.6-2.4l0.5-2.8c0.9-7.1-0.4-14.7-3.8-21.7c-0.7-1.5-0.1-3.3,1.4-4s3.3-0.1,4,1.4c3.9,8,5.5,16.9,4.4,25.2v0.1 l-0.5,2.9c-0.2,0.9-0.4,2-0.7,3.2c-0.7,2.3-1.4,4.1-2.2,5.7C109.3,99.9,108.2,100.6,107.1,100.6z M110.3,86.7L110.3,86.7L110.3,86.7 z"/><path fill="#e8ae82" d="M64,34.9c-21.2,0-39.7,11.9-49.2,29.4c-1.9,3.5-0.2,8,3.5,9.4L36,80.3c2.9,1.1,6.2,0,7.9-2.6 c4.3-6.5,11.6-10.8,20-10.8s15.7,4.3,20,10.8c1.7,2.6,5,3.7,7.9,2.6l17.7-6.6c3.8-1.4,5.5-5.8,3.5-9.4C103.7,46.8,85.2,34.9,64,34.9 z"/><path fill="#ffc697" d="M64,34.9c-21.2,0-39.7,11.9-49.2,29.4c-1.9,3.5-0.2,8,3.5,9.4L36,80.3c2.9,1.1,6.2,0,7.9-2.6 c4.3-6.5,11.6-10.8,20-10.8S85.2,34.9,64,34.9z"/><path fill="#ba7879" d="M42.5,79.3c3.8-5.8,10.4-9.2,10.4-9.2l-3.6-6.9C29.5,73.7,42.5,79.3,42.5,79.3z"/><path fill="#3f4a54" d="M44,80.7c-0.6,0-1.1-0.2-1.6-0.5c-1.4-0.9-1.8-2.8-0.9-4.2c5-7.6,13.4-12.2,22.5-12.2 c1.7,0,3,1.3,3,3s-1.3,3-3,3c-7.1,0-13.6,3.5-17.5,9.5C45.9,80.2,45,80.7,44,80.7z"/><path fill="#ba7879" d="M90,41.9L75.2,69.7l7.3,5.5l6.1,5.2L88,76.2c-0.8-5.7,0.4-11.4,3.2-16.4l7.3-12.9L90,41.9z"/><path fill="#3f4a54" d="M89.6 83.8c-3.2 0-6.2-1.6-8.1-4.4-3.9-5.9-10.4-9.5-17.5-9.5-1.7 0-3-1.3-3-3s1.3-3 3-3c9.1 0 17.5 4.6 22.5 12.2 1 1.5 2.8 2.1 4.4 1.5l17.7-6.6c1-.4 1.8-1.2 2.2-2.2.4-1 .3-2.1-.2-3C101.3 48.6 83.4 37.9 64 37.9c-1.7 0-3-1.3-3-3s1.3-3 3-3c21.6 0 41.5 11.9 51.8 31 1.3 2.4 1.5 5.3.5 7.9s-3 4.7-5.7 5.7L93 83.2C91.9 83.6 90.7 83.8 89.6 83.8zM38.4 83.8c-1.1 0-2.3-.2-3.4-.6l-17.7-6.6c-2.6-1-4.7-3-5.7-5.7-1-2.6-.8-5.5.5-7.9 3.8-7 8.8-13 14.9-18 1.3-1 3.2-.8 4.2.4 1 1.3.8 3.2-.4 4.2-5.5 4.5-10 9.9-13.4 16.1-.5.9-.6 2-.2 3s1.2 1.8 2.2 2.2l17.7 6.6c1.6.6 3.4 0 4.4-1.5.9-1.4 2.8-1.8 4.2-.9s1.8 2.8.9 4.2C44.6 82.2 41.6 83.8 38.4 83.8zM20.8 99.6c-1.1 0-2.2-.6-2.7-1.7-.8-1.6-1.4-3.5-2-5.8-.2-.8-.4-1.5-.5-2.2 0-.3-.1-.5-.1-.8V89c0-.3-.1-.6-.1-.8-.1-.7-.3-1.5-.3-2.3-.1-1.7 1.1-3.1 2.8-3.2 1.6-.1 3.1 1.1 3.2 2.8 0 .5.1 1 .2 1.6.1.3.1.6.2.9s.1.6.2.8c.1.6.2 1.2.3 1.7.6 2 1.1 3.5 1.7 4.9.7 1.5 0 3.3-1.5 4C21.6 99.5 21.2 99.6 20.8 99.6z"/><path fill="#e2a583" d="M64,26.9c-8.2,0-16,1.6-23.2,4.4c-2.7,1.1-4.2,3.6-4.2,6.3c0,1,0.2,2.1,0.7,3l16.5,31.1 c1.2,2.2,3.4,3.5,5.8,3.5c0.4,0,0.9,0,1.3-0.1c1-0.2,2-0.3,3.1-0.3c1.1,0,2.1,0.1,3.1,0.3c0.4,0.1,0.8,0.1,1.3,0.1 c2.4,0,4.7-1.4,5.8-3.5l16.5-31.1c0.5-1,0.8-2,0.8-3.1c0-2.7-1.6-5.2-4.3-6.2C80,28.5,72.2,26.9,64,26.9"/><path fill="#ffc697" d="M40.8,31.3c-3.7,1.5-5.3,5.8-3.5,9.3l14,26.4c9.2-6.3,15.3-17.8,15.3-30.9c0-3.2-0.4-6.2-1-9.2 c-0.6,0-1.1,0-1.7,0C55.8,26.9,48,28.5,40.8,31.3z"/><path fill="#ba7879" d="M54.7,69.8V70c0.1,1.7,0.8,3.3,2.1,4.3c1.1,0.9,2.4,1.2,4.1,0.9c1-0.2,2-0.3,3.1-0.3c1,0,2,0.1,3,0.3 c2.9,0.5,5.7-0.7,7.1-3.3l4.6-8.6H61C57.4,63.2,54.5,66.2,54.7,69.8z"/><path fill="#fff" d="M52.1 37.2c-1.4 0-2.6-1-2.9-2.4-.3-1.6.7-3.2 2.3-3.6 6.5-1.4 13.3-1.6 19.9-.8 1.6.2 2.8 1.7 2.6 3.3-.2 1.6-1.7 2.8-3.3 2.6-5.9-.7-12.1-.5-17.9.8C52.5 37.1 52.3 37.2 52.1 37.2zM43 39.9c-1.2 0-2.4-.7-2.9-1.9-.6-1.5.3-3.3 1.8-3.9 1.5-.6 3.3.1 3.9 1.7.6 1.5-.2 3.3-1.8 3.9l0 0C43.7 39.8 43.3 39.9 43 39.9zM43 36.9L43 36.9 43 36.9zM41.9 34.1L41.9 34.1 41.9 34.1z"/><path fill="#3f4a54" d="M60.4,78.2c-5.4,0-8-2.7-9.2-5L34.7,42c-1.3-2.4-1.5-5.3-0.5-7.9s3-4.6,5.5-5.6 c7.8-3,15.9-4.6,24.3-4.6s16.5,1.5,24.3,4.6c2.6,1,4.6,3.1,5.5,5.7c1,2.6,0.8,5.5-0.5,7.9l-16.5,31c-2.4,4.5-6.7,5-9.7,5H61 C60.8,78.2,60.6,78.2,60.4,78.2z M64,29.9c-7.6,0-15.1,1.4-22.1,4.2c-1,0.4-1.7,1.2-2.1,2.1c-0.4,1-0.3,2.1,0.2,3l16.5,31.1 c0.5,1,1.4,1.9,4.3,1.8h0.1h6.2c3.2,0,3.9-0.9,4.4-1.8L88,39.2c0.5-0.9,0.6-2,0.2-3s-1.1-1.8-2.1-2.1C79.1,31.3,71.6,29.9,64,29.9z"/><path fill="#fff" d="M26 61.5c-.7 0-1.4-.2-1.9-.7-1.3-1.1-1.4-3-.3-4.2 1.7-2 3.6-3.9 5.6-5.7 1.2-1.1 3.1-1 4.2.3 1.1 1.3 1 3.1-.3 4.2-1.8 1.5-3.4 3.2-5 5C27.7 61.1 26.9 61.5 26 61.5zM21.3 68c-.6 0-1.1-.2-1.6-.5-1.2-.8-2-2.5-.9-4.2s2.9-1.8 4.2-1.1c1.2.8 2 2.5.9 4.2 0 0 0 0 0 .1C23.2 67.6 22.2 68 21.3 68zM21.4 64.9L21.4 64.9 21.4 64.9zM18.8 63.4l.3.2L18.8 63.4z"/></svg>