<svg xmlns="http://www.w3.org/2000/svg" viewBox="0 0 128 128"><path fill="#fff" d="M23.7,119h80.7c5.1,0,9.2-4.1,9.2-9.2v-55h-99v55C14.5,114.9,18.6,119,23.7,119z"/><path fill="#fff" d="M21.7,119h85.9c3.3,0,6-2.7,6-6V54.8h-99v57C14.5,116.9,16.6,119,21.7,119"/><path fill="#e7e7e7" d="M113.5,64h-9.2H14.6v6.2l89.7,6v33.7c0,4.6-3.4,8.4-7.8,9.1h9.2c4.4-0.7,7.8-4.5,7.8-9.1V73.2V64"/><path fill="#f37c7e" d="M9,64h110V45.7c0-5.1-4.1-9.2-9.2-9.2H18.2c-5.1,0-9.2,4.1-9.2,9.2V64"/><path fill="#dc7173" d="M109.8,36.5h-9.1c5,0,9.1,4.1,9.2,9.2V64h9.1V45.7C119,40.6,114.9,36.5,109.8,36.5"/><path fill="#464c55" d="M108.9,122H19.1c-4.2,0-7.6-3.4-7.6-7.6V64c0-1.7,1.3-3,3-3s3,1.3,3,3v50.4c0,0.9,0.7,1.6,1.6,1.6 h89.8c0.9,0,1.6-0.7,1.6-1.6V64c0-1.7,1.3-3,3-3s3,1.3,3,3v50.4C116.5,118.6,113.1,122,108.9,122z"/><path fill="#464c55" d="M119,67H9c-1.7,0-3-1.3-3-3V46.5c0-7.2,5.8-13,13-13h90c7.2,0,13,5.8,13,13V64 C122,65.7,120.7,67,119,67z M12,61h104V46.5c0-3.9-3.1-7-7-7H19c-3.9,0-7,3.1-7,7V61z"/><path fill="#464c55" d="M77.8,39.5H64c-1.7,0-3-1.3-3-3V23c0-9.4,7.5-17,16.8-17s16.8,7.6,16.8,17 C94.5,32.2,87.1,39.5,77.8,39.5z M67,33.5h10.8c6,0,10.8-4.6,10.8-10.5c0-6.1-4.8-11-10.8-11S67,16.9,67,23V33.5z"/><path fill="#464c55" d="M64,39.5H50.2c-9.4,0-16.8-7.2-16.8-16.5c0-9.4,7.5-17,16.8-17S67,13.6,67,23v13.5 C67,38.2,65.7,39.5,64,39.5z M50.2,12c-5.9,0-10.8,4.9-10.8,11c0,5.9,4.7,10.5,10.8,10.5H61V23C61,16.9,56.2,12,50.2,12z"/><path fill="#464c55" d="M64.2,122c-1.7,0-3-1.3-3-3L61,36.5c0-1.7,1.3-3,3-3l0,0c1.7,0,3,1.3,3,3l0.2,82.5 C67.2,120.6,65.9,122,64.2,122L64.2,122z"/></svg>