<svg xmlns="http://www.w3.org/2000/svg" id="Layer_1" x="0" y="0" version="1.1" viewBox="0 0 128 128" xml:space="preserve"><path fill="#fff" d="M16,61L16,61l0,48c0,8.3,6.7,15,15,15h45c8.3,0,15-6.7,15-15V61h0c3.3,0,6-2.7,6-6v0c0-3.3-2.7-6-6-6H16 c-3.3,0-6,2.7-6,6v0C10,58.3,12.7,61,16,61z"/><path fill="#b8e4ff" d="M76,121H31c-1.7,0-3-1.3-3-3s1.3-3,3-3h45c3.3,0,6-2.7,6-6V61c0-1.7,1.3-3,3-3s3,1.3,3,3v48 C88,115.6,82.6,121,76,121z"/><path fill="#ff6b57" d="M91,64H28c-1.7,0-3-1.3-3-3s1.3-3,3-3h63c1.7,0,3,1.3,3,3S92.7,64,91,64z"/><path fill="#444b54" d="M66.3 40c-1.1 0-2.1-.6-2.6-1.6l-1.1-2.1c-5.1-9.4-4-20.9 2.6-29.2 1-1.3 2.9-1.5 4.2-.5 1.3 1 1.5 2.9.5 4.2-5.2 6.5-6 15.3-2 22.6l1.1 2.1c.8 1.5.2 3.3-1.2 4.1C67.3 39.9 66.8 40 66.3 40zM52.9 40c-1.1 0-2.1-.6-2.6-1.6l-1.1-2.1c-2.2-4.1-3.3-8.7-3.2-13.4.1-1.7 1.4-3 3.1-2.9 1.7.1 3 1.4 2.9 3.1-.1 3.6.7 7.2 2.4 10.4l1.1 2.1c.8 1.5.2 3.3-1.2 4.1C53.9 39.9 53.4 40 52.9 40zM94 94h12c9.9 0 18-8.1 18-18s-8.1-18-18-18c-1.7 0-3 1.3-3 3s1.3 3 3 3c6.6 0 12 5.4 12 12s-5.4 12-12 12H94V63.5c3.5-1.2 6-4.6 6-8.5 0-5-4-9-9-9H16c-5 0-9 4-9 9 0 3.9 2.5 7.2 6 8.5V109c0 9.9 8.1 18 18 18h44.6H76h30c1.7 0 3-1.3 3-3s-1.3-3-3-3H89.4c2.9-3.2 4.6-7.4 4.6-12V94zM91 58c-1.7 0-3 1.3-3 3v48c0 6.6-5.4 12-12 12h-.4H31c-6.6 0-12-5.4-12-12V61c0-1.7-1.3-3-3-3-1.7 0-3-1.3-3-3s1.3-3 3-3h75c1.7 0 3 1.3 3 3S92.7 58 91 58zM39 34A3 3 0 1 0 39 40 3 3 0 1 0 39 34zM121 121A3 3 0 1 0 121 127 3 3 0 1 0 121 121z"/></svg>