<svg xmlns="http://www.w3.org/2000/svg" viewBox="0 0 128 128"><path fill="#f288b7" d="M82,109H46c-9.9,0-18-8.1-18-18.1v-28c0-12.4,7-23.8,18-29.3h36c11,5.6,18,16.9,18,29.3v27.9 C99.9,100.9,91.9,109,82,109"/><path fill="#d97aa4" d="M82,33.6H67.3c11,5.6,18,16.9,18,29.3v27.9c0,10-8,18.101-18,18.101H82 c6.448,0,12.133-3.437,15.313-8.596c1.674-2.761,2.653-6.013,2.687-9.504l0,0V62.9l0,0c-0.1-12.394-6.993-23.689-17.984-29.292 C82.011,33.606,82.005,33.603,82,33.6"/><path fill="#9e5684" d="M99.9,87.9c-0.4-0.2-0.8-0.2-1.2-0.2c-0.9,0-1.8,0.4-2.3,1.1c-0.8-1.4-2.2-2.4-4-2.4 c-2,0-3.6,1.3-4.2,3.1c-0.6-2.5-2.9-4.4-5.7-4.4c-2,0-3.8,1-4.8,2.6c-1.2-2.6-3.8-4.4-6.9-4.4c-3.7,0-6.7,2.6-7.5,6.1 c-0.4-0.4-0.9-0.6-1.5-0.6c-0.5,0-0.9,0.1-1.2,0.4c-0.8-2.1-2.7-3.6-5-3.6c-2.2,0-4.1,1.3-4.9,3.2c-0.6-0.6-1.4-1-2.3-1 c-1,0-1.9,0.5-2.5,1.3c-0.8-2.8-3.4-4.9-6.5-4.9c-2.5,0-4.8,1.4-5.9,3.5c-0.8-0.8-1.9-1.3-3.1-1.3c-0.9,0-1.7,0.3-2.4,0.7v3.8 c0,0.5,0,1,0.1,1.6c0,0.2,0,0.3,0,0.5c0,0.4,0.1,0.8,0.2,1.2c0.1,0.3,0.1,0.6,0.2,0.9l0,0l0,0c1.8,8,9,14,17.5,14h36 c9.4,0,17.1-7.3,17.9-16.6c0-0.5,0.1-1,0.1-1.6v-3H99.9z"/><path fill="#fff" d="M37.1,26.8c0-3.8,3-6.8,6.7-6.8h40.4c3.7,0,6.7,3,6.7,6.8c0,3.8-3,6.8-6.7,6.8H43.8 C40.1,33.6,37.1,30.6,37.1,26.8"/><path fill="#e5e5e5" d="M84.2,20h-9.8c3.699,0,6.699,3,6.699,6.8c0,3.8-3,6.8-6.699,6.8h9.8c3.7,0,6.7-3,6.7-6.8 C90.9,23,87.9,20,84.2,20"/><path fill="#454b54" d="M82,112H46c-11.6,0-21-9.5-21-21.1v-28c0-13.6,7.5-25.9,19.6-32c0.4-0.2,0.9-0.3,1.4-0.3h36 c0.5,0,0.9,0.1,1.4,0.3C95.5,37,103,49.3,103,62.9v27.9C102.9,102.5,93.5,112,82,112z M46.8,36.6c-9.7,5.2-15.7,15.2-15.7,26.3v27.9 c0,8.3,6.7,15.1,15,15.1H82c8.3,0,15-6.8,15-15.1V62.9c0-11.1-6-21.2-15.7-26.3C81.3,36.6,46.8,36.6,46.8,36.6z"/><path fill="#fff" d="M84.3,33.6l14.3,7.2c1.4,0.7,1.301,2.7-0.199,3.3l-3.7,1.5c-2.601,1-5.601,0.9-8.101-0.4l-0.5-0.3 c-2.8-1.4-6.199-1.4-9,0c-2.8,1.4-6.199,1.4-9,0c-2.8-1.4-6.2-1.4-9,0c-2.8,1.4-6.2,1.4-9,0c-2.8-1.4-6.2-1.4-9,0l-0.4,0.2 c-2.6,1.3-5.7,1.4-8.4,0.3l-2.9-1.2c-1.4-0.6-1.5-2.6-0.1-3.3l14.5-7.3H84.3"/><path fill="#e5e5e5" d="M84.2,33.6h-5.9L86.9,45l0.3,0.2c1.386,0.693,2.914,1.045,4.448,1.056 c1.042-0.06,2.075-0.28,3.052-0.656l3.7-1.5c1.12-0.448,1.459-1.675,0.977-2.561c-0.159-0.259-0.385-0.482-0.677-0.64L84.2,33.6"/><path fill="#fff" d="M38,73.1c-1.6,0-2.9-1.3-2.9-3v-8.2c0-1.6,1.3-3,2.9-3s2.9,1.3,2.9,3v8.2C41,71.7,39.7,73.1,38,73.1z"/><path fill="#454b54" d="M100.1,38.3l-2.9-1.7h2.7c1.7,0,3-1.3,3-3s-1.3-3-3-3h-6.7c0.5-1.2,0.8-2.5,0.8-3.8 c0-5.4-4.4-9.8-9.7-9.8H43.8c-5.4,0-9.7,4.4-9.7,9.8c0,2.7,1.1,5.1,2.8,6.9l-8.8,4.4c-1.7,0.9-2.7,2.6-2.6,4.5s1.3,3.6,3.1,4.3 l3.7,1.5c1.5,0.6,3.1,0.9,4.7,0.9c2,0,4-0.5,5.8-1.4l0.5-0.3c2-1,4.3-1,6.3,0c3.7,1.8,8,1.8,11.7,0c2-1,4.3-1,6.3,0 c3.7,1.8,8,1.8,11.7,0c2-1,4.3-1,6.3,0l0.4,0.2c3.4,1.7,7.4,1.9,10.9,0.4l2.9-1.2c1.7-0.7,2.9-2.4,2.9-4.3 C102.7,40.8,101.8,39.1,100.1,38.3z M43.8,23h40.4c2.1,0,3.7,1.7,3.7,3.8s-1.7,3.8-3.7,3.8H43.8c-2.1,0-3.7-1.7-3.7-3.8 S41.7,23,43.8,23z M94.5,42.6c-1.9,0.8-4,0.7-5.8-0.2l-0.4-0.2c-3.7-1.8-8-1.8-11.7,0c-2,1-4.3,1-6.3,0c-3.7-1.8-8-1.8-11.7,0 c-2,1-4.3,1-6.3,0c-3.7-1.8-8-1.8-11.7,0l-0.5,0.3c-1.8,0.9-3.8,1-5.7,0.3l-1.3-0.5l11.3-5.7h39.7c0.4,0,0.7,0,1-0.1l9.9,5.8 L94.5,42.6z"/><path fill="#454b54" d="M86.2,36.6c-1.1,0-2.2-0.6-2.7-1.7c-0.7-1.5-0.1-3.3,1.4-4l13.8-6.8c1.5-0.7,3.3-0.1,4,1.4 s0.1,3.3-1.4,4l-13.8,6.8C87.1,36.5,86.6,36.6,86.2,36.6z"/></svg>