<svg xmlns="http://www.w3.org/2000/svg" viewBox="0 0 128 128"><path fill="#FFEC7B" d="M64.9,98.4l0-22.1l0-21.2H10.8v38.3c0,2.8,2.2,5,5,5H64.9z"/><path fill="#EFC71D" d="M64,84.6H10.8v8.8c0,2.8,2.2,5,5,5H64V84.6z"/><path fill="#EFC71D" d="M64.9,76.7c-1.8,0-3.5,0-5.3-0.1c-3-0.1-5.6,2.3-5.6,5.4L54,114.9c0,2.7,2.1,4.9,4.7,5c2,0.1,4.1,0.1,6.2,0.1c29.9,0,54.1-9.7,54.1-21.6V55.1C119,67,94.8,76.7,64.9,76.7z"/><path fill="#FFF" d="M64.9,33.4c-29.9,0-54.1,9.7-54.1,21.6h54.1l-7,13.8c-1.8,3.6,0.7,7.8,4.8,7.9c0.7,0,1.5,0,2.3,0c0.7,0,1.5,0,2.2,0c3,0,5.4,2.4,5.4,5.4l0,19.1c0,3,2.4,5.3,5.3,5.4c0,0,0,0,0,0c2.9,0,5.3-2.4,5.3-5.3L83.2,80c0-2.6,1.9-4.8,4.4-5.3l0.2,0c3.3-0.6,6.4,1.9,6.4,5.3l0,10.4c0,3,2.4,5.3,5.3,5.4c0,0,0,0,0,0c2.9,0,5.3-2.4,5.3-5.3l0.1-17.4c0-2,1.1-3.8,2.9-4.7c5.4-2.8,9.1-6.1,10.6-9.7c0.5-1.2,0.7-2.4,0.7-3.5C119,43.1,94.8,33.4,64.9,33.4z"/><path fill="#3F4A54" d="M119 58.1c-1.7 0-3-1.3-3-3 0-8.8-21-18.6-51.1-18.6-27.2 0-47.2 7.9-51.4 15.6h27c1.7 0 3 1.3 3 3s-1.3 3-3 3H12.2c-1.7 0-3.2-.8-4.2-2.2-1-1.3-1.2-3.1-.7-4.6 4.1-12.1 28.3-20.9 57.6-20.9C97.4 30.4 122 41 122 55.1 122 56.7 120.7 58.1 119 58.1zM99.4 98.8c-2.2 0-4.3-.9-5.9-2.5-1.6-1.6-2.4-3.7-2.4-5.9 0-1.7 1.3-3 3-3 0 0 0 0 0 0 1.7 0 3 1.4 3 3 0 .6.2 1.2.7 1.7s1 .7 1.7.7c1.3 0 2.3-1 2.3-2.3l.1-17.4c0-3.1 1.7-6 4.5-7.4.9-.4 1.7-.9 2.4-1.4 1.4-.9 3.3-.4 4.1 1 .9 1.4.4 3.3-1 4.1-.9.5-1.8 1.1-2.8 1.6-.7.4-1.2 1.2-1.2 2.1l-.1 17.4C107.7 95 104 98.8 99.4 98.8z"/><path fill="#3F4A54" d="M77.8,109.5c-2.2,0-4.3-0.9-5.9-2.5c-1.6-1.6-2.4-3.7-2.4-5.9l0-8.3c0-1.7,1.4-3,3-3c1.7,0,3,1.4,3,3l0,8.3c0,0.6,0.2,1.2,0.7,1.7s1,0.7,1.7,0.7c1.3,0,2.3-1,2.3-2.3L80.2,80c0-4,2.9-7.5,6.9-8.2l0.1,0c2.5-0.5,5,0.2,6.9,1.8s3,4,3,6.5c0,1.6-1.4,3-3,3c0,0,0,0,0,0c-1.7,0-3-1.4-3-3c0-1-0.5-1.6-0.9-1.8c-0.3-0.3-1-0.7-2-0.5l-0.1,0c-1.1,0.2-2,1.2-2,2.4l-0.1,21.2C86.1,105.8,82.4,109.5,77.8,109.5z"/><path fill="#3F4A54" d="M72.5 85C72.5 85 72.5 85 72.5 85c-1.7 0-3-1.4-3-3 0-.6-.2-1.2-.7-1.7-.4-.4-1-.7-1.6-.7-1.6 0-3.1 0-4.7 0-2.9-.1-5.5-1.6-7-4.1-1.5-2.5-1.6-5.5-.3-8.1l7.1-13.9c.8-1.5 2.6-2.1 4-1.3 1.5.8 2.1 2.6 1.3 4l-7.1 13.9c-.5 1-.1 1.9.1 2.2.2.3.8 1.1 2 1.1 1.5 0 3 0 4.5 0 2.2 0 4.4.8 5.9 2.4 1.6 1.6 2.5 3.7 2.5 6C75.5 83.7 74.1 85 72.5 85zM51.4 58.1c-.2 0-.4 0-.6-.1-.2 0-.4-.1-.6-.2-.2-.1-.4-.2-.5-.3-.2-.1-.3-.2-.4-.4-.6-.6-.9-1.3-.9-2.1 0-.2 0-.4.1-.6 0-.2.1-.4.2-.6.1-.2.2-.4.3-.5.1-.2.2-.3.4-.5.1-.1.3-.3.4-.4.2-.1.3-.2.5-.3.2-.1.4-.1.6-.2 1-.2 2 .1 2.7.8.1.1.3.3.4.5.1.2.2.3.3.5.1.2.1.4.2.6 0 .2.1.4.1.6 0 .2 0 .4-.1.6 0 .2-.1.4-.2.6-.1.2-.2.4-.3.5-.1.2-.2.3-.4.5C52.9 57.8 52.2 58.1 51.4 58.1z"/><g><path fill="#3F4A54" d="M64.9,123c-2,0-3.9,0-5.9-0.1c-4.5-0.2-8-3.9-8-8.4l0.1-27.4c0-1.7,1.3-3,3-3c0,0,0,0,0,0c1.7,0,3,1.4,3,3L57,114.5c0,1.3,1,2.4,2.3,2.4c1.9,0.1,3.8,0.1,5.6,0.1c30.1,0,51.1-9.8,51.1-18.6c0-1.7,1.3-3,3-3s3,1.3,3,3C122,112.4,97.4,123,64.9,123z"/></g><g><path fill="#3F4A54" d="M54,101.4H16.2c-4.6,0-8.4-3.8-8.4-8.4V65.9c0-1.7,1.3-3,3-3s3,1.3,3,3v27.1c0,1.3,1.1,2.4,2.4,2.4H54c1.7,0,3,1.3,3,3S55.7,101.4,54,101.4z"/></g><g><path fill="#3F4A54" d="M119,78.1c-1.7,0-3-1.3-3-3v-20c0-1.7,1.3-3,3-3s3,1.3,3,3v20C122,76.7,120.7,78.1,119,78.1z"/></g><g><path fill="#3F4A54" d="M119,90.1c-0.2,0-0.4,0-0.6-0.1c-0.2,0-0.4-0.1-0.6-0.2c-0.2-0.1-0.3-0.2-0.5-0.3c-0.2-0.1-0.3-0.2-0.5-0.4c-0.1-0.1-0.3-0.3-0.4-0.5c-0.1-0.2-0.2-0.3-0.3-0.5c-0.1-0.2-0.1-0.4-0.2-0.6c0-0.2-0.1-0.4-0.1-0.6c0-0.2,0-0.4,0.1-0.6c0-0.2,0.1-0.4,0.2-0.6c0.1-0.2,0.2-0.4,0.3-0.5c0.1-0.2,0.2-0.3,0.4-0.5c0.1-0.1,0.3-0.3,0.5-0.4c0.2-0.1,0.3-0.2,0.5-0.3c0.2-0.1,0.4-0.1,0.6-0.2c0.4-0.1,0.8-0.1,1.2,0c0.2,0,0.4,0.1,0.6,0.2c0.2,0.1,0.4,0.2,0.5,0.3c0.2,0.1,0.3,0.2,0.5,0.4c0.1,0.1,0.3,0.3,0.4,0.5c0.1,0.2,0.2,0.3,0.3,0.5c0.1,0.2,0.1,0.4,0.2,0.6c0,0.2,0.1,0.4,0.1,0.6c0,0.2,0,0.4-0.1,0.6c0,0.2-0.1,0.4-0.2,0.6c-0.1,0.2-0.2,0.4-0.3,0.5c-0.1,0.2-0.2,0.3-0.4,0.5c-0.1,0.1-0.3,0.3-0.5,0.4c-0.2,0.1-0.3,0.2-0.5,0.3c-0.2,0.1-0.4,0.1-0.6,0.2C119.4,90,119.2,90.1,119,90.1z"/></g></svg>