<svg xmlns="http://www.w3.org/2000/svg" id="Layer_1" x="0" y="0" version="1.1" viewBox="0 0 128 128" xml:space="preserve"><circle cx="52" cy="36" r="32" fill="#e4e4e7"/><path fill="#444b54" d="M62,49c-0.8,0-1.5-0.3-2.1-0.9l-10-10C49.3,37.6,49,36.8,49,36V21c0-1.7,1.3-3,3-3s3,1.3,3,3v13.8l9.1,9.1 c1.2,1.2,1.2,3.1,0,4.2C63.5,48.7,62.8,49,62,49z"/><path fill="#444b54" d="M24.6,55.5c-1,0-2-0.5-2.6-1.4c-3.3-5.4-5-11.7-5-18.1C17,16.7,32.7,1,52,1c8.1,0,16,2.8,22.3,8 c1.3,1.1,1.5,2.9,0.4,4.2c-1.1,1.3-2.9,1.5-4.2,0.4C65.3,9.4,58.7,7,52,7C36,7,23,20,23,36c0,5.3,1.4,10.5,4.2,15 c0.9,1.4,0.4,3.3-1,4.1C25.7,55.4,25.1,55.5,24.6,55.5z"/><path fill="#fff" d="M102.3,86.7c5.2-18,13.9-44.7-2.3-44.7L87,86v20"/><circle cx="22" cy="106" r="18" fill="#fff"/><circle cx="106" cy="106" r="18" fill="#fff"/><path fill="#fff" d="M124,106c0-9.9-8.1-18-18-18s-18,8.1-18,18H124z"/><path fill="#fff" d="M40,66h18c0.8,0,1.6,0.2,2.3,0.5c2.7,1.2,4,4.3,3.2,7.2L54,106H4v-4C4,82.1,20.1,66,40,66z"/><path fill="#444b54" d="M14,69H4c-1.7,0-3-1.3-3-3s1.3-3,3-3h10c1.7,0,3,1.3,3,3S15.7,69,14,69z"/><path fill="#444b54" d="M106,85c-0.1,0-0.1,0-0.2,0c0.4-1.4,0.8-2.9,1.2-4.5c3.7-14,7.9-29.8,2-37.4c-1.4-1.8-4.1-4-9-4 c-1.3,0-2.5,0.9-2.9,2.1l-13,44c-0.5,1.6,0.4,3.3,2,3.7c1.6,0.5,3.3-0.4,3.7-2l12.3-41.6c1.1,0.3,1.7,0.9,2.1,1.4 c4.1,5.3-0.2,21.5-3,32.2c-0.7,2.5-1.3,4.9-1.8,7c0,0,0,0.1,0,0.1C91,88.9,85,96.7,85,106c0,1.7,1.3,3,3,3h32.7 c-0.6,2.9-2,5.5-4.1,7.6c-2.8,2.8-6.6,4.4-10.6,4.4c-4.4,0-8.5-1.9-11.4-5.2c-1.1-1.3-3-1.4-4.2-0.3c-1.3,1.1-1.4,3-0.3,4.2 c4,4.6,9.8,7.3,15.9,7.3c5.6,0,10.9-2.2,14.8-6.2s6.2-9.2,6.2-14.8C127,94.4,117.6,85,106,85z M91.3,103c1.4-6.8,7.5-12,14.7-12 s13.3,5.2,14.7,12H91.3z"/><path fill="#444b54" d="M74.5,97.2c-4.9,3.4-10.5,5.3-16.4,5.8l8.4-28.4c1.3-4.4-0.8-9-4.9-10.8C60.4,63.2,59.2,63,58,63H34 c-1.7,0-3,1.3-3,3s1.3,3,3,3h24c0.4,0,0.8,0.1,1.2,0.2c1.3,0.5,1.9,2.1,1.5,3.6L51.8,103H7v-1c0-7.6,2.6-15,7.4-20.9 c1-1.3,0.9-3.2-0.4-4.2c-1.3-1-3.2-0.9-4.2,0.4C4.1,84.3,1,93,1,102v4c0,1.7,1.3,3,3,3h32.7c-1.4,6.8-7.5,12-14.7,12 c-4.4,0-8.6-1.9-11.4-5.3c-1.1-1.3-3-1.4-4.2-0.3c-1.3,1.1-1.4,3-0.3,4.2c4,4.7,9.8,7.4,16,7.4c10.6,0,19.3-7.8,20.8-18h12.9 c8,0,15.6-2.4,22.2-6.9c1.4-0.9,1.7-2.8,0.8-4.2C77.7,96.6,75.8,96.2,74.5,97.2z"/><path fill="#444b54" d="M114,9h-3c-6.1,0-11.3,4.3-12.6,10H86c-1.7,0-3,1.3-3,3s1.3,3,3,3h12.4c1.4,5.7,6.5,10,12.6,10h3 c1.7,0,3-1.3,3-3V12C117,10.3,115.6,9,114,9z M111,29c-3.8,0-7-3.2-7-7s3.1-7,7-7V29z"/><g><path fill="#444b54" d="M124,109H88c-1.7,0-3-1.3-3-3s1.3-3,3-3h36c1.7,0,3,1.3,3,3S125.7,109,124,109z"/></g></svg>