<svg xmlns="http://www.w3.org/2000/svg" viewBox="0 0 128 128"><path fill="#e5e3e3" d="M83.5,118.2h-39c-5.5,0-10-4.5-10-10V19.8c0-5.5,4.5-10,10-10h39c5.5,0,10,4.5,10,10v88.5 C93.5,113.8,89,118.2,83.5,118.2z"/><path fill="#454b54" d="M64.1 103.80000000000001A4.6 4.6 0 1 0 64.1 113 4.6 4.6 0 1 0 64.1 103.80000000000001zM69.7 22.8H58.3c-1.7 0-3-1.3-3-3s1.3-3 3-3h11.4c1.7 0 3 1.3 3 3S71.4 22.8 69.7 22.8z"/><path fill="#fff" d="M34.5 29L93.5 29 93.5 99 34.5 99 34.5 29"/><path fill="#e6e7e7" d="M93.5 29L34.5 29 34.5 68.7 93.5 68.7 93.5 29"/><path fill="#454b54" d="M93.5 102h-59c-1.7 0-3-1.3-3-3s1.3-3 3-3h59c1.7 0 3 1.3 3 3S95.1 102 93.5 102zM93.5 32h-59c-1.7 0-3-1.3-3-3s1.3-3 3-3h59c1.7 0 3 1.3 3 3S95.1 32 93.5 32z"/><path fill="#454b54" d="M83.5,121.2h-39c-7.2,0-13-5.8-13-13V19.8c0-7.2,5.8-13,13-13h39c7.2,0,13,5.8,13,13v88.5 C96.5,115.4,90.7,121.2,83.5,121.2z M44.5,12.8c-3.9,0-7,3.1-7,7v88.5c0,3.9,3.1,7,7,7h39c3.9,0,7-3.1,7-7V19.8c0-3.9-3.1-7-7-7 C83.5,12.8,44.5,12.8,44.5,12.8z"/><path fill="#f48884" d="M104.1,42.7v8c0,2.8-2.2,5-5,5H28.9c-2.8,0-5-2.2-5-5v-8l10.4-14h59.4L104.1,42.7z"/><path fill="#f48884" d="M104.1,42.7v8c0,2.8-2.2,5-5,5H28.9c-2.8,0-5-2.2-5-5v-8H104.1z"/><path fill="#454b54" d="M35.1 58.7h-6.2c-1.7 0-3-1.3-3-3s1.3-3 3-3h6.2c1.7 0 3 1.3 3 3S36.8 58.7 35.1 58.7zM81.1 58.7H70.9c-1.7 0-3-1.3-3-3s1.3-3 3-3h10.2c1.7 0 3 1.3 3 3S82.8 58.7 81.1 58.7zM57.1 58.7H46.9c-1.7 0-3-1.3-3-3s1.3-3 3-3h10.2c1.7 0 3 1.3 3 3S58.8 58.7 57.1 58.7zM99.1 58.7h-6.2c-1.7 0-3-1.3-3-3s1.3-3 3-3h6.2c1.7 0 3 1.3 3 3S100.8 58.7 99.1 58.7z"/><path fill="#fff" d="M84 45.4c-1.2 0-2.4-.7-2.8-2l-5.1-13.7c-.6-1.6.2-3.3 1.8-3.9 1.6-.6 3.3.2 3.9 1.8l5.1 13.7c.6 1.6-.2 3.3-1.8 3.9C84.7 45.4 84.3 45.4 84 45.4zM44 45.4c-.3 0-.7-.1-1-.2-1.6-.6-2.4-2.3-1.8-3.8l4.9-13.7c.6-1.6 2.3-2.4 3.8-1.8 1.6.6 2.4 2.3 1.8 3.8l-4.9 13.7C46.4 44.7 45.2 45.4 44 45.4zM64 45.4c-1.6 0-3-1.3-3-3l-.1-13.7c0-1.7 1.3-3 3-3l0 0c1.6 0 3 1.3 3 3L67 42.4C67 44.1 65.7 45.4 64 45.4L64 45.4z"/><path fill="#454b54" d="M99.1,58.7c-1.7,0-3-1.3-3-3s1.3-3,3-3c1.1,0,2-0.9,2-2v-7l-8.9-12H35.8l-8.9,12v7c0,1.1,0.9,2,2,2 c1.7,0,3,1.3,3,3s-1.3,3-3,3c-4.4,0-8-3.6-8-8v-8c0-0.6,0.2-1.3,0.6-1.8l10.4-14c0.6-0.8,1.5-1.2,2.4-1.2h59.4 c0.9,0,1.8,0.4,2.4,1.2l10.4,14c0.4,0.5,0.6,1.1,0.6,1.8v8C107.1,55.2,103.5,58.7,99.1,58.7z"/><path fill="#454b54" d="M104.1,45.7L104.1,45.7H25c-1.7,0-3-1.3-3-3s1.3-3,3-3l0,0h79.1c1.7,0,3,1.3,3,3 S105.8,45.7,104.1,45.7z"/></svg>