<svg xmlns="http://www.w3.org/2000/svg" viewBox="0 0 128 128"><path fill="#444b54" d="M90,2.8C74.8,2.8,62.5,15,62,30.7c-0.4,14.5,13.5,33.6,21.8,43.6c1.5,1.8,3.8,2.9,6.2,2.9s4.6-1.1,6.2-2.9c8.3-10.1,22.3-29.1,21.8-43.6C117.5,15,105.2,2.8,90,2.8z"/><path fill="#fff" d="M90 20.8A10 10 0 1 0 90 40.8A10 10 0 1 0 90 20.8Z"/><g><path fill="#71c2ff" d="M56.7,126.5c-1.2,0-2.4-0.8-2.8-2L30,58.8c-0.6-1.6,0.2-3.3,1.8-3.8c1.6-0.6,3.3,0.2,3.8,1.8l23.9,65.8c0.6,1.6-0.2,3.3-1.8,3.8C57.4,126.5,57.1,126.5,56.7,126.5z"/><path fill="#71c2ff" d="M15.2 100.1c-1.2 0-2.4-.8-2.8-2-.6-1.6.2-3.3 1.8-3.8L42.4 84c1.6-.6 3.3.2 3.8 1.8.6 1.6-.2 3.3-1.8 3.8L16.2 99.9C15.9 100.1 15.5 100.1 15.2 100.1zM47.8 67c-1.2 0-2.4-.8-2.8-2-.6-1.6.2-3.3 1.8-3.8l9.4-3.4c1.6-.6 3.3.2 3.8 1.8s-.2 3.3-1.8 3.8l-9.4 3.4C48.5 66.9 48.2 67 47.8 67zM51.9 78.2c-1.2 0-2.4-.7-2.8-2-.6-1.6.2-3.3 1.8-3.9L65 67.2c1.6-.6 3.3.2 3.9 1.8.6 1.6-.2 3.3-1.8 3.9L53 78.1C52.6 78.2 52.3 78.2 51.9 78.2zM101.5 97.5c-1.2 0-2.4-.8-2.8-2l-3.4-9.4c-.6-1.6.2-3.3 1.8-3.8 1.6-.6 3.3.2 3.8 1.8l3.4 9.4c.6 1.6-.2 3.3-1.8 3.8C102.2 97.4 101.8 97.5 101.5 97.5z"/><path fill="#71c2ff" d="M60.5,101.7c-1.2,0-2.4-0.8-2.8-2c-0.6-1.6,0.2-3.3,1.8-3.8l47-17.1c1.6-0.6,3.3,0.2,3.8,1.8c0.6,1.6-0.2,3.3-1.8,3.8l-47,17.1C61.2,101.7,60.8,101.7,60.5,101.7z"/><path fill="#71c2ff" d="M68 122.4c-1.2 0-2.4-.8-2.8-2L49.1 76.3c-.6-1.6.2-3.3 1.8-3.8 1.6-.6 3.3.2 3.8 1.8l16.1 44.2c.6 1.6-.2 3.3-1.8 3.8C68.7 122.4 68.3 122.4 68 122.4zM47.8 67c-1.2 0-2.4-.8-2.8-2l-3.8-10.3c-.6-1.6.2-3.3 1.8-3.8 1.6-.6 3.3.2 3.8 1.8l3.8 10.3c.6 1.6-.2 3.3-1.8 3.8C48.5 66.9 48.2 67 47.8 67z"/></g></svg>