<svg xmlns="http://www.w3.org/2000/svg" width="128" height="128" viewBox="0 0 128 128"><path fill="#FFF" d="M59.8,32.6L114,54H68.1H14C14,43.2,33.9,34.2,59.8,32.6z"/><path fill="#FFEC7B" d="M14 54H114V94H14z"/><path fill="#EFC71D" d="M14 79H114V94H14z"/><path fill="#3F4A54" d="M114 97H14c-1.7 0-3-1.3-3-3V54c0-1.7 1.3-3 3-3s3 1.3 3 3v37h94v-9c0-1.7 1.3-3 3-3s3 1.3 3 3v12C117 95.7 115.7 97 114 97zM114 72c-.8 0-1.6-.3-2.1-.9-.1-.1-.3-.3-.4-.4-.1-.2-.2-.3-.3-.5-.1-.2-.1-.4-.2-.6 0-.2-.1-.4-.1-.6 0-.2 0-.4.1-.6 0-.2.1-.4.2-.6.1-.2.2-.3.3-.5.1-.2.2-.3.4-.5s.3-.3.5-.4c.2-.1.3-.2.5-.3.2-.1.4-.1.6-.2.4-.1.8-.1 1.2 0 .2 0 .4.1.6.2.2.1.4.2.5.3.2.1.3.2.5.4.1.1.3.3.4.5.1.2.2.3.3.5.1.2.1.4.2.6 0 .2.1.4.1.6 0 .2 0 .4-.1.6 0 .2-.1.4-.2.6s-.2.4-.3.5c-.1.2-.2.3-.4.4-.1.1-.3.3-.5.4-.2.1-.3.2-.5.3-.2.1-.4.1-.6.2C114.4 72 114.2 72 114 72z"/><path fill="#3F4A54" d="M114,57c-0.4,0-0.7-0.1-1.1-0.2L59.3,35.6C41,36.9,21.6,42.9,17.7,51h50.4c1.7,0,3,1.3,3,3s-1.3,3-3,3H14 c-1.7,0-3-1.3-3-3c0-12.6,20-22.6,48.6-24.4c0.4,0,0.9,0,1.3,0.2l54.2,21.4c1.5,0.6,2.3,2.4,1.7,3.9C116.3,56.3,115.2,57,114,57z"/></svg>