<svg xmlns="http://www.w3.org/2000/svg" id="Layer_1" x="0" y="0" version="1.1" viewBox="0 0 128 128" xml:space="preserve"><circle cx="28" cy="46" r="14" fill="#fff"/><path fill="#b5a809" d="M54.9,108.3c-1.6-6.6-3.9-12.9-6.8-18.9C41.8,76.5,35,70,28,70c-7,0-13.7,6.5-20,19.2c-3,6-5.3,12.4-6.9,19.1 c-0.2,0.9,0,1.8,0.6,2.6c0.6,0.7,1.4,1.1,2.4,1.1h48c0.9,0,1.8-0.4,2.4-1.1C54.9,110.1,55.1,109.2,54.9,108.3z"/><path fill="#444b54" d="M28,63c-9.4,0-17-7.6-17-17s7.6-17,17-17s17,7.6,17,17S37.4,63,28,63z M28,35c-6.1,0-11,4.9-11,11 s4.9,11,11,11s11-4.9,11-11S34.1,35,28,35z"/><path fill="#fff" d="M4,109h92.5c4.1,0,7.5,3.4,7.5,7.5v0c0,4.1-3.4,7.5-7.5,7.5H4V109z"/><path fill="#444b54" d="M96.5,127H4c-1.7,0-3-1.3-3-3s1.3-3,3-3h92.5c2.5,0,4.5-2,4.5-4.5s-2-4.5-4.5-4.5H4c-1.7,0-3-1.3-3-3 s1.3-3,3-3h92.5c5.8,0,10.5,4.7,10.5,10.5S102.3,127,96.5,127z"/><path fill="#fff" d="M89,4c19.3,0,35,7,35,26.5c0,12.9-6.9,20.4-17.2,23.9l0,0l0,0c-0.7,0.2-1.4,0.5-2.1,0.7 c-5,1.4-26.4,1.4-31.4,0l-2.1-0.7C60.9,50.9,54,43.4,54,30.5C54,11,69.7,4,89,4z"/><path fill="#444b54" d="M104.4,73c-0.6,0-1.2-0.2-1.7-0.5L91.5,65c-1.6-1.1-2.6-2.8-2.8-4.7c-0.1-1.8,0.5-3.6,1.9-4.8 c1-1,2.3-1.5,3.7-1.6C112,52.4,121,44.6,121,30.5C121,11.1,103.6,7,89,7s-32,4.1-32,23.5c0,11,4.7,17.5,15.2,21.1 c1.6,0.5,2.4,2.2,1.9,3.8c-0.5,1.6-2.2,2.4-3.8,1.9C57.3,52.8,51,44,51,30.5C51,11.5,64.5,1,89,1s38,10.5,38,29.5 c0,17.3-11.4,27.7-32.2,29.3c-0.1,0-0.1,0-0.1,0c0,0,0.1,0.1,0.2,0.2l11.1,7.5c1.4,0.9,1.7,2.8,0.8,4.2 C106.3,72.5,105.3,73,104.4,73z"/><path fill="#444b54" d="M89,47.2c-0.2,0-0.4,0-0.6-0.1c-0.2,0-0.4-0.1-0.6-0.2c-0.2-0.1-0.3-0.2-0.5-0.3c-0.2-0.1-0.3-0.2-0.5-0.4 C86.3,45.8,86,45,86,44.2s0.3-1.6,0.9-2.1c1.1-1.1,3.1-1.1,4.2,0c0.6,0.6,0.9,1.3,0.9,2.1s-0.3,1.6-0.9,2.1 c-0.1,0.1-0.3,0.3-0.5,0.4c-0.2,0.1-0.3,0.2-0.5,0.3c-0.2,0.1-0.4,0.1-0.6,0.2C89.4,47.2,89.2,47.2,89,47.2z"/><path fill="#444b54" d="M89.1,37.2c-1.7,0-3-1.3-3-3s1.3-3,3-3c2.5,0,4.5-2,4.5-4.5s-2-4.5-4.5-4.5c-1.3,0-2.5,0.5-3.3,1.5 c-1.1,1.2-3,1.3-4.2,0.2c-1.2-1.1-1.3-3-0.2-4.2c2-2.2,4.8-3.5,7.8-3.5c5.8,0,10.5,4.7,10.5,10.5S94.9,37.2,89.1,37.2z"/></svg>