<svg xmlns="http://www.w3.org/2000/svg" viewBox="0 0 128 128"><path fill="#71c2ff" d="M64,3c-4.4,0-8.3,2.3-10.5,6.1l-8.8,15.2c-0.8,1.4-0.3,3.3,1.1,4.1c1.4,0.8,3.3,0.3,4.1-1.1l8.8-15.2	C59.8,10.2,61.8,9,64,9s4.2,1.2,5.3,3.1L95.3,57L81,53.2c-1.6-0.4-3.2,0.5-3.7,2.1c-0.4,1.6,0.5,3.2,2.1,3.7l21.2,5.7	c0.3,0.1,0.5,0.1,0.8,0.1c1.3,0,2.5-0.9,2.9-2.2l5.7-21.2c0.4-1.6-0.5-3.2-2.1-3.7c-1.6-0.4-3.2,0.5-3.7,2.1L100.5,54L74.5,9.1	C72.3,5.3,68.4,3,64,3z"/><path fill="#444b54" d="M112.3,105H60.5l10.4-10.4c1.2-1.2,1.2-3.1,0-4.2c-1.2-1.2-3.1-1.2-4.2,0l-15.6,15.6c-0.6,0.6-0.9,1.3-0.9,2.1	s0.3,1.6,0.9,2.1l15.6,15.6c0.6,0.6,1.4,0.9,2.1,0.9s1.5-0.3,2.1-0.9c1.2-1.2,1.2-3.1,0-4.2L60.5,111h51.8c4.4,0,8.3-2.3,10.5-6.1	c2.2-3.8,2.2-8.4,0-12.2l-8.8-15.2c-0.8-1.4-2.7-1.9-4.1-1.1c-1.4,0.8-1.9,2.7-1.1,4.1l8.8,15.2c1.1,1.9,1.1,4.2,0,6.2	C116.5,103.8,114.5,105,112.3,105z"/><path fill="#444b54" d="M5.2,104.9c2.2,3.8,6.1,6.1,10.5,6.1h17.5c1.7,0,3-1.3,3-3s-1.3-3-3-3H15.7c-2.2,0-4.2-1.2-5.3-3.1	c-1.1-1.9-1.1-4.2,0-6.2l25.9-44.9l3.8,14.3c0.4,1.3,1.6,2.2,2.9,2.2c0.3,0,0.5,0,0.8-0.1c1.6-0.4,2.5-2.1,2.1-3.7l-5.7-21.3	c-0.2-0.8-0.7-1.4-1.4-1.8c-0.7-0.4-1.5-0.5-2.3-0.3l-21.2,5.7c-1.6,0.4-2.5,2.1-2.1,3.7c0.4,1.6,2.1,2.5,3.7,2.1l14.3-3.8L5.2,92.7	C3,96.6,3,101.1,5.2,104.9z"/></svg>