<svg xmlns="http://www.w3.org/2000/svg" id="Layer_1" x="0" y="0" version="1.1" viewBox="0 0 128 128" xml:space="preserve"><path fill="#e2bea6" d="M21.4,124l-1.1-3.8c-0.1-0.5-0.2-1-0.2-1.5c0-1.8,1.4-3.5,2.6-5c0.4-0.5,0.8-1,1.1-1.4l0.8-1.1l-0.3-1.3 c-4.4-19-1.6-38.6,0.9-55.9c0.2-1.2,0.4-2.5,0.6-3.7l3-14.9l-2-1c-0.7-0.4-1.4-0.8-2-1.4c-3.1-2.9-3.8-7.4-1.7-11.1 c1.6-2.9,4.8-4.7,8.3-4.7h84.1c3.2,0,5.9,2.2,6.4,5.2c0.4,3.1-1.5,6-4.5,6.8l-2.8,0.8l0.7,2.8c5.7,24.6,10.3,51,4.5,76.4l-0.3,1.2 l0.6,1c0.2,0.3,0.4,0.6,0.6,0.9c1.6,2.5,3.1,4.8,2.6,7.4c-0.5,2.5-2.8,4.3-5.5,4.3H21.4z"/><path fill="#bf8f83" d="M47 60H97V80H47z"/><path fill="#bf8f83" d="M97,83H47c-1.7,0-3-1.3-3-3V60c0-1.7,1.3-3,3-3h50c1.7,0,3,1.3,3,3v20C100,81.7,98.7,83,97,83z M50,77h44V63 H50V77z"/><path fill="#444b54" d="M123.3 110.7c-.2-.3-.4-.6-.6-.9 6.1-26.6 1.1-53.9-4.5-77.8 3.9-1 6.8-4.6 6.8-8.8 0-5-4.1-9.1-9.1-9.1h-7.6c-22-13.9-50.2-13.9-72.2 0h-5c-6.7 0-12.1 5.4-12.1 12.1 0 3.3 1.4 6.6 3.8 8.8 2.2 2.1 5.2 3.2 8.2 3.2.3 0 .6 0 .8 0l10.4-.7c1.7-.1 2.9-1.5 2.8-3.2-.1-1.7-1.6-2.9-3.2-2.8l-10.4.7c-1.7.1-3.3-.5-4.6-1.6-1.2-1.2-1.9-2.7-1.9-4.4 0-3.3 2.7-6.1 6.1-6.1h84.8c1.7 0 3.1 1.4 3.1 3.1 0 1.6-1.3 3-2.9 3.1l-56.5 4c-1.7.1-2.9 1.5-2.8 3.2.1 1.7 1.6 2.9 3.2 2.8l52.2-3.7c5.6 23.7 10.7 50.9 4.4 77 0 .1 0 .1 0 .2 0 .1 0 .2 0 .3 0 .1 0 .2 0 .3 0 .1 0 .2 0 .3 0 .1 0 .2.1.3 0 .1 0 .2.1.3 0 .1.1.2.1.3 0 .1 0 .1.1.2 0 0 0 .1.1.1 0 0 0 0 0 0 .4.7.8 1.4 1.2 2.1 1 1.6 2.2 3.5 2.2 4.8 0 1.3-1 2.3-2.3 2.3H111 25.3c-1.3 0-2.3-1-2.3-2.4 0-.7 1.1-2.1 2-3.1.8-1 1.7-2.1 2.3-3.3.3-.6.4-1.4.2-2.1l-.2-.7c-4.4-18.6-1.6-38.2 1.2-57.1l.3-2.2c.2-1.6-.9-3.2-2.5-3.4-1.6-.2-3.2.9-3.4 2.5l-.3 2.2c-2.8 19.4-5.7 39.4-1.2 58.9-.3.4-.7.8-1 1.3-1.5 1.8-3.3 4.1-3.3 6.9 0 .8.1 1.6.3 2.3H15c-1.7 0-3 1.3-3 3s1.3 3 3 3h10.3H111h7.1c4.6 0 8.3-3.7 8.3-8.3C126.4 115.6 124.7 113 123.3 110.7zM4 121A3 3 0 1 0 4 127 3 3 0 1 0 4 121z"/></svg>