<svg xmlns="http://www.w3.org/2000/svg" viewBox="0 0 128 128"><path fill="#444b54" d="M126.1,76.8c-0.6-0.6-1.3-0.9-2.1-0.9l-35,0c-3.8,0-7.6-1.3-10.5-3.8L78.3,72c-4-3.3-9.1-5.1-14.3-5.1 c-5.2,0-10.3,1.8-14.3,5.1l-0.1,0.1c-3,2.4-6.7,3.8-10.5,3.8l-35,0c-1.7,0-3,1.3-3,3V124c0,1.7,1.3,3,3,3h120c1.7,0,3-1.3,3-3V78.9 C127,78.1,126.7,77.3,126.1,76.8z"/><path fill="#fff" d="M58.4,108.4c-0.8,0-1.5-0.3-2.1-0.9c-1.2-1.2-1.2-3.1,0-4.2l3.9-3.9c-0.5-3.1-1-10.2,0.7-22 c0.2-1.6,1.8-2.8,3.4-2.5c1.6,0.2,2.8,1.8,2.5,3.4c-2.1,14.6-0.5,21.3-0.5,21.3c0.3,1,0,2.1-0.8,2.9l-5,5 C59.9,108.2,59.1,108.4,58.4,108.4z"/><path fill="#fff" d="M73.4,113.4c-0.8,0-1.5-0.3-2.1-0.9l-10-10c-1.2-1.2-1.2-3.1,0-4.2c1.2-1.2,3.1-1.2,4.2,0l10,10 c1.2,1.2,1.2,3.1,0,4.2C74.9,113.2,74.1,113.4,73.4,113.4z"/><path fill="#71c2ff" d="M68.2 42.3c-.5-1.6-2.2-2.5-3.7-2-1.6.5-2.5 2.2-2 3.7.9 2.9 1.1 7.9.5 13.5-.2 1.6 1 3.1 2.7 3.3.1 0 .2 0 .3 0 1.5 0 2.8-1.2 3-2.7C69.4 54.4 69.8 47.3 68.2 42.3zM66 35.4c2.5-6.8 2.1-14.1-.9-20.6-3-6.5-8.5-11.5-15.2-14C48.3.2 46.6 1 46 2.6c-2.5 6.8-2.1 14.1.9 20.6 3 6.5 8.5 11.5 15.2 14 .3.1.7.2 1 .2C64.4 37.4 65.5 36.6 66 35.4zM44.6 36.1c-4.4-.4-8.7 1-12 3.8-1.3 1.1-1.4 3-.4 4.2 2.8 3.4 6.8 5.4 11.2 5.8.5 0 1 .1 1.5.1 3.9 0 7.6-1.3 10.6-3.9 1.3-1.1 1.4-3 .4-4.2C53 38.5 49 36.5 44.6 36.1z"/><g><path fill="#fff" d="M75.9,34.7L75.9,34.7c-0.5-0.1-0.9-0.6-0.8-1.1l0,0c2.4-13.6,15.3-22.6,28.9-20.2l0,0 c0.5,0.1,0.9,0.6,0.8,1.1l0,0C102.4,28,89.5,37.1,75.9,34.7z"/><path fill="#71c2ff" d="M80.3,38.1c-1.6,0-3.3-0.1-4.9-0.4c0,0,0,0,0,0c-2.1-0.4-3.6-2.4-3.2-4.6c1.3-7.4,5.4-13.8,11.5-18 c6.1-4.3,13.5-5.9,20.9-4.6c2.1,0.4,3.6,2.4,3.2,4.6c-1.3,7.4-5.4,13.8-11.5,18C91.5,36.3,86,38.1,80.3,38.1z M78.6,32 c5.1,0.4,10.1-1,14.3-3.9c4.2-2.9,7.2-7.2,8.5-12.1c-5.1-0.4-10.1,1-14.3,3.9C82.9,22.9,80,27.1,78.6,32z"/></g></svg>