<svg xmlns="http://www.w3.org/2000/svg" width="128" height="128" viewBox="0 0 128 128"><path fill="#fff" d="M91.2 104.8L111 60.7 81 60.7"/><path fill="#f2b630" d="M90.5,72l0.1-0.1C83.9,55.5,67.8,44,49,44C30.8,44,15.2,54.8,8.1,70.3C5.5,76,4,82.3,4,89c0,13.6,6,25.7,15.5,34h17.9l0.1,0.2h40.9C88,115,94,102.8,94,89.2C94,83.1,92.8,77.3,90.5,72z"/><path fill="#ea9e06" d="M76.5,121c9.2-8,14.5-19.6,14.5-31.7c0-5.6-1.1-11-3.2-16.1c-0.6-1.5,0.1-3.3,1.6-3.9c1.5-0.6,3.3,0.1,3.9,1.6c2.4,5.9,3.7,12.1,3.7,18.4c0,13.9-6,27.1-16.6,36.3C79.9,126,75.2,122.1,76.5,121z"/><path fill="#444b54" d="M101.6 84.6c-.4 0-.8-.1-1.2-.3-1.5-.7-2.2-2.5-1.5-4l7.5-16.7H101c-1.7 0-3-1.3-3-3s1.3-3 3-3h10c1 0 2 .5 2.5 1.4.6.9.6 1.9.2 2.9l-9.4 20.9C103.9 83.9 102.8 84.6 101.6 84.6zM4 63.7c-1.7 0-3-1.3-3-3V24C1 11.3 11.3 1 24 1h50c12.7 0 23 10.3 23 23v22.8c0 1.7-1.3 3-3 3s-3-1.3-3-3V24c0-9.4-7.6-17-17-17H24C14.6 7 7 14.6 7 24v36.7C7 62.4 5.7 63.7 4 63.7z"/><path fill="#444b54" d="M93.4,70.7c-6.6-16-21-26.9-37.8-29.2C57.7,39.6,59,37,59,34c0-5.5-4.5-10-10-10s-10,4.5-10,10c0,3,1.3,5.6,3.4,7.5C26.3,43.7,12.2,54,5.3,69C2.5,75.3,1,82,1,89c0,13.9,6,27.1,16.6,36.3c0.5,0.5,1.2,0.7,2,0.7h40.9c1.7,0,3-1.3,3-3s-1.3-3-3-3H20.7C12,112,7,100.8,7,89c0-6.1,1.3-12,3.8-17.5c1.3-2.8,2.8-5.4,4.7-7.8H64c1.7,0,3-1.3,3-3s-1.3-3-3-3H21C28.6,51,38.5,47,49,47c17.1,0,32.3,10.2,38.8,26c0.6,1.5,2.4,2.3,3.9,1.6C93.3,74,94,72.2,93.4,70.7z M49,38c-2.2,0-4-1.8-4-4s1.8-4,4-4s4,1.8,4,4S51.2,38,49,38z"/><path fill="#adf9d2" d="M78.3,123h1.4c15.6,0,28.3-12.7,28.3-28.3v-1.4h-1.4c-15.6,0-28.3,12.7-28.3,28.3V123z"/><path fill="#adf9d2" d="M78.3,123l1-1c8.8-8.8,10.6-22,5.3-32.6c-1.3-2.7-3.1-5.2-5.3-7.4l-1-1l-1,1c-11,11-11,29,0,40L78.3,123z"/><path fill="#444b54" d="M108,90.3h-1.4c-15.2,0-27.8,10.8-30.7,25.2c-5.9-9.3-5.1-21.7,2.4-30.1c1.4,1.6,2.7,3.5,3.6,5.4c0.7,1.5,2.5,2.1,4,1.3c1.5-0.7,2.1-2.5,1.3-4c-1.5-3-3.5-5.8-5.9-8.2l-1-1c-1.2-1.2-3.1-1.2-4.2,0l-1,1c-12.2,12.2-12.2,32,0,44.2l1,1c0.5,0.5,1.3,0.9,2.1,0.9h1.4C97,126,111,112,111,94.7v-1.4C111,91.6,109.7,90.3,108,90.3z M81.5,119.9C81.5,119.9,81.5,119.9,81.5,119.9c-0.1-0.1-0.1-0.1-0.1-0.1c0.9-12.6,11-22.7,23.6-23.5C104.2,109,94.1,119.1,81.5,119.9z"/><path fill="#fff" d="M12.5 105.9c-1.2 0-2.3-.7-2.8-1.9C7.9 99.1 7 94.1 7 89c0-6.1 1.3-12 3.8-17.5.7-1.5 2.5-2.2 4-1.5 1.5.7 2.2 2.5 1.5 4-2.2 4.7-3.2 9.7-3.2 15 0 4.4.8 8.7 2.4 12.8.6 1.5-.2 3.3-1.7 3.9C13.3 105.8 12.9 105.9 12.5 105.9zM17.8 109.4A3 3 0 1 0 17.8 115.4 3 3 0 1 0 17.8 109.4z"/></svg>