<svg xmlns="http://www.w3.org/2000/svg" id="Layer_1" x="0" y="0" version="1.1" viewBox="0 0 128 128" xml:space="preserve"><path fill="#71c2ff" d="M108,24H36.5c-1.6,0-3.1,0.6-4.2,1.8L15.8,42.2c-1.1,1.1-1.8,2.7-1.8,4.2V118c0,3.3,2.7,6,6,6h71.5 c1.6,0,3.1-0.6,4.2-1.8l16.5-16.5c1.1-1.1,1.8-2.7,1.8-4.2V30C114,26.7,111.3,24,108,24z"/><path fill="#71c2ff" d="M14,60v58c0,3.3,2.7,6,6,6h71.5c1.6,0,3.1-0.6,4.2-1.8l16.5-16.5c1.1-1.1,1.8-2.7,1.8-4.2V40L94,60H14z"/><path fill="#fff" d="M58.2,103.4c-4.4,0-7.4-3.8-10.1-7.1c-1.3-1.7-3.3-4.1-4.5-4.4c-0.8,0.7-2.2,2.7-3.4,4.4c-0.9,1.2-1.9,2.6-3,4 c-1,1.3-2.9,1.5-4.2,0.5c-1.3-1-1.5-2.9-0.5-4.2c1-1.3,2-2.7,2.9-3.9c3.1-4.2,4.7-6.5,7.2-6.8c4.4-0.6,7.5,3.2,10.2,6.6 c1.8,2.2,4.1,5,5.6,4.9c1.1-0.1,2.5-1.5,3.9-2.8c2.2-2.1,5-4.8,8.9-4.4c1.1,0.1,2.2,0.4,3.3,1c1.5,0.7,2.1,2.5,1.4,4 c-0.7,1.5-2.5,2.1-4,1.4c-0.5-0.2-0.9-0.4-1.2-0.4c-1.1-0.1-2.6,1.3-4.1,2.8c-2,1.9-4.2,4.1-7.4,4.4 C58.8,103.4,58.5,103.4,58.2,103.4z M43.9,91.7L43.9,91.7z"/><path fill="#71c2ff" d="M94,118c1.6,0,0.6,5.3,1.8,4.2l16.5-16.5c1.1-1.1,1.8-2.7,1.8-4.2V25L94,45V118z"/><path fill="#444b54" d="M94,63c-1.7,0-3-1.3-3-3V46.5c0-2.4,0.9-4.7,2.6-6.4l16.2-16.2c1.2-1.2,3.1-1.2,4.2,0c1.2,1.2,1.2,3.1,0,4.2 L97.9,44.4c-0.6,0.6-0.9,1.3-0.9,2.1V60C97,61.7,95.7,63,94,63z"/><path fill="#444b54" d="M88,127H20c-5,0-9-4-9-9V74c0-1.7,1.3-3,3-3s3,1.3,3,3v44c0,1.7,1.3,3,3,3h68c1.7,0,3-1.3,3-3V74 c0-1.7,1.3-3,3-3s3,1.3,3,3v44C97,123,93,127,88,127z"/><path fill="#444b54" d="M94,63H14c-1.7,0-3-1.3-3-3s1.3-3,3-3h78.8l19.1-19.1c1.2-1.2,3.1-1.2,4.2,0c1.2,1.2,1.2,3.1,0,4.2l-20,20 C95.6,62.7,94.8,63,94,63z"/><path fill="#444b54" d="M87.8,127c-1.7,0-3-1.3-3-3s1.3-3,3-3c3.2,0,6.2-1.2,8.5-3.5l13.8-13.8c0.6-0.6,0.9-1.3,0.9-2.1V40 c0-1.7,1.3-3,3-3s3,1.3,3,3v61.5c0,2.4-0.9,4.7-2.6,6.4l-13.8,13.8C97.1,125.1,92.6,127,87.8,127z"/><path fill="#444b54" d="M31.9,76.1c-0.1,0-0.2,0-0.3,0c-1.7-0.1-2.9-1.6-2.7-3.3c1.3-14.8,6.3-31.5,13.7-45.8C46,20.4,54.8,5,62.8,4.8 c0,0,0.1,0,0.1,0c9,0,10.5,16.5,13,43.8c0.7,7.8,1.5,15.9,2.5,24c0.2,1.6-1,3.1-2.6,3.3c-1.6,0.2-3.1-1-3.3-2.6 c-1-8.2-1.8-16.3-2.5-24.2c-1-10.6-1.9-20.6-3.2-27.8c-1.8-10-3.8-10.6-3.8-10.6c-1.6,0-7.7,4.8-14.9,18.9 c-7,13.7-11.8,29.6-13.1,43.6C34.7,74.9,33.4,76.1,31.9,76.1z"/><path fill="#444b54" d="M89.3,26.1c-1,0-2-0.5-2.6-1.5c-2.1-3.7-4.8-6.7-8-9c-1.4-1-1.7-2.8-0.7-4.2c1-1.4,2.8-1.7,4.2-0.7 c3.9,2.7,7.2,6.4,9.7,10.9c0.8,1.4,0.3,3.3-1.1,4.1C90.3,25.9,89.8,26.1,89.3,26.1z"/></svg>