<svg xmlns="http://www.w3.org/2000/svg" viewBox="0 0 100 100"><path d="M83.59,88.773c-1.112,0-2.213-0.288-3.182-0.833l-6.113-3.423c-2.478,0.578-5.034,0.871-7.628,0.871 c-10.02,0-18.969-4.398-24.12-11.667c-0.124,0.001-0.248,0.002-0.371,0.002c-2.923,0-5.825-0.334-8.521-0.976L25.495,77.8 c-1.023,0.636-2.208,0.974-3.421,0.974c-1.455,0-2.886-0.497-4.028-1.398c-2.146-1.7-3.002-4.575-2.138-7.161l1.931-5.792 c-5.835-5.376-9.006-12.343-9.006-19.95c0-16.126,15.01-29.246,33.459-29.246c14.993,0,27.905,8.582,32.061,20.844 c12.244,2.957,20.814,12.702,20.814,24.203c0,5.974-2.305,11.55-6.556,16.002l1.219,4.178c0.74,2.547-0.12,5.256-2.192,6.906 C86.489,88.272,85.053,88.773,83.59,88.773z" opacity=".35"/><path fill="#f2f2f2" d="M81.59,86.773c-1.112,0-2.213-0.288-3.182-0.833l-6.113-3.423c-2.478,0.578-5.034,0.871-7.628,0.871 c-10.02,0-18.969-4.398-24.12-11.667c-0.124,0.001-0.248,0.002-0.371,0.002c-2.923,0-5.825-0.334-8.521-0.976L23.495,75.8 c-1.023,0.636-2.208,0.974-3.421,0.974c-1.455,0-2.886-0.497-4.028-1.398c-2.146-1.7-3.002-4.575-2.138-7.161l1.931-5.792 c-5.835-5.376-9.006-12.343-9.006-19.95c0-16.126,15.01-29.246,33.459-29.246c14.993,0,27.905,8.582,32.061,20.844 c12.244,2.957,20.814,12.702,20.814,24.203c0,5.974-2.305,11.55-6.556,16.002l1.219,4.178c0.74,2.547-0.12,5.256-2.192,6.906 C84.489,86.272,83.053,86.773,81.59,86.773z"/><path fill="#96c362" d="M40.292,19.727c-14.827,0-26.958,10.109-26.958,22.746c0,7.245,3.875,13.479,10.109,17.691 l-3.37,10.109l10.615-6.571c2.864,1.011,6.234,1.516,9.604,1.516c14.827,0,26.958-10.109,26.958-22.746 S55.119,19.727,40.292,19.727z"/><path fill="#d9eeff" d="M86.667,59.116c0-9.928-9.44-17.903-21.158-17.903s-21.158,7.975-21.158,17.903 s9.44,17.903,21.158,17.903c2.93,0,5.696-0.488,8.138-1.302l8.138,4.557l-2.279-7.812C83.9,69.206,86.667,64.486,86.667,59.116z"/><path fill="#40396e" d="M81.59,81.773c-0.252,0-0.504-0.063-0.732-0.191l-7.894-4.42c-2.658,0.814-5.445,1.227-8.297,1.227 c-9.358,0-17.635-4.598-21.418-11.803c-4.424,0.398-8.742-0.079-12.371-1.237l-10.015,6.201c-0.536,0.333-1.225,0.293-1.721-0.099 c-0.495-0.392-0.692-1.052-0.492-1.651l3.017-9.051c-6.352-4.653-9.834-11.104-9.834-18.276c0-13.369,12.767-24.246,28.459-24.246 c13.943,0,25.769,8.595,28.054,20.177c11.379,1.514,19.821,9.886,19.821,19.87c0,5.557-2.556,10.646-7.221,14.437l2.084,7.144 c0.17,0.584-0.03,1.214-0.507,1.594C82.252,81.663,81.922,81.773,81.59,81.773z M73.128,74.035c0.254,0,0.507,0.064,0.732,0.191 l5.263,2.946L77.78,72.57c-0.176-0.603,0.043-1.251,0.548-1.625c4.41-3.267,6.839-7.767,6.839-12.671 c0-8.756-7.845-16.07-18.247-17.012c-0.694-0.062-1.254-0.596-1.351-1.286c-1.495-10.688-12.361-18.749-25.277-18.749 c-14.038,0-25.459,9.531-25.459,21.246c0,6.489,3.355,12.331,9.449,16.449c0.558,0.376,0.796,1.079,0.583,1.717l-2.059,6.179 l7.091-4.391c0.387-0.239,0.86-0.291,1.289-0.139c3.616,1.277,8.16,1.764,12.769,1.208c0.652-0.08,1.274,0.273,1.546,0.869 c3.041,6.697,10.564,11.024,19.166,11.024c2.719,0,5.48-0.441,7.986-1.276C72.809,74.061,72.969,74.035,73.128,74.035z"/><circle cx="30" cy="35" r="3" fill="#407845"/><circle cx="50" cy="35" r="3" fill="#407845"/><circle cx="57.5" cy="54.5" r="2.5" fill="#707cc0"/><circle cx="72.5" cy="54.5" r="2.5" fill="#707cc0"/></svg>