<svg xmlns="http://www.w3.org/2000/svg" id="Layer_1" x="0" y="0" version="1.1" viewBox="0 0 128 128" xml:space="preserve"><path fill="#8f7a89" d="M90 4H106V32H90z"/><path fill="#009f96" d="M106,44V32H90v12c-8.8,6.3-14,16.4-14,27.2V121l8,6h36V71.2C120,60.4,114.8,50.3,106,44z"/><path fill="#8f7a89" d="M57.5 97.8A13 13 0 1 0 57.5 123.8A13 13 0 1 0 57.5 97.8Z" transform="rotate(-60 57.547 110.754)"/><path fill="#8f7a89" d="M84.5 97.8A13 13 0 1 0 84.5 123.8A13 13 0 1 0 84.5 97.8Z" transform="rotate(-60 84.548 110.755)"/><path fill="#8f7a89" d="M31.1 97.5A13 13 0 1 0 31.1 123.5A13 13 0 1 0 31.1 97.5Z" transform="rotate(-60 31.128 110.512)"/><path fill="#fff" d="M44.1 75A13 13 0 1 0 44.1 101A13 13 0 1 0 44.1 75Z" transform="rotate(-60 44.129 87.995)"/><path fill="#8f7a89" d="M71.1 75A13 13 0 1 0 71.1 101A13 13 0 1 0 71.1 75Z" transform="rotate(-60 71.13 87.996)"/><path fill="#8f7a89" d="M44.1 75A13 13 0 1 0 44.1 101A13 13 0 1 0 44.1 75Z" transform="rotate(-60 44.129 87.995)"/><path fill="#8f7a89" d="M57.1 52.5A13 13 0 1 0 57.1 78.5A13 13 0 1 0 57.1 52.5Z" transform="rotate(-60 57.13 65.478)"/><path fill="#fff" d="M120,88.2h-10c-1.7,0-3,1.3-3,3v33.2c0,1.7,1.3,3,3,3h10C120,127,120,88,120,88.2z"/><path fill="#444b54" d="M99.4 106.9c-1.1-4.1-3.8-7.6-7.5-9.7 0 0 0 0 0 0-2.2-1.3-4.6-1.9-7-2.1 2.3-4.9 2-10.8-1-15.4-.9-1.4-2.7-1.8-4.1-.9-1.4.9-1.8 2.7-.9 4.1 2.1 3.3 2.1 7.4 0 10.7-2.7 4.3-8.6 5.9-13.1 3.5-.2-.1-.4-.2-.6-.4-2.4-1.5-4-4-4.3-6.9-.4-3.1.7-6.2 2.9-8.4l3.8-3.8c0 0 0 0 0 0 1.3-1.2 2.5-2.5 3.4-4.1 2.1-3.7 2.7-8 1.6-12.1-1.1-4.1-3.8-7.6-7.5-9.7-7.6-4.4-17.4-1.8-21.9 5.9-2.1 3.7-2.7 8-1.6 12.1.2.9.5 1.7.9 2.5-5 .5-9.6 3.3-12.3 7.9-2.1 3.7-2.7 8-1.6 12.1.2.9.5 1.7.9 2.5-5 .5-9.6 3.3-12.3 7.9-2.1 3.7-2.7 8-1.6 12.1 1.1 4.1 3.8 7.6 7.5 9.7 2.5 1.4 5.2 2.2 8 2.2 1.4 0 2.8-.2 4.2-.6 3.7-1 6.8-3.2 9-6.3 1.3 2 3.1 3.7 5.3 5 2.5 1.4 5.2 2.2 8 2.2 1.4 0 2.8-.2 4.2-.6 3.7-1 6.8-3.2 9-6.3 1.3 2 3.1 3.7 5.3 5 2.5 1.4 5.2 2.2 8 2.2 1.4 0 2.8-.2 4.2-.6 4.1-1.1 7.6-3.8 9.7-7.5C100 115.3 100.5 111 99.4 106.9zM48.5 60.5c1.9-3.2 5.2-5 8.7-5 1.7 0 3.4.4 5 1.3 4.8 2.8 6.4 8.9 3.7 13.7-1.3 2.3-3.5 4-6.1 4.7-2.6.7-5.3.3-7.6-1s-4-3.5-4.7-6.1S47.1 62.8 48.5 60.5zM35.5 83c1.9-3.2 5.2-5 8.7-5 1.7 0 3.4.4 5 1.3 2.3 1.3 4 3.5 4.7 6.1.7 2.6.3 5.3-1 7.6s-3.5 4-6.1 4.7c-2.6.7-5.3.3-7.6-1-2.3-1.3-4-3.5-4.7-6.1S34.1 85.3 35.5 83zM39.8 115.5c-1.3 2.3-3.5 4-6.1 4.7-2.6.7-5.3.3-7.6-1-2.3-1.3-4-3.5-4.7-6.1s-.3-5.3 1-7.6c1.9-3.2 5.2-5 8.7-5 1.7 0 3.4.4 5 1.3 2.3 1.3 4 3.5 4.7 6.1C41.5 110.5 41.1 113.2 39.8 115.5zM66.2 115.8c-2.8 4.8-8.9 6.4-13.7 3.7-4.8-2.8-6.4-8.9-3.7-13.7 1.3-2.3 3.5-4 6.1-4.7.9-.2 1.7-.3 2.6-.3 1.7 0 3.4.5 5 1.3C67.3 104.8 69 111 66.2 115.8zM92.6 116c-2.8 4.8-8.9 6.4-13.7 3.7-2.3-1.3-4-3.5-4.7-6.1s-.3-5.3 1-7.6c1.9-3.2 5.2-5 8.7-5 1.7 0 3.4.4 5 1.3C93.7 105.1 95.4 111.2 92.6 116zM24 72.9l-5.4-3.1c.9-2.5 1.1-5.3.6-8-.7-4.2-3.1-7.9-6.6-10.3-1.4-.9-3.2-.6-4.2.7-1 1.4-.6 3.2.7 4.2 2.2 1.5 3.6 3.8 4.1 6.5.5 2.6-.1 5.3-1.6 7.5-1.5 2.2-4 3.7-6.6 4.1-1.6.3-2.8 1.8-2.5 3.4.2 1.5 1.5 2.5 3 2.5.2 0 .3 0 .5 0 3.7-.6 7.2-2.5 9.6-5.4l5.4 3.1c.5.3 1 .4 1.5.4 1 0 2-.5 2.6-1.5C25.9 75.6 25.4 73.7 24 72.9zM109 42.5V4c0-1.7-1.3-3-3-3H90c-1.7 0-3 1.3-3 3v38.5c-2.4 1.9-4.6 4.1-6.5 6.6-1 1.3-.8 3.2.6 4.2 1.3 1 3.2.8 4.2-.6 1.8-2.4 4-4.5 6.5-6.3C92.5 45.9 93 45 93 44v-9h10v9c0 1 .5 1.9 1.3 2.4 8 5.7 12.7 15 12.7 24.8v53.2c0 1.7 1.3 3 3 3s3-1.3 3-3V71.2C123 60 117.8 49.4 109 42.5zM93 29V7h10v22H93z"/></svg>