<svg xmlns="http://www.w3.org/2000/svg" id="Layer_1" x="0" y="0" version="1.1" viewBox="0 0 128 128" xml:space="preserve"><polygon fill="#fff" points="56,4 56,33 64,38 72,33 72,4"/><path fill="#fff0b3" d="M72,41v-8H56v8c-8.8,6.3-14,16.4-14,27.2V116c0,4.4,3.6,8,8,8h28c4.4,0,8-3.6,8-8V68.2 C86,57.4,80.8,47.3,72,41z"/><path fill="#fff" d="M48.4,54.3c0.8-1.5,0.2-3.3-1.3-4c-1.5-0.8-3.3-0.2-4,1.3c-2.6,5.1-4,10.9-4,16.7c0,1.7,1.3,3,3,3s3-1.3,3-3 c0-0.7,0-0.7,0,0V76c0,1.7,1.3,3,3,3s3-1.3,3-3v-7.8c0-4.6,1.3-9,3.7-12.9c0.9-1.4,0.4-3.3-1-4.1c-1.4-0.9-3.3-0.4-4.1,1"/><path fill="#f2b630" d="M80,114c-1.7,0-3-1.3-3-3V68.2c0-3-0.5-5.9-1.6-8.6c-0.6-1.5,0.2-3.3,1.7-3.9c1.6-0.6,3.3,0.2,3.9,1.7 c1.3,3.5,2,7.1,2,10.7V111C83,112.7,81.7,114,80,114z"/><path fill="#fff" d="M87,72H65c-1.7,0-3,1.3-3,3v28c0,1.7,1.3,3,3,3h22V72z"/><rect width="9" height="34" x="77" y="72" fill="#fff0b3"/><path fill="#444b54" d="M45.7,55.9c-0.5,0-0.9-0.1-1.4-0.3c-1.5-0.8-2.1-2.6-1.3-4c2.4-4.7,5.8-8.8,10-12V28c0-1.7,1.3-3,3-3 s3,1.3,3,3v13c0,1-0.5,1.9-1.3,2.4c-3.9,2.8-7.2,6.6-9.4,10.8C47.8,55.3,46.8,55.9,45.7,55.9z"/><path fill="#444b54" d="M78,127H50c-6.1,0-11-4.9-11-11V68.2c0-1.7,1.3-3,3-3s3,1.3,3,3V116c0,2.8,2.2,5,5,5h28c2.8,0,5-2.2,5-5 V68.2c0-9.8-4.8-19.1-12.7-24.8C69.5,42.9,69,42,69,41V19H56c-1.7,0-3-1.3-3-3V4c0-1.7,1.3-3,3-3h16c1.7,0,3,1.3,3,3v35.5 c8.8,6.9,14,17.5,14,28.7V116C89,122.1,84.1,127,78,127z M59,13h10V7H59V13z"/><circle cx="48" cy="91" r="3" fill="#fff"/></svg>